<svg id="Base" xmlns="http://www.w3.org/2000/svg" xmlns:xlink="http://www.w3.org/1999/xlink" viewBox="0 0 767 767.8"><defs><style>.cls-1{fill:url(#Dégradé_sans_nom_5);}.cls-2{fill:url(#Atelier_CLUC);}.cls-3{fill-rule:evenodd;fill:url(#Atelier_CLUC-2);}.cls-4{fill:url(#Atelier_CLUC-3);}.cls-5{fill:url(#Atelier_CLUC-4);}.cls-6{fill:url(#Atelier_CLUC-5);}.cls-7{fill:url(#Atelier_CLUC-6);}.cls-8{fill:url(#Atelier_CLUC-7);}</style><radialGradient id="Dégradé_sans_nom_5" cx="384" cy="384" fx="167.45241308547736" fy="551.8053633856041" r="356.3" gradientUnits="userSpaceOnUse"><stop offset="0.1" stop-color="#00684f"/><stop offset="0.71" stop-color="#00563c"/></radialGradient><linearGradient id="Atelier_CLUC" x1="400.12" y1="177.39" x2="404.92" y2="748.88" gradientTransform="translate(1084.27 136.71) rotate(90)" gradientUnits="userSpaceOnUse"><stop offset="0.01" stop-color="#dab954"/><stop offset="0.19" stop-color="#d1ae55"/><stop offset="0.6" stop-color="#d6ab18"/><stop offset="0.87" stop-color="#dcb45f"/><stop offset="1" stop-color="#ebdbca"/></linearGradient><linearGradient id="Atelier_CLUC-2" x1="724.62" y1="176.54" x2="490.94" y2="178.51" gradientTransform="matrix(1, 0, 0, 1, 0, 0)" xlink:href="#Atelier_CLUC"/><linearGradient id="Atelier_CLUC-3" x1="289.86" y1="444.94" x2="210.77" y2="445.61" gradientTransform="matrix(1, 0, 0, 1, 0, 0)" xlink:href="#Atelier_CLUC"/><linearGradient id="Atelier_CLUC-4" x1="353.6" y1="458.13" x2="300.99" y2="458.57" gradientTransform="matrix(1, 0, 0, 1, 0, 0)" xlink:href="#Atelier_CLUC"/><linearGradient id="Atelier_CLUC-5" x1="418.34" y1="458.13" x2="365.74" y2="458.57" gradientTransform="matrix(1, 0, 0, 1, 0, 0)" xlink:href="#Atelier_CLUC"/><linearGradient id="Atelier_CLUC-6" x1="484.18" y1="437.66" x2="430.32" y2="438.11" gradientTransform="matrix(1, 0, 0, 1, 0, 0)" xlink:href="#Atelier_CLUC"/><linearGradient id="Atelier_CLUC-7" x1="553" y1="458.1" x2="496.54" y2="458.58" gradientTransform="matrix(1, 0, 0, 1, 0, 0)" xlink:href="#Atelier_CLUC"/></defs><path id="Background" class="cls-1" d="M499.8.1c76.7,0,115.1,0,156.5,13a161.15,161.15,0,0,1,97.4,97.4c13.8,43,13.8,81.3,13.8,158V500.2c0,76.7,0,115.1-13,156.5a161.15,161.15,0,0,1-97.4,97.4c-41.4,13.8-79.8,13.8-158,13.8H268.2c-76.7,0-115.1,0-156.5-13-45.3-17.6-81.3-52.2-97.4-98.2C.5,615.3.5,576.9.5,499.4V267.8c0-76.7,0-115.1,13-156.5C30.4,66,66.4,30,110.9,13.9,153.1.1,191.5.1,268.2.1Z" transform="translate(-0.5 -0.1)"/><path id="Aiguille" class="cls-2" d="M758.71,538.24a19.79,19.79,0,0,0-19.77-19.76,18.62,18.62,0,0,0-2,.1L447.63,535a3.25,3.25,0,0,0,0,6.49l289.17,16.4a18.79,18.79,0,0,0,2.14.12A19.79,19.79,0,0,0,758.71,538.24Zm-21.81,6.4a5.58,5.58,0,0,1-.72,0l-.19,0-32.48-2a4.37,4.37,0,0,1,0-8.7l.36-.06,32.29-2c.24,0,.49,0,.74,0a6.41,6.41,0,0,1,0,12.81Z" transform="translate(-0.5 -0.1)"/><path id="GeoLoc" class="cls-3" d="M517.51,220.82l90,112.46,90-112.46a122.54,122.54,0,0,0,26.84-76.53v-5.7a116.82,116.82,0,1,0-233.63,0v5.7A122.49,122.49,0,0,0,517.51,220.82Zm90-43.29a38.94,38.94,0,1,0-38.94-38.94A38.94,38.94,0,0,0,607.48,177.53Z" transform="translate(-0.5 -0.1)"/><g id="Acces"><path class="cls-4" d="M211.15,491.27l34-92.29h11l34,92.29h-14L250.7,416.82l-25.58,74.45ZM226.83,471V458.71h48.56V471Z" transform="translate(-0.5 -0.1)"/><path class="cls-5" d="M329.54,492.23q-13.59,0-21.05-7.49T301,463.6V452.74q0-13.51,7.45-20.91t21.05-7.4a34.4,34.4,0,0,1,14,2.73,23.69,23.69,0,0,1,9.9,7.81l-9.33,8.38a18.8,18.8,0,0,0-14.34-6.6q-7.5,0-11.62,4.19T314,452.74V463.6q0,7.8,4.12,12.06t11.62,4.25a17.59,17.59,0,0,0,7.87-1.84,19.16,19.16,0,0,0,6.47-5.2l9.33,9a23.81,23.81,0,0,1-9.93,7.65A34.79,34.79,0,0,1,329.54,492.23Z" transform="translate(-0.5 -0.1)"/><path class="cls-6" d="M394.28,492.23q-13.57,0-21-7.49t-7.46-21.14V452.74q0-13.51,7.46-20.91t21-7.4a34.41,34.41,0,0,1,14,2.73,23.75,23.75,0,0,1,9.9,7.81l-9.33,8.38a18.84,18.84,0,0,0-14.35-6.6q-7.49,0-11.61,4.19t-4.13,11.8V463.6q0,7.8,4.13,12.06t11.61,4.25a17.56,17.56,0,0,0,7.87-1.84,19.19,19.19,0,0,0,6.48-5.2l9.33,9a23.87,23.87,0,0,1-9.93,7.65A34.84,34.84,0,0,1,394.28,492.23Z" transform="translate(-0.5 -0.1)"/><path class="cls-7" d="M459.41,492.23q-13.77,0-21.33-7.68t-7.55-21.84v-7.43q0-14.71,7.27-22.78t20.47-8.07q12.44,0,19.26,9.14t6.83,25.65v4.32H439.92V453.12H472q-.57-8-4.16-12.5a11.66,11.66,0,0,0-9.61-4.51q-7.31,0-11.36,4.83t-4.07,13.65V463q0,8.19,4.35,12.57t12.22,4.38a20.6,20.6,0,0,0,7.81-1.58,22.48,22.48,0,0,0,6.92-4.45l8.5,8.51a36,36,0,0,1-11,7.27A31.36,31.36,0,0,1,459.41,492.23ZM456,412.69l-19.36-21.33,9.33-7.74,18.16,22.53Z" transform="translate(-0.5 -0.1)"/><path class="cls-8" d="M525.43,492.23a46.87,46.87,0,0,1-15.91-2.57,38,38,0,0,1-12.79-7.72l7.69-9.45a44.72,44.72,0,0,0,10.63,6.09,28.62,28.62,0,0,0,10.38,2c5.11,0,9-.79,11.52-2.38a7.86,7.86,0,0,0,3.84-7.14q0-3.68-2.57-5.21a17.16,17.16,0,0,0-6.73-2c-2.77-.31-5.75-.58-8.92-.79-2.67-.21-5.31-.54-7.94-1a23.16,23.16,0,0,1-7.17-2.42,12.86,12.86,0,0,1-5.17-5.17,18.69,18.69,0,0,1-1.94-9.2q0-10.49,6.41-15.68t19.11-5.21a47.71,47.71,0,0,1,14.41,2.1,42,42,0,0,1,12.5,6.41L545,442.4a42.87,42.87,0,0,0-9.75-4.76,29.58,29.58,0,0,0-9.36-1.59q-6.6,0-9.9,2.25a7.65,7.65,0,0,0-3.3,6.76,4.56,4.56,0,0,0,2.28,4.29,15.26,15.26,0,0,0,6,1.68c2.5.25,5.19.49,8.06.7s5.54.47,8.35.92a24.25,24.25,0,0,1,7.78,2.57,14.35,14.35,0,0,1,5.71,5.65q2.16,3.75,2.16,10.22,0,10.61-6.89,15.87T525.43,492.23Z" transform="translate(-0.5 -0.1)"/></g></svg>