<?xml version="1.0" encoding="utf-8"?>
<!-- Generator: Adobe Illustrator 24.1.1, SVG Export Plug-In . SVG Version: 6.00 Build 0)  -->
<svg version="1.1" id="Base" xmlns="http://www.w3.org/2000/svg" xmlns:xlink="http://www.w3.org/1999/xlink" x="0px" y="0px"
	 viewBox="0 0 768 768" style="enable-background:new 0 0 768 768;" xml:space="preserve">
<style type="text/css">
	.st0{fill:url(#Background_1_);}
	.st1{fill:url(#Aiguille_1_);}
	.st2{display:none;}
	.st3{display:inline;}
	.st4{fill-rule:evenodd;clip-rule:evenodd;fill:url(#clock_1_);}
	.st5{display:inline;fill:url(#SVGID_1_);}
	.st6{display:inline;fill:url(#SVGID_2_);}
	.st7{display:inline;fill:url(#SVGID_3_);}
	.st8{display:inline;fill:url(#SVGID_4_);}
	.st9{display:inline;fill:url(#SVGID_5_);}
	.st10{display:inline;fill:url(#SVGID_6_);}
	.st11{display:inline;fill:url(#SVGID_7_);}
	.st12{display:inline;fill:url(#SVGID_8_);}
	.st13{display:inline;fill:url(#SVGID_9_);}
	.st14{display:inline;fill:url(#SVGID_10_);}
	.st15{display:inline;fill:url(#SVGID_11_);}
	.st16{display:inline;fill:url(#SVGID_12_);}
	.st17{display:inline;fill:url(#SVGID_13_);}
	.st18{display:inline;fill:url(#SVGID_14_);}
	.st19{display:inline;fill:url(#SVGID_15_);}
	.st20{display:inline;fill:url(#SVGID_16_);}
	.st21{display:inline;fill:url(#SVGID_17_);}
	.st22{display:inline;fill:url(#SVGID_18_);}
	.st23{display:inline;fill:url(#SVGID_19_);}
	.st24{display:inline;fill:url(#SVGID_20_);}
	.st25{display:inline;fill:url(#SVGID_21_);}
	.st26{display:inline;fill:url(#SVGID_22_);}
	.st27{display:inline;fill:url(#SVGID_23_);}
	.st28{display:inline;fill:url(#SVGID_24_);}
	.st29{display:inline;fill:url(#SVGID_25_);}
	.st30{display:inline;fill:url(#SVGID_26_);}
	.st31{display:inline;fill:url(#SVGID_27_);}
	.st32{display:inline;fill:url(#SVGID_28_);}
	.st33{display:inline;fill:url(#SVGID_29_);}
	.st34{display:inline;fill:url(#SVGID_30_);}
	.st35{display:inline;fill:url(#SVGID_31_);}
	.st36{display:inline;fill:url(#SVGID_32_);}
	.st37{fill:url(#SVGID_33_);}
	.st38{fill:url(#SVGID_34_);}
	.st39{fill:url(#SVGID_35_);}
	.st40{fill:url(#SVGID_36_);}
	.st41{fill:url(#SVGID_37_);}
	.st42{fill:url(#SVGID_38_);}
	.st43{display:inline;fill:url(#SVGID_39_);}
	.st44{display:inline;fill:url(#SVGID_40_);}
	.st45{display:inline;fill:url(#SVGID_41_);}
	.st46{display:inline;fill:url(#SVGID_42_);}
	.st47{display:inline;fill:url(#SVGID_43_);}
	.st48{display:inline;fill:url(#SVGID_44_);}
	.st49{display:inline;fill:url(#SVGID_45_);}
	.st50{display:inline;fill:url(#SVGID_46_);}
	.st51{display:inline;fill:url(#SVGID_47_);}
	.st52{display:inline;fill:url(#SVGID_48_);}
	.st53{display:inline;fill:url(#SVGID_49_);}
	.st54{display:none;fill-rule:evenodd;clip-rule:evenodd;fill:url(#GeoLoc_1_);}
	.st55{display:inline;fill:url(#SVGID_50_);}
	.st56{display:inline;fill:url(#SVGID_51_);}
	.st57{display:inline;fill:url(#SVGID_52_);}
	.st58{display:inline;fill:url(#SVGID_53_);}
	.st59{display:inline;fill:url(#SVGID_54_);}
	.st60{fill:url(#Maison_1_);}
	.st61{fill:url(#SVGID_55_);}
	.st62{fill:url(#SVGID_56_);}
	.st63{fill:url(#SVGID_57_);}
	.st64{fill:url(#SVGID_58_);}
	.st65{fill:url(#SVGID_59_);}
	.st66{fill:url(#SVGID_60_);}
	.st67{fill:url(#SVGID_61_);}
</style>
<radialGradient id="Background_1_" cx="384" cy="386" r="356.2965" fx="167.4524" fy="553.8054" gradientTransform="matrix(1 0 0 -1 0 770)" gradientUnits="userSpaceOnUse">
	<stop  offset="9.819999e-02" style="stop-color:#00684F"/>
	<stop  offset="0.7078" style="stop-color:#00563C"/>
</radialGradient>
<path id="Background_11_" class="st0" d="M499.8,0.1c76.7,0,115.1,0,156.5,13c45.3,16.1,81.3,52.2,97.4,97.4
	c13.8,43,13.8,81.3,13.8,158v231.7c0,76.7,0,115.1-13,156.5c-16.1,45.3-52.2,81.3-97.4,97.4c-41.4,13.8-79.8,13.8-158,13.8H268.2
	c-76.7,0-115.1,0-156.5-13c-45.3-17.6-81.3-52.2-97.4-98.2C0.5,615.3,0.5,576.9,0.5,499.4V267.8c0-76.7,0-115.1,13-156.5
	C30.4,66,66.4,30,110.9,13.9C153.1,0.1,191.5,0.1,268.2,0.1H499.8z"/>
<linearGradient id="Aiguille_1_" gradientUnits="userSpaceOnUse" x1="629.1179" y1="440.6113" x2="633.9205" y2="-130.8843" gradientTransform="matrix(0 1 1 0 466.2679 -89.2892)">
	<stop  offset="5.600000e-03" style="stop-color:#DAB954"/>
	<stop  offset="0.1854" style="stop-color:#D1AE55"/>
	<stop  offset="0.5955" style="stop-color:#D6AB18"/>
	<stop  offset="0.8708" style="stop-color:#DCB45F"/>
	<stop  offset="1" style="stop-color:#EBDBCA"/>
</linearGradient>
<path id="Aiguille" class="st1" d="M758.7,541.2c0-10.9-8.9-19.8-19.8-19.8c-0.7,0-1.5,0-2,0.1L447.6,538c-1.7,0.1-3.1,1.5-3.1,3.2
	s1.3,3.1,3.1,3.2l289.2,16.4c0.7,0.1,1.4,0.1,2.1,0.1C749.8,561,758.7,552.1,758.7,541.2z M736.9,547.6c-0.2,0-0.5,0-0.7,0
	c-0.1,0-0.1,0-0.2,0l-32.5-2c-2.2-0.2-3.9-2.1-3.9-4.4s1.7-4.1,3.9-4.4c0.1,0,0.2,0,0.4-0.1l32.3-1.9c0.2,0,0.5,0,0.7,0
	c3.5,0,6.4,2.9,6.4,6.4C743.3,544.8,740.4,547.6,736.9,547.6z"/>
<g id="Horloge" class="st2">
	<g id="Icon-Set-Filled" transform="translate(-414.000000, -361.000000)" class="st3">
		
			<linearGradient id="clock_1_" gradientUnits="userSpaceOnUse" x1="1571.0992" y1="607.5107" x2="1293.6648" y2="605.1793" gradientTransform="matrix(1 0 0 -1 -414 1131)">
			<stop  offset="5.600000e-03" style="stop-color:#DAB954"/>
			<stop  offset="0.1854" style="stop-color:#D1AE55"/>
			<stop  offset="0.5955" style="stop-color:#D6AB18"/>
			<stop  offset="0.8708" style="stop-color:#DCB45F"/>
			<stop  offset="1" style="stop-color:#EBDBCA"/>
		</linearGradient>
		<path id="clock" class="st4" d="M1105.1,516h17.3v17.3h-17.3V516z M1083.1,469.7l-12-12l12-12l12,12L1083.1,469.7L1083.1,469.7z
			 M1080.8,595.7l-12.3-12.3l12.3-12.3l12.3,12.3L1080.8,595.7L1080.8,595.7z M1027.1,524.9c0,4.8-3.9,8.7-8.7,8.7h-78
			c-4.8,0-8.7-3.9-8.7-8.7s3.9-8.7,8.7-8.7h69.4v-86.9c0-4.8,3.9-8.7,8.7-8.7c4.8,0,8.7,3.9,8.7,8.7L1027.1,524.9L1027.1,524.9z
			 M1009.7,611.4h17.3v17.3h-17.3V611.4z M950,595.9l-12-12l12-12l12,12L950,595.9L950,595.9z M951.4,445.8l12.3,12.3l-12.3,12.3
			l-12.3-12.3L951.4,445.8L951.4,445.8z M1018.4,385.9c-76.6,0-138.7,62.1-138.7,138.7c0,76.6,62.1,138.7,138.7,138.7
			s138.7-62.1,138.7-138.7C1157.1,448,1095,385.9,1018.4,385.9L1018.4,385.9z"/>
	</g>
</g>
<g id="Horaire" class="st2">
	
		<linearGradient id="SVGID_1_" gradientUnits="userSpaceOnUse" x1="204.8104" y1="325.3104" x2="138.6586" y2="324.7546" gradientTransform="matrix(1 0 0 -1 0 770)">
		<stop  offset="5.600000e-03" style="stop-color:#DAB954"/>
		<stop  offset="0.1854" style="stop-color:#D1AE55"/>
		<stop  offset="0.5955" style="stop-color:#D6AB18"/>
		<stop  offset="0.8708" style="stop-color:#DCB45F"/>
		<stop  offset="1" style="stop-color:#EBDBCA"/>
	</linearGradient>
	<path class="st5" d="M139,491.1v-92.3H152v92.3H139z M147.1,451.8v-12.3h51.2v12.3H147.1z M191.5,491.1v-92.3h12.9v92.3H191.5z"/>
	
		<linearGradient id="SVGID_2_" gradientUnits="userSpaceOnUse" x1="278.4853" y1="312.0582" x2="224.0593" y2="311.6008" gradientTransform="matrix(1 0 0 -1 0 770)">
		<stop  offset="5.600000e-03" style="stop-color:#DAB954"/>
		<stop  offset="0.1854" style="stop-color:#D1AE55"/>
		<stop  offset="0.5955" style="stop-color:#D6AB18"/>
		<stop  offset="0.8708" style="stop-color:#DCB45F"/>
		<stop  offset="1" style="stop-color:#EBDBCA"/>
	</linearGradient>
	<path class="st6" d="M251.3,492.1c-8.6,0-15.3-2.5-20.1-7.5c-4.7-5-7.1-12.1-7.1-21.2v-10.7c0-9,2.4-16,7.1-20.9s11.4-7.4,20.1-7.4
		c8.6,0,15.3,2.5,20.1,7.4c4.7,5,7.1,11.9,7.1,20.9v10.9c0,9.1-2.4,16.1-7.1,21C266.6,489.6,259.9,492.1,251.3,492.1z M251.3,479.8
		c4.5,0,8-1.4,10.5-4.3s3.7-6.8,3.7-11.9v-10.9c0-5.1-1.2-9.1-3.7-11.9s-6-4.2-10.5-4.2c-4.5,0-8,1.4-10.5,4.2
		c-2.5,2.8-3.7,6.8-3.7,11.9v10.9c0,5.1,1.2,9.1,3.7,11.9C243.3,478.3,246.8,479.8,251.3,479.8z"/>
	
		<linearGradient id="SVGID_3_" gradientUnits="userSpaceOnUse" x1="341.771" y1="312.5023" x2="296.5677" y2="312.1224" gradientTransform="matrix(1 0 0 -1 0 770)">
		<stop  offset="5.600000e-03" style="stop-color:#DAB954"/>
		<stop  offset="0.1854" style="stop-color:#D1AE55"/>
		<stop  offset="0.5955" style="stop-color:#D6AB18"/>
		<stop  offset="0.8708" style="stop-color:#DCB45F"/>
		<stop  offset="1" style="stop-color:#EBDBCA"/>
	</linearGradient>
	<path class="st7" d="M296.8,491.1v-65.9h12.9v65.9H296.8z M333.1,440.8c-1.1-1.4-2.6-2.5-4.3-3.2c-1.7-0.7-3.7-1.1-6-1.1
		c-4.1,0-7.3,1.1-9.6,3.4c-2.3,2.3-3.4,5.4-3.4,9.4l-1.3-12.7c2-3.9,4.6-6.9,7.8-9.1s6.8-3.3,10.7-3.3c3,0,5.7,0.4,8.2,1.3
		c2.4,0.9,4.6,2.1,6.4,3.8L333.1,440.8z"/>
	
		<linearGradient id="SVGID_4_" gradientUnits="userSpaceOnUse" x1="401.9154" y1="312.0598" x2="349.0379" y2="311.6155" gradientTransform="matrix(1 0 0 -1 0 770)">
		<stop  offset="5.600000e-03" style="stop-color:#DAB954"/>
		<stop  offset="0.1854" style="stop-color:#D1AE55"/>
		<stop  offset="0.5955" style="stop-color:#D6AB18"/>
		<stop  offset="0.8708" style="stop-color:#DCB45F"/>
		<stop  offset="1" style="stop-color:#EBDBCA"/>
	</linearGradient>
	<path class="st8" d="M373.4,492.1c-8.1,0-14.1-1.7-18.2-5c-4-3.3-6.1-8.5-6.1-15.4c0-6.6,1.9-11.5,5.6-14.7
		c3.7-3.2,9.3-4.9,16.7-4.9h18.7l0.9,10.4h-19.6c-3.3,0-5.9,0.8-7.6,2.3c-1.7,1.5-2.5,3.8-2.5,6.9c0,3.3,1.1,5.8,3.4,7.4
		c2.2,1.6,5.6,2.4,10.1,2.4c4.9,0,8.6-0.5,11-1.6s3.7-2.7,3.7-5l1.3,9.3c-1.1,1.8-2.6,3.2-4.3,4.4s-3.6,2-5.8,2.6
		C378.6,491.8,376.1,492.1,373.4,492.1z M389.5,491.1v-41.8c0-4.3-1.2-7.7-3.5-10.1c-2.3-2.4-5.6-3.6-9.8-3.6
		c-2.6,0-5.1,0.4-7.6,1.2c-2.5,0.8-4.8,1.9-6.8,3.4l-9.5-6.5c2.5-3,5.8-5.3,9.9-7c4.1-1.7,8.6-2.5,13.6-2.5c8.3,0,14.6,2.1,19.2,6.4
		c4.5,4.3,6.8,10.3,6.8,18.1v42.3L389.5,491.1L389.5,491.1z"/>
	
		<linearGradient id="SVGID_5_" gradientUnits="userSpaceOnUse" x1="434.8512" y1="325.0901" x2="421.1278" y2="324.9749" gradientTransform="matrix(1 0 0 -1 0 770)">
		<stop  offset="5.600000e-03" style="stop-color:#DAB954"/>
		<stop  offset="0.1854" style="stop-color:#D1AE55"/>
		<stop  offset="0.5955" style="stop-color:#D6AB18"/>
		<stop  offset="0.8708" style="stop-color:#DCB45F"/>
		<stop  offset="1" style="stop-color:#EBDBCA"/>
	</linearGradient>
	<path class="st9" d="M421.5,411.8v-12.9h12.9v12.9H421.5z M421.5,491.1v-65.9h12.9v65.9H421.5z"/>
	
		<linearGradient id="SVGID_6_" gradientUnits="userSpaceOnUse" x1="499.065" y1="312.5023" x2="453.8627" y2="312.1224" gradientTransform="matrix(1 0 0 -1 0 770)">
		<stop  offset="5.600000e-03" style="stop-color:#DAB954"/>
		<stop  offset="0.1854" style="stop-color:#D1AE55"/>
		<stop  offset="0.5955" style="stop-color:#D6AB18"/>
		<stop  offset="0.8708" style="stop-color:#DCB45F"/>
		<stop  offset="1" style="stop-color:#EBDBCA"/>
	</linearGradient>
	<path class="st10" d="M454.1,491.1v-65.9h12.9v65.9H454.1z M490.4,440.8c-1.1-1.4-2.6-2.5-4.3-3.2c-1.7-0.7-3.7-1.1-6-1.1
		c-4.1,0-7.3,1.1-9.6,3.4c-2.3,2.3-3.4,5.4-3.4,9.4l-1.3-12.7c2-3.9,4.6-6.9,7.8-9.1c3.2-2.2,6.8-3.3,10.7-3.3c3,0,5.7,0.4,8.2,1.3
		c2.4,0.9,4.6,2.1,6.4,3.8L490.4,440.8z"/>
	
		<linearGradient id="SVGID_7_" gradientUnits="userSpaceOnUse" x1="560.2685" y1="312.0446" x2="506.4093" y2="311.592" gradientTransform="matrix(1 0 0 -1 0 770)">
		<stop  offset="5.600000e-03" style="stop-color:#DAB954"/>
		<stop  offset="0.1854" style="stop-color:#D1AE55"/>
		<stop  offset="0.5955" style="stop-color:#D6AB18"/>
		<stop  offset="0.8708" style="stop-color:#DCB45F"/>
		<stop  offset="1" style="stop-color:#EBDBCA"/>
	</linearGradient>
	<path class="st11" d="M535.3,492.1c-9.2,0-16.3-2.6-21.3-7.7c-5-5.1-7.6-12.4-7.6-21.8v-7.4c0-9.8,2.4-17.4,7.3-22.8
		c4.8-5.4,11.7-8.1,20.5-8.1c8.3,0,14.7,3,19.3,9.1s6.8,14.6,6.8,25.6v4.3h-44.4V453H548c-0.4-5.3-1.8-9.5-4.2-12.5
		s-5.6-4.5-9.6-4.5c-4.9,0-8.7,1.6-11.4,4.8c-2.7,3.2-4.1,7.8-4.1,13.6v8.4c0,5.5,1.4,9.6,4.3,12.6s7,4.4,12.2,4.4
		c2.6,0,5.2-0.5,7.8-1.6c2.6-1.1,4.9-2.5,6.9-4.4l8.5,8.5c-3.3,3.1-6.9,5.6-11,7.3S539.4,492.1,535.3,492.1z"/>
	
		<linearGradient id="SVGID_8_" gradientUnits="userSpaceOnUse" x1="628.9135" y1="312.0591" x2="572.4567" y2="311.5847" gradientTransform="matrix(1 0 0 -1 0 770)">
		<stop  offset="5.600000e-03" style="stop-color:#DAB954"/>
		<stop  offset="0.1854" style="stop-color:#D1AE55"/>
		<stop  offset="0.5955" style="stop-color:#D6AB18"/>
		<stop  offset="0.8708" style="stop-color:#DCB45F"/>
		<stop  offset="1" style="stop-color:#EBDBCA"/>
	</linearGradient>
	<path class="st12" d="M601.3,492.1c-5.8,0-11.1-0.9-15.9-2.6c-4.8-1.7-9-4.3-12.8-7.7l7.7-9.5c3.6,2.7,7.1,4.7,10.6,6.1
		c3.5,1.4,7,2,10.4,2c5.1,0,9-0.8,11.5-2.4s3.8-4,3.8-7.1c0-2.5-0.9-4.2-2.6-5.2c-1.7-1-4-1.7-6.7-2s-5.7-0.6-8.9-0.8
		c-2.7-0.2-5.3-0.5-7.9-1c-2.6-0.4-5-1.2-7.2-2.4c-2.2-1.2-3.9-2.9-5.2-5.2s-1.9-5.4-1.9-9.2c0-7,2.1-12.2,6.4-15.7
		c4.3-3.5,10.6-5.2,19.1-5.2c5.2,0,10,0.7,14.4,2.1s8.6,3.5,12.5,6.4l-7.8,9.5c-3.3-2.1-6.5-3.7-9.7-4.8c-3.2-1.1-6.3-1.6-9.4-1.6
		c-4.4,0-7.7,0.8-9.9,2.3c-2.2,1.5-3.3,3.8-3.3,6.8c0,2,0.8,3.4,2.3,4.3c1.5,0.9,3.5,1.4,6,1.7c2.5,0.3,5.2,0.5,8.1,0.7
		c2.8,0.2,5.5,0.5,8.3,0.9c2.8,0.4,5.4,1.3,7.8,2.6c2.4,1.3,4.3,3.2,5.7,5.6c1.4,2.5,2.2,5.9,2.2,10.2c0,7.1-2.3,12.4-6.9,15.9
		C617.5,490.3,610.6,492.1,601.3,492.1z"/>
</g>
<g id="TeeShirt" class="st2">
	
		<linearGradient id="SVGID_9_" gradientUnits="userSpaceOnUse" x1="749.9095" y1="613.0959" x2="449.5893" y2="610.5723" gradientTransform="matrix(1 0 0 -1 0 770)">
		<stop  offset="5.600000e-03" style="stop-color:#DAB954"/>
		<stop  offset="0.1854" style="stop-color:#D1AE55"/>
		<stop  offset="0.5955" style="stop-color:#D6AB18"/>
		<stop  offset="0.8708" style="stop-color:#DCB45F"/>
		<stop  offset="1" style="stop-color:#EBDBCA"/>
	</linearGradient>
	<path class="st13" d="M750,167.7c0,0-26.2-77-26.2-77l0,0c-9.3-28.8-31.8-54-81-59.4c-0.7,23.5-19.7,42.3-43.1,42.3
		c-23.4,0-42.4-18.8-43.1-42.3C507.5,36.8,485,62,475.7,90.8l0,0c0,0-26.1,77-26.1,77l55.2,19.9l13.7-35.5v132.6l162.7-0.1
		l-0.1-132.6l13.7,35.5L750,167.7z"/>
</g>
<g id="Réalisations" class="st2">
	
		<linearGradient id="SVGID_10_" gradientUnits="userSpaceOnUse" x1="68.8221" y1="371.8362" x2="69.6029" y2="278.9193" gradientTransform="matrix(1 0 0 -1 0 770)">
		<stop  offset="5.600000e-03" style="stop-color:#DAB954"/>
		<stop  offset="0.1854" style="stop-color:#D1AE55"/>
		<stop  offset="0.5955" style="stop-color:#D6AB18"/>
		<stop  offset="0.8708" style="stop-color:#DCB45F"/>
		<stop  offset="1" style="stop-color:#EBDBCA"/>
	</linearGradient>
	<path class="st14" d="M36,490.8v-92.4h12.9v92.4H36z M41.6,451.8v-12.3h31.5c3.8,0,6.8-1.3,9.1-3.9c2.3-2.6,3.4-6.1,3.4-10.4
		s-1.1-7.8-3.4-10.4s-5.3-3.9-9.1-3.9H41.6v-12.3h31c5.4,0,10.1,1.1,14.1,3.3c4,2.2,7.1,5.3,9.4,9.3c2.2,4,3.3,8.7,3.3,14
		c0,5.3-1.1,10-3.4,14c-2.2,4-5.4,7.1-9.4,9.3s-8.7,3.3-14.1,3.3L41.6,451.8L41.6,451.8z M87.9,490.8l-21.1-41.9l12.9-2.9l23.6,44.8
		L87.9,490.8L87.9,490.8z"/>
	
		<linearGradient id="SVGID_11_" gradientUnits="userSpaceOnUse" x1="141.2513" y1="386.7577" x2="142.1633" y2="278.2346" gradientTransform="matrix(1 0 0 -1 0 770)">
		<stop  offset="5.600000e-03" style="stop-color:#DAB954"/>
		<stop  offset="0.1854" style="stop-color:#D1AE55"/>
		<stop  offset="0.5955" style="stop-color:#D6AB18"/>
		<stop  offset="0.8708" style="stop-color:#DCB45F"/>
		<stop  offset="1" style="stop-color:#EBDBCA"/>
	</linearGradient>
	<path class="st15" d="M143.9,491.8c-9.2,0-16.3-2.6-21.3-7.7c-5-5.1-7.6-12.4-7.6-21.8v-7.4c0-9.8,2.4-17.4,7.3-22.8
		c4.8-5.4,11.7-8.1,20.5-8.1c8.3,0,14.7,3,19.3,9.1c4.5,6.1,6.8,14.6,6.8,25.6v4.3h-44.4v-10.4h32.1c-0.4-5.3-1.8-9.5-4.2-12.5
		c-2.4-3-5.6-4.5-9.6-4.5c-4.9,0-8.7,1.6-11.4,4.8c-2.7,3.2-4.1,7.8-4.1,13.6v8.4c0,5.5,1.4,9.6,4.3,12.6c2.9,2.9,7,4.4,12.2,4.4
		c2.6,0,5.2-0.5,7.8-1.6c2.6-1.1,4.9-2.5,6.9-4.4l8.5,8.5c-3.3,3.1-6.9,5.6-11,7.3S148,491.8,143.9,491.8z M143,412.2l-8.1-6.5
		l18.2-22.5l9.3,7.7L143,412.2z"/>
	
		<linearGradient id="SVGID_12_" gradientUnits="userSpaceOnUse" x1="209.4554" y1="346.0378" x2="210.0249" y2="278.2685" gradientTransform="matrix(1 0 0 -1 0 770)">
		<stop  offset="5.600000e-03" style="stop-color:#DAB954"/>
		<stop  offset="0.1854" style="stop-color:#D1AE55"/>
		<stop  offset="0.5955" style="stop-color:#D6AB18"/>
		<stop  offset="0.8708" style="stop-color:#DCB45F"/>
		<stop  offset="1" style="stop-color:#EBDBCA"/>
	</linearGradient>
	<path class="st16" d="M207.7,491.8c-8.1,0-14.1-1.7-18.2-5c-4-3.3-6.1-8.5-6.1-15.4c0-6.6,1.9-11.5,5.6-14.7s9.3-4.9,16.7-4.9h18.7
		l0.9,10.4h-19.6c-3.3,0-5.9,0.8-7.6,2.3c-1.7,1.5-2.5,3.8-2.5,6.9c0,3.3,1.1,5.8,3.4,7.4c2.2,1.6,5.6,2.4,10.1,2.4
		c4.9,0,8.6-0.5,11-1.6c2.5-1.1,3.7-2.7,3.7-5l1.3,9.3c-1.1,1.8-2.6,3.2-4.3,4.4c-1.7,1.1-3.6,2-5.8,2.6
		C212.9,491.5,210.4,491.8,207.7,491.8z M223.8,490.8V449c0-4.3-1.2-7.7-3.5-10.1c-2.3-2.4-5.6-3.6-9.8-3.6c-2.6,0-5.1,0.4-7.6,1.2
		c-2.5,0.8-4.8,1.9-6.8,3.4l-9.5-6.5c2.5-3,5.8-5.3,9.9-7c4.1-1.7,8.6-2.5,13.6-2.5c8.3,0,14.6,2.1,19.2,6.4
		c4.5,4.3,6.8,10.3,6.8,18.1v42.3L223.8,490.8L223.8,490.8z"/>
	
		<linearGradient id="SVGID_13_" gradientUnits="userSpaceOnUse" x1="266.6444" y1="371.5873" x2="267.4243" y2="278.7882" gradientTransform="matrix(1 0 0 -1 0 770)">
		<stop  offset="5.600000e-03" style="stop-color:#DAB954"/>
		<stop  offset="0.1854" style="stop-color:#D1AE55"/>
		<stop  offset="0.5955" style="stop-color:#D6AB18"/>
		<stop  offset="0.8708" style="stop-color:#DCB45F"/>
		<stop  offset="1" style="stop-color:#EBDBCA"/>
	</linearGradient>
	<path class="st17" d="M268.7,398.5v75.3c0,1.6,0.3,2.8,1,3.7s1.7,1.3,3,1.3h6.1v12.3h-7.6c-4.9,0-8.7-1.5-11.4-4.6
		c-2.7-3-4.1-7.3-4.1-12.9v-75.2H268.7z"/>
	
		<linearGradient id="SVGID_14_" gradientUnits="userSpaceOnUse" x1="299.5053" y1="371.5471" x2="300.2817" y2="279.1508" gradientTransform="matrix(1 0 0 -1 0 770)">
		<stop  offset="5.600000e-03" style="stop-color:#DAB954"/>
		<stop  offset="0.1854" style="stop-color:#D1AE55"/>
		<stop  offset="0.5955" style="stop-color:#D6AB18"/>
		<stop  offset="0.8708" style="stop-color:#DCB45F"/>
		<stop  offset="1" style="stop-color:#EBDBCA"/>
	</linearGradient>
	<path class="st18" d="M293.4,411.5v-12.9h12.9v12.9H293.4z M293.4,490.8v-65.9h12.9v65.9H293.4z"/>
	
		<linearGradient id="SVGID_15_" gradientUnits="userSpaceOnUse" x1="348.3967" y1="346.0335" x2="348.9664" y2="278.2443" gradientTransform="matrix(1 0 0 -1 0 770)">
		<stop  offset="5.600000e-03" style="stop-color:#DAB954"/>
		<stop  offset="0.1854" style="stop-color:#D1AE55"/>
		<stop  offset="0.5955" style="stop-color:#D6AB18"/>
		<stop  offset="0.8708" style="stop-color:#DCB45F"/>
		<stop  offset="1" style="stop-color:#EBDBCA"/>
	</linearGradient>
	<path class="st19" d="M349.3,491.8c-5.8,0-11.1-0.9-15.9-2.6s-9-4.3-12.8-7.7l7.7-9.5c3.6,2.7,7.1,4.7,10.6,6.1c3.5,1.4,7,2,10.4,2
		c5.1,0,9-0.8,11.5-2.4c2.6-1.6,3.8-4,3.8-7.1c0-2.5-0.9-4.2-2.6-5.2s-4-1.7-6.7-2c-2.8-0.3-5.7-0.6-8.9-0.8c-2.7-0.2-5.3-0.5-7.9-1
		c-2.6-0.4-5-1.2-7.2-2.4s-3.9-2.9-5.2-5.2c-1.3-2.3-1.9-5.4-1.9-9.2c0-7,2.1-12.2,6.4-15.7c4.3-3.5,10.6-5.2,19.1-5.2
		c5.2,0,10,0.7,14.4,2.1s8.6,3.5,12.5,6.4l-7.8,9.5c-3.3-2.1-6.5-3.7-9.7-4.8c-3.2-1.1-6.3-1.6-9.4-1.6c-4.4,0-7.7,0.8-9.9,2.3
		c-2.2,1.5-3.3,3.8-3.3,6.8c0,2,0.8,3.4,2.3,4.3c1.5,0.9,3.5,1.4,6,1.7s5.2,0.5,8.1,0.7c2.8,0.2,5.5,0.5,8.3,0.9
		c2.8,0.4,5.4,1.3,7.8,2.6c2.4,1.3,4.3,3.2,5.7,5.6c1.4,2.5,2.2,5.9,2.2,10.2c0,7.1-2.3,12.4-6.9,15.9
		C365.5,490,358.6,491.8,349.3,491.8z"/>
	
		<linearGradient id="SVGID_16_" gradientUnits="userSpaceOnUse" x1="416.3239" y1="346.0378" x2="416.8934" y2="278.2684" gradientTransform="matrix(1 0 0 -1 0 770)">
		<stop  offset="5.600000e-03" style="stop-color:#DAB954"/>
		<stop  offset="0.1854" style="stop-color:#D1AE55"/>
		<stop  offset="0.5955" style="stop-color:#D6AB18"/>
		<stop  offset="0.8708" style="stop-color:#DCB45F"/>
		<stop  offset="1" style="stop-color:#EBDBCA"/>
	</linearGradient>
	<path class="st20" d="M414.5,491.8c-8.1,0-14.1-1.7-18.2-5c-4-3.3-6.1-8.5-6.1-15.4c0-6.6,1.9-11.5,5.6-14.7
		c3.7-3.2,9.3-4.9,16.7-4.9h18.7l0.9,10.4h-19.6c-3.3,0-5.9,0.8-7.6,2.3c-1.7,1.5-2.5,3.8-2.5,6.9c0,3.3,1.1,5.8,3.4,7.4
		c2.2,1.6,5.6,2.4,10.1,2.4c4.9,0,8.6-0.5,11-1.6c2.5-1.1,3.7-2.7,3.7-5l1.3,9.3c-1.1,1.8-2.6,3.2-4.3,4.4c-1.7,1.1-3.6,2-5.8,2.6
		S417.3,491.8,414.5,491.8z M430.7,490.8V449c0-4.3-1.2-7.7-3.5-10.1c-2.3-2.4-5.6-3.6-9.8-3.6c-2.6,0-5.1,0.4-7.6,1.2
		c-2.5,0.8-4.8,1.9-6.8,3.4l-9.5-6.5c2.5-3,5.8-5.3,9.9-7c4.1-1.7,8.6-2.5,13.6-2.5c8.3,0,14.6,2.1,19.2,6.4
		c4.5,4.3,6.8,10.3,6.8,18.1v42.3L430.7,490.8L430.7,490.8z"/>
	
		<linearGradient id="SVGID_17_" gradientUnits="userSpaceOnUse" x1="472.2118" y1="364.326" x2="472.9308" y2="278.7644" gradientTransform="matrix(1 0 0 -1 0 770)">
		<stop  offset="5.600000e-03" style="stop-color:#DAB954"/>
		<stop  offset="0.1854" style="stop-color:#D1AE55"/>
		<stop  offset="0.5955" style="stop-color:#D6AB18"/>
		<stop  offset="0.8708" style="stop-color:#DCB45F"/>
		<stop  offset="1" style="stop-color:#EBDBCA"/>
	</linearGradient>
	<path class="st21" d="M457.6,436.6v-11.7h29.7v11.7H457.6z M479.8,491.1c-5.4,0-9.3-1.5-11.8-4.5c-2.4-3-3.6-7.3-3.6-12.9v-67.9
		h12.9v68c0,1.6,0.3,2.8,1,3.7s1.6,1.3,2.8,1.3h6.2v12.3H479.8z"/>
	
		<linearGradient id="SVGID_18_" gradientUnits="userSpaceOnUse" x1="511.1363" y1="371.5471" x2="511.9127" y2="279.1508" gradientTransform="matrix(1 0 0 -1 0 770)">
		<stop  offset="5.600000e-03" style="stop-color:#DAB954"/>
		<stop  offset="0.1854" style="stop-color:#D1AE55"/>
		<stop  offset="0.5955" style="stop-color:#D6AB18"/>
		<stop  offset="0.8708" style="stop-color:#DCB45F"/>
		<stop  offset="1" style="stop-color:#EBDBCA"/>
	</linearGradient>
	<path class="st22" d="M505,411.5v-12.9H518v12.9H505z M505,490.8v-65.9H518v65.9H505z"/>
	
		<linearGradient id="SVGID_19_" gradientUnits="userSpaceOnUse" x1="562.6565" y1="346.0412" x2="563.2261" y2="278.2508" gradientTransform="matrix(1 0 0 -1 0 770)">
		<stop  offset="5.600000e-03" style="stop-color:#DAB954"/>
		<stop  offset="0.1854" style="stop-color:#D1AE55"/>
		<stop  offset="0.5955" style="stop-color:#D6AB18"/>
		<stop  offset="0.8708" style="stop-color:#DCB45F"/>
		<stop  offset="1" style="stop-color:#EBDBCA"/>
	</linearGradient>
	<path class="st23" d="M562.9,491.8c-8.6,0-15.3-2.5-20.1-7.5c-4.7-5-7.1-12.1-7.1-21.2v-10.7c0-9,2.4-16,7.1-20.9
		c4.7-5,11.4-7.4,20.1-7.4s15.3,2.5,20.1,7.4c4.7,5,7.1,11.9,7.1,20.9v10.9c0,9.1-2.4,16.1-7.1,21
		C578.3,489.3,571.6,491.8,562.9,491.8z M562.9,479.4c4.5,0,8-1.4,10.5-4.3c2.5-2.8,3.7-6.8,3.7-11.9v-10.9c0-5.1-1.2-9.1-3.7-11.9
		c-2.5-2.8-6-4.2-10.5-4.2c-4.5,0-8,1.4-10.5,4.2c-2.5,2.8-3.7,6.8-3.7,11.9v10.9c0,5.1,1.2,9.1,3.7,11.9
		C555,478,558.5,479.4,562.9,479.4z"/>
	
		<linearGradient id="SVGID_20_" gradientUnits="userSpaceOnUse" x1="634.5946" y1="346.0059" x2="635.158" y2="278.981" gradientTransform="matrix(1 0 0 -1 0 770)">
		<stop  offset="5.600000e-03" style="stop-color:#DAB954"/>
		<stop  offset="0.1854" style="stop-color:#D1AE55"/>
		<stop  offset="0.5955" style="stop-color:#D6AB18"/>
		<stop  offset="0.8708" style="stop-color:#DCB45F"/>
		<stop  offset="1" style="stop-color:#EBDBCA"/>
	</linearGradient>
	<path class="st24" d="M608.5,490.8v-65.9h12.9v65.9H608.5z M648.5,490.8v-39.9c0-4.7-1.2-8.3-3.6-10.8c-2.4-2.5-5.8-3.8-10.2-3.8
		c-4.2,0-7.5,1.1-9.8,3.4c-2.3,2.2-3.5,5.4-3.5,9.5l-1.3-12.7c2-4,4.7-7,8-9.2S635,424,639,424c7.2,0,12.7,2.3,16.6,7
		c3.9,4.7,5.9,11.3,5.9,19.8v40H648.5z"/>
	
		<linearGradient id="SVGID_21_" gradientUnits="userSpaceOnUse" x1="703.4863" y1="346.0335" x2="704.0558" y2="278.2443" gradientTransform="matrix(1 0 0 -1 0 770)">
		<stop  offset="5.600000e-03" style="stop-color:#DAB954"/>
		<stop  offset="0.1854" style="stop-color:#D1AE55"/>
		<stop  offset="0.5955" style="stop-color:#D6AB18"/>
		<stop  offset="0.8708" style="stop-color:#DCB45F"/>
		<stop  offset="1" style="stop-color:#EBDBCA"/>
	</linearGradient>
	<path class="st25" d="M704.4,491.8c-5.8,0-11.1-0.9-15.9-2.6c-4.8-1.7-9-4.3-12.8-7.7l7.7-9.5c3.6,2.7,7.1,4.7,10.6,6.1
		c3.5,1.4,7,2,10.4,2c5.1,0,9-0.8,11.5-2.4s3.8-4,3.8-7.1c0-2.5-0.9-4.2-2.6-5.2c-1.7-1-4-1.7-6.7-2s-5.7-0.6-8.9-0.8
		c-2.7-0.2-5.3-0.5-7.9-1c-2.6-0.4-5-1.2-7.2-2.4s-3.9-2.9-5.2-5.2s-1.9-5.4-1.9-9.2c0-7,2.1-12.2,6.4-15.7
		c4.3-3.5,10.6-5.2,19.1-5.2c5.2,0,10,0.7,14.4,2.1s8.6,3.5,12.5,6.4l-7.8,9.5c-3.3-2.1-6.5-3.7-9.7-4.8c-3.2-1.1-6.3-1.6-9.4-1.6
		c-4.4,0-7.7,0.8-9.9,2.3c-2.2,1.5-3.3,3.8-3.3,6.8c0,2,0.8,3.4,2.3,4.3c1.5,0.9,3.5,1.4,6,1.7c2.5,0.3,5.2,0.5,8.1,0.7
		c2.8,0.2,5.5,0.5,8.3,0.9c2.8,0.4,5.4,1.3,7.8,2.6c2.4,1.3,4.3,3.2,5.7,5.6c1.4,2.5,2.2,5.9,2.2,10.2c0,7.1-2.3,12.4-6.9,15.9
		C720.6,490,713.7,491.8,704.4,491.8z"/>
</g>
<g id="Billets" class="st2">
	
		<linearGradient id="SVGID_22_" gradientUnits="userSpaceOnUse" x1="720.0701" y1="616.2791" x2="488.0755" y2="614.3295" gradientTransform="matrix(1 0 0 -1 0 770)">
		<stop  offset="5.600000e-03" style="stop-color:#DAB954"/>
		<stop  offset="0.1854" style="stop-color:#D1AE55"/>
		<stop  offset="0.5955" style="stop-color:#D6AB18"/>
		<stop  offset="0.8708" style="stop-color:#DCB45F"/>
		<stop  offset="1" style="stop-color:#EBDBCA"/>
	</linearGradient>
	<polygon class="st26" points="719.5,89.7 719.6,103 571.1,219 488.2,173.6 488.2,161.5 571.1,206.4 	"/>
	
		<linearGradient id="SVGID_23_" gradientUnits="userSpaceOnUse" x1="720.2252" y1="585.2996" x2="488.2386" y2="583.35" gradientTransform="matrix(1 0 0 -1 0 770)">
		<stop  offset="5.600000e-03" style="stop-color:#DAB954"/>
		<stop  offset="0.1854" style="stop-color:#D1AE55"/>
		<stop  offset="0.5955" style="stop-color:#D6AB18"/>
		<stop  offset="0.8708" style="stop-color:#DCB45F"/>
		<stop  offset="1" style="stop-color:#EBDBCA"/>
	</linearGradient>
	<polygon class="st27" points="719.7,120.7 719.8,134 571.3,250 488.4,204.6 488.3,192.5 571.2,237.4 	"/>
	
		<linearGradient id="SVGID_24_" gradientUnits="userSpaceOnUse" x1="571.6743" y1="635.32" x2="560.0717" y2="635.2225" gradientTransform="matrix(1 0 0 -1 0 770)">
		<stop  offset="5.600000e-03" style="stop-color:#DAB954"/>
		<stop  offset="0.1854" style="stop-color:#D1AE55"/>
		<stop  offset="0.5955" style="stop-color:#D6AB18"/>
		<stop  offset="0.8708" style="stop-color:#DCB45F"/>
		<stop  offset="1" style="stop-color:#EBDBCA"/>
	</linearGradient>
	<path class="st28" d="M561.7,132.5c0.6-0.4,1.2-0.8,1.9-1c0.7-0.3,1.4-0.4,2.2-0.5c0.7-0.1,1.5-0.1,2.2,0c0.7,0.1,1.4,0.3,1.9,0.6
		c0.6,0.3,1,0.7,1.3,1.1c0.3,0.4,0.5,0.9,0.5,1.4s-0.1,1-0.4,1.5s-0.7,1-1.2,1.4c-0.6,0.4-1.2,0.8-1.9,1c-0.7,0.3-1.4,0.4-2.2,0.5
		c-0.7,0.1-1.5,0.1-2.2,0c-0.7-0.1-1.4-0.3-1.9-0.6c-0.6-0.3-1-0.7-1.3-1.1s-0.4-0.9-0.5-1.4c0-0.5,0.1-1,0.4-1.5
		C560.7,133.4,561.1,132.9,561.7,132.5z"/>
	
		<linearGradient id="SVGID_25_" gradientUnits="userSpaceOnUse" x1="720.0521" y1="665.4064" x2="487.712" y2="663.454" gradientTransform="matrix(1 0 0 -1 0 770)">
		<stop  offset="5.600000e-03" style="stop-color:#DAB954"/>
		<stop  offset="0.1854" style="stop-color:#D1AE55"/>
		<stop  offset="0.5955" style="stop-color:#D6AB18"/>
		<stop  offset="0.8708" style="stop-color:#DCB45F"/>
		<stop  offset="1" style="stop-color:#EBDBCA"/>
	</linearGradient>
	<path class="st29" d="M488,140.8L637,25.7l82.8,43.9l-149,115.9L488,140.8z M686.7,64.1l-35.2-18.7c-2,1.1-4.1,2-6.4,2.7
		c-2.2,0.7-4.6,1.1-6.9,1.3c-2.3,0.2-4.7,0.2-6.9-0.1c-2.2-0.3-4.4-0.8-6.3-1.7l-38.6,29.8c3.7-0.9,7.6-1.4,11.6-1.6
		c4-0.2,8-0.1,12,0.4c4,0.5,8,1.2,11.8,2.4s7.5,2.6,10.9,4.4c3.4,1.8,6.3,3.9,8.8,6c2.4,2.2,4.4,4.6,5.8,7c1.4,2.4,2.4,5,2.8,7.5
		c0.4,2.6,0.3,5.1-0.3,7.7l38.6-30c-1.6-1.1-2.9-2.3-3.7-3.7c-0.9-1.4-1.4-2.8-1.5-4.4s0.1-3.1,0.7-4.6
		C684.3,67.1,685.3,65.6,686.7,64.1 M583,163.1l38.8-30.1c-3.7,0.9-7.7,1.4-11.6,1.6c-4,0.2-8,0.1-12.1-0.4c-4-0.5-8-1.3-11.8-2.4
		c-3.8-1.1-7.5-2.6-10.9-4.4c-3.4-1.8-6.3-3.9-8.8-6.1c-2.4-2.2-4.4-4.6-5.8-7c-1.4-2.5-2.3-5-2.7-7.5c-0.4-2.6-0.3-5.1,0.4-7.6
		l-38.8,30c1.6,1.1,2.8,2.4,3.7,3.7c0.9,1.4,1.4,2.9,1.5,4.4c0.1,1.5-0.1,3.1-0.8,4.7c-0.6,1.6-1.6,3.1-3,4.6l35.2,19
		c2-1.2,4.1-2.1,6.4-2.8s4.6-1.1,7-1.3c2.4-0.2,4.7-0.2,7,0.1C578.8,161.7,581,162.2,583,163.1 M603.3,91.1l-5.1-4.4l-0.9,0.4
		c-0.7,0.3-1.4,0.6-2,0.9c-0.7,0.3-1.3,0.7-1.9,1c-0.6,0.4-1.2,0.7-1.8,1.1s-1.1,0.8-1.7,1.2c-2,1.6-3.6,3.3-4.8,5
		c-1.2,1.8-2,3.6-2.3,5.4s-0.3,3.7,0.2,5.4c0.5,1.8,1.5,3.5,2.9,5l-3.5,2.7l4.9,2.6l2.7-2.1l0.2,0.1l0.2,0.1l0.2,0.1l0.2,0.1
		l0.5,0.3l0.5,0.3l0.6,0.2l0.6,0.3l-2.8,2.2l4.9,2.6l3.9-3.1c2.5,0.4,5.2,0.6,7.8,0.5c2.7-0.1,5.3-0.4,7.9-1
		c2.6-0.6,5.1-1.4,7.4-2.5c2.3-1.1,4.5-2.3,6.4-3.8c0.4-0.3,0.8-0.6,1.2-1c0.4-0.3,0.7-0.7,1.1-1c0.3-0.3,0.7-0.7,1-1
		c0.3-0.4,0.6-0.7,0.9-1.1l0.4-0.6l-6.8-3.7l-0.7,1.1c-0.2,0.3-0.4,0.7-0.7,1c-0.2,0.3-0.5,0.7-0.8,1c-0.3,0.3-0.6,0.6-0.9,0.9
		c-0.3,0.3-0.7,0.6-1,0.9c-1.1,0.8-2.2,1.5-3.5,2.2c-1.2,0.6-2.6,1.1-4,1.6c-1.4,0.4-2.8,0.7-4.3,0.9c-1.5,0.2-3,0.3-4.4,0.2
		l12.4-9.6l-3.9-3.3L599,112.2l-0.6-0.2l-0.6-0.2l-0.6-0.3l-0.5-0.3l-0.2-0.1l-0.2-0.1l-0.2-0.1l-0.2-0.1l15.9-12.3l-3.9-3.3
		l-15.6,12.1c-0.6-1-0.9-2-1-3.1c-0.1-1.1,0-2.1,0.3-3.2c0.3-1.1,0.9-2.1,1.6-3.2c0.8-1,1.7-2,2.9-2.9c0.4-0.3,0.8-0.6,1.3-0.9
		c0.4-0.3,0.9-0.6,1.4-0.8c0.5-0.3,1-0.5,1.5-0.8c0.5-0.2,1-0.5,1.6-0.7L603.3,91.1"/>
	
		<linearGradient id="SVGID_26_" gradientUnits="userSpaceOnUse" x1="647.8508" y1="694.3668" x2="636.2818" y2="694.2695" gradientTransform="matrix(1 0 0 -1 0 770)">
		<stop  offset="5.600000e-03" style="stop-color:#DAB954"/>
		<stop  offset="0.1854" style="stop-color:#D1AE55"/>
		<stop  offset="0.5955" style="stop-color:#D6AB18"/>
		<stop  offset="0.8708" style="stop-color:#DCB45F"/>
		<stop  offset="1" style="stop-color:#EBDBCA"/>
	</linearGradient>
	<path class="st30" d="M637.9,73.4c0.5-0.4,1.2-0.8,1.9-1c0.7-0.3,1.4-0.4,2.2-0.5c0.7-0.1,1.5-0.1,2.2,0c0.7,0.1,1.4,0.3,1.9,0.6
		c0.6,0.3,1,0.7,1.3,1.1c0.3,0.4,0.5,0.9,0.5,1.4c0,0.5-0.1,1-0.4,1.5c-0.3,0.5-0.7,0.9-1.2,1.4c-0.6,0.4-1.2,0.8-1.9,1
		c-0.7,0.3-1.4,0.4-2.2,0.5c-0.7,0.1-1.5,0.1-2.2,0c-0.7-0.1-1.4-0.3-1.9-0.6c-0.6-0.3-1-0.7-1.3-1.1c-0.3-0.4-0.5-0.9-0.5-1.4
		c0-0.5,0.1-1,0.4-1.5C636.9,74.3,637.3,73.9,637.9,73.4z"/>
</g>
<g id="Tarifs" class="st2">
	
		<linearGradient id="SVGID_27_" gradientUnits="userSpaceOnUse" x1="255.4375" y1="370.2082" x2="256.2157" y2="277.5917" gradientTransform="matrix(1 0 0 -1 0 770)">
		<stop  offset="5.600000e-03" style="stop-color:#DAB954"/>
		<stop  offset="0.1854" style="stop-color:#D1AE55"/>
		<stop  offset="0.5955" style="stop-color:#D6AB18"/>
		<stop  offset="0.8708" style="stop-color:#DCB45F"/>
		<stop  offset="1" style="stop-color:#EBDBCA"/>
	</linearGradient>
	<path class="st31" d="M222.9,412.4v-12.3h65.1v12.3H222.9z M249,492.4v-84.7H262v84.7H249z"/>
	
		<linearGradient id="SVGID_28_" gradientUnits="userSpaceOnUse" x1="314.7315" y1="344.4768" x2="315.3009" y2="276.7065" gradientTransform="matrix(1 0 0 -1 0 770)">
		<stop  offset="5.600000e-03" style="stop-color:#DAB954"/>
		<stop  offset="0.1854" style="stop-color:#D1AE55"/>
		<stop  offset="0.5955" style="stop-color:#D6AB18"/>
		<stop  offset="0.8708" style="stop-color:#DCB45F"/>
		<stop  offset="1" style="stop-color:#EBDBCA"/>
	</linearGradient>
	<path class="st32" d="M312.9,493.3c-8.1,0-14.1-1.7-18.2-5c-4-3.3-6.1-8.5-6.1-15.4c0-6.6,1.9-11.5,5.6-14.7
		c3.7-3.2,9.3-4.9,16.7-4.9h18.7l0.9,10.4H311c-3.3,0-5.9,0.8-7.6,2.3c-1.7,1.5-2.5,3.8-2.5,6.9c0,3.3,1.1,5.8,3.4,7.4
		c2.2,1.6,5.6,2.4,10.1,2.4c4.9,0,8.6-0.5,11-1.6c2.5-1.1,3.7-2.7,3.7-5l1.3,9.3c-1.1,1.8-2.6,3.2-4.3,4.4c-1.7,1.1-3.6,2-5.8,2.6
		C318.2,493,315.7,493.3,312.9,493.3z M329.1,492.4v-41.8c0-4.3-1.2-7.7-3.5-10.1c-2.3-2.4-5.6-3.6-9.8-3.6c-2.6,0-5.1,0.4-7.6,1.2
		c-2.5,0.8-4.8,1.9-6.8,3.4l-9.5-6.5c2.5-3,5.8-5.3,9.9-7c4.1-1.7,8.6-2.5,13.6-2.5c8.3,0,14.6,2.1,19.2,6.4
		c4.5,4.3,6.8,10.3,6.8,18.1v42.3H329.1z"/>
	
		<linearGradient id="SVGID_29_" gradientUnits="userSpaceOnUse" x1="383.0946" y1="344.4146" x2="383.6551" y2="277.7211" gradientTransform="matrix(1 0 0 -1 0 770)">
		<stop  offset="5.600000e-03" style="stop-color:#DAB954"/>
		<stop  offset="0.1854" style="stop-color:#D1AE55"/>
		<stop  offset="0.5955" style="stop-color:#D6AB18"/>
		<stop  offset="0.8708" style="stop-color:#DCB45F"/>
		<stop  offset="1" style="stop-color:#EBDBCA"/>
	</linearGradient>
	<path class="st33" d="M361.1,492.4v-65.9H374v65.9H361.1z M397.3,442.1c-1.1-1.4-2.6-2.5-4.3-3.2c-1.7-0.7-3.7-1.1-6-1.1
		c-4.1,0-7.3,1.1-9.6,3.4c-2.3,2.3-3.4,5.4-3.4,9.4l-1.3-12.7c2-3.9,4.6-6.9,7.8-9.1c3.2-2.2,6.8-3.3,10.7-3.3c3,0,5.7,0.4,8.2,1.3
		c2.4,0.9,4.6,2.1,6.4,3.8L397.3,442.1z"/>
	
		<linearGradient id="SVGID_30_" gradientUnits="userSpaceOnUse" x1="422.6173" y1="369.9861" x2="423.3937" y2="277.5889" gradientTransform="matrix(1 0 0 -1 0 770)">
		<stop  offset="5.600000e-03" style="stop-color:#DAB954"/>
		<stop  offset="0.1854" style="stop-color:#D1AE55"/>
		<stop  offset="0.5955" style="stop-color:#D6AB18"/>
		<stop  offset="0.8708" style="stop-color:#DCB45F"/>
		<stop  offset="1" style="stop-color:#EBDBCA"/>
	</linearGradient>
	<path class="st34" d="M416.5,413v-12.9h12.9V413H416.5z M416.5,492.4v-65.9h12.9v65.9H416.5z"/>
	
		<linearGradient id="SVGID_31_" gradientUnits="userSpaceOnUse" x1="460.3951" y1="369.8774" x2="461.1704" y2="277.6171" gradientTransform="matrix(1 0 0 -1 0 770)">
		<stop  offset="5.600000e-03" style="stop-color:#DAB954"/>
		<stop  offset="0.1854" style="stop-color:#D1AE55"/>
		<stop  offset="0.5955" style="stop-color:#D6AB18"/>
		<stop  offset="0.8708" style="stop-color:#DCB45F"/>
		<stop  offset="1" style="stop-color:#EBDBCA"/>
	</linearGradient>
	<path class="st35" d="M444.1,437.5v-11H477v11H444.1z M451.1,492.4v-74.8c0-5.8,1.3-10.2,4-13.1s6.8-4.4,12.4-4.4h9.5v12.3h-9.3
		c-1.3,0-2.3,0.5-2.9,1.5c-0.6,1-0.9,2.2-0.9,3.5v75L451.1,492.4L451.1,492.4z"/>
	
		<linearGradient id="SVGID_32_" gradientUnits="userSpaceOnUse" x1="510.1667" y1="344.4725" x2="510.7364" y2="276.6823" gradientTransform="matrix(1 0 0 -1 0 770)">
		<stop  offset="5.600000e-03" style="stop-color:#DAB954"/>
		<stop  offset="0.1854" style="stop-color:#D1AE55"/>
		<stop  offset="0.5955" style="stop-color:#D6AB18"/>
		<stop  offset="0.8708" style="stop-color:#DCB45F"/>
		<stop  offset="1" style="stop-color:#EBDBCA"/>
	</linearGradient>
	<path class="st36" d="M511.1,493.3c-5.8,0-11.1-0.9-15.9-2.6s-9-4.3-12.8-7.7l7.7-9.5c3.6,2.7,7.1,4.7,10.6,6.1s7,2,10.4,2
		c5.1,0,9-0.8,11.5-2.4c2.6-1.6,3.8-4,3.8-7.1c0-2.5-0.9-4.2-2.6-5.2s-4-1.7-6.7-2c-2.8-0.3-5.7-0.6-8.9-0.8c-2.7-0.2-5.3-0.5-7.9-1
		s-5-1.2-7.2-2.4c-2.2-1.2-3.9-2.9-5.2-5.2c-1.3-2.3-1.9-5.4-1.9-9.2c0-7,2.1-12.2,6.4-15.7c4.3-3.5,10.6-5.2,19.1-5.2
		c5.2,0,10,0.7,14.4,2.1s8.6,3.5,12.5,6.4l-7.8,9.5c-3.3-2.1-6.5-3.7-9.7-4.8c-3.2-1.1-6.3-1.6-9.4-1.6c-4.4,0-7.7,0.8-9.9,2.3
		c-2.2,1.5-3.3,3.8-3.3,6.8c0,2,0.8,3.4,2.3,4.3c1.5,0.9,3.5,1.4,6,1.7s5.2,0.5,8.1,0.7c2.8,0.2,5.5,0.5,8.3,0.9
		c2.8,0.4,5.4,1.3,7.8,2.6c2.4,1.3,4.3,3.2,5.7,5.6s2.2,5.9,2.2,10.2c0,7.1-2.3,12.4-6.9,15.9C527.2,491.6,520.3,493.3,511.1,493.3z
		"/>
</g>
<g id="MachineACoudre" class="st2">
	<g class="st3">
		<g>
			
				<linearGradient id="SVGID_33_" gradientUnits="userSpaceOnUse" x1="735.1082" y1="624.3893" x2="465.7859" y2="622.1261" gradientTransform="matrix(1 0 0 -1 0 770)">
				<stop  offset="5.600000e-03" style="stop-color:#DAB954"/>
				<stop  offset="0.1854" style="stop-color:#D1AE55"/>
				<stop  offset="0.5955" style="stop-color:#D6AB18"/>
				<stop  offset="0.8708" style="stop-color:#DCB45F"/>
				<stop  offset="1" style="stop-color:#EBDBCA"/>
			</linearGradient>
			<path class="st37" d="M718,233.7h-13.5v-80.8c0-1.6,0-3.2-0.1-4.7c-1.4-23.4-13.3-44.7-32.8-58.4c-11.7-8.3-25.1-13.1-38.9-14.4
				V58.7h4.5h9c2.5,0,4.5-2,4.5-4.5s-2-4.5-4.5-4.5h-4.5v-18h4.5c2.5,0,4.5-2,4.5-4.5s-2-4.5-4.5-4.5h-9h-18h-9
				c-2.5,0-4.5,2-4.5,4.5s2,4.5,4.5,4.5h4.5v18h-4.5c-2.5,0-4.5,2-4.5,4.5s2,4.5,4.5,4.5h9h4.5V75c-7.2,0.1-14.4,1.2-21.5,3.3
				L555,92.2c-5.5,1.6-11.1,2.4-16.8,2.4H535c-8.6,0-17.1-2.3-24.5-6.8c-3.9-2.3-7.3-6-10.3-11.2c-3.2-5.5-9.2-8.9-15.5-8.9
				c-9.9,0-18,8.1-18,18v103.2c0,8.3,5.7,15.3,13.5,17.3v14.1c0,2.5,2,4.5,4.5,4.5s4.5-2,4.5-4.5v-14.1c7.7-2,13.5-9,13.5-17.3v-9
				c0-12.4,10.1-22.4,22.4-22.4h62.8c4.8,0,9.5,1.3,13.6,3.7c9.8,5.7,14.5,17.9,11.6,29.6l-10.8,43H484.6c-9.9,0-18,8.1-18,18
				s8.1,18,18,18H718c9.9,0,18-8.1,18-18C736,241.8,727.9,233.7,718,233.7z M529.5,112.5h26.9c2.5,0,4.5,2,4.5,4.5
				c0,2.5-2,4.5-4.5,4.5h-26.9c-2.5,0-4.5-2-4.5-4.5C525,114.5,527,112.5,529.5,112.5z M574.4,139.5h-44.9c-2.5,0-4.5-2-4.5-4.5
				c0-2.5,2-4.5,4.5-4.5h44.9c2.5,0,4.5,2,4.5,4.5C578.9,137.5,576.9,139.5,574.4,139.5z M623.8,31.7h9v18h-9V31.7z M646.2,215.8
				c-2.5,0-4.5-2-4.5-4.5s2-4.5,4.5-4.5s4.5,2,4.5,4.5C650.7,213.8,648.7,215.8,646.2,215.8z M664.2,215.8c-2.5,0-4.5-2-4.5-4.5
				s2-4.5,4.5-4.5s4.5,2,4.5,4.5C668.7,213.8,666.7,215.8,664.2,215.8z M646.2,157.4c-12.4,0-22.4-10.1-22.4-22.4
				s10.1-22.4,22.4-22.4c12.4,0,22.4,10.1,22.4,22.4C668.7,147.4,658.6,157.4,646.2,157.4z"/>
			
				<linearGradient id="SVGID_34_" gradientUnits="userSpaceOnUse" x1="659.6865" y1="635.1292" x2="632.7535" y2="634.9028" gradientTransform="matrix(1 0 0 -1 0 770)">
				<stop  offset="5.600000e-03" style="stop-color:#DAB954"/>
				<stop  offset="0.1854" style="stop-color:#D1AE55"/>
				<stop  offset="0.5955" style="stop-color:#D6AB18"/>
				<stop  offset="0.8708" style="stop-color:#DCB45F"/>
				<stop  offset="1" style="stop-color:#EBDBCA"/>
			</linearGradient>
			<path class="st38" d="M646.2,121.5c-7.4,0-13.5,6-13.5,13.5c0,7.4,6,13.5,13.5,13.5s13.5-6,13.5-13.5
				C659.7,127.6,653.6,121.5,646.2,121.5z M646.2,139.5c-2.5,0-4.5-2-4.5-4.5s2-4.5,4.5-4.5s4.5,2,4.5,4.5
				C650.7,137.5,648.7,139.5,646.2,139.5z"/>
			
				<linearGradient id="SVGID_35_" gradientUnits="userSpaceOnUse" x1="736.0358" y1="599.2175" x2="709.0282" y2="598.9905" gradientTransform="matrix(1 0 0 -1 0 770)">
				<stop  offset="5.600000e-03" style="stop-color:#DAB954"/>
				<stop  offset="0.1854" style="stop-color:#D1AE55"/>
				<stop  offset="0.5955" style="stop-color:#D6AB18"/>
				<stop  offset="0.8708" style="stop-color:#DCB45F"/>
				<stop  offset="1" style="stop-color:#EBDBCA"/>
			</linearGradient>
			<rect x="709.1" y="166.4" class="st39" width="26.9" height="9"/>
			
				<linearGradient id="SVGID_36_" gradientUnits="userSpaceOnUse" x1="735.9623" y1="621.6055" x2="708.992" y2="621.3788" gradientTransform="matrix(1 0 0 -1 0 770)">
				<stop  offset="5.600000e-03" style="stop-color:#DAB954"/>
				<stop  offset="0.1854" style="stop-color:#D1AE55"/>
				<stop  offset="0.5955" style="stop-color:#D6AB18"/>
				<stop  offset="0.8708" style="stop-color:#DCB45F"/>
				<stop  offset="1" style="stop-color:#EBDBCA"/>
			</linearGradient>
			<path class="st40" d="M722.5,139.5c-7.4,0-13.5,6-13.5,13.5v4.5H736v-4.5C736,145.5,730,139.5,722.5,139.5z"/>
			
				<linearGradient id="SVGID_37_" gradientUnits="userSpaceOnUse" x1="736.074" y1="558.8731" x2="709.1037" y2="558.6465" gradientTransform="matrix(1 0 0 -1 0 770)">
				<stop  offset="5.600000e-03" style="stop-color:#DAB954"/>
				<stop  offset="0.1854" style="stop-color:#D1AE55"/>
				<stop  offset="0.5955" style="stop-color:#D6AB18"/>
				<stop  offset="0.8708" style="stop-color:#DCB45F"/>
				<stop  offset="1" style="stop-color:#EBDBCA"/>
			</linearGradient>
			<path class="st41" d="M709.1,206.8c0,7.4,6,13.5,13.5,13.5s13.5-6,13.5-13.5v-4.5h-26.9V206.8z"/>
			
				<linearGradient id="SVGID_38_" gradientUnits="userSpaceOnUse" x1="736.0358" y1="581.2615" x2="709.0282" y2="581.0345" gradientTransform="matrix(1 0 0 -1 0 770)">
				<stop  offset="5.600000e-03" style="stop-color:#DAB954"/>
				<stop  offset="0.1854" style="stop-color:#D1AE55"/>
				<stop  offset="0.5955" style="stop-color:#D6AB18"/>
				<stop  offset="0.8708" style="stop-color:#DCB45F"/>
				<stop  offset="1" style="stop-color:#EBDBCA"/>
			</linearGradient>
			<rect x="709.1" y="184.4" class="st42" width="26.9" height="9"/>
		</g>
	</g>
</g>
<g id="Préstations" class="st2">
	
		<linearGradient id="SVGID_39_" gradientUnits="userSpaceOnUse" x1="93.3718" y1="371.2694" x2="94.1482" y2="278.8722" gradientTransform="matrix(1 0 0 -1 0 770)">
		<stop  offset="5.600000e-03" style="stop-color:#DAB954"/>
		<stop  offset="0.1854" style="stop-color:#D1AE55"/>
		<stop  offset="0.5955" style="stop-color:#D6AB18"/>
		<stop  offset="0.8708" style="stop-color:#DCB45F"/>
		<stop  offset="1" style="stop-color:#EBDBCA"/>
	</linearGradient>
	<path class="st43" d="M62.1,491.3V399h12.9v92.3L62.1,491.3L62.1,491.3z M68.8,455.5v-12.3h29.5c4.2,0,7.6-1.5,10.2-4.4
		c2.6-2.9,3.8-6.8,3.8-11.5c0-4.8-1.3-8.7-3.8-11.6c-2.6-2.9-6-4.4-10.2-4.4H68.8V399h29.1c5.6,0,10.5,1.2,14.6,3.5
		c4.1,2.3,7.4,5.6,9.7,9.9c2.3,4.2,3.5,9.2,3.5,14.9c0,5.7-1.2,10.6-3.5,14.9c-2.3,4.2-5.5,7.5-9.7,9.8c-4.1,2.3-9,3.5-14.6,3.5
		L68.8,455.5L68.8,455.5z"/>
	
		<linearGradient id="SVGID_40_" gradientUnits="userSpaceOnUse" x1="160.6731" y1="345.4866" x2="161.2336" y2="278.7931" gradientTransform="matrix(1 0 0 -1 0 770)">
		<stop  offset="5.600000e-03" style="stop-color:#DAB954"/>
		<stop  offset="0.1854" style="stop-color:#D1AE55"/>
		<stop  offset="0.5955" style="stop-color:#D6AB18"/>
		<stop  offset="0.8708" style="stop-color:#DCB45F"/>
		<stop  offset="1" style="stop-color:#EBDBCA"/>
	</linearGradient>
	<path class="st44" d="M138.6,491.3v-65.9h12.9v65.9H138.6z M174.9,441c-1.1-1.4-2.6-2.5-4.3-3.2c-1.7-0.7-3.7-1.1-6-1.1
		c-4.1,0-7.3,1.1-9.6,3.4c-2.3,2.3-3.4,5.4-3.4,9.4l-1.3-12.7c2-3.9,4.6-6.9,7.8-9.1c3.2-2.2,6.8-3.3,10.7-3.3c3,0,5.7,0.4,8.2,1.3
		c2.4,0.9,4.6,2.1,6.4,3.8L174.9,441z"/>
	
		<linearGradient id="SVGID_41_" gradientUnits="userSpaceOnUse" x1="217.2013" y1="386.2686" x2="218.1133" y2="277.7437" gradientTransform="matrix(1 0 0 -1 0 770)">
		<stop  offset="5.600000e-03" style="stop-color:#DAB954"/>
		<stop  offset="0.1854" style="stop-color:#D1AE55"/>
		<stop  offset="0.5955" style="stop-color:#D6AB18"/>
		<stop  offset="0.8708" style="stop-color:#DCB45F"/>
		<stop  offset="1" style="stop-color:#EBDBCA"/>
	</linearGradient>
	<path class="st45" d="M219.8,492.2c-9.2,0-16.3-2.6-21.3-7.7c-5-5.1-7.6-12.4-7.6-21.8v-7.4c0-9.8,2.4-17.4,7.3-22.8
		c4.8-5.4,11.7-8.1,20.5-8.1c8.3,0,14.7,3,19.3,9.1c4.5,6.1,6.8,14.6,6.8,25.6v4.3h-44.4v-10.4h32.1c-0.4-5.3-1.8-9.5-4.2-12.5
		c-2.4-3-5.6-4.5-9.6-4.5c-4.9,0-8.7,1.6-11.4,4.8c-2.7,3.2-4.1,7.8-4.1,13.6v8.4c0,5.5,1.4,9.6,4.3,12.6c2.9,2.9,7,4.4,12.2,4.4
		c2.6,0,5.2-0.5,7.8-1.6c2.6-1.1,4.9-2.5,6.9-4.4l8.5,8.5c-3.3,3.1-6.9,5.6-11,7.3S223.9,492.2,219.8,492.2z M219,412.7l-8.1-6.5
		l18.2-22.5l9.3,7.7L219,412.7z"/>
	
		<linearGradient id="SVGID_42_" gradientUnits="userSpaceOnUse" x1="284.8876" y1="345.5435" x2="285.4573" y2="277.7533" gradientTransform="matrix(1 0 0 -1 0 770)">
		<stop  offset="5.600000e-03" style="stop-color:#DAB954"/>
		<stop  offset="0.1854" style="stop-color:#D1AE55"/>
		<stop  offset="0.5955" style="stop-color:#D6AB18"/>
		<stop  offset="0.8708" style="stop-color:#DCB45F"/>
		<stop  offset="1" style="stop-color:#EBDBCA"/>
	</linearGradient>
	<path class="st46" d="M285.8,492.2c-5.8,0-11.1-0.9-15.9-2.6s-9-4.3-12.8-7.7l7.7-9.5c3.6,2.7,7.1,4.7,10.6,6.1s7,2,10.4,2
		c5.1,0,9-0.8,11.5-2.4c2.6-1.6,3.8-4,3.8-7.1c0-2.5-0.9-4.2-2.6-5.2s-4-1.7-6.7-2c-2.8-0.3-5.7-0.6-8.9-0.8c-2.7-0.2-5.3-0.5-7.9-1
		c-2.6-0.4-5-1.2-7.2-2.4c-2.2-1.2-3.9-2.9-5.2-5.2c-1.3-2.3-1.9-5.4-1.9-9.2c0-7,2.1-12.2,6.4-15.7c4.3-3.5,10.6-5.2,19.1-5.2
		c5.2,0,10,0.7,14.4,2.1s8.6,3.5,12.5,6.4l-7.8,9.5c-3.3-2.1-6.5-3.7-9.7-4.8c-3.2-1.1-6.3-1.6-9.4-1.6c-4.4,0-7.7,0.8-9.9,2.3
		c-2.2,1.5-3.3,3.8-3.3,6.8c0,2,0.8,3.4,2.3,4.3c1.5,0.9,3.5,1.4,6,1.7s5.2,0.5,8.1,0.7c2.8,0.2,5.5,0.5,8.3,0.9
		c2.8,0.4,5.4,1.3,7.8,2.6c2.4,1.3,4.3,3.2,5.7,5.6c1.4,2.5,2.2,5.9,2.2,10.2c0,7.1-2.3,12.4-6.9,15.9
		C302,490.5,295.1,492.2,285.8,492.2z"/>
	
		<linearGradient id="SVGID_43_" gradientUnits="userSpaceOnUse" x1="339.5148" y1="363.836" x2="340.2338" y2="278.2735" gradientTransform="matrix(1 0 0 -1 0 770)">
		<stop  offset="5.600000e-03" style="stop-color:#DAB954"/>
		<stop  offset="0.1854" style="stop-color:#D1AE55"/>
		<stop  offset="0.5955" style="stop-color:#D6AB18"/>
		<stop  offset="0.8708" style="stop-color:#DCB45F"/>
		<stop  offset="1" style="stop-color:#EBDBCA"/>
	</linearGradient>
	<path class="st47" d="M324.9,437.1v-11.7h29.7v11.7H324.9z M347.1,491.6c-5.4,0-9.3-1.5-11.8-4.5c-2.4-3-3.6-7.3-3.6-12.9v-67.9
		h12.9v68c0,1.6,0.3,2.8,1,3.7s1.6,1.3,2.8,1.3h6.2v12.3H347.1z"/>
	
		<linearGradient id="SVGID_44_" gradientUnits="userSpaceOnUse" x1="395.2189" y1="345.5488" x2="395.7884" y2="277.7775" gradientTransform="matrix(1 0 0 -1 0 770)">
		<stop  offset="5.600000e-03" style="stop-color:#DAB954"/>
		<stop  offset="0.1854" style="stop-color:#D1AE55"/>
		<stop  offset="0.5955" style="stop-color:#D6AB18"/>
		<stop  offset="0.8708" style="stop-color:#DCB45F"/>
		<stop  offset="1" style="stop-color:#EBDBCA"/>
	</linearGradient>
	<path class="st48" d="M393.4,492.2c-8.1,0-14.1-1.7-18.2-5c-4-3.3-6.1-8.5-6.1-15.4c0-6.6,1.9-11.5,5.6-14.7
		c3.7-3.2,9.3-4.9,16.7-4.9h18.7l0.9,10.4h-19.6c-3.3,0-5.9,0.8-7.6,2.3c-1.7,1.5-2.5,3.8-2.5,6.9c0,3.3,1.1,5.8,3.4,7.4
		c2.2,1.6,5.6,2.4,10.1,2.4c4.9,0,8.6-0.5,11-1.6c2.5-1.1,3.7-2.7,3.7-5l1.3,9.3c-1.1,1.8-2.6,3.2-4.3,4.4c-1.7,1.1-3.6,2-5.8,2.6
		S396.2,492.2,393.4,492.2z M409.5,491.3v-41.8c0-4.3-1.2-7.7-3.5-10.1c-2.3-2.4-5.6-3.6-9.8-3.6c-2.6,0-5.1,0.4-7.6,1.2
		c-2.5,0.8-4.8,1.9-6.8,3.4l-9.5-6.5c2.5-3,5.8-5.3,9.9-7c4.1-1.7,8.6-2.5,13.6-2.5c8.3,0,14.6,2.1,19.2,6.4
		c4.5,4.3,6.8,10.3,6.8,18.1v42.3H409.5z"/>
	
		<linearGradient id="SVGID_45_" gradientUnits="userSpaceOnUse" x1="451.1058" y1="363.836" x2="451.8248" y2="278.2735" gradientTransform="matrix(1 0 0 -1 0 770)">
		<stop  offset="5.600000e-03" style="stop-color:#DAB954"/>
		<stop  offset="0.1854" style="stop-color:#D1AE55"/>
		<stop  offset="0.5955" style="stop-color:#D6AB18"/>
		<stop  offset="0.8708" style="stop-color:#DCB45F"/>
		<stop  offset="1" style="stop-color:#EBDBCA"/>
	</linearGradient>
	<path class="st49" d="M436.5,437.1v-11.7h29.7v11.7H436.5z M458.7,491.6c-5.4,0-9.3-1.5-11.8-4.5s-3.6-7.3-3.6-12.9v-67.9h12.9v68
		c0,1.6,0.3,2.8,1,3.7s1.6,1.3,2.8,1.3h6.2v12.3H458.7z"/>
	
		<linearGradient id="SVGID_46_" gradientUnits="userSpaceOnUse" x1="490.0293" y1="371.0582" x2="490.8057" y2="278.6609" gradientTransform="matrix(1 0 0 -1 0 770)">
		<stop  offset="5.600000e-03" style="stop-color:#DAB954"/>
		<stop  offset="0.1854" style="stop-color:#D1AE55"/>
		<stop  offset="0.5955" style="stop-color:#D6AB18"/>
		<stop  offset="0.8708" style="stop-color:#DCB45F"/>
		<stop  offset="1" style="stop-color:#EBDBCA"/>
	</linearGradient>
	<path class="st50" d="M483.9,411.9V399h12.9v12.9H483.9z M483.9,491.3v-65.9h12.9v65.9H483.9z"/>
	
		<linearGradient id="SVGID_47_" gradientUnits="userSpaceOnUse" x1="541.5505" y1="345.5512" x2="542.1201" y2="277.7598" gradientTransform="matrix(1 0 0 -1 0 770)">
		<stop  offset="5.600000e-03" style="stop-color:#DAB954"/>
		<stop  offset="0.1854" style="stop-color:#D1AE55"/>
		<stop  offset="0.5955" style="stop-color:#D6AB18"/>
		<stop  offset="0.8708" style="stop-color:#DCB45F"/>
		<stop  offset="1" style="stop-color:#EBDBCA"/>
	</linearGradient>
	<path class="st51" d="M541.8,492.2c-8.6,0-15.3-2.5-20.1-7.5c-4.7-5-7.1-12.1-7.1-21.2v-10.7c0-9,2.4-16,7.1-20.9
		c4.7-5,11.4-7.4,20.1-7.4s15.3,2.5,20.1,7.4c4.7,5,7.1,11.9,7.1,20.9v10.9c0,9.1-2.4,16.1-7.1,21
		C557.2,489.8,550.5,492.2,541.8,492.2z M541.8,479.9c4.5,0,8-1.4,10.5-4.3c2.5-2.8,3.7-6.8,3.7-11.9v-10.9c0-5.1-1.2-9.1-3.7-11.9
		c-2.5-2.8-6-4.2-10.5-4.2c-4.5,0-8,1.4-10.5,4.2c-2.5,2.8-3.7,6.8-3.7,11.9v10.9c0,5.1,1.2,9.1,3.7,11.9
		C533.9,478.5,537.3,479.9,541.8,479.9z"/>
	
		<linearGradient id="SVGID_48_" gradientUnits="userSpaceOnUse" x1="613.4876" y1="345.5168" x2="614.0508" y2="278.491" gradientTransform="matrix(1 0 0 -1 0 770)">
		<stop  offset="5.600000e-03" style="stop-color:#DAB954"/>
		<stop  offset="0.1854" style="stop-color:#D1AE55"/>
		<stop  offset="0.5955" style="stop-color:#D6AB18"/>
		<stop  offset="0.8708" style="stop-color:#DCB45F"/>
		<stop  offset="1" style="stop-color:#EBDBCA"/>
	</linearGradient>
	<path class="st52" d="M587.4,491.3v-65.9h12.9v65.9H587.4z M627.4,491.3v-39.9c0-4.7-1.2-8.3-3.6-10.8c-2.4-2.5-5.8-3.8-10.2-3.8
		c-4.2,0-7.5,1.1-9.8,3.4c-2.3,2.2-3.5,5.4-3.5,9.5l-1.3-12.7c2-4,4.7-7,8-9.2s6.9-3.2,10.9-3.2c7.2,0,12.7,2.3,16.6,7
		c3.9,4.7,5.9,11.3,5.9,19.8v40L627.4,491.3L627.4,491.3z"/>
	
		<linearGradient id="SVGID_49_" gradientUnits="userSpaceOnUse" x1="682.3793" y1="345.5435" x2="682.9489" y2="277.7533" gradientTransform="matrix(1 0 0 -1 0 770)">
		<stop  offset="5.600000e-03" style="stop-color:#DAB954"/>
		<stop  offset="0.1854" style="stop-color:#D1AE55"/>
		<stop  offset="0.5955" style="stop-color:#D6AB18"/>
		<stop  offset="0.8708" style="stop-color:#DCB45F"/>
		<stop  offset="1" style="stop-color:#EBDBCA"/>
	</linearGradient>
	<path class="st53" d="M683.3,492.2c-5.8,0-11.1-0.9-15.9-2.6c-4.8-1.7-9-4.3-12.8-7.7l7.7-9.5c3.6,2.7,7.1,4.7,10.6,6.1
		c3.5,1.4,7,2,10.4,2c5.1,0,9-0.8,11.5-2.4s3.8-4,3.8-7.1c0-2.5-0.9-4.2-2.6-5.2c-1.7-1-4-1.7-6.7-2s-5.7-0.6-8.9-0.8
		c-2.7-0.2-5.3-0.5-7.9-1c-2.6-0.4-5-1.2-7.2-2.4c-2.2-1.2-3.9-2.9-5.2-5.2c-1.3-2.3-1.9-5.4-1.9-9.2c0-7,2.1-12.2,6.4-15.7
		c4.3-3.5,10.6-5.2,19.1-5.2c5.2,0,10,0.7,14.4,2.1s8.6,3.5,12.5,6.4l-7.8,9.5c-3.3-2.1-6.5-3.7-9.7-4.8c-3.2-1.1-6.3-1.6-9.4-1.6
		c-4.4,0-7.7,0.8-9.9,2.3c-2.2,1.5-3.3,3.8-3.3,6.8c0,2,0.8,3.4,2.3,4.3c1.5,0.9,3.5,1.4,6,1.7c2.5,0.3,5.2,0.5,8.1,0.7
		c2.8,0.2,5.5,0.5,8.3,0.9c2.8,0.4,5.4,1.3,7.8,2.6c2.4,1.3,4.3,3.2,5.7,5.6c1.4,2.5,2.2,5.9,2.2,10.2c0,7.1-2.3,12.4-6.9,15.9
		C699.5,490.5,692.5,492.2,683.3,492.2z"/>
</g>
<linearGradient id="GeoLoc_1_" gradientUnits="userSpaceOnUse" x1="724.6151" y1="593.4575" x2="490.9431" y2="591.4938" gradientTransform="matrix(1 0 0 -1 0 770)">
	<stop  offset="5.600000e-03" style="stop-color:#DAB954"/>
	<stop  offset="0.1854" style="stop-color:#D1AE55"/>
	<stop  offset="0.5955" style="stop-color:#D6AB18"/>
	<stop  offset="0.8708" style="stop-color:#DCB45F"/>
	<stop  offset="1" style="stop-color:#EBDBCA"/>
</linearGradient>
<path id="GeoLoc" class="st54" d="M517.5,220.8l90,112.5l90-112.5c17.4-21.7,26.8-48.7,26.8-76.5v-5.7
	c0-64.5-52.3-116.8-116.8-116.8c-64.5,0-116.8,52.3-116.8,116.8v5.7C490.7,172.1,500.1,199.1,517.5,220.8z M607.5,177.5
	c21.5,0,38.9-17.4,38.9-38.9S629,99.7,607.5,99.7s-38.9,17.4-38.9,38.9S586,177.5,607.5,177.5z"/>
<g id="Acces" class="st2">
	
		<linearGradient id="SVGID_50_" gradientUnits="userSpaceOnUse" x1="289.8546" y1="325.0587" x2="210.7692" y2="324.394" gradientTransform="matrix(1 0 0 -1 0 770)">
		<stop  offset="5.600000e-03" style="stop-color:#DAB954"/>
		<stop  offset="0.1854" style="stop-color:#D1AE55"/>
		<stop  offset="0.5955" style="stop-color:#D6AB18"/>
		<stop  offset="0.8708" style="stop-color:#DCB45F"/>
		<stop  offset="1" style="stop-color:#EBDBCA"/>
	</linearGradient>
	<path class="st55" d="M211.2,491.3l34-92.3h11l34,92.3h-14l-25.6-74.5l-25.6,74.5L211.2,491.3L211.2,491.3z M226.8,471v-12.3h48.6
		V471H226.8z"/>
	
		<linearGradient id="SVGID_51_" gradientUnits="userSpaceOnUse" x1="353.5986" y1="311.8723" x2="300.993" y2="311.4303" gradientTransform="matrix(1 0 0 -1 0 770)">
		<stop  offset="5.600000e-03" style="stop-color:#DAB954"/>
		<stop  offset="0.1854" style="stop-color:#D1AE55"/>
		<stop  offset="0.5955" style="stop-color:#D6AB18"/>
		<stop  offset="0.8708" style="stop-color:#DCB45F"/>
		<stop  offset="1" style="stop-color:#EBDBCA"/>
	</linearGradient>
	<path class="st56" d="M329.5,492.2c-9.1,0-16.1-2.5-21-7.5c-5-5-7.5-12-7.5-21.1v-10.9c0-9,2.5-16,7.5-20.9c5-4.9,12-7.4,21-7.4
		c5.2,0,9.8,0.9,14,2.7c4.1,1.8,7.4,4.4,9.9,7.8l-9.3,8.4c-1.8-2.1-4-3.7-6.5-4.9c-2.5-1.1-5.1-1.7-7.9-1.7c-5,0-8.9,1.4-11.6,4.2
		c-2.8,2.8-4.1,6.7-4.1,11.8v10.9c0,5.2,1.4,9.2,4.1,12.1c2.8,2.8,6.6,4.3,11.6,4.3c2.8,0,5.4-0.6,7.9-1.8s4.7-3,6.5-5.2l9.3,9
		c-2.5,3.3-5.8,5.9-9.9,7.6C339.3,491.3,334.7,492.2,329.5,492.2z"/>
	
		<linearGradient id="SVGID_52_" gradientUnits="userSpaceOnUse" x1="418.3446" y1="311.8723" x2="365.739" y2="311.4303" gradientTransform="matrix(1 0 0 -1 0 770)">
		<stop  offset="5.600000e-03" style="stop-color:#DAB954"/>
		<stop  offset="0.1854" style="stop-color:#D1AE55"/>
		<stop  offset="0.5955" style="stop-color:#D6AB18"/>
		<stop  offset="0.8708" style="stop-color:#DCB45F"/>
		<stop  offset="1" style="stop-color:#EBDBCA"/>
	</linearGradient>
	<path class="st57" d="M394.3,492.2c-9.1,0-16.1-2.5-21-7.5c-5-5-7.5-12-7.5-21.1v-10.9c0-9,2.5-16,7.5-20.9c5-4.9,12-7.4,21-7.4
		c5.2,0,9.8,0.9,14,2.7c4.1,1.8,7.4,4.4,9.9,7.8l-9.3,8.4c-1.8-2.1-4-3.7-6.5-4.9c-2.5-1.1-5.1-1.7-7.9-1.7c-5,0-8.9,1.4-11.6,4.2
		c-2.8,2.8-4.1,6.7-4.1,11.8v10.9c0,5.2,1.4,9.2,4.1,12.1c2.8,2.8,6.6,4.3,11.6,4.3c2.8,0,5.4-0.6,7.9-1.8c2.5-1.2,4.7-3,6.5-5.2
		l9.3,9c-2.5,3.3-5.8,5.9-9.9,7.6C404,491.3,399.4,492.2,394.3,492.2z"/>
	
		<linearGradient id="SVGID_53_" gradientUnits="userSpaceOnUse" x1="484.1786" y1="332.3417" x2="430.3194" y2="331.8891" gradientTransform="matrix(1 0 0 -1 0 770)">
		<stop  offset="5.600000e-03" style="stop-color:#DAB954"/>
		<stop  offset="0.1854" style="stop-color:#D1AE55"/>
		<stop  offset="0.5955" style="stop-color:#D6AB18"/>
		<stop  offset="0.8708" style="stop-color:#DCB45F"/>
		<stop  offset="1" style="stop-color:#EBDBCA"/>
	</linearGradient>
	<path class="st58" d="M459.4,492.2c-9.2,0-16.3-2.6-21.3-7.7c-5-5.1-7.6-12.4-7.6-21.8v-7.4c0-9.8,2.4-17.4,7.3-22.8
		c4.8-5.4,11.7-8.1,20.5-8.1c8.3,0,14.7,3,19.3,9.1s6.8,14.6,6.8,25.6v4.3h-44.4v-10.4H472c-0.4-5.3-1.8-9.5-4.2-12.5
		c-2.4-3-5.6-4.5-9.6-4.5c-4.9,0-8.7,1.6-11.4,4.8c-2.7,3.2-4.1,7.8-4.1,13.6v8.4c0,5.5,1.4,9.6,4.3,12.6s7,4.4,12.2,4.4
		c2.6,0,5.2-0.5,7.8-1.6c2.6-1.1,4.9-2.5,6.9-4.4l8.5,8.5c-3.3,3.1-6.9,5.6-11,7.3S463.5,492.2,459.4,492.2z M456,412.7l-19.4-21.3
		l9.3-7.7l18.2,22.5L456,412.7z"/>
	
		<linearGradient id="SVGID_54_" gradientUnits="userSpaceOnUse" x1="552.9955" y1="311.8997" x2="496.5386" y2="311.4251" gradientTransform="matrix(1 0 0 -1 0 770)">
		<stop  offset="5.600000e-03" style="stop-color:#DAB954"/>
		<stop  offset="0.1854" style="stop-color:#D1AE55"/>
		<stop  offset="0.5955" style="stop-color:#D6AB18"/>
		<stop  offset="0.8708" style="stop-color:#DCB45F"/>
		<stop  offset="1" style="stop-color:#EBDBCA"/>
	</linearGradient>
	<path class="st59" d="M525.4,492.2c-5.8,0-11.1-0.9-15.9-2.6s-9-4.3-12.8-7.7l7.7-9.5c3.6,2.7,7.1,4.7,10.6,6.1s7,2,10.4,2
		c5.1,0,9-0.8,11.5-2.4s3.8-4,3.8-7.1c0-2.5-0.9-4.2-2.6-5.2s-4-1.7-6.7-2s-5.7-0.6-8.9-0.8c-2.7-0.2-5.3-0.5-7.9-1
		c-2.6-0.4-5-1.2-7.2-2.4c-2.2-1.2-3.9-2.9-5.2-5.2c-1.3-2.3-1.9-5.4-1.9-9.2c0-7,2.1-12.2,6.4-15.7c4.3-3.5,10.6-5.2,19.1-5.2
		c5.2,0,10,0.7,14.4,2.1s8.6,3.5,12.5,6.4l-7.8,9.5c-3.3-2.1-6.5-3.7-9.7-4.8c-3.2-1.1-6.3-1.6-9.4-1.6c-4.4,0-7.7,0.8-9.9,2.3
		c-2.2,1.5-3.3,3.8-3.3,6.8c0,2,0.8,3.4,2.3,4.3c1.5,0.9,3.5,1.4,6,1.7c2.5,0.3,5.2,0.5,8.1,0.7c2.8,0.2,5.5,0.5,8.3,0.9
		s5.4,1.3,7.8,2.6c2.4,1.3,4.3,3.2,5.7,5.6c1.4,2.5,2.2,5.9,2.2,10.2c0,7.1-2.3,12.4-6.9,15.9S534.7,492.2,525.4,492.2z"/>
</g>
<linearGradient id="Maison_1_" gradientUnits="userSpaceOnUse" x1="729.1664" y1="617.2395" x2="486.1832" y2="615.1976" gradientTransform="matrix(1 0 0 -1 0 770)">
	<stop  offset="5.600000e-03" style="stop-color:#DAB954"/>
	<stop  offset="0.1854" style="stop-color:#D1AE55"/>
	<stop  offset="0.5955" style="stop-color:#D6AB18"/>
	<stop  offset="0.8708" style="stop-color:#DCB45F"/>
	<stop  offset="1" style="stop-color:#EBDBCA"/>
</linearGradient>
<path id="Maison" class="st60" d="M607.5,37.1c-1.1,0-2.2,0.3-3.1,1.1L487.9,129c-2.2,1.7-2.6,4.9-0.9,7.1c1.7,2.2,4.9,2.6,7.1,0.9
	l7-5.5v133.1c0,2.8,2.3,5.1,5.1,5.1h70.9v-91.1h60.7v91.1h70.9c2.8,0,5.1-2.3,5.1-5.1V131.5l7,5.5c1,0.7,2,1.1,3.1,1.1
	c1.5,0,3-0.7,4-1.9c1.7-2.2,1.3-5.4-0.9-7.1L610.6,38.1C609.7,37.4,608.6,37.1,607.5,37.1z M658.1,57v5.3l30.4,23.7V57H658.1z"/>
<g id="Accueil">
	
		<linearGradient id="SVGID_55_" gradientUnits="userSpaceOnUse" x1="253.0706" y1="325.3436" x2="173.9852" y2="324.679" gradientTransform="matrix(1 0 0 -1 0 770)">
		<stop  offset="5.600000e-03" style="stop-color:#DAB954"/>
		<stop  offset="0.1854" style="stop-color:#D1AE55"/>
		<stop  offset="0.5955" style="stop-color:#D6AB18"/>
		<stop  offset="0.8708" style="stop-color:#DCB45F"/>
		<stop  offset="1" style="stop-color:#EBDBCA"/>
	</linearGradient>
	<path class="st61" d="M174.4,491l34-92.3h11l34,92.3h-14l-25.6-74.5L188.3,491H174.4z M190,470.7v-12.3h48.6v12.3H190z"/>
	
		<linearGradient id="SVGID_56_" gradientUnits="userSpaceOnUse" x1="316.8136" y1="312.1568" x2="264.208" y2="311.7147" gradientTransform="matrix(1 0 0 -1 0 770)">
		<stop  offset="5.600000e-03" style="stop-color:#DAB954"/>
		<stop  offset="0.1854" style="stop-color:#D1AE55"/>
		<stop  offset="0.5955" style="stop-color:#D6AB18"/>
		<stop  offset="0.8708" style="stop-color:#DCB45F"/>
		<stop  offset="1" style="stop-color:#EBDBCA"/>
	</linearGradient>
	<path class="st62" d="M292.8,491.9c-9.1,0-16.1-2.5-21-7.5c-5-5-7.5-12-7.5-21.1v-10.9c0-9,2.5-16,7.5-20.9c5-4.9,12-7.4,21-7.4
		c5.2,0,9.8,0.9,14,2.7c4.1,1.8,7.4,4.4,9.9,7.8l-9.3,8.4c-1.8-2.1-4-3.7-6.5-4.9c-2.5-1.1-5.1-1.7-7.9-1.7c-5,0-8.9,1.4-11.6,4.2
		c-2.8,2.8-4.1,6.7-4.1,11.8v10.9c0,5.2,1.4,9.2,4.1,12.1c2.8,2.8,6.6,4.3,11.6,4.3c2.8,0,5.4-0.6,7.9-1.8c2.5-1.2,4.7-3,6.5-5.2
		l9.3,9c-2.5,3.3-5.8,5.9-9.9,7.6C302.5,491,297.9,491.9,292.8,491.9z"/>
	
		<linearGradient id="SVGID_57_" gradientUnits="userSpaceOnUse" x1="381.5606" y1="312.1568" x2="328.955" y2="311.7147" gradientTransform="matrix(1 0 0 -1 0 770)">
		<stop  offset="5.600000e-03" style="stop-color:#DAB954"/>
		<stop  offset="0.1854" style="stop-color:#D1AE55"/>
		<stop  offset="0.5955" style="stop-color:#D6AB18"/>
		<stop  offset="0.8708" style="stop-color:#DCB45F"/>
		<stop  offset="1" style="stop-color:#EBDBCA"/>
	</linearGradient>
	<path class="st63" d="M357.5,491.9c-9.1,0-16.1-2.5-21-7.5c-5-5-7.5-12-7.5-21.1v-10.9c0-9,2.5-16,7.5-20.9c5-4.9,12-7.4,21-7.4
		c5.2,0,9.8,0.9,14,2.7c4.1,1.8,7.4,4.4,9.9,7.8l-9.3,8.4c-1.8-2.1-4-3.7-6.5-4.9c-2.5-1.1-5.1-1.7-7.9-1.7c-5,0-8.9,1.4-11.6,4.2
		c-2.8,2.8-4.1,6.7-4.1,11.8v10.9c0,5.2,1.4,9.2,4.1,12.1c2.8,2.8,6.6,4.3,11.6,4.3c2.8,0,5.4-0.6,7.9-1.8c2.5-1.2,4.7-3,6.5-5.2
		l9.3,9c-2.5,3.3-5.8,5.9-9.9,7.6C367.3,491,362.6,491.9,357.5,491.9z"/>
	
		<linearGradient id="SVGID_58_" gradientUnits="userSpaceOnUse" x1="446.9609" y1="311.8277" x2="394.0032" y2="311.3827" gradientTransform="matrix(1 0 0 -1 0 770)">
		<stop  offset="5.600000e-03" style="stop-color:#DAB954"/>
		<stop  offset="0.1854" style="stop-color:#D1AE55"/>
		<stop  offset="0.5955" style="stop-color:#D6AB18"/>
		<stop  offset="0.8708" style="stop-color:#DCB45F"/>
		<stop  offset="1" style="stop-color:#EBDBCA"/>
	</linearGradient>
	<path class="st64" d="M407,425.1v40.1c0,4.6,1.2,8.2,3.5,10.7s5.7,3.8,9.9,3.8s7.6-1.1,9.9-3.4c2.3-2.3,3.5-5.4,3.5-9.6l0.9,13.8
		c-1.2,3-3.3,5.6-6.2,8s-6.8,3.5-11.6,3.5c-7.3,0-12.9-2.3-16.9-7c-4-4.7-5.9-11.3-5.9-19.8v-40.1L407,425.1L407,425.1z M433.8,491
		v-65.9h12.9V491H433.8z"/>
	
		<linearGradient id="SVGID_59_" gradientUnits="userSpaceOnUse" x1="518.2786" y1="312.1696" x2="464.4193" y2="311.717" gradientTransform="matrix(1 0 0 -1 0 770)">
		<stop  offset="5.600000e-03" style="stop-color:#DAB954"/>
		<stop  offset="0.1854" style="stop-color:#D1AE55"/>
		<stop  offset="0.5955" style="stop-color:#D6AB18"/>
		<stop  offset="0.8708" style="stop-color:#DCB45F"/>
		<stop  offset="1" style="stop-color:#EBDBCA"/>
	</linearGradient>
	<path class="st65" d="M493.3,491.9c-9.2,0-16.3-2.6-21.3-7.7c-5-5.1-7.6-12.4-7.6-21.8V455c0-9.8,2.4-17.4,7.3-22.8
		c4.8-5.4,11.7-8.1,20.5-8.1c8.3,0,14.7,3,19.3,9.1c4.5,6.1,6.8,14.6,6.8,25.6v4.3h-44.4v-10.4H506c-0.4-5.3-1.8-9.5-4.2-12.5
		c-2.4-3-5.6-4.5-9.6-4.5c-4.9,0-8.7,1.6-11.4,4.8c-2.7,3.2-4.1,7.8-4.1,13.6v8.4c0,5.5,1.4,9.6,4.3,12.6c2.9,2.9,7,4.4,12.2,4.4
		c2.6,0,5.2-0.5,7.8-1.6c2.6-1.1,4.9-2.5,6.9-4.4l8.5,8.5c-3.3,3.1-6.9,5.6-11,7.3S497.4,491.9,493.3,491.9z"/>
	
		<linearGradient id="SVGID_60_" gradientUnits="userSpaceOnUse" x1="549.3946" y1="325.2147" x2="535.6703" y2="325.0993" gradientTransform="matrix(1 0 0 -1 0 770)">
		<stop  offset="5.600000e-03" style="stop-color:#DAB954"/>
		<stop  offset="0.1854" style="stop-color:#D1AE55"/>
		<stop  offset="0.5955" style="stop-color:#D6AB18"/>
		<stop  offset="0.8708" style="stop-color:#DCB45F"/>
		<stop  offset="1" style="stop-color:#EBDBCA"/>
	</linearGradient>
	<path class="st66" d="M536.1,411.6v-12.9H549v12.9H536.1z M536.1,491v-65.9H549V491H536.1z"/>
	
		<linearGradient id="SVGID_61_" gradientUnits="userSpaceOnUse" x1="591.4405" y1="325.0934" x2="568.4421" y2="324.9001" gradientTransform="matrix(1 0 0 -1 0 770)">
		<stop  offset="5.600000e-03" style="stop-color:#DAB954"/>
		<stop  offset="0.1854" style="stop-color:#D1AE55"/>
		<stop  offset="0.5955" style="stop-color:#D6AB18"/>
		<stop  offset="0.8708" style="stop-color:#DCB45F"/>
		<stop  offset="1" style="stop-color:#EBDBCA"/>
	</linearGradient>
	<path class="st67" d="M581.6,398.7V474c0,1.6,0.3,2.8,1,3.7c0.7,0.9,1.7,1.3,3,1.3h6.1v12.3h-7.6c-4.9,0-8.7-1.5-11.4-4.6
		c-2.7-3-4.1-7.3-4.1-12.9v-75.2H581.6z"/>
</g>
<g id="Référence_1_">
	<g id="Référence_2_" class="st2">
		<path class="st3" d="M35.5,491v-92.4h12.9V491H35.5z M41.1,452v-12.3h31.5c3.8,0,6.8-1.3,9.1-3.9c2.3-2.6,3.4-6.1,3.4-10.4
			s-1.1-7.8-3.4-10.4c-2.3-2.6-5.3-3.9-9.1-3.9H41.1v-12.3h31c5.4,0,10.1,1.1,14.1,3.3c4,2.2,7.1,5.3,9.4,9.3c2.2,4,3.3,8.7,3.3,14
			c0,5.3-1.1,10-3.4,14c-2.2,4-5.4,7.1-9.4,9.3s-8.7,3.3-14.1,3.3H41.1z M87.4,491l-21.1-41.9l12.9-2.9l23.6,44.8L87.4,491L87.4,491
			z"/>
		<path class="st3" d="M145.9,491.9c-9.2,0-16.3-2.6-21.3-7.7c-5-5.1-7.6-12.4-7.6-21.8V455c0-9.8,2.4-17.4,7.3-22.8
			c4.8-5.4,11.7-8.1,20.5-8.1c8.3,0,14.7,3,19.3,9.1c4.5,6.1,6.8,14.6,6.8,25.6v4.3h-44.4v-10.4h32.1c-0.4-5.3-1.8-9.5-4.2-12.5
			c-2.4-3-5.6-4.5-9.6-4.5c-4.9,0-8.7,1.6-11.4,4.8c-2.7,3.2-4.1,7.8-4.1,13.6v8.4c0,5.5,1.4,9.6,4.3,12.6c2.9,2.9,7,4.4,12.2,4.4
			c2.6,0,5.2-0.5,7.8-1.6c2.6-1.1,4.9-2.5,6.9-4.4l8.5,8.5c-3.3,3.1-6.9,5.6-11,7.3S150.1,491.9,145.9,491.9z M145.1,412.4l-8.1-6.5
			l18.2-22.5l9.3,7.7L145.1,412.4z"/>
		<path class="st3" d="M209.7,491.9c-8.1,0-14.1-1.7-18.2-5c-4-3.3-6.1-8.5-6.1-15.4c0-6.6,1.9-11.5,5.6-14.7s9.3-4.9,16.7-4.9h18.7
			l0.9,10.4h-19.6c-3.3,0-5.9,0.8-7.6,2.3c-1.7,1.5-2.5,3.8-2.5,6.9c0,3.3,1.1,5.8,3.4,7.4c2.2,1.6,5.6,2.4,10.1,2.4
			c4.9,0,8.6-0.5,11-1.6c2.5-1.1,3.7-2.7,3.7-5l1.3,9.3c-1.1,1.8-2.6,3.2-4.3,4.4c-1.7,1.1-3.6,2-5.8,2.6
			C215,491.7,212.5,491.9,209.7,491.9z M225.9,491v-41.8c0-4.3-1.2-7.7-3.5-10.1c-2.3-2.4-5.6-3.6-9.8-3.6c-2.6,0-5.1,0.4-7.6,1.2
			c-2.5,0.8-4.8,1.9-6.8,3.4l-9.5-6.5c2.5-3,5.8-5.3,9.9-7c4.1-1.7,8.6-2.5,13.6-2.5c8.3,0,14.6,2.1,19.2,6.4
			c4.5,4.3,6.8,10.3,6.8,18.1V491L225.9,491L225.9,491z"/>
		<path class="st3" d="M270.8,398.7V474c0,1.6,0.3,2.8,1,3.7s1.7,1.3,3,1.3h6.1v12.3h-7.6c-4.9,0-8.7-1.5-11.4-4.6
			c-2.7-3-4.1-7.3-4.1-12.9v-75.2H270.8z"/>
		<path class="st3" d="M295.5,411.6v-12.9h12.9v12.9H295.5z M295.5,491v-65.9h12.9V491H295.5z"/>
		<path class="st3" d="M351.4,491.9c-5.8,0-11.1-0.9-15.9-2.6s-9-4.3-12.8-7.7l7.7-9.5c3.6,2.7,7.1,4.7,10.6,6.1c3.5,1.4,7,2,10.4,2
			c5.1,0,9-0.8,11.5-2.4c2.6-1.6,3.8-4,3.8-7.1c0-2.5-0.9-4.2-2.6-5.2s-4-1.7-6.7-2c-2.8-0.3-5.7-0.6-8.9-0.8
			c-2.7-0.2-5.3-0.5-7.9-1c-2.6-0.4-5-1.2-7.2-2.4s-3.9-2.9-5.2-5.2c-1.3-2.3-1.9-5.4-1.9-9.2c0-7,2.1-12.2,6.4-15.7
			c4.3-3.5,10.6-5.2,19.1-5.2c5.2,0,10,0.7,14.4,2.1s8.6,3.5,12.5,6.4l-7.8,9.5c-3.3-2.1-6.5-3.7-9.7-4.8c-3.2-1.1-6.3-1.6-9.4-1.6
			c-4.4,0-7.7,0.8-9.9,2.3c-2.2,1.5-3.3,3.8-3.3,6.8c0,2,0.8,3.4,2.3,4.3s3.5,1.4,6,1.7s5.2,0.5,8.1,0.7c2.8,0.2,5.5,0.5,8.3,0.9
			c2.8,0.4,5.4,1.3,7.8,2.6c2.4,1.3,4.3,3.2,5.7,5.6c1.4,2.5,2.2,5.9,2.2,10.2c0,7.1-2.3,12.4-6.9,15.9
			C367.6,490.2,360.6,491.9,351.4,491.9z"/>
		<path class="st3" d="M416.6,491.9c-8.1,0-14.1-1.7-18.2-5c-4-3.3-6.1-8.5-6.1-15.4c0-6.6,1.9-11.5,5.6-14.7
			c3.7-3.2,9.3-4.9,16.7-4.9h18.7l0.9,10.4h-19.6c-3.3,0-5.9,0.8-7.6,2.3c-1.7,1.5-2.5,3.8-2.5,6.9c0,3.3,1.1,5.8,3.4,7.4
			c2.2,1.6,5.6,2.4,10.1,2.4c4.9,0,8.6-0.5,11-1.6c2.5-1.1,3.7-2.7,3.7-5l1.3,9.3c-1.1,1.8-2.6,3.2-4.3,4.4c-1.7,1.1-3.6,2-5.8,2.6
			S419.4,491.9,416.6,491.9z M432.7,491v-41.8c0-4.3-1.2-7.7-3.5-10.1c-2.3-2.4-5.6-3.6-9.8-3.6c-2.6,0-5.1,0.4-7.6,1.2
			s-4.8,1.9-6.8,3.4l-9.5-6.5c2.5-3,5.8-5.3,9.9-7s8.6-2.5,13.6-2.5c8.3,0,14.6,2.1,19.2,6.4c4.5,4.3,6.8,10.3,6.8,18.1V491
			L432.7,491L432.7,491z"/>
		<path class="st3" d="M459.6,436.8v-11.7h29.7v11.7H459.6z M481.9,491.3c-5.4,0-9.3-1.5-11.8-4.5c-2.4-3-3.6-7.3-3.6-12.9v-67.9
			h12.9v68c0,1.6,0.3,2.8,1,3.7s1.6,1.3,2.8,1.3h6.2v12.3H481.9z"/>
		<path class="st3" d="M507.1,411.6v-12.9h12.9v12.9H507.1z M507.1,491v-65.9h12.9V491H507.1z"/>
		<path class="st3" d="M565,491.9c-8.6,0-15.3-2.5-20.1-7.5c-4.7-5-7.1-12.1-7.1-21.2v-10.7c0-9,2.4-16,7.1-20.9
			c4.7-5,11.4-7.4,20.1-7.4s15.3,2.5,20.1,7.4c4.7,5,7.1,11.9,7.1,20.9v10.9c0,9.1-2.4,16.1-7.1,21
			C580.3,489.5,573.7,491.9,565,491.9z M565,479.6c4.5,0,8-1.4,10.5-4.3c2.5-2.8,3.7-6.8,3.7-11.9v-10.9c0-5.1-1.2-9.1-3.7-11.9
			c-2.5-2.8-6-4.2-10.5-4.2c-4.5,0-8,1.4-10.5,4.2c-2.5,2.8-3.7,6.8-3.7,11.9v10.9c0,5.1,1.2,9.1,3.7,11.9
			C557,478.2,560.5,479.6,565,479.6z"/>
		<path class="st3" d="M610.6,491v-65.9h12.9V491H610.6z M650.6,491v-39.9c0-4.7-1.2-8.3-3.6-10.8c-2.4-2.5-5.8-3.8-10.2-3.8
			c-4.2,0-7.5,1.1-9.8,3.4c-2.3,2.2-3.5,5.4-3.5,9.5l-1.3-12.7c2-4,4.7-7,8-9.2s6.9-3.2,10.9-3.2c7.2,0,12.7,2.3,16.6,7
			c3.9,4.7,5.9,11.3,5.9,19.8v40H650.6z"/>
		<path class="st3" d="M706.5,491.9c-5.8,0-11.1-0.9-15.9-2.6c-4.8-1.7-9-4.3-12.8-7.7l7.7-9.5c3.6,2.7,7.1,4.7,10.6,6.1
			c3.5,1.4,7,2,10.4,2c5.1,0,9-0.8,11.5-2.4s3.8-4,3.8-7.1c0-2.5-0.9-4.2-2.6-5.2c-1.7-1-4-1.7-6.7-2s-5.7-0.6-8.9-0.8
			c-2.7-0.2-5.3-0.5-7.9-1c-2.6-0.4-5-1.2-7.2-2.4s-3.9-2.9-5.2-5.2s-1.9-5.4-1.9-9.2c0-7,2.1-12.2,6.4-15.7
			c4.3-3.5,10.6-5.2,19.1-5.2c5.2,0,10,0.7,14.4,2.1s8.6,3.5,12.5,6.4l-7.8,9.5c-3.3-2.1-6.5-3.7-9.7-4.8c-3.2-1.1-6.3-1.6-9.4-1.6
			c-4.4,0-7.7,0.8-9.9,2.3c-2.2,1.5-3.3,3.8-3.3,6.8c0,2,0.8,3.4,2.3,4.3s3.5,1.4,6,1.7c2.5,0.3,5.2,0.5,8.1,0.7
			c2.8,0.2,5.5,0.5,8.3,0.9c2.8,0.4,5.4,1.3,7.8,2.6c2.4,1.3,4.3,3.2,5.7,5.6c1.4,2.5,2.2,5.9,2.2,10.2c0,7.1-2.3,12.4-6.9,15.9
			C722.6,490.2,715.7,491.9,706.5,491.9z"/>
	</g>
</g>
</svg>
