<?xml version="1.0" encoding="iso-8859-1"?>
<!-- Generator: Adobe Illustrator 24.1.1, SVG Export Plug-In . SVG Version: 6.00 Build 0)  -->
<svg version="1.1" id="Base" xmlns="http://www.w3.org/2000/svg" xmlns:xlink="http://www.w3.org/1999/xlink" x="0px" y="0px"
	 viewBox="0 0 768 768" style="enable-background:new 0 0 768 768;" xml:space="preserve">
<radialGradient id="Background_1_" cx="384" cy="384" r="356.2965" fx="167.4524" fy="551.8054" gradientUnits="userSpaceOnUse">
	<stop  offset="0.0982" style="stop-color:#00684F"/>
	<stop  offset="0.7078" style="stop-color:#00563C"/>
</radialGradient>
<path id="Background_11_" style="fill:url(#Background_1_);" d="M499.8,0.1c76.7,0,115.1,0,156.5,13c45.3,16.1,81.3,52.2,97.4,97.4
	c13.8,43,13.8,81.3,13.8,158v231.7c0,76.7,0,115.1-13,156.5c-16.1,45.3-52.2,81.3-97.4,97.4c-41.4,13.8-79.8,13.8-158,13.8H268.2
	c-76.7,0-115.1,0-156.5-13c-45.3-17.6-81.3-52.2-97.4-98.2C0.5,615.3,0.5,576.9,0.5,499.4V267.8c0-76.7,0-115.1,13-156.5
	C30.4,66,66.4,30,110.9,13.9C153.1,0.1,191.5,0.1,268.2,0.1H499.8z"/>
<linearGradient id="Aiguille_1_" gradientUnits="userSpaceOnUse" x1="373.1176" y1="177.3887" x2="377.9201" y2="748.8843" gradientTransform="matrix(0 1 -1 0 1084.2679 136.7108)">
	<stop  offset="0.0056" style="stop-color:#DAB954"/>
	<stop  offset="0.1854" style="stop-color:#D1AE55"/>
	<stop  offset="0.5955" style="stop-color:#D6AB18"/>
	<stop  offset="0.8708" style="stop-color:#DCB45F"/>
	<stop  offset="1" style="stop-color:#EBDBCA"/>
</linearGradient>
<path id="Aiguille" style="fill:url(#Aiguille_1_);" d="M758.706,511.238c0-10.895-8.871-19.759-19.766-19.759
	c-0.726,0-1.453,0.042-1.982,0.106L447.63,507.994c-1.721,0.099-3.067,1.52-3.067,3.244s1.347,3.145,3.067,3.244l289.167,16.399
	c0.705,0.078,1.417,0.12,2.144,0.12C749.835,531,758.706,522.136,758.706,511.238z M736.895,517.644
	c-0.247,0-0.487-0.018-0.719-0.046c-0.063-0.007-0.12-0.014-0.183-0.018l-32.487-1.989c-2.242-0.226-3.928-2.098-3.928-4.354
	s1.685-4.129,3.928-4.351c0.12-0.014,0.247-0.032,0.367-0.06l32.282-1.946c0.247-0.025,0.494-0.046,0.74-0.046
	c3.533,0,6.403,2.874,6.403,6.403C743.298,514.771,740.428,517.644,736.895,517.644z"/>
<g id="Horloge" style="display:none;">
	<g id="Icon-Set-Filled" transform="translate(-414.000000, -361.000000)" style="display:inline;">
		<linearGradient id="clock_1_" gradientUnits="userSpaceOnUse" x1="1157.0989" y1="523.4893" x2="879.6644" y2="525.8207">
			<stop  offset="0.0056" style="stop-color:#DAB954"/>
			<stop  offset="0.1854" style="stop-color:#D1AE55"/>
			<stop  offset="0.5955" style="stop-color:#D6AB18"/>
			<stop  offset="0.8708" style="stop-color:#DCB45F"/>
			<stop  offset="1" style="stop-color:#EBDBCA"/>
		</linearGradient>
		<path id="clock" style="fill-rule:evenodd;clip-rule:evenodd;fill:url(#clock_1_);" d="M1105.083,515.985h17.34v17.34h-17.34
			V515.985z M1083.061,469.686l-11.999-12.025l11.999-12.017l12,12.017L1083.061,469.686L1083.061,469.686z M1080.78,595.681
			l-12.26-12.259l12.26-12.26l12.26,12.26L1080.78,595.681L1080.78,595.681z M1027.052,524.863c0,4.786-3.875,8.662-8.67,8.662
			H940.35c-4.795,0-8.67-3.876-8.67-8.662c0-4.786,3.875-8.679,8.67-8.679h69.361v-86.901c0-4.795,3.884-8.67,8.67-8.67
			c4.795,0,8.67,3.875,8.67,8.67V524.863L1027.052,524.863z M1009.711,611.356h17.34v17.34h-17.34V611.356z M950.035,595.915
			l-11.999-12.025l11.999-12.025l12,12.025L950.035,595.915L950.035,595.915z M951.431,445.835l12.259,12.26l-12.259,12.26
			l-12.26-12.26L951.431,445.835L951.431,445.835z M1018.382,385.933c-76.618,0-138.722,62.113-138.722,138.722
			c0,76.618,62.104,138.722,138.722,138.722c76.618,0,138.722-62.104,138.722-138.722
			C1157.104,448.046,1095,385.933,1018.382,385.933L1018.382,385.933z"/>
	</g>
</g>
<g id="Horaire" style="display:none;">
	<linearGradient id="SVGID_1_" gradientUnits="userSpaceOnUse" x1="204.8103" y1="444.6895" x2="138.6585" y2="445.2454">
		<stop  offset="0.0056" style="stop-color:#DAB954"/>
		<stop  offset="0.1854" style="stop-color:#D1AE55"/>
		<stop  offset="0.5955" style="stop-color:#D6AB18"/>
		<stop  offset="0.8708" style="stop-color:#DCB45F"/>
		<stop  offset="1" style="stop-color:#EBDBCA"/>
	</linearGradient>
	<path style="display:inline;fill:url(#SVGID_1_);" d="M139.044,491.115V398.82h12.949v92.295H139.044z M147.105,451.823v-12.314
		h51.226v12.314H147.105z M191.476,491.115V398.82h12.949v92.295H191.476z"/>
	<linearGradient id="SVGID_2_" gradientUnits="userSpaceOnUse" x1="278.4848" y1="457.9419" x2="224.0589" y2="458.3993">
		<stop  offset="0.0056" style="stop-color:#DAB954"/>
		<stop  offset="0.1854" style="stop-color:#D1AE55"/>
		<stop  offset="0.5955" style="stop-color:#D6AB18"/>
		<stop  offset="0.8708" style="stop-color:#DCB45F"/>
		<stop  offset="1" style="stop-color:#EBDBCA"/>
	</linearGradient>
	<path style="display:inline;fill:url(#SVGID_2_);" d="M251.271,492.067c-8.633,0-15.32-2.508-20.059-7.522
		c-4.74-5.015-7.109-12.07-7.109-21.169v-10.728c0-9.014,2.37-15.996,7.109-20.947c4.739-4.951,11.426-7.427,20.059-7.427
		s15.319,2.476,20.059,7.427c4.739,4.951,7.109,11.934,7.109,20.947v10.918c0,9.056-2.371,16.07-7.109,21.042
		C266.589,489.582,259.903,492.067,251.271,492.067z M251.271,479.753c4.528,0,8.03-1.418,10.505-4.253s3.713-6.813,3.713-11.934
		v-10.918c0-5.12-1.238-9.077-3.713-11.87s-5.978-4.189-10.505-4.189c-4.486,0-7.977,1.396-10.474,4.189
		c-2.498,2.793-3.745,6.75-3.745,11.87v10.918c0,5.12,1.248,9.099,3.745,11.934C243.293,478.335,246.785,479.753,251.271,479.753z"
		/>
	<linearGradient id="SVGID_3_" gradientUnits="userSpaceOnUse" x1="341.7702" y1="457.4977" x2="296.5674" y2="457.8776">
		<stop  offset="0.0056" style="stop-color:#DAB954"/>
		<stop  offset="0.1854" style="stop-color:#D1AE55"/>
		<stop  offset="0.5955" style="stop-color:#D6AB18"/>
		<stop  offset="0.8708" style="stop-color:#DCB45F"/>
		<stop  offset="1" style="stop-color:#EBDBCA"/>
	</linearGradient>
	<path style="display:inline;fill:url(#SVGID_3_);" d="M296.847,491.115v-65.889h12.949v65.889H296.847z M333.092,440.841
		c-1.143-1.396-2.582-2.454-4.316-3.174c-1.736-0.72-3.745-1.079-6.03-1.079c-4.105,0-7.29,1.133-9.553,3.396
		c-2.264,2.265-3.396,5.406-3.396,9.427l-1.333-12.695c1.989-3.894,4.602-6.94,7.839-9.141s6.802-3.301,10.696-3.301
		c3.004,0,5.723,0.435,8.157,1.301c2.433,0.868,4.56,2.148,6.379,3.841L333.092,440.841z"/>
	<linearGradient id="SVGID_4_" gradientUnits="userSpaceOnUse" x1="401.9153" y1="457.9413" x2="349.0383" y2="458.3856">
		<stop  offset="0.0056" style="stop-color:#DAB954"/>
		<stop  offset="0.1854" style="stop-color:#D1AE55"/>
		<stop  offset="0.5955" style="stop-color:#D6AB18"/>
		<stop  offset="0.8708" style="stop-color:#DCB45F"/>
		<stop  offset="1" style="stop-color:#EBDBCA"/>
	</linearGradient>
	<path style="display:inline;fill:url(#SVGID_4_);" d="M373.399,492.067c-8.083,0-14.146-1.672-18.186-5.015
		c-4.042-3.343-6.062-8.464-6.062-15.361c0-6.56,1.851-11.458,5.554-14.695c3.703-3.237,9.257-4.855,16.663-4.855h18.726
		l0.889,10.41h-19.551c-3.343,0-5.862,0.752-7.554,2.253c-1.693,1.503-2.539,3.799-2.539,6.888c0,3.343,1.121,5.818,3.364,7.427
		c2.243,1.608,5.607,2.412,10.093,2.412c4.909,0,8.591-0.529,11.045-1.587s3.682-2.708,3.682-4.951l1.333,9.268
		c-1.143,1.777-2.561,3.237-4.253,4.38s-3.629,1.999-5.808,2.57C378.614,491.781,376.15,492.067,373.399,492.067z M389.522,491.115
		v-41.768c0-4.316-1.153-7.67-3.46-10.062c-2.307-2.39-5.576-3.586-9.807-3.586c-2.582,0-5.132,0.392-7.649,1.174
		c-2.518,0.784-4.771,1.915-6.76,3.396l-9.458-6.475c2.497-3.005,5.786-5.342,9.871-7.015c4.083-1.671,8.622-2.507,13.616-2.507
		c8.252,0,14.641,2.137,19.17,6.411c4.527,4.274,6.792,10.305,6.792,18.091v42.339H389.522z"/>
	<linearGradient id="SVGID_5_" gradientUnits="userSpaceOnUse" x1="434.8512" y1="444.9098" x2="421.1273" y2="445.0251">
		<stop  offset="0.0056" style="stop-color:#DAB954"/>
		<stop  offset="0.1854" style="stop-color:#D1AE55"/>
		<stop  offset="0.5955" style="stop-color:#D6AB18"/>
		<stop  offset="0.8708" style="stop-color:#DCB45F"/>
		<stop  offset="1" style="stop-color:#EBDBCA"/>
	</linearGradient>
	<path style="display:inline;fill:url(#SVGID_5_);" d="M421.515,411.769V398.82h12.949v12.949H421.515z M421.515,491.115v-65.889
		h12.949v65.889H421.515z"/>
	<linearGradient id="SVGID_6_" gradientUnits="userSpaceOnUse" x1="499.0651" y1="457.4977" x2="453.8623" y2="457.8776">
		<stop  offset="0.0056" style="stop-color:#DAB954"/>
		<stop  offset="0.1854" style="stop-color:#D1AE55"/>
		<stop  offset="0.5955" style="stop-color:#D6AB18"/>
		<stop  offset="0.8708" style="stop-color:#DCB45F"/>
		<stop  offset="1" style="stop-color:#EBDBCA"/>
	</linearGradient>
	<path style="display:inline;fill:url(#SVGID_6_);" d="M454.142,491.115v-65.889h12.949v65.889H454.142z M490.387,440.841
		c-1.143-1.396-2.582-2.454-4.316-3.174c-1.735-0.72-3.745-1.079-6.03-1.079c-4.105,0-7.29,1.133-9.554,3.396
		c-2.264,2.265-3.396,5.406-3.396,9.427l-1.333-12.695c1.988-3.894,4.602-6.94,7.84-9.141c3.237-2.2,6.802-3.301,10.695-3.301
		c3.004,0,5.723,0.435,8.157,1.301c2.433,0.868,4.559,2.148,6.379,3.841L490.387,440.841z"/>
	<linearGradient id="SVGID_7_" gradientUnits="userSpaceOnUse" x1="560.2679" y1="457.956" x2="506.4096" y2="458.4086">
		<stop  offset="0.0056" style="stop-color:#DAB954"/>
		<stop  offset="0.1854" style="stop-color:#D1AE55"/>
		<stop  offset="0.5955" style="stop-color:#D6AB18"/>
		<stop  offset="0.8708" style="stop-color:#DCB45F"/>
		<stop  offset="1" style="stop-color:#EBDBCA"/>
	</linearGradient>
	<path style="display:inline;fill:url(#SVGID_7_);" d="M535.328,492.067c-9.184,0-16.293-2.561-21.328-7.681
		c-5.036-5.12-7.554-12.399-7.554-21.836v-7.427c0-9.817,2.422-17.414,7.268-22.788s11.669-8.062,20.472-8.062
		c8.294,0,14.716,3.047,19.265,9.141s6.824,14.642,6.824,25.645v4.316h-44.434v-10.41h32.119c-0.381-5.332-1.768-9.5-4.158-12.505
		s-5.597-4.507-9.616-4.507c-4.867,0-8.654,1.608-11.362,4.824c-2.709,3.216-4.063,7.766-4.063,13.647v8.379
		c0,5.459,1.449,9.648,4.348,12.568s6.972,4.38,12.22,4.38c2.623,0,5.226-0.529,7.808-1.587c2.581-1.058,4.888-2.539,6.919-4.443
		l8.506,8.506c-3.259,3.132-6.919,5.554-10.981,7.268S539.433,492.067,535.328,492.067z"/>
	<linearGradient id="SVGID_8_" gradientUnits="userSpaceOnUse" x1="628.9136" y1="457.941" x2="572.456" y2="458.4154">
		<stop  offset="0.0056" style="stop-color:#DAB954"/>
		<stop  offset="0.1854" style="stop-color:#D1AE55"/>
		<stop  offset="0.5955" style="stop-color:#D6AB18"/>
		<stop  offset="0.8708" style="stop-color:#DCB45F"/>
		<stop  offset="1" style="stop-color:#EBDBCA"/>
	</linearGradient>
	<path style="display:inline;fill:url(#SVGID_8_);" d="M601.344,492.067c-5.84,0-11.14-0.857-15.901-2.571
		c-4.76-1.714-9.024-4.284-12.79-7.712l7.681-9.458c3.597,2.708,7.141,4.739,10.633,6.094c3.49,1.354,6.95,2.031,10.378,2.031
		c5.12,0,8.96-0.794,11.521-2.381s3.841-3.967,3.841-7.141c0-2.454-0.856-4.189-2.571-5.205c-1.713-1.016-3.957-1.683-6.729-2
		s-5.744-0.581-8.918-0.793c-2.666-0.212-5.312-0.54-7.935-0.984c-2.624-0.444-5.015-1.247-7.173-2.412
		c-2.158-1.163-3.883-2.888-5.174-5.173s-1.936-5.354-1.936-9.204c0-6.982,2.137-12.209,6.411-15.679
		c4.273-3.47,10.643-5.205,19.106-5.205c5.162,0,9.966,0.698,14.409,2.095s8.611,3.533,12.505,6.411l-7.808,9.458
		c-3.301-2.116-6.549-3.703-9.743-4.761c-3.196-1.058-6.316-1.587-9.363-1.587c-4.401,0-7.702,0.752-9.902,2.253
		c-2.201,1.503-3.301,3.756-3.301,6.761c0,1.989,0.762,3.418,2.285,4.284c1.523,0.868,3.533,1.429,6.03,1.683
		c2.496,0.254,5.184,0.486,8.062,0.698c2.75,0.169,5.532,0.476,8.348,0.92c2.813,0.444,5.405,1.302,7.775,2.571
		c2.369,1.27,4.273,3.152,5.713,5.649c1.438,2.497,2.158,5.903,2.158,10.22c0,7.067-2.296,12.356-6.887,15.869
		C617.477,490.311,610.568,492.067,601.344,492.067z"/>
</g>
<g id="TeeShirt" style="display:none;">
	<linearGradient id="SVGID_9_" gradientUnits="userSpaceOnUse" x1="749.9095" y1="156.9044" x2="449.5889" y2="159.4281">
		<stop  offset="0.0056" style="stop-color:#DAB954"/>
		<stop  offset="0.1854" style="stop-color:#D1AE55"/>
		<stop  offset="0.5955" style="stop-color:#D6AB18"/>
		<stop  offset="0.8708" style="stop-color:#DCB45F"/>
		<stop  offset="1" style="stop-color:#EBDBCA"/>
	</linearGradient>
	<path style="display:inline;fill:url(#SVGID_9_);" d="M750,167.674c0,0-26.161-76.976-26.172-76.996l-0.005-0.042
		c-9.253-28.798-31.774-53.987-80.98-59.386c-0.692,23.462-19.671,42.284-43.065,42.31c-23.394,0-42.399-18.802-43.117-42.258
		c-49.202,5.451-71.692,30.666-80.913,59.474l-0.005,0.042c-0.011,0.021-26.083,77.022-26.083,77.022l55.183,19.863l13.699-35.508
		v132.606l162.71-0.094l-0.135-132.606l13.725,35.497L750,167.674z"/>
</g>
<g id="R&#xE9;alisations" style="display:none;">
	<linearGradient id="SVGID_10_" gradientUnits="userSpaceOnUse" x1="68.8222" y1="398.164" x2="69.603" y2="491.0808">
		<stop  offset="0.0056" style="stop-color:#DAB954"/>
		<stop  offset="0.1854" style="stop-color:#D1AE55"/>
		<stop  offset="0.5955" style="stop-color:#D6AB18"/>
		<stop  offset="0.8708" style="stop-color:#DCB45F"/>
		<stop  offset="1" style="stop-color:#EBDBCA"/>
	</linearGradient>
	<path style="display:inline;fill:url(#SVGID_10_);" d="M35.958,490.798V398.44h12.949v92.358H35.958z M41.607,451.76v-12.314
		h31.484c3.766,0,6.792-1.311,9.077-3.936c2.285-2.624,3.428-6.094,3.428-10.41s-1.143-7.786-3.428-10.41
		c-2.285-2.624-5.311-3.936-9.077-3.936H41.607V398.44h30.977c5.374,0,10.071,1.111,14.092,3.333
		c4.02,2.222,7.141,5.322,9.363,9.299c2.222,3.978,3.333,8.655,3.333,14.028c0,5.332-1.122,9.998-3.364,13.997
		c-2.244,3.999-5.364,7.109-9.363,9.331s-8.687,3.333-14.06,3.333H41.607z M87.882,490.798l-21.138-41.894l12.886-2.92
		l23.613,44.814H87.882z"/>
	<linearGradient id="SVGID_11_" gradientUnits="userSpaceOnUse" x1="141.2517" y1="383.2417" x2="142.1637" y2="491.7656">
		<stop  offset="0.0056" style="stop-color:#DAB954"/>
		<stop  offset="0.1854" style="stop-color:#D1AE55"/>
		<stop  offset="0.5955" style="stop-color:#D6AB18"/>
		<stop  offset="0.8708" style="stop-color:#DCB45F"/>
		<stop  offset="1" style="stop-color:#EBDBCA"/>
	</linearGradient>
	<path style="display:inline;fill:url(#SVGID_11_);" d="M143.868,491.75c-9.183,0-16.292-2.56-21.328-7.681
		c-5.037-5.119-7.554-12.398-7.554-21.836v-7.427c0-9.816,2.422-17.413,7.268-22.788c4.845-5.374,11.669-8.062,20.471-8.062
		c8.293,0,14.716,3.047,19.265,9.141c4.548,6.094,6.824,14.642,6.824,25.644v4.316h-44.434v-10.41H156.5
		c-0.381-5.332-1.768-9.5-4.158-12.505c-2.391-3.004-5.597-4.507-9.617-4.507c-4.867,0-8.655,1.609-11.362,4.824
		c-2.708,3.216-4.063,7.766-4.063,13.647v8.379c0,5.459,1.449,9.648,4.348,12.568c2.898,2.92,6.972,4.38,12.219,4.38
		c2.624,0,5.226-0.528,7.808-1.587c2.581-1.057,4.888-2.539,6.919-4.443l8.506,8.506c-3.259,3.133-6.919,5.555-10.981,7.269
		S147.972,491.75,143.868,491.75z M143.043,412.215l-8.125-6.538l18.154-22.534l9.331,7.744L143.043,412.215z"/>
	<linearGradient id="SVGID_12_" gradientUnits="userSpaceOnUse" x1="209.4548" y1="423.9619" x2="210.0243" y2="491.7318">
		<stop  offset="0.0056" style="stop-color:#DAB954"/>
		<stop  offset="0.1854" style="stop-color:#D1AE55"/>
		<stop  offset="0.5955" style="stop-color:#D6AB18"/>
		<stop  offset="0.8708" style="stop-color:#DCB45F"/>
		<stop  offset="1" style="stop-color:#EBDBCA"/>
	</linearGradient>
	<path style="display:inline;fill:url(#SVGID_12_);" d="M207.662,491.75c-8.083,0-14.146-1.671-18.186-5.015
		c-4.042-3.342-6.062-8.463-6.062-15.361c0-6.559,1.851-11.457,5.554-14.694c3.703-3.237,9.257-4.856,16.663-4.856h18.726
		l0.889,10.41h-19.551c-3.343,0-5.862,0.752-7.554,2.254c-1.693,1.502-2.539,3.799-2.539,6.887c0,3.344,1.121,5.819,3.364,7.427
		c2.243,1.609,5.607,2.412,10.093,2.412c4.909,0,8.59-0.528,11.045-1.587c2.454-1.057,3.682-2.707,3.682-4.951l1.333,9.268
		c-1.143,1.777-2.561,3.237-4.253,4.38c-1.693,1.143-3.629,2-5.808,2.571C212.877,491.465,210.413,491.75,207.662,491.75z
		 M223.785,490.798v-41.767c0-4.316-1.153-7.67-3.459-10.061c-2.307-2.39-5.576-3.586-9.807-3.586c-2.582,0-5.132,0.392-7.649,1.174
		c-2.518,0.784-4.771,1.915-6.76,3.396l-9.458-6.475c2.497-3.004,5.786-5.342,9.871-7.014c4.083-1.671,8.622-2.507,13.616-2.507
		c8.252,0,14.641,2.137,19.17,6.411c4.528,4.275,6.792,10.305,6.792,18.091v42.338H223.785z"/>
	<linearGradient id="SVGID_13_" gradientUnits="userSpaceOnUse" x1="266.6438" y1="398.4124" x2="267.4236" y2="491.2112">
		<stop  offset="0.0056" style="stop-color:#DAB954"/>
		<stop  offset="0.1854" style="stop-color:#D1AE55"/>
		<stop  offset="0.5955" style="stop-color:#D6AB18"/>
		<stop  offset="0.8708" style="stop-color:#DCB45F"/>
		<stop  offset="1" style="stop-color:#EBDBCA"/>
	</linearGradient>
	<path style="display:inline;fill:url(#SVGID_13_);" d="M268.727,398.504v75.283c0,1.566,0.349,2.793,1.047,3.682
		s1.682,1.333,2.952,1.333h6.094v12.314h-7.617c-4.867,0-8.655-1.523-11.362-4.57c-2.708-3.047-4.063-7.341-4.063-12.886v-75.156
		H268.727z"/>
	<linearGradient id="SVGID_14_" gradientUnits="userSpaceOnUse" x1="299.5053" y1="398.4525" x2="300.2818" y2="490.8492">
		<stop  offset="0.0056" style="stop-color:#DAB954"/>
		<stop  offset="0.1854" style="stop-color:#D1AE55"/>
		<stop  offset="0.5955" style="stop-color:#D6AB18"/>
		<stop  offset="0.8708" style="stop-color:#DCB45F"/>
		<stop  offset="1" style="stop-color:#EBDBCA"/>
	</linearGradient>
	<path style="display:inline;fill:url(#SVGID_14_);" d="M293.419,411.453v-12.949h12.949v12.949H293.419z M293.419,490.798V424.91
		h12.949v65.888H293.419z"/>
	<linearGradient id="SVGID_15_" gradientUnits="userSpaceOnUse" x1="348.398" y1="423.9673" x2="348.9677" y2="491.7559">
		<stop  offset="0.0056" style="stop-color:#DAB954"/>
		<stop  offset="0.1854" style="stop-color:#D1AE55"/>
		<stop  offset="0.5955" style="stop-color:#D6AB18"/>
		<stop  offset="0.8708" style="stop-color:#DCB45F"/>
		<stop  offset="1" style="stop-color:#EBDBCA"/>
	</linearGradient>
	<path style="display:inline;fill:url(#SVGID_15_);" d="M349.342,491.75c-5.84,0-11.14-0.856-15.901-2.57s-9.024-4.285-12.791-7.713
		l7.681-9.458c3.596,2.709,7.141,4.74,10.632,6.094c3.491,1.355,6.951,2.031,10.378,2.031c5.12,0,8.96-0.793,11.521-2.38
		c2.56-1.587,3.84-3.968,3.84-7.142c0-2.453-0.857-4.189-2.571-5.205s-3.958-1.682-6.729-1.999
		c-2.772-0.317-5.745-0.581-8.918-0.794c-2.666-0.211-5.311-0.539-7.935-0.983c-2.625-0.444-5.015-1.248-7.173-2.412
		s-3.883-2.889-5.173-5.174c-1.292-2.285-1.936-5.353-1.936-9.204c0-6.982,2.136-12.208,6.411-15.679
		c4.274-3.469,10.642-5.205,19.106-5.205c5.163,0,9.966,0.698,14.409,2.095s8.611,3.534,12.505,6.411l-7.808,9.458
		c-3.301-2.116-6.549-3.703-9.744-4.761c-3.196-1.057-6.316-1.587-9.363-1.587c-4.402,0-7.703,0.752-9.902,2.253
		c-2.201,1.502-3.301,3.756-3.301,6.76c0,1.99,0.762,3.418,2.285,4.285c1.523,0.868,3.533,1.428,6.03,1.682
		c2.497,0.254,5.183,0.487,8.062,0.698c2.75,0.169,5.532,0.476,8.347,0.92c2.814,0.444,5.405,1.301,7.776,2.57
		c2.369,1.27,4.273,3.153,5.713,5.649c1.438,2.498,2.158,5.903,2.158,10.22c0,7.068-2.296,12.357-6.887,15.869
		C365.475,489.995,358.567,491.75,349.342,491.75z"/>
	<linearGradient id="SVGID_16_" gradientUnits="userSpaceOnUse" x1="416.3249" y1="423.9619" x2="416.8944" y2="491.7318">
		<stop  offset="0.0056" style="stop-color:#DAB954"/>
		<stop  offset="0.1854" style="stop-color:#D1AE55"/>
		<stop  offset="0.5955" style="stop-color:#D6AB18"/>
		<stop  offset="0.8708" style="stop-color:#DCB45F"/>
		<stop  offset="1" style="stop-color:#EBDBCA"/>
	</linearGradient>
	<path style="display:inline;fill:url(#SVGID_16_);" d="M414.532,491.75c-8.083,0-14.146-1.671-18.186-5.015
		c-4.042-3.342-6.063-8.463-6.063-15.361c0-6.559,1.851-11.457,5.555-14.694c3.702-3.237,9.256-4.856,16.662-4.856h18.726
		l0.889,10.41h-19.551c-3.344,0-5.861,0.752-7.554,2.254c-1.693,1.502-2.539,3.799-2.539,6.887c0,3.344,1.121,5.819,3.364,7.427
		c2.242,1.609,5.606,2.412,10.093,2.412c4.908,0,8.59-0.528,11.045-1.587c2.454-1.057,3.682-2.707,3.682-4.951l1.333,9.268
		c-1.143,1.777-2.561,3.237-4.253,4.38c-1.693,1.143-3.629,2-5.809,2.571S417.282,491.75,414.532,491.75z M430.655,490.798v-41.767
		c0-4.316-1.153-7.67-3.459-10.061c-2.308-2.39-5.576-3.586-9.808-3.586c-2.582,0-5.132,0.392-7.649,1.174
		c-2.518,0.784-4.771,1.915-6.76,3.396l-9.458-6.475c2.496-3.004,5.786-5.342,9.87-7.014c4.084-1.671,8.622-2.507,13.616-2.507
		c8.252,0,14.642,2.137,19.17,6.411c4.527,4.275,6.792,10.305,6.792,18.091v42.338H430.655z"/>
	<linearGradient id="SVGID_17_" gradientUnits="userSpaceOnUse" x1="472.2121" y1="405.674" x2="472.9312" y2="491.236">
		<stop  offset="0.0056" style="stop-color:#DAB954"/>
		<stop  offset="0.1854" style="stop-color:#D1AE55"/>
		<stop  offset="0.5955" style="stop-color:#D6AB18"/>
		<stop  offset="0.8708" style="stop-color:#DCB45F"/>
		<stop  offset="1" style="stop-color:#EBDBCA"/>
	</linearGradient>
	<path style="display:inline;fill:url(#SVGID_17_);" d="M457.569,436.59v-11.68h29.707v11.68H457.569z M479.786,491.115
		c-5.417,0-9.342-1.501-11.775-4.507c-2.434-3.004-3.649-7.32-3.649-12.949V405.74h12.949v68.046c0,1.566,0.317,2.793,0.952,3.682
		s1.565,1.333,2.793,1.333h6.221v12.314H479.786z"/>
	<linearGradient id="SVGID_18_" gradientUnits="userSpaceOnUse" x1="511.1362" y1="398.4525" x2="511.9126" y2="490.8492">
		<stop  offset="0.0056" style="stop-color:#DAB954"/>
		<stop  offset="0.1854" style="stop-color:#D1AE55"/>
		<stop  offset="0.5955" style="stop-color:#D6AB18"/>
		<stop  offset="0.8708" style="stop-color:#DCB45F"/>
		<stop  offset="1" style="stop-color:#EBDBCA"/>
	</linearGradient>
	<path style="display:inline;fill:url(#SVGID_18_);" d="M505.05,411.453v-12.949h12.949v12.949H505.05z M505.05,490.798V424.91
		h12.949v65.888H505.05z"/>
	<linearGradient id="SVGID_19_" gradientUnits="userSpaceOnUse" x1="562.6569" y1="423.9586" x2="563.2266" y2="491.7494">
		<stop  offset="0.0056" style="stop-color:#DAB954"/>
		<stop  offset="0.1854" style="stop-color:#D1AE55"/>
		<stop  offset="0.5955" style="stop-color:#D6AB18"/>
		<stop  offset="0.8708" style="stop-color:#DCB45F"/>
		<stop  offset="1" style="stop-color:#EBDBCA"/>
	</linearGradient>
	<path style="display:inline;fill:url(#SVGID_19_);" d="M562.94,491.75c-8.633,0-15.319-2.507-20.059-7.521
		c-4.74-5.015-7.109-12.07-7.109-21.17v-10.727c0-9.014,2.369-15.996,7.109-20.947c4.739-4.951,11.426-7.427,20.059-7.427
		s15.318,2.476,20.059,7.427c4.739,4.951,7.109,11.934,7.109,20.947v10.917c0,9.057-2.37,16.07-7.109,21.043
		C578.259,489.265,571.573,491.75,562.94,491.75z M562.94,479.436c4.527,0,8.029-1.417,10.506-4.253
		c2.475-2.834,3.713-6.813,3.713-11.934v-10.917c0-5.12-1.238-9.077-3.713-11.87c-2.477-2.793-5.979-4.189-10.506-4.189
		c-4.486,0-7.978,1.396-10.474,4.189c-2.497,2.793-3.745,6.75-3.745,11.87v10.917c0,5.121,1.248,9.1,3.745,11.934
		C554.963,478.019,558.454,479.436,562.94,479.436z"/>
	<linearGradient id="SVGID_20_" gradientUnits="userSpaceOnUse" x1="634.5939" y1="423.9939" x2="635.1572" y2="491.0191">
		<stop  offset="0.0056" style="stop-color:#DAB954"/>
		<stop  offset="0.1854" style="stop-color:#D1AE55"/>
		<stop  offset="0.5955" style="stop-color:#D6AB18"/>
		<stop  offset="0.8708" style="stop-color:#DCB45F"/>
		<stop  offset="1" style="stop-color:#EBDBCA"/>
	</linearGradient>
	<path style="display:inline;fill:url(#SVGID_20_);" d="M608.517,490.798V424.91h12.949v65.888H608.517z M648.507,490.798v-39.926
		c0-4.655-1.196-8.252-3.586-10.791c-2.392-2.539-5.788-3.809-10.188-3.809c-4.232,0-7.501,1.122-9.808,3.364
		c-2.307,2.244-3.459,5.396-3.459,9.458l-1.333-12.695c2.031-3.977,4.687-7.046,7.966-9.204s6.908-3.237,10.887-3.237
		c7.151,0,12.685,2.339,16.6,7.014c3.913,4.676,5.871,11.289,5.871,19.836v39.99H648.507z"/>
	<linearGradient id="SVGID_21_" gradientUnits="userSpaceOnUse" x1="703.4859" y1="423.9673" x2="704.0555" y2="491.7559">
		<stop  offset="0.0056" style="stop-color:#DAB954"/>
		<stop  offset="0.1854" style="stop-color:#D1AE55"/>
		<stop  offset="0.5955" style="stop-color:#D6AB18"/>
		<stop  offset="0.8708" style="stop-color:#DCB45F"/>
		<stop  offset="1" style="stop-color:#EBDBCA"/>
	</linearGradient>
	<path style="display:inline;fill:url(#SVGID_21_);" d="M704.43,491.75c-5.84,0-11.14-0.856-15.901-2.57
		c-4.76-1.714-9.024-4.285-12.79-7.713l7.681-9.458c3.597,2.709,7.141,4.74,10.633,6.094c3.49,1.355,6.95,2.031,10.378,2.031
		c5.12,0,8.96-0.793,11.521-2.38s3.841-3.968,3.841-7.142c0-2.453-0.856-4.189-2.571-5.205c-1.713-1.016-3.957-1.682-6.729-1.999
		s-5.744-0.581-8.918-0.794c-2.666-0.211-5.312-0.539-7.935-0.983c-2.624-0.444-5.015-1.248-7.173-2.412s-3.883-2.889-5.174-5.174
		c-1.291-2.285-1.936-5.353-1.936-9.204c0-6.982,2.137-12.208,6.411-15.679c4.273-3.469,10.643-5.205,19.106-5.205
		c5.162,0,9.966,0.698,14.409,2.095s8.611,3.534,12.505,6.411l-7.808,9.458c-3.301-2.116-6.549-3.703-9.743-4.761
		c-3.196-1.057-6.316-1.587-9.363-1.587c-4.401,0-7.702,0.752-9.902,2.253c-2.201,1.502-3.301,3.756-3.301,6.76
		c0,1.99,0.762,3.418,2.285,4.285c1.523,0.868,3.533,1.428,6.03,1.682c2.496,0.254,5.184,0.487,8.062,0.698
		c2.75,0.169,5.532,0.476,8.348,0.92c2.813,0.444,5.405,1.301,7.775,2.57c2.369,1.27,4.273,3.153,5.713,5.649
		c1.438,2.498,2.158,5.903,2.158,10.22c0,7.068-2.296,12.357-6.887,15.869C720.563,489.995,713.654,491.75,704.43,491.75z"/>
</g>
<g id="Billets" style="display:none;">
	<linearGradient id="SVGID_22_" gradientUnits="userSpaceOnUse" x1="720.0698" y1="153.7207" x2="488.0759" y2="155.6703">
		<stop  offset="0.0056" style="stop-color:#DAB954"/>
		<stop  offset="0.1854" style="stop-color:#D1AE55"/>
		<stop  offset="0.5955" style="stop-color:#D6AB18"/>
		<stop  offset="0.8708" style="stop-color:#DCB45F"/>
		<stop  offset="1" style="stop-color:#EBDBCA"/>
	</linearGradient>
	<polygon style="display:inline;fill:url(#SVGID_22_);" points="719.532,89.681 719.588,103.049 571.118,219.017 488.226,173.576 
		488.17,161.505 571.062,206.405 	"/>
	<linearGradient id="SVGID_23_" gradientUnits="userSpaceOnUse" x1="720.2255" y1="184.7003" x2="488.2384" y2="186.6498">
		<stop  offset="0.0056" style="stop-color:#DAB954"/>
		<stop  offset="0.1854" style="stop-color:#D1AE55"/>
		<stop  offset="0.5955" style="stop-color:#D6AB18"/>
		<stop  offset="0.8708" style="stop-color:#DCB45F"/>
		<stop  offset="1" style="stop-color:#EBDBCA"/>
	</linearGradient>
	<polygon style="display:inline;fill:url(#SVGID_23_);" points="719.687,120.657 719.758,134.018 571.288,250 488.389,204.553 
		488.332,192.474 571.231,237.382 	"/>
	<linearGradient id="SVGID_24_" gradientUnits="userSpaceOnUse" x1="571.6753" y1="134.6808" x2="560.0724" y2="134.7783">
		<stop  offset="0.0056" style="stop-color:#DAB954"/>
		<stop  offset="0.1854" style="stop-color:#D1AE55"/>
		<stop  offset="0.5955" style="stop-color:#D6AB18"/>
		<stop  offset="0.8708" style="stop-color:#DCB45F"/>
		<stop  offset="1" style="stop-color:#EBDBCA"/>
	</linearGradient>
	<path style="display:inline;fill:url(#SVGID_24_);" d="M561.69,132.488c0.559-0.435,1.209-0.78,1.896-1.043
		c0.693-0.255,1.436-0.428,2.171-0.503c0.736-0.083,1.485-0.06,2.185,0.045c0.7,0.12,1.365,0.323,1.945,0.63
		c0.58,0.315,1.018,0.69,1.315,1.125c0.29,0.42,0.453,0.885,0.467,1.373s-0.113,0.983-0.382,1.471s-0.679,0.968-1.231,1.403
		c-0.552,0.42-1.202,0.765-1.896,1.02c-0.693,0.255-1.429,0.435-2.171,0.51c-0.743,0.075-1.492,0.06-2.199-0.045
		c-0.7-0.112-1.358-0.315-1.938-0.63c-0.58-0.308-1.018-0.69-1.315-1.118s-0.445-0.9-0.46-1.388
		c-0.014-0.48,0.113-0.983,0.382-1.471C560.729,133.388,561.139,132.915,561.69,132.488z"/>
	<linearGradient id="SVGID_25_" gradientUnits="userSpaceOnUse" x1="720.052" y1="104.5936" x2="487.712" y2="106.5461">
		<stop  offset="0.0056" style="stop-color:#DAB954"/>
		<stop  offset="0.1854" style="stop-color:#D1AE55"/>
		<stop  offset="0.5955" style="stop-color:#D6AB18"/>
		<stop  offset="0.8708" style="stop-color:#DCB45F"/>
		<stop  offset="1" style="stop-color:#EBDBCA"/>
	</linearGradient>
	<path style="display:inline;fill:url(#SVGID_25_);" d="M488,140.822L637.008,25.688l82.75,43.91l-149.05,115.854L488,140.822z
		 M686.658,64.121l-35.194-18.695c-1.952,1.133-4.109,2.041-6.351,2.716c-2.249,0.683-4.583,1.118-6.931,1.328
		c-2.334,0.195-4.668,0.15-6.91-0.143c-2.242-0.293-4.378-0.848-6.33-1.673l-38.575,29.828c3.734-0.863,7.631-1.395,11.599-1.606
		c3.968-0.21,7.999-0.09,11.995,0.36c3.996,0.465,7.95,1.245,11.755,2.378s7.469,2.603,10.871,4.419
		c3.402,1.815,6.323,3.856,8.756,6.047c2.426,2.206,4.371,4.561,5.807,7.007c1.443,2.446,2.376,4.981,2.794,7.54
		c0.417,2.558,0.318,5.132-0.311,7.66l38.581-29.971c-1.627-1.08-2.872-2.333-3.748-3.698c-0.877-1.366-1.386-2.836-1.514-4.351
		s0.113-3.083,0.728-4.621C684.295,67.099,685.293,65.569,686.658,64.121 M582.951,163.074l38.808-30.136
		c-3.748,0.87-7.667,1.411-11.642,1.613c-3.989,0.21-8.035,0.083-12.052-0.375c-4.003-0.458-7.964-1.253-11.783-2.393
		c-3.805-1.14-7.469-2.618-10.864-4.441c-3.409-1.831-6.323-3.886-8.756-6.092c-2.419-2.213-4.357-4.576-5.779-7.022
		c-1.422-2.461-2.341-4.996-2.737-7.547c-0.41-2.558-0.297-5.124,0.354-7.645l-38.794,29.993c1.606,1.088,2.836,2.356,3.699,3.729
		c0.863,1.365,1.351,2.851,1.471,4.381c0.113,1.523-0.142,3.091-0.778,4.652c-0.636,1.56-1.641,3.098-3.027,4.554l35.18,18.973
		c1.973-1.155,4.144-2.071,6.401-2.753s4.618-1.133,6.967-1.328c2.355-0.195,4.703-0.157,6.96,0.15
		C578.827,161.685,580.992,162.248,582.951,163.074 M603.285,91.121l-5.149-4.396l-0.934,0.383
		c-0.693,0.285-1.372,0.585-2.023,0.908c-0.665,0.315-1.301,0.66-1.917,1.005c-0.615,0.36-1.224,0.72-1.803,1.111
		s-1.139,0.78-1.676,1.2c-2.016,1.56-3.628,3.263-4.831,5.034c-1.195,1.771-1.98,3.609-2.334,5.447
		c-0.354,1.838-0.283,3.669,0.234,5.424c0.516,1.771,1.471,3.451,2.886,4.996l-3.508,2.716l4.859,2.603l2.688-2.086l0.198,0.112
		l0.198,0.112l0.198,0.12l0.212,0.12l0.523,0.263l0.538,0.263l0.566,0.248l0.608,0.255l-2.801,2.161l4.866,2.611l3.947-3.061
		c2.532,0.45,5.17,0.63,7.815,0.54c2.652-0.075,5.311-0.42,7.886-1.005c2.581-0.585,5.078-1.418,7.412-2.468
		c2.327-1.051,4.484-2.318,6.38-3.789c0.403-0.315,0.792-0.638,1.167-0.96c0.375-0.323,0.728-0.66,1.075-0.991
		c0.339-0.345,0.672-0.69,0.983-1.035c0.311-0.352,0.608-0.705,0.891-1.073l0.431-0.563l-6.839-3.661l-0.679,1.095
		c-0.212,0.345-0.439,0.683-0.693,1.005c-0.248,0.33-0.523,0.652-0.806,0.968c-0.297,0.308-0.601,0.615-0.919,0.908
		c-0.326,0.3-0.672,0.585-1.033,0.87c-1.061,0.81-2.221,1.538-3.48,2.161c-1.245,0.63-2.589,1.148-3.975,1.56
		c-1.393,0.42-2.843,0.72-4.307,0.915c-1.471,0.18-2.964,0.255-4.449,0.203l12.377-9.603l-3.918-3.331l-15.152,11.74l-0.594-0.225
		l-0.58-0.24l-0.552-0.255l-0.545-0.27l-0.205-0.12l-0.205-0.12l-0.191-0.12l-0.184-0.12L611.8,98.398l-3.89-3.346l-15.567,12.056
		c-0.573-0.975-0.905-2.018-1.011-3.076c-0.113-1.058,0-2.138,0.339-3.218c0.325-1.065,0.877-2.131,1.634-3.158
		c0.757-1.02,1.719-1.995,2.886-2.896c0.403-0.315,0.827-0.615,1.273-0.908c0.445-0.285,0.913-0.555,1.393-0.818
		c0.481-0.263,0.976-0.518,1.5-0.75c0.516-0.24,1.047-0.458,1.598-0.668L603.285,91.121"/>
	<linearGradient id="SVGID_26_" gradientUnits="userSpaceOnUse" x1="647.8504" y1="75.6326" x2="636.2805" y2="75.7299">
		<stop  offset="0.0056" style="stop-color:#DAB954"/>
		<stop  offset="0.1854" style="stop-color:#D1AE55"/>
		<stop  offset="0.5955" style="stop-color:#D6AB18"/>
		<stop  offset="0.8708" style="stop-color:#DCB45F"/>
		<stop  offset="1" style="stop-color:#EBDBCA"/>
	</linearGradient>
	<path style="display:inline;fill:url(#SVGID_26_);" d="M637.898,73.446c0.545-0.42,1.188-0.765,1.867-1.02
		c0.693-0.255,1.429-0.428,2.164-0.51c0.743-0.075,1.485-0.06,2.193,0.045c0.7,0.112,1.358,0.315,1.945,0.63
		c0.573,0.3,1.011,0.683,1.309,1.111c0.297,0.42,0.453,0.885,0.467,1.365c0.029,0.488-0.099,0.983-0.368,1.471
		c-0.262,0.48-0.665,0.945-1.217,1.373c-0.552,0.427-1.202,0.773-1.881,1.028c-0.693,0.255-1.436,0.428-2.171,0.503
		c-0.743,0.083-1.478,0.068-2.185-0.045c-0.7-0.112-1.358-0.323-1.938-0.623c-0.58-0.315-1.018-0.69-1.315-1.111
		c-0.297-0.42-0.46-0.893-0.481-1.373c-0.014-0.48,0.113-0.975,0.382-1.463C636.937,74.347,637.347,73.881,637.898,73.446z"/>
</g>
<g id="Tarifs" style="display:none;">
	<linearGradient id="SVGID_27_" gradientUnits="userSpaceOnUse" x1="255.4377" y1="399.7911" x2="256.2159" y2="492.4081">
		<stop  offset="0.0056" style="stop-color:#DAB954"/>
		<stop  offset="0.1854" style="stop-color:#D1AE55"/>
		<stop  offset="0.5955" style="stop-color:#D6AB18"/>
		<stop  offset="0.8708" style="stop-color:#DCB45F"/>
		<stop  offset="1" style="stop-color:#EBDBCA"/>
	</linearGradient>
	<path style="display:inline;fill:url(#SVGID_27_);" d="M222.928,412.379v-12.314h65.127v12.314H222.928z M249.017,492.36v-84.742
		h12.949v84.742H249.017z"/>
	<linearGradient id="SVGID_28_" gradientUnits="userSpaceOnUse" x1="314.7307" y1="425.5226" x2="315.3001" y2="493.2934">
		<stop  offset="0.0056" style="stop-color:#DAB954"/>
		<stop  offset="0.1854" style="stop-color:#D1AE55"/>
		<stop  offset="0.5955" style="stop-color:#D6AB18"/>
		<stop  offset="0.8708" style="stop-color:#DCB45F"/>
		<stop  offset="1" style="stop-color:#EBDBCA"/>
	</linearGradient>
	<path style="display:inline;fill:url(#SVGID_28_);" d="M312.938,493.312c-8.083,0-14.146-1.672-18.186-5.015
		c-4.042-3.343-6.062-8.464-6.062-15.361c0-6.56,1.851-11.458,5.554-14.695c3.703-3.237,9.257-4.856,16.663-4.856h18.726
		l0.889,10.411H310.97c-3.343,0-5.862,0.752-7.554,2.253c-1.693,1.503-2.539,3.799-2.539,6.888c0,3.343,1.121,5.818,3.364,7.427
		c2.243,1.608,5.607,2.412,10.093,2.412c4.909,0,8.59-0.529,11.045-1.587c2.454-1.058,3.682-2.708,3.682-4.951l1.333,9.268
		c-1.143,1.777-2.561,3.237-4.253,4.38c-1.693,1.143-3.629,1.999-5.808,2.57C318.153,493.026,315.688,493.312,312.938,493.312z
		 M329.061,492.36v-41.768c0-4.316-1.153-7.67-3.459-10.061c-2.307-2.39-5.576-3.586-9.807-3.586c-2.582,0-5.132,0.392-7.649,1.174
		c-2.518,0.784-4.771,1.915-6.76,3.396l-9.458-6.475c2.497-3.004,5.786-5.342,9.871-7.014c4.083-1.671,8.622-2.507,13.616-2.507
		c8.252,0,14.641,2.137,19.17,6.411c4.528,4.275,6.792,10.305,6.792,18.091v42.339H329.061z"/>
	<linearGradient id="SVGID_29_" gradientUnits="userSpaceOnUse" x1="383.0948" y1="425.5858" x2="383.6553" y2="492.2786">
		<stop  offset="0.0056" style="stop-color:#DAB954"/>
		<stop  offset="0.1854" style="stop-color:#D1AE55"/>
		<stop  offset="0.5955" style="stop-color:#D6AB18"/>
		<stop  offset="0.8708" style="stop-color:#DCB45F"/>
		<stop  offset="1" style="stop-color:#EBDBCA"/>
	</linearGradient>
	<path style="display:inline;fill:url(#SVGID_29_);" d="M361.053,492.36v-65.889h12.949v65.889H361.053z M397.298,442.086
		c-1.143-1.396-2.581-2.454-4.316-3.174c-1.735-0.719-3.745-1.079-6.03-1.079c-4.104,0-7.29,1.133-9.553,3.396
		c-2.264,2.264-3.396,5.406-3.396,9.426l-1.333-12.695c1.989-3.893,4.602-6.94,7.839-9.141c3.237-2.2,6.802-3.301,10.695-3.301
		c3.005,0,5.723,0.435,8.157,1.301c2.433,0.868,4.56,2.148,6.379,3.84L397.298,442.086z"/>
	<linearGradient id="SVGID_30_" gradientUnits="userSpaceOnUse" x1="422.6176" y1="400.0132" x2="423.3941" y2="492.4109">
		<stop  offset="0.0056" style="stop-color:#DAB954"/>
		<stop  offset="0.1854" style="stop-color:#D1AE55"/>
		<stop  offset="0.5955" style="stop-color:#D6AB18"/>
		<stop  offset="0.8708" style="stop-color:#DCB45F"/>
		<stop  offset="1" style="stop-color:#EBDBCA"/>
	</linearGradient>
	<path style="display:inline;fill:url(#SVGID_30_);" d="M416.531,413.014v-12.949h12.949v12.949H416.531z M416.531,492.36v-65.889
		h12.949v65.889H416.531z"/>
	<linearGradient id="SVGID_31_" gradientUnits="userSpaceOnUse" x1="460.3954" y1="400.1229" x2="461.1707" y2="492.3836">
		<stop  offset="0.0056" style="stop-color:#DAB954"/>
		<stop  offset="0.1854" style="stop-color:#D1AE55"/>
		<stop  offset="0.5955" style="stop-color:#D6AB18"/>
		<stop  offset="0.8708" style="stop-color:#DCB45F"/>
		<stop  offset="1" style="stop-color:#EBDBCA"/>
	</linearGradient>
	<path style="display:inline;fill:url(#SVGID_31_);" d="M444.08,437.516v-11.045h32.944v11.045H444.08z M451.063,492.36V417.52
		c0-5.797,1.333-10.156,3.999-13.076s6.813-4.38,12.441-4.38h9.521v12.314h-9.268c-1.312,0-2.264,0.498-2.856,1.492
		c-0.593,0.995-0.889,2.169-0.889,3.523v74.966H451.063z"/>
	<linearGradient id="SVGID_32_" gradientUnits="userSpaceOnUse" x1="510.1675" y1="425.5279" x2="510.7372" y2="493.3176">
		<stop  offset="0.0056" style="stop-color:#DAB954"/>
		<stop  offset="0.1854" style="stop-color:#D1AE55"/>
		<stop  offset="0.5955" style="stop-color:#D6AB18"/>
		<stop  offset="0.8708" style="stop-color:#DCB45F"/>
		<stop  offset="1" style="stop-color:#EBDBCA"/>
	</linearGradient>
	<path style="display:inline;fill:url(#SVGID_32_);" d="M511.111,493.312c-5.84,0-11.14-0.857-15.9-2.571s-9.024-4.284-12.791-7.712
		l7.681-9.458c3.597,2.708,7.142,4.739,10.633,6.094s6.95,2.031,10.378,2.031c5.12,0,8.96-0.794,11.521-2.381
		c2.56-1.587,3.84-3.967,3.84-7.141c0-2.454-0.856-4.189-2.57-5.205s-3.958-1.683-6.729-2c-2.772-0.317-5.745-0.581-8.919-0.793
		c-2.666-0.212-5.311-0.54-7.935-0.984s-5.015-1.247-7.173-2.412c-2.158-1.163-3.883-2.888-5.173-5.173
		c-1.292-2.286-1.937-5.354-1.937-9.205c0-6.982,2.137-12.208,6.411-15.679c4.274-3.469,10.643-5.205,19.106-5.205
		c5.163,0,9.966,0.698,14.409,2.095s8.611,3.534,12.505,6.411l-7.808,9.458c-3.301-2.116-6.549-3.703-9.743-4.761
		c-3.196-1.057-6.316-1.587-9.363-1.587c-4.401,0-7.702,0.752-9.902,2.253c-2.2,1.502-3.301,3.756-3.301,6.76
		c0,1.99,0.762,3.418,2.285,4.285c1.523,0.868,3.533,1.428,6.03,1.682s5.184,0.487,8.062,0.698c2.751,0.169,5.532,0.476,8.348,0.92
		c2.813,0.444,5.405,1.301,7.775,2.571c2.37,1.27,4.274,3.152,5.713,5.649s2.158,5.903,2.158,10.22
		c0,7.067-2.296,12.356-6.887,15.869C527.244,491.556,520.337,493.312,511.111,493.312z"/>
</g>
<g id="MachineACoudre" style="display:none;">
	<g style="display:inline;">
		<g>
			<linearGradient id="SVGID_33_" gradientUnits="userSpaceOnUse" x1="735.1086" y1="145.611" x2="465.7865" y2="147.8742">
				<stop  offset="0.0056" style="stop-color:#DAB954"/>
				<stop  offset="0.1854" style="stop-color:#D1AE55"/>
				<stop  offset="0.5955" style="stop-color:#D6AB18"/>
				<stop  offset="0.8708" style="stop-color:#DCB45F"/>
				<stop  offset="1" style="stop-color:#EBDBCA"/>
			</linearGradient>
			<path style="fill:url(#SVGID_33_);" d="M718.044,233.742h-13.467V152.94c0-1.593-0.049-3.178-0.139-4.749
				c-1.351-23.392-13.305-44.679-32.796-58.397c-11.721-8.26-25.102-13.126-38.888-14.445V58.671h4.489h8.978
				c2.478,0,4.489-2.006,4.489-4.489s-2.011-4.489-4.489-4.489h-4.489V31.737h4.489c2.478,0,4.489-2.006,4.489-4.489
				s-2.011-4.489-4.489-4.489h-8.978h-17.956h-8.978c-2.478,0-4.489,2.006-4.489,4.489s2.011,4.489,4.489,4.489h4.489v17.956h-4.489
				c-2.478,0-4.489,2.006-4.489,4.489s2.011,4.489,4.489,4.489h8.978h4.489v16.327c-7.201,0.121-14.441,1.194-21.542,3.286
				l-47.197,13.885c-5.459,1.598-11.106,2.415-16.784,2.415h-3.282c-8.633,0-17.112-2.348-24.519-6.792
				c-3.883-2.33-7.267-6.007-10.343-11.24c-3.218-5.49-9.158-8.902-15.491-8.902c-9.903,0.001-17.956,8.053-17.956,17.956v103.247
				c0,8.345,5.746,15.312,13.467,17.319v14.104c0,2.482,2.011,4.489,4.489,4.489s4.489-2.006,4.489-4.489v-14.105
				c7.721-2.006,13.467-8.973,13.467-17.319v-8.978c0-12.376,10.069-22.445,22.445-22.445h62.846c4.794,0,9.499,1.27,13.597,3.672
				c9.768,5.719,14.54,17.906,11.604,29.645l-10.751,42.996H484.615c-9.902,0-17.956,8.053-17.956,17.956
				c0,9.903,8.053,17.956,17.956,17.956h233.428c9.903,0,17.956-8.053,17.956-17.956C736,241.796,727.947,233.742,718.044,233.742z
				 M529.506,112.539h26.934c2.478,0,4.489,2.006,4.489,4.489c0,2.482-2.011,4.489-4.489,4.489h-26.934
				c-2.478,0-4.489-2.006-4.489-4.489C525.017,114.546,527.028,112.539,529.506,112.539z M574.396,139.473h-44.89
				c-2.478,0-4.489-2.006-4.489-4.489c0-2.482,2.011-4.489,4.489-4.489h44.89c2.478,0,4.489,2.006,4.489,4.489
				C578.885,137.467,576.873,139.473,574.396,139.473z M623.775,31.737h8.978v17.956h-8.978V31.737z M646.22,215.787
				c-2.478,0-4.489-2.011-4.489-4.489c0-2.478,2.011-4.489,4.489-4.489s4.489,2.011,4.489,4.489
				C650.708,213.775,648.698,215.787,646.22,215.787z M664.176,215.787c-2.478,0-4.489-2.011-4.489-4.489
				c0-2.478,2.011-4.489,4.489-4.489s4.489,2.011,4.489,4.489C668.665,213.775,666.654,215.787,664.176,215.787z M646.22,157.429
				c-12.376,0-22.445-10.069-22.445-22.445c0-12.376,10.069-22.445,22.445-22.445c12.377,0.001,22.445,10.069,22.445,22.446
				C668.665,147.36,658.596,157.429,646.22,157.429z"/>
			<linearGradient id="SVGID_34_" gradientUnits="userSpaceOnUse" x1="659.6862" y1="134.8713" x2="632.7531" y2="135.0976">
				<stop  offset="0.0056" style="stop-color:#DAB954"/>
				<stop  offset="0.1854" style="stop-color:#D1AE55"/>
				<stop  offset="0.5955" style="stop-color:#D6AB18"/>
				<stop  offset="0.8708" style="stop-color:#DCB45F"/>
				<stop  offset="1" style="stop-color:#EBDBCA"/>
			</linearGradient>
			<path style="fill:url(#SVGID_34_);" d="M646.22,121.517c-7.425,0-13.467,6.042-13.467,13.467s6.042,13.467,13.467,13.467
				c7.425,0,13.467-6.042,13.467-13.467C659.687,127.56,653.644,121.517,646.22,121.517z M646.22,139.473
				c-2.478,0-4.489-2.011-4.489-4.489c0-2.478,2.011-4.489,4.489-4.489s4.489,2.011,4.489,4.489
				C650.708,137.462,648.698,139.473,646.22,139.473z"/>
			<linearGradient id="SVGID_35_" gradientUnits="userSpaceOnUse" x1="736.0363" y1="170.7829" x2="709.0287" y2="171.0099">
				<stop  offset="0.0056" style="stop-color:#DAB954"/>
				<stop  offset="0.1854" style="stop-color:#D1AE55"/>
				<stop  offset="0.5955" style="stop-color:#D6AB18"/>
				<stop  offset="0.8708" style="stop-color:#DCB45F"/>
				<stop  offset="1" style="stop-color:#EBDBCA"/>
			</linearGradient>
			<rect x="709.065" y="166.407" style="fill:url(#SVGID_35_);" width="26.934" height="8.978"/>
			<linearGradient id="SVGID_36_" gradientUnits="userSpaceOnUse" x1="735.9623" y1="148.3947" x2="708.9919" y2="148.6214">
				<stop  offset="0.0056" style="stop-color:#DAB954"/>
				<stop  offset="0.1854" style="stop-color:#D1AE55"/>
				<stop  offset="0.5955" style="stop-color:#D6AB18"/>
				<stop  offset="0.8708" style="stop-color:#DCB45F"/>
				<stop  offset="1" style="stop-color:#EBDBCA"/>
			</linearGradient>
			<path style="fill:url(#SVGID_36_);" d="M722.533,139.473c-7.425,0-13.467,6.042-13.467,13.467v4.489H736v-4.489
				C736,145.516,729.958,139.473,722.533,139.473z"/>
			<linearGradient id="SVGID_37_" gradientUnits="userSpaceOnUse" x1="736.074" y1="211.1274" x2="709.1036" y2="211.354">
				<stop  offset="0.0056" style="stop-color:#DAB954"/>
				<stop  offset="0.1854" style="stop-color:#D1AE55"/>
				<stop  offset="0.5955" style="stop-color:#D6AB18"/>
				<stop  offset="0.8708" style="stop-color:#DCB45F"/>
				<stop  offset="1" style="stop-color:#EBDBCA"/>
			</linearGradient>
			<path style="fill:url(#SVGID_37_);" d="M709.066,206.808c0,7.425,6.042,13.467,13.467,13.467S736,214.233,736,206.808v-4.489
				h-26.934V206.808z"/>
			<linearGradient id="SVGID_38_" gradientUnits="userSpaceOnUse" x1="736.0363" y1="188.7388" x2="709.0287" y2="188.9658">
				<stop  offset="0.0056" style="stop-color:#DAB954"/>
				<stop  offset="0.1854" style="stop-color:#D1AE55"/>
				<stop  offset="0.5955" style="stop-color:#D6AB18"/>
				<stop  offset="0.8708" style="stop-color:#DCB45F"/>
				<stop  offset="1" style="stop-color:#EBDBCA"/>
			</linearGradient>
			<rect x="709.065" y="184.363" style="fill:url(#SVGID_38_);" width="26.934" height="8.978"/>
		</g>
	</g>
</g>
<g id="Pr&#xE9;stations" style="display:none;">
	<linearGradient id="SVGID_39_" gradientUnits="userSpaceOnUse" x1="93.3722" y1="398.7305" x2="94.1486" y2="491.1282">
		<stop  offset="0.0056" style="stop-color:#DAB954"/>
		<stop  offset="0.1854" style="stop-color:#D1AE55"/>
		<stop  offset="0.5955" style="stop-color:#D6AB18"/>
		<stop  offset="0.8708" style="stop-color:#DCB45F"/>
		<stop  offset="1" style="stop-color:#EBDBCA"/>
	</linearGradient>
	<path style="display:inline;fill:url(#SVGID_39_);" d="M62.142,491.288v-92.295h12.949v92.295H62.142z M68.807,455.488v-12.315
		h29.517c4.231,0,7.627-1.46,10.188-4.38c2.56-2.92,3.84-6.75,3.84-11.489c0-4.824-1.28-8.696-3.84-11.616
		c-2.561-2.92-5.957-4.38-10.188-4.38H68.807v-12.314h29.072c5.586,0,10.452,1.174,14.6,3.523c4.147,2.349,7.373,5.64,9.68,9.871
		c2.306,4.232,3.459,9.204,3.459,14.917c0,5.671-1.153,10.623-3.459,14.854c-2.307,4.232-5.533,7.512-9.68,9.839
		c-4.148,2.328-9.014,3.492-14.6,3.492H68.807z"/>
	<linearGradient id="SVGID_40_" gradientUnits="userSpaceOnUse" x1="160.6732" y1="424.5145" x2="161.2337" y2="491.2073">
		<stop  offset="0.0056" style="stop-color:#DAB954"/>
		<stop  offset="0.1854" style="stop-color:#D1AE55"/>
		<stop  offset="0.5955" style="stop-color:#D6AB18"/>
		<stop  offset="0.8708" style="stop-color:#DCB45F"/>
		<stop  offset="1" style="stop-color:#EBDBCA"/>
	</linearGradient>
	<path style="display:inline;fill:url(#SVGID_40_);" d="M138.631,491.288v-65.889h12.949v65.889H138.631z M174.876,441.014
		c-1.143-1.396-2.582-2.454-4.316-3.174c-1.736-0.719-3.745-1.079-6.03-1.079c-4.105,0-7.29,1.133-9.553,3.396
		c-2.264,2.264-3.396,5.406-3.396,9.426l-1.333-12.695c1.989-3.893,4.602-6.94,7.839-9.141c3.237-2.2,6.802-3.301,10.696-3.301
		c3.004,0,5.723,0.435,8.157,1.301c2.433,0.868,4.56,2.148,6.379,3.84L174.876,441.014z"/>
	<linearGradient id="SVGID_41_" gradientUnits="userSpaceOnUse" x1="217.2014" y1="383.731" x2="218.1134" y2="492.2559">
		<stop  offset="0.0056" style="stop-color:#DAB954"/>
		<stop  offset="0.1854" style="stop-color:#D1AE55"/>
		<stop  offset="0.5955" style="stop-color:#D6AB18"/>
		<stop  offset="0.8708" style="stop-color:#DCB45F"/>
		<stop  offset="1" style="stop-color:#EBDBCA"/>
	</linearGradient>
	<path style="display:inline;fill:url(#SVGID_41_);" d="M219.818,492.241c-9.183,0-16.292-2.561-21.328-7.681
		c-5.037-5.12-7.554-12.399-7.554-21.836v-7.427c0-9.817,2.422-17.414,7.268-22.789c4.845-5.374,11.669-8.062,20.471-8.062
		c8.293,0,14.716,3.047,19.265,9.141c4.548,6.094,6.824,14.642,6.824,25.645v4.316h-44.434v-10.411h32.119
		c-0.381-5.332-1.768-9.5-4.158-12.505c-2.391-3.004-5.597-4.507-9.617-4.507c-4.867,0-8.655,1.609-11.362,4.824
		c-2.708,3.216-4.063,7.766-4.063,13.648v8.379c0,5.459,1.449,9.648,4.348,12.568c2.898,2.92,6.972,4.38,12.219,4.38
		c2.624,0,5.226-0.529,7.808-1.587c2.581-1.058,4.888-2.539,6.919-4.443l8.506,8.506c-3.259,3.132-6.919,5.554-10.981,7.268
		S223.922,492.241,219.818,492.241z M218.993,412.704l-8.125-6.538l18.154-22.534l9.331,7.744L218.993,412.704z"/>
	<linearGradient id="SVGID_42_" gradientUnits="userSpaceOnUse" x1="284.8897" y1="424.4566" x2="285.4594" y2="492.2462">
		<stop  offset="0.0056" style="stop-color:#DAB954"/>
		<stop  offset="0.1854" style="stop-color:#D1AE55"/>
		<stop  offset="0.5955" style="stop-color:#D6AB18"/>
		<stop  offset="0.8708" style="stop-color:#DCB45F"/>
		<stop  offset="1" style="stop-color:#EBDBCA"/>
	</linearGradient>
	<path style="display:inline;fill:url(#SVGID_42_);" d="M285.833,492.241c-5.84,0-11.14-0.857-15.901-2.571
		s-9.024-4.284-12.791-7.712l7.681-9.458c3.596,2.708,7.141,4.739,10.632,6.094s6.951,2.031,10.378,2.031
		c5.12,0,8.96-0.794,11.521-2.381c2.56-1.587,3.84-3.967,3.84-7.141c0-2.454-0.857-4.189-2.571-5.205s-3.958-1.683-6.729-2
		c-2.772-0.317-5.745-0.581-8.918-0.793c-2.666-0.212-5.311-0.54-7.935-0.984c-2.625-0.444-5.015-1.247-7.173-2.412
		c-2.158-1.163-3.883-2.888-5.173-5.173c-1.292-2.286-1.936-5.354-1.936-9.205c0-6.982,2.136-12.208,6.411-15.679
		c4.274-3.469,10.642-5.205,19.106-5.205c5.163,0,9.966,0.698,14.409,2.095s8.611,3.534,12.505,6.411l-7.808,9.458
		c-3.301-2.116-6.549-3.703-9.744-4.761c-3.196-1.057-6.316-1.587-9.363-1.587c-4.402,0-7.703,0.752-9.902,2.253
		c-2.201,1.502-3.301,3.756-3.301,6.76c0,1.99,0.762,3.418,2.285,4.285c1.523,0.868,3.533,1.428,6.03,1.682
		c2.497,0.254,5.183,0.487,8.062,0.698c2.75,0.169,5.532,0.476,8.347,0.92c2.814,0.444,5.405,1.301,7.776,2.571
		c2.37,1.27,4.274,3.152,5.713,5.649c1.438,2.497,2.158,5.903,2.158,10.22c0,7.067-2.296,12.356-6.887,15.869
		C301.966,490.485,295.059,492.241,285.833,492.241z"/>
	<linearGradient id="SVGID_43_" gradientUnits="userSpaceOnUse" x1="339.5144" y1="406.1633" x2="340.2334" y2="491.7263">
		<stop  offset="0.0056" style="stop-color:#DAB954"/>
		<stop  offset="0.1854" style="stop-color:#D1AE55"/>
		<stop  offset="0.5955" style="stop-color:#D6AB18"/>
		<stop  offset="0.8708" style="stop-color:#DCB45F"/>
		<stop  offset="1" style="stop-color:#EBDBCA"/>
	</linearGradient>
	<path style="display:inline;fill:url(#SVGID_43_);" d="M324.872,437.079v-11.68h29.707v11.68H324.872z M347.088,491.606
		c-5.417,0-9.342-1.502-11.775-4.507c-2.434-3.005-3.65-7.321-3.65-12.949v-67.92h12.949v68.047c0,1.565,0.317,2.793,0.952,3.682
		s1.565,1.333,2.793,1.333h6.221v12.314H347.088z"/>
	<linearGradient id="SVGID_44_" gradientUnits="userSpaceOnUse" x1="395.2187" y1="424.4512" x2="395.7882" y2="492.2221">
		<stop  offset="0.0056" style="stop-color:#DAB954"/>
		<stop  offset="0.1854" style="stop-color:#D1AE55"/>
		<stop  offset="0.5955" style="stop-color:#D6AB18"/>
		<stop  offset="0.8708" style="stop-color:#DCB45F"/>
		<stop  offset="1" style="stop-color:#EBDBCA"/>
	</linearGradient>
	<path style="display:inline;fill:url(#SVGID_44_);" d="M393.426,492.241c-8.083,0-14.145-1.672-18.186-5.015
		c-4.042-3.343-6.062-8.464-6.062-15.361c0-6.56,1.851-11.458,5.554-14.695c3.703-3.237,9.257-4.856,16.662-4.856h18.726
		l0.889,10.411h-19.551c-3.343,0-5.861,0.752-7.553,2.253c-1.693,1.503-2.539,3.799-2.539,6.888c0,3.343,1.121,5.818,3.364,7.427
		c2.243,1.608,5.607,2.412,10.092,2.412c4.908,0,8.59-0.529,11.045-1.587c2.454-1.058,3.682-2.708,3.682-4.951l1.333,9.268
		c-1.143,1.777-2.561,3.237-4.253,4.38c-1.693,1.143-3.629,1.999-5.809,2.57S396.177,492.241,393.426,492.241z M409.549,491.288
		V449.52c0-4.316-1.153-7.67-3.459-10.061c-2.308-2.39-5.576-3.586-9.808-3.586c-2.581,0-5.132,0.392-7.648,1.174
		c-2.519,0.784-4.771,1.915-6.76,3.396l-9.458-6.475c2.497-3.004,5.786-5.342,9.871-7.014c4.083-1.671,8.622-2.507,13.615-2.507
		c8.252,0,14.642,2.137,19.17,6.411c4.527,4.275,6.792,10.305,6.792,18.091v42.339H409.549z"/>
	<linearGradient id="SVGID_45_" gradientUnits="userSpaceOnUse" x1="451.1057" y1="406.1633" x2="451.8247" y2="491.7263">
		<stop  offset="0.0056" style="stop-color:#DAB954"/>
		<stop  offset="0.1854" style="stop-color:#D1AE55"/>
		<stop  offset="0.5955" style="stop-color:#D6AB18"/>
		<stop  offset="0.8708" style="stop-color:#DCB45F"/>
		<stop  offset="1" style="stop-color:#EBDBCA"/>
	</linearGradient>
	<path style="display:inline;fill:url(#SVGID_45_);" d="M436.463,437.079v-11.68h29.707v11.68H436.463z M458.68,491.606
		c-5.417,0-9.342-1.502-11.775-4.507s-3.649-7.321-3.649-12.949v-67.92h12.949v68.047c0,1.565,0.317,2.793,0.952,3.682
		s1.565,1.333,2.793,1.333h6.221v12.314H458.68z"/>
	<linearGradient id="SVGID_46_" gradientUnits="userSpaceOnUse" x1="490.0298" y1="398.9418" x2="490.8062" y2="491.3395">
		<stop  offset="0.0056" style="stop-color:#DAB954"/>
		<stop  offset="0.1854" style="stop-color:#D1AE55"/>
		<stop  offset="0.5955" style="stop-color:#D6AB18"/>
		<stop  offset="0.8708" style="stop-color:#DCB45F"/>
		<stop  offset="1" style="stop-color:#EBDBCA"/>
	</linearGradient>
	<path style="display:inline;fill:url(#SVGID_46_);" d="M483.943,411.942v-12.949h12.949v12.949H483.943z M483.943,491.288v-65.889
		h12.949v65.889H483.943z"/>
	<linearGradient id="SVGID_47_" gradientUnits="userSpaceOnUse" x1="541.5505" y1="424.4479" x2="542.1201" y2="492.2397">
		<stop  offset="0.0056" style="stop-color:#DAB954"/>
		<stop  offset="0.1854" style="stop-color:#D1AE55"/>
		<stop  offset="0.5955" style="stop-color:#D6AB18"/>
		<stop  offset="0.8708" style="stop-color:#DCB45F"/>
		<stop  offset="1" style="stop-color:#EBDBCA"/>
	</linearGradient>
	<path style="display:inline;fill:url(#SVGID_47_);" d="M541.834,492.241c-8.633,0-15.319-2.508-20.059-7.522
		c-4.74-5.015-7.109-12.07-7.109-21.169v-10.728c0-9.014,2.369-15.996,7.109-20.947c4.739-4.951,11.426-7.427,20.059-7.427
		s15.318,2.476,20.059,7.427c4.739,4.951,7.109,11.934,7.109,20.947v10.918c0,9.056-2.37,16.07-7.109,21.042
		C557.152,489.755,550.467,492.241,541.834,492.241z M541.834,479.926c4.527,0,8.029-1.418,10.506-4.253
		c2.475-2.835,3.713-6.813,3.713-11.934v-10.918c0-5.12-1.238-9.077-3.713-11.87c-2.477-2.793-5.979-4.189-10.506-4.189
		c-4.486,0-7.978,1.396-10.474,4.189c-2.497,2.793-3.745,6.75-3.745,11.87v10.918c0,5.12,1.248,9.099,3.745,11.934
		C533.856,478.508,537.348,479.926,541.834,479.926z"/>
	<linearGradient id="SVGID_48_" gradientUnits="userSpaceOnUse" x1="613.4875" y1="424.4832" x2="614.0507" y2="491.5094">
		<stop  offset="0.0056" style="stop-color:#DAB954"/>
		<stop  offset="0.1854" style="stop-color:#D1AE55"/>
		<stop  offset="0.5955" style="stop-color:#D6AB18"/>
		<stop  offset="0.8708" style="stop-color:#DCB45F"/>
		<stop  offset="1" style="stop-color:#EBDBCA"/>
	</linearGradient>
	<path style="display:inline;fill:url(#SVGID_48_);" d="M587.41,491.288v-65.889h12.949v65.889H587.41z M627.4,491.288v-39.927
		c0-4.655-1.196-8.252-3.586-10.791c-2.392-2.539-5.788-3.809-10.188-3.809c-4.232,0-7.501,1.122-9.808,3.364
		c-2.307,2.244-3.459,5.396-3.459,9.458l-1.333-12.695c2.031-3.977,4.687-7.046,7.966-9.204s6.908-3.237,10.887-3.237
		c7.151,0,12.685,2.339,16.6,7.014c3.913,4.676,5.871,11.289,5.871,19.836v39.991H627.4z"/>
	<linearGradient id="SVGID_49_" gradientUnits="userSpaceOnUse" x1="682.3795" y1="424.4566" x2="682.9491" y2="492.2462">
		<stop  offset="0.0056" style="stop-color:#DAB954"/>
		<stop  offset="0.1854" style="stop-color:#D1AE55"/>
		<stop  offset="0.5955" style="stop-color:#D6AB18"/>
		<stop  offset="0.8708" style="stop-color:#DCB45F"/>
		<stop  offset="1" style="stop-color:#EBDBCA"/>
	</linearGradient>
	<path style="display:inline;fill:url(#SVGID_49_);" d="M683.323,492.241c-5.84,0-11.14-0.857-15.901-2.571
		c-4.76-1.714-9.024-4.284-12.79-7.712l7.681-9.458c3.597,2.708,7.141,4.739,10.633,6.094c3.49,1.354,6.95,2.031,10.378,2.031
		c5.12,0,8.96-0.794,11.521-2.381s3.841-3.967,3.841-7.141c0-2.454-0.856-4.189-2.571-5.205c-1.713-1.016-3.957-1.683-6.729-2
		s-5.744-0.581-8.918-0.793c-2.666-0.212-5.312-0.54-7.935-0.984c-2.624-0.444-5.015-1.247-7.173-2.412
		c-2.158-1.163-3.883-2.888-5.174-5.173c-1.291-2.286-1.936-5.354-1.936-9.205c0-6.982,2.137-12.208,6.411-15.679
		c4.273-3.469,10.643-5.205,19.106-5.205c5.162,0,9.966,0.698,14.409,2.095s8.611,3.534,12.505,6.411l-7.808,9.458
		c-3.301-2.116-6.549-3.703-9.743-4.761c-3.196-1.057-6.316-1.587-9.363-1.587c-4.401,0-7.702,0.752-9.902,2.253
		c-2.201,1.502-3.301,3.756-3.301,6.76c0,1.99,0.762,3.418,2.285,4.285c1.523,0.868,3.533,1.428,6.03,1.682
		c2.496,0.254,5.184,0.487,8.062,0.698c2.75,0.169,5.532,0.476,8.348,0.92c2.813,0.444,5.405,1.301,7.775,2.571
		c2.369,1.27,4.273,3.152,5.713,5.649c1.438,2.497,2.158,5.903,2.158,10.22c0,7.067-2.296,12.356-6.887,15.869
		C699.456,490.485,692.548,492.241,683.323,492.241z"/>
</g>
<linearGradient id="GeoLoc_1_" gradientUnits="userSpaceOnUse" x1="724.6157" y1="176.5419" x2="490.9428" y2="178.5055">
	<stop  offset="0.0056" style="stop-color:#DAB954"/>
	<stop  offset="0.1854" style="stop-color:#D1AE55"/>
	<stop  offset="0.5955" style="stop-color:#D6AB18"/>
	<stop  offset="0.8708" style="stop-color:#DCB45F"/>
	<stop  offset="1" style="stop-color:#EBDBCA"/>
</linearGradient>
<path id="GeoLoc" style="display:none;fill-rule:evenodd;clip-rule:evenodd;fill:url(#GeoLoc_1_);" d="M517.506,220.821
	l89.97,112.463l89.97-112.463c17.378-21.722,26.846-48.714,26.846-76.533v-5.698c0-64.516-52.301-116.816-116.816-116.816
	c-64.516,0-116.816,52.3-116.816,116.816v5.698C490.66,172.107,500.128,199.098,517.506,220.821z M607.476,177.528
	c21.505,0,38.939-17.434,38.939-38.939s-17.434-38.939-38.939-38.939s-38.939,17.434-38.939,38.939S585.971,177.528,607.476,177.528
	z"/>
<g id="Acces" style="display:none;">
	<linearGradient id="SVGID_50_" gradientUnits="userSpaceOnUse" x1="289.8557" y1="444.941" x2="210.7695" y2="445.6057">
		<stop  offset="0.0056" style="stop-color:#DAB954"/>
		<stop  offset="0.1854" style="stop-color:#D1AE55"/>
		<stop  offset="0.5955" style="stop-color:#D6AB18"/>
		<stop  offset="0.8708" style="stop-color:#DCB45F"/>
		<stop  offset="1" style="stop-color:#EBDBCA"/>
	</linearGradient>
	<path style="display:inline;fill:url(#SVGID_50_);" d="M211.153,491.275l34.023-92.295h11.045l34.023,92.295H276.28l-25.581-74.458
		l-25.581,74.458H211.153z M226.832,471.026v-12.314h48.56v12.314H226.832z"/>
	<linearGradient id="SVGID_51_" gradientUnits="userSpaceOnUse" x1="353.5989" y1="458.128" x2="300.9921" y2="458.57">
		<stop  offset="0.0056" style="stop-color:#DAB954"/>
		<stop  offset="0.1854" style="stop-color:#D1AE55"/>
		<stop  offset="0.5955" style="stop-color:#D6AB18"/>
		<stop  offset="0.8708" style="stop-color:#DCB45F"/>
		<stop  offset="1" style="stop-color:#EBDBCA"/>
	</linearGradient>
	<path style="display:inline;fill:url(#SVGID_51_);" d="M329.537,492.227c-9.056,0-16.07-2.497-21.042-7.49
		c-4.973-4.993-7.458-12.039-7.458-21.138v-10.855c0-9.014,2.485-15.985,7.458-20.916c4.972-4.929,11.986-7.395,21.042-7.395
		c5.163,0,9.817,0.911,13.965,2.729c4.147,1.82,7.448,4.422,9.902,7.808l-9.331,8.379c-1.82-2.116-3.978-3.745-6.475-4.888
		c-2.498-1.143-5.121-1.714-7.871-1.714c-4.994,0-8.866,1.396-11.616,4.189c-2.751,2.793-4.126,6.729-4.126,11.807v10.855
		c0,5.205,1.375,9.226,4.126,12.061c2.75,2.835,6.623,4.253,11.616,4.253c2.75,0,5.374-0.613,7.871-1.841
		c2.497-1.228,4.655-2.962,6.475-5.205l9.331,9.014c-2.455,3.301-5.767,5.851-9.934,7.648
		C339.302,491.328,334.657,492.227,329.537,492.227z"/>
	<linearGradient id="SVGID_52_" gradientUnits="userSpaceOnUse" x1="418.345" y1="458.128" x2="365.7382" y2="458.57">
		<stop  offset="0.0056" style="stop-color:#DAB954"/>
		<stop  offset="0.1854" style="stop-color:#D1AE55"/>
		<stop  offset="0.5955" style="stop-color:#D6AB18"/>
		<stop  offset="0.8708" style="stop-color:#DCB45F"/>
		<stop  offset="1" style="stop-color:#EBDBCA"/>
	</linearGradient>
	<path style="display:inline;fill:url(#SVGID_52_);" d="M394.283,492.227c-9.057,0-16.07-2.497-21.042-7.49
		c-4.973-4.993-7.458-12.039-7.458-21.138v-10.855c0-9.014,2.485-15.985,7.458-20.916c4.972-4.929,11.986-7.395,21.042-7.395
		c5.162,0,9.816,0.911,13.965,2.729c4.146,1.82,7.447,4.422,9.902,7.808l-9.331,8.379c-1.82-2.116-3.979-3.745-6.475-4.888
		c-2.498-1.143-5.121-1.714-7.871-1.714c-4.994,0-8.866,1.396-11.616,4.189c-2.751,2.793-4.126,6.729-4.126,11.807v10.855
		c0,5.205,1.375,9.226,4.126,12.061c2.75,2.835,6.622,4.253,11.616,4.253c2.75,0,5.373-0.613,7.871-1.841
		c2.496-1.228,4.654-2.962,6.475-5.205l9.331,9.014c-2.455,3.301-5.767,5.851-9.935,7.648
		C404.048,491.328,399.402,492.227,394.283,492.227z"/>
	<linearGradient id="SVGID_53_" gradientUnits="userSpaceOnUse" x1="484.1781" y1="437.6584" x2="430.3197" y2="438.111">
		<stop  offset="0.0056" style="stop-color:#DAB954"/>
		<stop  offset="0.1854" style="stop-color:#D1AE55"/>
		<stop  offset="0.5955" style="stop-color:#D6AB18"/>
		<stop  offset="0.8708" style="stop-color:#DCB45F"/>
		<stop  offset="1" style="stop-color:#EBDBCA"/>
	</linearGradient>
	<path style="display:inline;fill:url(#SVGID_53_);" d="M459.41,492.227c-9.184,0-16.293-2.561-21.328-7.681
		c-5.037-5.12-7.554-12.399-7.554-21.836v-7.427c0-9.817,2.422-17.414,7.268-22.789c4.846-5.374,11.669-8.062,20.472-8.062
		c8.293,0,14.716,3.047,19.265,9.141s6.824,14.642,6.824,25.645v4.316h-44.434v-10.411h32.119c-0.381-5.332-1.768-9.5-4.158-12.505
		c-2.391-3.004-5.597-4.507-9.616-4.507c-4.867,0-8.655,1.609-11.362,4.824c-2.709,3.216-4.063,7.766-4.063,13.648v8.379
		c0,5.459,1.449,9.648,4.348,12.568s6.972,4.38,12.22,4.38c2.623,0,5.226-0.529,7.808-1.587c2.58-1.058,4.888-2.539,6.919-4.443
		l8.506,8.506c-3.26,3.132-6.919,5.554-10.981,7.268S463.514,492.227,459.41,492.227z M455.982,412.69l-19.36-21.328l9.331-7.744
		l18.154,22.534L455.982,412.69z"/>
	<linearGradient id="SVGID_54_" gradientUnits="userSpaceOnUse" x1="552.9956" y1="458.1006" x2="496.538" y2="458.5751">
		<stop  offset="0.0056" style="stop-color:#DAB954"/>
		<stop  offset="0.1854" style="stop-color:#D1AE55"/>
		<stop  offset="0.5955" style="stop-color:#D6AB18"/>
		<stop  offset="0.8708" style="stop-color:#DCB45F"/>
		<stop  offset="1" style="stop-color:#EBDBCA"/>
	</linearGradient>
	<path style="display:inline;fill:url(#SVGID_54_);" d="M525.426,492.227c-5.84,0-11.141-0.857-15.901-2.571
		s-9.024-4.284-12.79-7.712l7.681-9.458c3.596,2.708,7.141,4.739,10.632,6.094s6.951,2.031,10.379,2.031
		c5.119,0,8.96-0.794,11.521-2.381s3.841-3.967,3.841-7.141c0-2.454-0.857-4.189-2.571-5.205s-3.957-1.683-6.729-2
		s-5.744-0.581-8.918-0.793c-2.666-0.212-5.312-0.54-7.935-0.984c-2.625-0.444-5.015-1.247-7.173-2.412
		c-2.158-1.163-3.883-2.888-5.174-5.173c-1.291-2.286-1.936-5.354-1.936-9.205c0-6.982,2.136-12.208,6.411-15.679
		c4.273-3.469,10.642-5.205,19.106-5.205c5.162,0,9.966,0.698,14.409,2.095s8.61,3.534,12.505,6.411l-7.808,9.458
		c-3.301-2.116-6.549-3.703-9.744-4.761c-3.195-1.057-6.315-1.587-9.362-1.587c-4.402,0-7.703,0.752-9.902,2.253
		c-2.201,1.502-3.301,3.756-3.301,6.76c0,1.99,0.762,3.418,2.285,4.285c1.523,0.868,3.532,1.428,6.03,1.682
		c2.496,0.254,5.183,0.487,8.062,0.698c2.75,0.169,5.532,0.476,8.347,0.92s5.405,1.301,7.776,2.571
		c2.369,1.27,4.273,3.152,5.713,5.649c1.438,2.497,2.158,5.903,2.158,10.22c0,7.067-2.296,12.356-6.888,15.869
		S534.65,492.227,525.426,492.227z"/>
</g>
<linearGradient id="Maison_1_" gradientUnits="userSpaceOnUse" x1="729.1664" y1="152.7609" x2="486.1827" y2="154.8028">
	<stop  offset="0.0056" style="stop-color:#DAB954"/>
	<stop  offset="0.1854" style="stop-color:#D1AE55"/>
	<stop  offset="0.5955" style="stop-color:#D6AB18"/>
	<stop  offset="0.8708" style="stop-color:#DCB45F"/>
	<stop  offset="1" style="stop-color:#EBDBCA"/>
</linearGradient>
<path id="Maison" style="fill:url(#Maison_1_);" d="M607.5,37.051c-1.101,0-2.198,0.349-3.134,1.058L487.93,128.985
	c-2.177,1.721-2.581,4.901-0.86,7.129c1.721,2.177,4.901,2.581,7.129,0.86l6.99-5.458v133.086c0,2.784,2.278,5.062,5.062,5.062
	h70.874v-91.124h60.749v91.124h70.874c2.784,0,5.062-2.278,5.062-5.062V131.516l6.991,5.458c0.962,0.709,2.021,1.068,3.134,1.068
	c1.519,0,2.982-0.662,3.995-1.928c1.721-2.227,1.317-5.408-0.86-7.129L610.634,38.109C609.698,37.4,608.601,37.051,607.5,37.051z
	 M658.124,57.043v5.319l30.375,23.691v-29.01H658.124z"/>
<g id="Accueil">
	<linearGradient id="SVGID_55_" gradientUnits="userSpaceOnUse" x1="253.0711" y1="444.6567" x2="173.9849" y2="445.3213">
		<stop  offset="0.0056" style="stop-color:#DAB954"/>
		<stop  offset="0.1854" style="stop-color:#D1AE55"/>
		<stop  offset="0.5955" style="stop-color:#D6AB18"/>
		<stop  offset="0.8708" style="stop-color:#DCB45F"/>
		<stop  offset="1" style="stop-color:#EBDBCA"/>
	</linearGradient>
	<path style="fill:url(#SVGID_55_);" d="M174.369,490.99l34.023-92.295h11.045l34.023,92.295h-13.965l-25.581-74.458l-25.581,74.458
		H174.369z M190.047,470.741v-12.314h48.56v12.314H190.047z"/>
	<linearGradient id="SVGID_56_" gradientUnits="userSpaceOnUse" x1="316.8142" y1="457.8436" x2="264.2075" y2="458.2857">
		<stop  offset="0.0056" style="stop-color:#DAB954"/>
		<stop  offset="0.1854" style="stop-color:#D1AE55"/>
		<stop  offset="0.5955" style="stop-color:#D6AB18"/>
		<stop  offset="0.8708" style="stop-color:#DCB45F"/>
		<stop  offset="1" style="stop-color:#EBDBCA"/>
	</linearGradient>
	<path style="fill:url(#SVGID_56_);" d="M292.752,491.942c-9.056,0-16.07-2.496-21.042-7.49c-4.973-4.992-7.458-12.038-7.458-21.138
		V452.46c0-9.014,2.485-15.985,7.458-20.915c4.972-4.93,11.986-7.396,21.042-7.396c5.163,0,9.817,0.911,13.965,2.729
		c4.147,1.82,7.448,4.423,9.902,7.808l-9.331,8.379c-1.82-2.115-3.978-3.745-6.475-4.888c-2.498-1.143-5.121-1.714-7.871-1.714
		c-4.994,0-8.866,1.396-11.616,4.189c-2.751,2.793-4.126,6.729-4.126,11.807v10.854c0,5.205,1.375,9.227,4.126,12.061
		c2.75,2.836,6.623,4.253,11.616,4.253c2.75,0,5.374-0.612,7.871-1.841c2.497-1.227,4.655-2.961,6.475-5.205l9.331,9.014
		c-2.455,3.301-5.767,5.851-9.934,7.649C302.517,491.043,297.872,491.942,292.752,491.942z"/>
	<linearGradient id="SVGID_57_" gradientUnits="userSpaceOnUse" x1="381.5603" y1="457.8436" x2="328.9536" y2="458.2857">
		<stop  offset="0.0056" style="stop-color:#DAB954"/>
		<stop  offset="0.1854" style="stop-color:#D1AE55"/>
		<stop  offset="0.5955" style="stop-color:#D6AB18"/>
		<stop  offset="0.8708" style="stop-color:#DCB45F"/>
		<stop  offset="1" style="stop-color:#EBDBCA"/>
	</linearGradient>
	<path style="fill:url(#SVGID_57_);" d="M357.499,491.942c-9.056,0-16.07-2.496-21.042-7.49c-4.973-4.992-7.458-12.038-7.458-21.138
		V452.46c0-9.014,2.485-15.985,7.458-20.915c4.972-4.93,11.986-7.396,21.042-7.396c5.163,0,9.817,0.911,13.965,2.729
		c4.147,1.82,7.448,4.423,9.902,7.808l-9.331,8.379c-1.82-2.115-3.978-3.745-6.475-4.888c-2.498-1.143-5.121-1.714-7.871-1.714
		c-4.994,0-8.866,1.396-11.616,4.189c-2.751,2.793-4.126,6.729-4.126,11.807v10.854c0,5.205,1.375,9.227,4.126,12.061
		c2.75,2.836,6.623,4.253,11.616,4.253c2.75,0,5.374-0.612,7.871-1.841c2.497-1.227,4.655-2.961,6.475-5.205l9.331,9.014
		c-2.455,3.301-5.767,5.851-9.934,7.649C367.263,491.043,362.618,491.942,357.499,491.942z"/>
	<linearGradient id="SVGID_58_" gradientUnits="userSpaceOnUse" x1="446.9605" y1="458.1737" x2="394.0037" y2="458.6187">
		<stop  offset="0.0056" style="stop-color:#DAB954"/>
		<stop  offset="0.1854" style="stop-color:#D1AE55"/>
		<stop  offset="0.5955" style="stop-color:#D6AB18"/>
		<stop  offset="0.8708" style="stop-color:#DCB45F"/>
		<stop  offset="1" style="stop-color:#EBDBCA"/>
	</linearGradient>
	<path style="fill:url(#SVGID_58_);" d="M407.01,425.102v40.054c0,4.613,1.175,8.179,3.523,10.696s5.659,3.776,9.934,3.776
		s7.563-1.132,9.871-3.396c2.306-2.264,3.459-5.448,3.459-9.554l0.889,13.774c-1.185,2.963-3.259,5.618-6.221,7.967
		s-6.834,3.522-11.616,3.522c-7.278,0-12.896-2.338-16.853-7.014c-3.958-4.676-5.936-11.268-5.936-19.773v-40.054H407.01z
		 M433.797,490.99v-65.889h12.886v65.889H433.797z"/>
	<linearGradient id="SVGID_59_" gradientUnits="userSpaceOnUse" x1="518.2777" y1="457.8313" x2="464.4194" y2="458.2839">
		<stop  offset="0.0056" style="stop-color:#DAB954"/>
		<stop  offset="0.1854" style="stop-color:#D1AE55"/>
		<stop  offset="0.5955" style="stop-color:#D6AB18"/>
		<stop  offset="0.8708" style="stop-color:#DCB45F"/>
		<stop  offset="1" style="stop-color:#EBDBCA"/>
	</linearGradient>
	<path style="fill:url(#SVGID_59_);" d="M493.338,491.942c-9.183,0-16.292-2.56-21.328-7.681
		c-5.036-5.119-7.554-12.398-7.554-21.836v-7.427c0-9.816,2.422-17.413,7.269-22.788c4.845-5.373,11.669-8.062,20.471-8.062
		c8.294,0,14.716,3.047,19.266,9.141c4.548,6.094,6.823,14.643,6.823,25.645v4.316h-44.434v-10.41h32.119
		c-0.381-5.332-1.768-9.499-4.157-12.505c-2.392-3.004-5.597-4.507-9.617-4.507c-4.866,0-8.654,1.609-11.362,4.824
		c-2.708,3.217-4.063,7.767-4.063,13.647v8.379c0,5.459,1.449,9.648,4.349,12.568c2.897,2.92,6.972,4.38,12.219,4.38
		c2.624,0,5.227-0.528,7.808-1.587c2.581-1.057,4.888-2.539,6.919-4.443l8.506,8.506c-3.259,3.133-6.919,5.555-10.981,7.269
		S497.442,491.942,493.338,491.942z"/>
	<linearGradient id="SVGID_60_" gradientUnits="userSpaceOnUse" x1="549.3942" y1="444.7851" x2="535.6703" y2="444.9005">
		<stop  offset="0.0056" style="stop-color:#DAB954"/>
		<stop  offset="0.1854" style="stop-color:#D1AE55"/>
		<stop  offset="0.5955" style="stop-color:#D6AB18"/>
		<stop  offset="0.8708" style="stop-color:#DCB45F"/>
		<stop  offset="1" style="stop-color:#EBDBCA"/>
	</linearGradient>
	<path style="fill:url(#SVGID_60_);" d="M536.058,411.645v-12.949h12.949v12.949H536.058z M536.058,490.99v-65.889h12.949v65.889
		H536.058z"/>
	<linearGradient id="SVGID_61_" gradientUnits="userSpaceOnUse" x1="591.4401" y1="444.907" x2="568.4418" y2="445.1003">
		<stop  offset="0.0056" style="stop-color:#DAB954"/>
		<stop  offset="0.1854" style="stop-color:#D1AE55"/>
		<stop  offset="0.5955" style="stop-color:#D6AB18"/>
		<stop  offset="0.8708" style="stop-color:#DCB45F"/>
		<stop  offset="1" style="stop-color:#EBDBCA"/>
	</linearGradient>
	<path style="fill:url(#SVGID_61_);" d="M581.634,398.695v75.283c0,1.566,0.35,2.793,1.047,3.682
		c0.699,0.889,1.683,1.333,2.952,1.333h6.094v12.314h-7.617c-4.867,0-8.654-1.523-11.362-4.57
		c-2.709-3.047-4.063-7.341-4.063-12.886v-75.156H581.634z"/>
</g>
<g id="R&#xE9;f&#xE9;rence_1_">
	<g id="R&#xE9;f&#xE9;rence_2_" style="display:none;">
		<path style="display:inline;" d="M35.497,490.99v-92.358h12.949v92.358H35.497z M41.146,451.952v-12.314h31.484
			c3.766,0,6.792-1.311,9.077-3.936c2.285-2.623,3.428-6.094,3.428-10.41s-1.143-7.785-3.428-10.41
			c-2.285-2.623-5.311-3.936-9.077-3.936H41.146v-12.314h30.977c5.374,0,10.071,1.111,14.092,3.333
			c4.02,2.222,7.141,5.322,9.363,9.299c2.222,3.979,3.333,8.655,3.333,14.028c0,5.332-1.122,9.998-3.364,13.997
			c-2.244,3.999-5.364,7.109-9.363,9.331s-8.687,3.332-14.06,3.332H41.146z M87.421,490.99l-21.138-41.895l12.886-2.92
			l23.613,44.814H87.421z"/>
		<path style="display:inline;" d="M145.946,491.942c-9.183,0-16.292-2.56-21.328-7.681c-5.037-5.119-7.554-12.398-7.554-21.836
			v-7.427c0-9.816,2.422-17.413,7.268-22.788c4.845-5.373,11.669-8.062,20.471-8.062c8.293,0,14.716,3.047,19.265,9.141
			c4.548,6.094,6.824,14.643,6.824,25.645v4.316h-44.434v-10.41h32.119c-0.381-5.332-1.768-9.499-4.158-12.505
			c-2.391-3.004-5.597-4.507-9.617-4.507c-4.867,0-8.655,1.609-11.362,4.824c-2.708,3.217-4.063,7.767-4.063,13.647v8.379
			c0,5.459,1.449,9.648,4.348,12.568c2.898,2.92,6.972,4.38,12.219,4.38c2.624,0,5.226-0.528,7.808-1.587
			c2.581-1.057,4.888-2.539,6.919-4.443l8.506,8.506c-3.259,3.133-6.919,5.555-10.981,7.269S150.05,491.942,145.946,491.942z
			 M145.121,412.406l-8.125-6.538l18.154-22.534l9.331,7.744L145.121,412.406z"/>
		<path style="display:inline;" d="M209.74,491.942c-8.083,0-14.146-1.671-18.186-5.015c-4.042-3.342-6.062-8.463-6.062-15.361
			c0-6.559,1.851-11.457,5.554-14.694c3.703-3.237,9.257-4.856,16.663-4.856h18.726l0.889,10.41h-19.551
			c-3.343,0-5.862,0.752-7.554,2.254c-1.693,1.502-2.539,3.799-2.539,6.887c0,3.344,1.121,5.819,3.364,7.427
			c2.243,1.609,5.607,2.412,10.093,2.412c4.909,0,8.59-0.528,11.045-1.587c2.454-1.057,3.682-2.707,3.682-4.951l1.333,9.268
			c-1.143,1.777-2.561,3.237-4.253,4.38c-1.693,1.143-3.629,2-5.808,2.571C214.955,491.657,212.491,491.942,209.74,491.942z
			 M225.863,490.99v-41.768c0-4.316-1.153-7.67-3.459-10.061c-2.307-2.391-5.576-3.587-9.807-3.587
			c-2.582,0-5.132,0.392-7.649,1.175c-2.518,0.783-4.771,1.915-6.76,3.396l-9.458-6.475c2.497-3.004,5.786-5.342,9.871-7.014
			c4.083-1.672,8.622-2.508,13.616-2.508c8.252,0,14.641,2.138,19.17,6.411c4.528,4.275,6.792,10.306,6.792,18.091v42.339H225.863z"
			/>
		<path style="display:inline;" d="M270.805,398.695v75.283c0,1.566,0.349,2.793,1.047,3.682s1.682,1.333,2.952,1.333h6.094v12.314
			h-7.617c-4.867,0-8.655-1.523-11.362-4.57c-2.708-3.047-4.063-7.341-4.063-12.886v-75.156H270.805z"/>
		<path style="display:inline;" d="M295.497,411.645v-12.949h12.949v12.949H295.497z M295.497,490.99v-65.889h12.949v65.889H295.497
			z"/>
		<path style="display:inline;" d="M351.42,491.942c-5.84,0-11.14-0.856-15.901-2.57s-9.024-4.285-12.791-7.713l7.681-9.458
			c3.596,2.709,7.141,4.74,10.632,6.094c3.491,1.355,6.951,2.031,10.378,2.031c5.12,0,8.96-0.793,11.521-2.38
			c2.56-1.587,3.84-3.968,3.84-7.142c0-2.453-0.857-4.189-2.571-5.205s-3.958-1.682-6.729-1.999
			c-2.772-0.317-5.745-0.581-8.918-0.794c-2.666-0.211-5.311-0.539-7.935-0.983c-2.625-0.444-5.015-1.248-7.173-2.412
			s-3.883-2.889-5.173-5.174c-1.292-2.285-1.936-5.353-1.936-9.204c0-6.982,2.136-12.208,6.411-15.679
			c4.274-3.469,10.642-5.205,19.106-5.205c5.163,0,9.966,0.698,14.409,2.095s8.611,3.534,12.505,6.411l-7.808,9.458
			c-3.301-2.115-6.549-3.702-9.744-4.761c-3.196-1.057-6.316-1.587-9.363-1.587c-4.402,0-7.703,0.752-9.902,2.254
			c-2.201,1.502-3.301,3.756-3.301,6.76c0,1.99,0.762,3.418,2.285,4.285s3.533,1.428,6.03,1.682
			c2.497,0.254,5.183,0.487,8.062,0.698c2.75,0.17,5.532,0.477,8.347,0.921c2.814,0.444,5.405,1.301,7.776,2.57
			c2.369,1.27,4.273,3.153,5.713,5.649c1.438,2.498,2.158,5.903,2.158,10.22c0,7.068-2.296,12.357-6.887,15.869
			C367.553,490.188,360.645,491.942,351.42,491.942z"/>
		<path style="display:inline;" d="M416.61,491.942c-8.083,0-14.146-1.671-18.186-5.015c-4.042-3.342-6.063-8.463-6.063-15.361
			c0-6.559,1.851-11.457,5.555-14.694c3.702-3.237,9.256-4.856,16.662-4.856h18.726l0.889,10.41h-19.551
			c-3.344,0-5.861,0.752-7.554,2.254c-1.693,1.502-2.539,3.799-2.539,6.887c0,3.344,1.121,5.819,3.364,7.427
			c2.242,1.609,5.606,2.412,10.093,2.412c4.908,0,8.59-0.528,11.045-1.587c2.454-1.057,3.682-2.707,3.682-4.951l1.333,9.268
			c-1.143,1.777-2.561,3.237-4.253,4.38c-1.693,1.143-3.629,2-5.809,2.571S419.36,491.942,416.61,491.942z M432.733,490.99v-41.768
			c0-4.316-1.153-7.67-3.459-10.061c-2.308-2.391-5.576-3.587-9.808-3.587c-2.582,0-5.132,0.392-7.649,1.175
			s-4.771,1.915-6.76,3.396l-9.458-6.475c2.496-3.004,5.786-5.342,9.87-7.014s8.622-2.508,13.616-2.508
			c8.252,0,14.642,2.138,19.17,6.411c4.527,4.275,6.792,10.306,6.792,18.091v42.339H432.733z"/>
		<path style="display:inline;" d="M459.647,436.781v-11.68h29.707v11.68H459.647z M481.864,491.308
			c-5.417,0-9.342-1.501-11.775-4.507c-2.434-3.004-3.649-7.32-3.649-12.949v-67.92h12.949v68.047c0,1.566,0.317,2.793,0.952,3.682
			s1.565,1.333,2.793,1.333h6.221v12.314H481.864z"/>
		<path style="display:inline;" d="M507.128,411.645v-12.949h12.949v12.949H507.128z M507.128,490.99v-65.889h12.949v65.889H507.128
			z"/>
		<path style="display:inline;" d="M565.019,491.942c-8.633,0-15.319-2.507-20.059-7.521c-4.74-5.015-7.109-12.07-7.109-21.17
			v-10.728c0-9.014,2.369-15.996,7.109-20.947c4.739-4.951,11.426-7.427,20.059-7.427s15.318,2.476,20.059,7.427
			c4.739,4.951,7.109,11.934,7.109,20.947v10.918c0,9.057-2.37,16.07-7.109,21.043C580.337,489.457,573.651,491.942,565.019,491.942
			z M565.019,479.628c4.527,0,8.029-1.417,10.506-4.253c2.475-2.834,3.713-6.813,3.713-11.934v-10.918
			c0-5.119-1.238-9.077-3.713-11.87c-2.477-2.793-5.979-4.189-10.506-4.189c-4.486,0-7.978,1.396-10.474,4.189
			c-2.497,2.793-3.745,6.751-3.745,11.87v10.918c0,5.121,1.248,9.1,3.745,11.934C557.041,478.211,560.532,479.628,565.019,479.628z"
			/>
		<path style="display:inline;" d="M610.595,490.99v-65.889h12.949v65.889H610.595z M650.585,490.99v-39.927
			c0-4.654-1.196-8.252-3.586-10.791c-2.392-2.539-5.788-3.809-10.188-3.809c-4.232,0-7.501,1.122-9.808,3.364
			c-2.307,2.244-3.459,5.396-3.459,9.458l-1.333-12.695c2.031-3.977,4.687-7.046,7.966-9.204s6.908-3.237,10.887-3.237
			c7.151,0,12.685,2.339,16.6,7.015c3.913,4.676,5.871,11.289,5.871,19.836v39.99H650.585z"/>
		<path style="display:inline;" d="M706.508,491.942c-5.84,0-11.14-0.856-15.901-2.57c-4.76-1.714-9.024-4.285-12.79-7.713
			l7.681-9.458c3.597,2.709,7.141,4.74,10.633,6.094c3.49,1.355,6.95,2.031,10.378,2.031c5.12,0,8.96-0.793,11.521-2.38
			s3.841-3.968,3.841-7.142c0-2.453-0.856-4.189-2.571-5.205c-1.713-1.016-3.957-1.682-6.729-1.999s-5.744-0.581-8.918-0.794
			c-2.666-0.211-5.312-0.539-7.935-0.983c-2.624-0.444-5.015-1.248-7.173-2.412s-3.883-2.889-5.174-5.174s-1.936-5.353-1.936-9.204
			c0-6.982,2.137-12.208,6.411-15.679c4.273-3.469,10.643-5.205,19.106-5.205c5.162,0,9.966,0.698,14.409,2.095
			s8.611,3.534,12.505,6.411l-7.808,9.458c-3.301-2.115-6.549-3.702-9.743-4.761c-3.196-1.057-6.316-1.587-9.363-1.587
			c-4.401,0-7.702,0.752-9.902,2.254c-2.201,1.502-3.301,3.756-3.301,6.76c0,1.99,0.762,3.418,2.285,4.285s3.533,1.428,6.03,1.682
			c2.496,0.254,5.184,0.487,8.062,0.698c2.75,0.17,5.532,0.477,8.348,0.921c2.813,0.444,5.405,1.301,7.775,2.57
			c2.369,1.27,4.273,3.153,5.713,5.649c1.438,2.498,2.158,5.903,2.158,10.22c0,7.068-2.296,12.357-6.887,15.869
			C722.641,490.188,715.732,491.942,706.508,491.942z"/>
	</g>
</g>
</svg>
