<svg id="Base" xmlns="http://www.w3.org/2000/svg" xmlns:xlink="http://www.w3.org/1999/xlink" viewBox="0 0 767 767.8"><defs><style>.cls-1{fill:url(#Dégradé_sans_nom_5);}.cls-2{fill:url(#Atelier_CLUC);}.cls-3{fill-rule:evenodd;fill:url(#Atelier_CLUC-2);}.cls-4{fill:url(#Atelier_CLUC-3);}.cls-5{fill:url(#Atelier_CLUC-4);}.cls-6{fill:url(#Atelier_CLUC-5);}.cls-7{fill:url(#Atelier_CLUC-6);}.cls-8{fill:url(#Atelier_CLUC-7);}.cls-9{fill:url(#Atelier_CLUC-8);}.cls-10{fill:url(#Atelier_CLUC-9);}.cls-11{fill:url(#Atelier_CLUC-10);}</style><radialGradient id="Dégradé_sans_nom_5" cx="384" cy="384" fx="167.45241308547673" fy="551.8053633856032" r="356.3" gradientUnits="userSpaceOnUse"><stop offset="0.1" stop-color="#00684f"/><stop offset="0.71" stop-color="#00563c"/></radialGradient><linearGradient id="Atelier_CLUC" x1="373.12" y1="177.39" x2="377.92" y2="748.88" gradientTransform="translate(1084.27 136.71) rotate(90)" gradientUnits="userSpaceOnUse"><stop offset="0.01" stop-color="#dab954"/><stop offset="0.19" stop-color="#d1ae55"/><stop offset="0.6" stop-color="#d6ab18"/><stop offset="0.87" stop-color="#dcb45f"/><stop offset="1" stop-color="#ebdbca"/></linearGradient><linearGradient id="Atelier_CLUC-2" x1="743.1" y1="162.49" x2="465.66" y2="164.82" gradientTransform="matrix(1, 0, 0, 1, 0, 0)" xlink:href="#Atelier_CLUC"/><linearGradient id="Atelier_CLUC-3" x1="204.81" y1="444.69" x2="138.66" y2="445.25" gradientTransform="matrix(1, 0, 0, 1, 0, 0)" xlink:href="#Atelier_CLUC"/><linearGradient id="Atelier_CLUC-4" x1="278.48" y1="457.94" x2="224.06" y2="458.4" gradientTransform="matrix(1, 0, 0, 1, 0, 0)" xlink:href="#Atelier_CLUC"/><linearGradient id="Atelier_CLUC-5" x1="341.77" y1="457.5" x2="296.57" y2="457.88" gradientTransform="matrix(1, 0, 0, 1, 0, 0)" xlink:href="#Atelier_CLUC"/><linearGradient id="Atelier_CLUC-6" x1="401.92" y1="457.94" x2="349.04" y2="458.39" gradientTransform="matrix(1, 0, 0, 1, 0, 0)" xlink:href="#Atelier_CLUC"/><linearGradient id="Atelier_CLUC-7" x1="434.85" y1="444.91" x2="421.13" y2="445.03" gradientTransform="matrix(1, 0, 0, 1, 0, 0)" xlink:href="#Atelier_CLUC"/><linearGradient id="Atelier_CLUC-8" x1="499.07" y1="457.5" x2="453.86" y2="457.88" gradientTransform="matrix(1, 0, 0, 1, 0, 0)" xlink:href="#Atelier_CLUC"/><linearGradient id="Atelier_CLUC-9" x1="560.27" y1="457.96" x2="506.41" y2="458.41" gradientTransform="matrix(1, 0, 0, 1, 0, 0)" xlink:href="#Atelier_CLUC"/><linearGradient id="Atelier_CLUC-10" x1="628.91" y1="457.94" x2="572.46" y2="458.42" gradientTransform="matrix(1, 0, 0, 1, 0, 0)" xlink:href="#Atelier_CLUC"/></defs><path id="Background" class="cls-1" d="M499.8.1c76.7,0,115.1,0,156.5,13a161.15,161.15,0,0,1,97.4,97.4c13.8,43,13.8,81.3,13.8,158V500.2c0,76.7,0,115.1-13,156.5a161.15,161.15,0,0,1-97.4,97.4c-41.4,13.8-79.8,13.8-158,13.8H268.2c-76.7,0-115.1,0-156.5-13-45.3-17.6-81.3-52.2-97.4-98.2C.5,615.3.5,576.9.5,499.4V267.8c0-76.7,0-115.1,13-156.5C30.4,66,66.4,30,110.9,13.9,153.1.1,191.5.1,268.2.1Z" transform="translate(-0.5 -0.1)"/><path id="Aiguille" class="cls-2" d="M758.71,511.24a19.79,19.79,0,0,0-19.77-19.76,18.62,18.62,0,0,0-2,.1L447.63,508a3.25,3.25,0,0,0,0,6.49l289.17,16.4a18.79,18.79,0,0,0,2.14.12A19.79,19.79,0,0,0,758.71,511.24Zm-21.81,6.4a5.58,5.58,0,0,1-.72,0l-.19,0-32.48-2a4.37,4.37,0,0,1,0-8.7c.12,0,.24,0,.36-.06l32.29-1.95c.24,0,.49-.05.74-.05a6.41,6.41,0,0,1,0,12.81Z" transform="translate(-0.5 -0.1)"/><g id="Horloge"><g id="Icon-Set-Filled"><path id="clock" class="cls-3" d="M691.08,155h17.34v17.35H691.08Zm-22-46.29-12-12,12-12,12,12-12,12Zm-2.28,126-12.26-12.26,12.26-12.26L679,222.42l-12.26,12.26Zm-53.73-70.82a8.65,8.65,0,0,1-8.67,8.66h-78a8.67,8.67,0,1,1,0-17.34h69.36V68.28a8.67,8.67,0,1,1,17.34,0v95.58Zm-17.34,86.5h17.34V267.7H595.71ZM536,234.91l-12-12,12-12,12,12-12,12Zm1.39-150.08,12.26,12.26-12.26,12.26L525.17,97.09l12.26-12.26Zm67-59.9A138.73,138.73,0,1,0,743.1,163.65,138.72,138.72,0,0,0,604.38,24.93Z" transform="translate(-0.5 -0.1)"/></g></g><g id="Horaire"><path class="cls-4" d="M139,491.11V398.82h13v92.29Zm8.07-39.29V439.51h51.22v12.31Zm44.37,39.29V398.82h12.94v92.29Z" transform="translate(-0.5 -0.1)"/><path class="cls-5" d="M251.27,492.07q-12.95,0-20.06-7.53t-7.11-21.16V452.65q0-13.53,7.11-20.95t20.06-7.43q12.94,0,20.06,7.43t7.11,20.95v10.92q0,13.57-7.11,21T251.27,492.07Zm0-12.32q6.79,0,10.51-4.25t3.71-11.93V452.65q0-7.68-3.71-11.87t-10.51-4.19q-6.74,0-10.47,4.19t-3.75,11.87v10.92q0,7.68,3.75,11.93T251.27,479.75Z" transform="translate(-0.5 -0.1)"/><path class="cls-6" d="M296.85,491.11V425.23H309.8v65.88Zm36.24-50.27a10.89,10.89,0,0,0-4.31-3.17,15.67,15.67,0,0,0-6-1.08q-6.17,0-9.56,3.39t-3.39,9.43l-1.34-12.69a24,24,0,0,1,7.84-9.15,18.63,18.63,0,0,1,10.7-3.3,24.32,24.32,0,0,1,8.15,1.3,18.14,18.14,0,0,1,6.38,3.85Z" transform="translate(-0.5 -0.1)"/><path class="cls-7" d="M373.4,492.07q-12.12,0-18.19-5t-6.06-15.36q0-9.84,5.56-14.69t16.66-4.86h18.72l.89,10.41H371.43q-5,0-7.55,2.25c-1.69,1.51-2.54,3.8-2.54,6.89q0,5,3.36,7.43t10.1,2.41c4.9,0,8.59-.53,11-1.59s3.68-2.7,3.68-4.95l1.34,9.27a15.09,15.09,0,0,1-4.26,4.38,18.82,18.82,0,0,1-5.81,2.57A29.24,29.24,0,0,1,373.4,492.07Zm16.12-1V449.35q0-6.48-3.46-10.06t-9.8-3.59a25.64,25.64,0,0,0-7.65,1.17,22.49,22.49,0,0,0-6.76,3.4l-9.46-6.47a24.64,24.64,0,0,1,9.87-7,35.64,35.64,0,0,1,13.62-2.51q12.38,0,19.16,6.42t6.8,18.09v42.33Z" transform="translate(-0.5 -0.1)"/><path class="cls-8" d="M421.51,411.77V398.82h12.95v12.95Zm0,79.34V425.23h12.95v65.88Z" transform="translate(-0.5 -0.1)"/><path class="cls-9" d="M454.14,491.11V425.23h12.95v65.88Zm36.25-50.27a11,11,0,0,0-4.32-3.17,15.64,15.64,0,0,0-6-1.08q-6.17,0-9.55,3.39t-3.4,9.43l-1.33-12.69a24,24,0,0,1,7.84-9.15,18.6,18.6,0,0,1,10.69-3.3,24.34,24.34,0,0,1,8.16,1.3,18.23,18.23,0,0,1,6.38,3.85Z" transform="translate(-0.5 -0.1)"/><path class="cls-10" d="M535.33,492.07q-13.79,0-21.33-7.68t-7.55-21.84v-7.43q0-14.72,7.26-22.78t20.48-8.07q12.43,0,19.26,9.14t6.82,25.65v4.32H515.84V453H548c-.38-5.34-1.77-9.5-4.16-12.51a11.66,11.66,0,0,0-9.61-4.51q-7.31,0-11.37,4.83t-4.06,13.65v8.37q0,8.19,4.35,12.57t12.22,4.38a20.63,20.63,0,0,0,7.81-1.58,22.43,22.43,0,0,0,6.91-4.45l8.51,8.51a36,36,0,0,1-11,7.27A31.36,31.36,0,0,1,535.33,492.07Z" transform="translate(-0.5 -0.1)"/><path class="cls-11" d="M601.34,492.07a46.77,46.77,0,0,1-15.9-2.57,38,38,0,0,1-12.79-7.72l7.68-9.45A44.77,44.77,0,0,0,591,478.42a28.61,28.61,0,0,0,10.37,2q7.68,0,11.52-2.38a7.87,7.87,0,0,0,3.85-7.14q0-3.68-2.58-5.21a17.06,17.06,0,0,0-6.72-2c-2.78-.31-5.75-.58-8.92-.79-2.67-.21-5.31-.54-7.94-1a23.16,23.16,0,0,1-7.17-2.42,12.86,12.86,0,0,1-5.17-5.17,18.69,18.69,0,0,1-1.94-9.2q0-10.47,6.41-15.68t19.11-5.21a47.76,47.76,0,0,1,14.41,2.1,42.24,42.24,0,0,1,12.5,6.41l-7.81,9.46a42.81,42.81,0,0,0-9.74-4.76,29.63,29.63,0,0,0-9.36-1.59q-6.6,0-9.9,2.25a7.64,7.64,0,0,0-3.31,6.76,4.56,4.56,0,0,0,2.29,4.29,15.21,15.21,0,0,0,6,1.68c2.5.25,5.18.49,8.06.7s5.53.47,8.35.92a24.27,24.27,0,0,1,7.77,2.57,14.38,14.38,0,0,1,5.72,5.65q2.16,3.75,2.16,10.22,0,10.6-6.89,15.87T601.34,492.07Z" transform="translate(-0.5 -0.1)"/></g></svg>