<svg id="Base" xmlns="http://www.w3.org/2000/svg" xmlns:xlink="http://www.w3.org/1999/xlink" viewBox="0 0 767 767.8"><defs><style>.cls-1{fill:url(#Dégradé_sans_nom_5);}.cls-2{fill:url(#Atelier_CLUC);}.cls-3{fill:url(#Atelier_CLUC-2);}.cls-4{fill:url(#Atelier_CLUC-3);}.cls-5{fill:url(#Atelier_CLUC-4);}.cls-6{fill:url(#Atelier_CLUC-5);}.cls-7{fill:url(#Atelier_CLUC-6);}.cls-8{fill:url(#Atelier_CLUC-7);}.cls-9{fill:url(#Atelier_CLUC-8);}.cls-10{fill:url(#Atelier_CLUC-9);}.cls-11{fill:url(#Atelier_CLUC-10);}.cls-12{fill:url(#Atelier_CLUC-11);}.cls-13{fill:url(#Atelier_CLUC-12);}.cls-14{fill:url(#Atelier_CLUC-13);}.cls-15{fill:url(#Atelier_CLUC-14);}.cls-16{fill:url(#Atelier_CLUC-15);}.cls-17{fill:url(#Atelier_CLUC-16);}.cls-18{fill:url(#Atelier_CLUC-17);}.cls-19{fill:url(#Atelier_CLUC-18);}</style><radialGradient id="Dégradé_sans_nom_5" cx="384" cy="384" fx="167.45241308547736" fy="551.8053633856041" r="356.3" gradientUnits="userSpaceOnUse"><stop offset="0.1" stop-color="#00684f"/><stop offset="0.71" stop-color="#00563c"/></radialGradient><linearGradient id="Atelier_CLUC" x1="400.12" y1="177.39" x2="404.92" y2="748.88" gradientTransform="translate(1084.27 136.71) rotate(90)" gradientUnits="userSpaceOnUse"><stop offset="0.01" stop-color="#dab954"/><stop offset="0.19" stop-color="#d1ae55"/><stop offset="0.6" stop-color="#d6ab18"/><stop offset="0.87" stop-color="#dcb45f"/><stop offset="1" stop-color="#ebdbca"/></linearGradient><linearGradient id="Atelier_CLUC-2" x1="735.11" y1="145.61" x2="465.79" y2="147.87" gradientTransform="matrix(1, 0, 0, 1, 0, 0)" xlink:href="#Atelier_CLUC"/><linearGradient id="Atelier_CLUC-3" x1="659.69" y1="134.87" x2="632.75" y2="135.1" gradientTransform="matrix(1, 0, 0, 1, 0, 0)" xlink:href="#Atelier_CLUC"/><linearGradient id="Atelier_CLUC-4" x1="735.54" y1="170.68" x2="708.53" y2="170.91" gradientTransform="matrix(1, 0, 0, 1, 0, 0)" xlink:href="#Atelier_CLUC"/><linearGradient id="Atelier_CLUC-5" x1="735.96" y1="148.39" x2="708.99" y2="148.62" gradientTransform="matrix(1, 0, 0, 1, 0, 0)" xlink:href="#Atelier_CLUC"/><linearGradient id="Atelier_CLUC-6" x1="736.07" y1="211.13" x2="709.1" y2="211.35" gradientTransform="matrix(1, 0, 0, 1, 0, 0)" xlink:href="#Atelier_CLUC"/><linearGradient id="Atelier_CLUC-7" x1="735.54" y1="188.64" x2="708.53" y2="188.87" gradientTransform="matrix(1, 0, 0, 1, 0, 0)" xlink:href="#Atelier_CLUC"/><linearGradient id="Atelier_CLUC-8" x1="93.37" y1="398.73" x2="94.15" y2="491.13" gradientTransform="matrix(1, 0, 0, 1, 0, 0)" xlink:href="#Atelier_CLUC"/><linearGradient id="Atelier_CLUC-9" x1="160.67" y1="424.51" x2="161.23" y2="491.21" gradientTransform="matrix(1, 0, 0, 1, 0, 0)" xlink:href="#Atelier_CLUC"/><linearGradient id="Atelier_CLUC-10" x1="217.2" y1="383.73" x2="218.11" y2="492.26" gradientTransform="matrix(1, 0, 0, 1, 0, 0)" xlink:href="#Atelier_CLUC"/><linearGradient id="Atelier_CLUC-11" x1="284.89" y1="424.46" x2="285.46" y2="492.25" gradientTransform="matrix(1, 0, 0, 1, 0, 0)" xlink:href="#Atelier_CLUC"/><linearGradient id="Atelier_CLUC-12" x1="339.51" y1="406.16" x2="340.23" y2="491.73" gradientTransform="matrix(1, 0, 0, 1, 0, 0)" xlink:href="#Atelier_CLUC"/><linearGradient id="Atelier_CLUC-13" x1="395.22" y1="424.45" x2="395.79" y2="492.22" gradientTransform="matrix(1, 0, 0, 1, 0, 0)" xlink:href="#Atelier_CLUC"/><linearGradient id="Atelier_CLUC-14" x1="451.11" y1="406.16" x2="451.82" y2="491.73" gradientTransform="matrix(1, 0, 0, 1, 0, 0)" xlink:href="#Atelier_CLUC"/><linearGradient id="Atelier_CLUC-15" x1="490.03" y1="398.94" x2="490.81" y2="491.34" gradientTransform="matrix(1, 0, 0, 1, 0, 0)" xlink:href="#Atelier_CLUC"/><linearGradient id="Atelier_CLUC-16" x1="541.55" y1="424.45" x2="542.12" y2="492.24" gradientTransform="matrix(1, 0, 0, 1, 0, 0)" xlink:href="#Atelier_CLUC"/><linearGradient id="Atelier_CLUC-17" x1="613.49" y1="424.48" x2="614.05" y2="491.51" gradientTransform="matrix(1, 0, 0, 1, 0, 0)" xlink:href="#Atelier_CLUC"/><linearGradient id="Atelier_CLUC-18" x1="682.38" y1="424.46" x2="682.95" y2="492.25" gradientTransform="matrix(1, 0, 0, 1, 0, 0)" xlink:href="#Atelier_CLUC"/></defs><path id="Background" class="cls-1" d="M499.8.1c76.7,0,115.1,0,156.5,13a161.15,161.15,0,0,1,97.4,97.4c13.8,43,13.8,81.3,13.8,158V500.2c0,76.7,0,115.1-13,156.5a161.15,161.15,0,0,1-97.4,97.4c-41.4,13.8-79.8,13.8-158,13.8H268.2c-76.7,0-115.1,0-156.5-13-45.3-17.6-81.3-52.2-97.4-98.2C.5,615.3.5,576.9.5,499.4V267.8c0-76.7,0-115.1,13-156.5C30.4,66,66.4,30,110.9,13.9,153.1.1,191.5.1,268.2.1Z" transform="translate(-0.5 -0.1)"/><path id="Aiguille" class="cls-2" d="M758.71,538.24a19.79,19.79,0,0,0-19.77-19.76,18.62,18.62,0,0,0-2,.1L447.63,535a3.25,3.25,0,0,0,0,6.49l289.17,16.4a18.79,18.79,0,0,0,2.14.12A19.79,19.79,0,0,0,758.71,538.24Zm-21.81,6.4a5.58,5.58,0,0,1-.72,0l-.19,0-32.48-2a4.37,4.37,0,0,1,0-8.7l.36-.06,32.29-2c.24,0,.49,0,.74,0a6.41,6.41,0,0,1,0,12.81Z" transform="translate(-0.5 -0.1)"/><g id="MachineACoudre"><path class="cls-3" d="M718,233.74H704.58v-80.8c0-1.59-.05-3.18-.14-4.75a76.62,76.62,0,0,0-32.8-58.4,80.73,80.73,0,0,0-38.89-14.44V58.67h13.47a4.49,4.49,0,1,0,0-9h-4.49V31.74h4.49a4.49,4.49,0,1,0,0-9H610.31a4.49,4.49,0,1,0,0,9h4.49v18h-4.49a4.49,4.49,0,1,0,0,9h13.46V75a81,81,0,0,0-21.54,3.28L555,92.17a59.56,59.56,0,0,1-16.78,2.41H535a47.63,47.63,0,0,1-24.52-6.79c-3.88-2.33-7.27-6-10.34-11.24a17.95,17.95,0,0,0-33.45,9.06V188.85a17.94,17.94,0,0,0,13.47,17.32v14.11a4.49,4.49,0,0,0,9,0V206.17a17.93,17.93,0,0,0,13.47-17.32v-9A22.47,22.47,0,0,1,525,157.43h62.84a26.93,26.93,0,0,1,13.6,3.67c9.77,5.72,14.54,17.91,11.6,29.65l-10.75,43H484.62a18,18,0,1,0,0,35.91H718a18,18,0,1,0,0-35.91ZM529.51,112.54h26.93a4.49,4.49,0,0,1,0,9H529.51a4.49,4.49,0,0,1,0-9Zm44.89,26.93H529.51a4.49,4.49,0,1,1,0-9H574.4a4.49,4.49,0,0,1,0,9ZM623.77,31.74h9v18h-9Zm22.45,184a4.49,4.49,0,1,1,4.49-4.49A4.49,4.49,0,0,1,646.22,215.79Zm18,0a4.49,4.49,0,1,1,4.48-4.49A4.49,4.49,0,0,1,664.18,215.79Zm-18-58.36A22.45,22.45,0,1,1,668.66,135,22.47,22.47,0,0,1,646.22,157.43Z" transform="translate(-0.5 -0.1)"/><path class="cls-4" d="M646.22,121.52A13.47,13.47,0,1,0,659.69,135,13.48,13.48,0,0,0,646.22,121.52Zm0,18a4.49,4.49,0,1,1,4.49-4.49A4.49,4.49,0,0,1,646.22,139.47Z" transform="translate(-0.5 -0.1)"/><rect class="cls-5" x="708.57" y="166.31" width="26.93" height="8.98"/><path class="cls-6" d="M722.53,139.47a13.49,13.49,0,0,0-13.46,13.47v4.49H736v-4.49A13.49,13.49,0,0,0,722.53,139.47Z" transform="translate(-0.5 -0.1)"/><path class="cls-7" d="M709.07,206.81a13.47,13.47,0,1,0,26.93,0v-4.49H709.07Z" transform="translate(-0.5 -0.1)"/><rect class="cls-8" x="708.57" y="184.26" width="26.93" height="8.98"/></g><path class="cls-9" d="M62.14,491.29V399h13v92.3Zm6.67-35.8V443.17H98.32a12.89,12.89,0,0,0,10.19-4.38q3.84-4.38,3.84-11.49t-3.84-11.61a12.89,12.89,0,0,0-10.19-4.38H68.81V399H97.88a29.12,29.12,0,0,1,14.6,3.53,24.65,24.65,0,0,1,9.68,9.87,33.75,33.75,0,0,1,0,29.77,24.51,24.51,0,0,1-9.68,9.84,29.42,29.42,0,0,1-14.6,3.49Z" transform="translate(-0.5 -0.1)"/><path class="cls-10" d="M138.63,491.29V425.4h13v65.89ZM174.88,441a11,11,0,0,0-4.32-3.17,15.67,15.67,0,0,0-6-1.08q-6.17,0-9.55,3.4t-3.4,9.42l-1.33-12.69a24,24,0,0,1,7.84-9.14,18.6,18.6,0,0,1,10.69-3.3,24.09,24.09,0,0,1,8.16,1.3,18.36,18.36,0,0,1,6.38,3.84Z" transform="translate(-0.5 -0.1)"/><path class="cls-11" d="M244.76,459.23q0-16.5-6.82-25.64t-19.26-9.14q-13.22,0-20.48,8.06t-7.26,22.79v7.42q0,14.16,7.55,21.84t21.33,7.68a31.36,31.36,0,0,0,12.25-2.57,35.86,35.86,0,0,0,11-7.27l-8.51-8.5a22.59,22.59,0,0,1-6.91,4.44,20.46,20.46,0,0,1-7.81,1.59q-7.87,0-12.22-4.38c-2.8-2.82-4.23-6.83-4.33-12h41.49Zm-41.47-6.09c.21-5.17,1.55-9.25,4-12.19q4.06-4.81,11.37-4.82a11.65,11.65,0,0,1,9.61,4.5q3.59,4.51,4.16,12.51Z" transform="translate(-0.5 -0.1)"/><path class="cls-12" d="M285.83,492.24a46.77,46.77,0,0,1-15.9-2.57A37.84,37.84,0,0,1,257.14,482l7.68-9.46a44.43,44.43,0,0,0,10.64,6.09,28.4,28.4,0,0,0,10.37,2q7.68,0,11.52-2.38a7.84,7.84,0,0,0,3.84-7.14c0-2.45-.85-4.19-2.57-5.2a16.89,16.89,0,0,0-6.72-2c-2.78-.32-5.75-.58-8.92-.8-2.67-.21-5.31-.54-7.94-1a23.15,23.15,0,0,1-7.17-2.41,12.92,12.92,0,0,1-5.17-5.17c-1.3-2.29-1.94-5.36-1.94-9.21q0-10.47,6.41-15.68t19.11-5.2a48.08,48.08,0,0,1,14.41,2.09,42.48,42.48,0,0,1,12.5,6.41l-7.81,9.46a43.66,43.66,0,0,0-9.74-4.76,29.68,29.68,0,0,0-9.36-1.59q-6.6,0-9.9,2.26a7.62,7.62,0,0,0-3.31,6.76,4.55,4.55,0,0,0,2.29,4.28,15.21,15.21,0,0,0,6,1.68c2.5.26,5.18.49,8.06.7s5.53.48,8.35.92a24.52,24.52,0,0,1,7.77,2.57,14.44,14.44,0,0,1,5.72,5.65q2.16,3.75,2.16,10.22,0,10.61-6.89,15.87T285.83,492.24Z" transform="translate(-0.5 -0.1)"/><path class="cls-13" d="M324.87,437.08V425.4h29.71v11.68Zm22.22,54.53q-8.13,0-11.78-4.51t-3.65-13V406.23h12.95v68a6.28,6.28,0,0,0,.95,3.68,3.22,3.22,0,0,0,2.8,1.33h6.22v12.32Z" transform="translate(-0.5 -0.1)"/><path class="cls-14" d="M393.43,492.24q-12.14,0-18.19-5t-6.06-15.37q0-9.84,5.55-14.69t16.66-4.86h18.73l.89,10.41H391.46c-3.34,0-5.86.76-7.56,2.26s-2.53,3.8-2.53,6.88c0,3.35,1.12,5.82,3.36,7.43s5.61,2.41,10.09,2.41q7.37,0,11.05-1.58t3.68-4.95l1.33,9.26a14.93,14.93,0,0,1-4.25,4.38,18.59,18.59,0,0,1-5.81,2.57A29.24,29.24,0,0,1,393.43,492.24Zm16.12-.95V449.52q0-6.48-3.46-10.06t-9.81-3.59a25.43,25.43,0,0,0-7.65,1.18,22.35,22.35,0,0,0-6.76,3.39L372.42,434a24.67,24.67,0,0,1,9.87-7,35.63,35.63,0,0,1,13.61-2.5q12.38,0,19.17,6.41T421.86,449v42.34Z" transform="translate(-0.5 -0.1)"/><path class="cls-15" d="M436.46,437.08V425.4h29.71v11.68Zm22.22,54.53q-8.13,0-11.78-4.51t-3.65-13V406.23H456.2v68a6.21,6.21,0,0,0,1,3.68,3.19,3.19,0,0,0,2.79,1.33h6.22v12.32Z" transform="translate(-0.5 -0.1)"/><path class="cls-16" d="M483.94,411.94V399h12.95v12.95Zm0,79.35V425.4h12.95v65.89Z" transform="translate(-0.5 -0.1)"/><path class="cls-17" d="M541.83,492.24q-12.95,0-20.05-7.52t-7.11-21.17V452.82q0-13.51,7.11-20.95t20.05-7.42q13,0,20.06,7.42T569,452.82v10.92q0,13.59-7.11,21T541.83,492.24Zm0-12.31q6.79,0,10.51-4.26t3.71-11.93V452.82q0-7.68-3.71-11.87t-10.51-4.19q-6.72,0-10.47,4.19t-3.74,11.87v10.92q0,7.68,3.74,11.93T541.83,479.93Z" transform="translate(-0.5 -0.1)"/><path class="cls-18" d="M587.41,491.29V425.4h13v65.89Zm40,0V451.36q0-7-3.59-10.79t-10.18-3.81c-4.24,0-7.5,1.12-9.81,3.37s-3.46,5.39-3.46,9.45L599,436.89a23.5,23.5,0,0,1,8-9.21,19.45,19.45,0,0,1,10.89-3.23q10.73,0,16.6,7t5.87,19.84v40Z" transform="translate(-0.5 -0.1)"/><path class="cls-19" d="M683.32,492.24a46.77,46.77,0,0,1-15.9-2.57A37.84,37.84,0,0,1,654.63,482l7.68-9.46A44.43,44.43,0,0,0,673,478.59a28.4,28.4,0,0,0,10.37,2q7.68,0,11.52-2.38a7.84,7.84,0,0,0,3.84-7.14c0-2.45-.85-4.19-2.57-5.2a16.89,16.89,0,0,0-6.73-2c-2.77-.32-5.74-.58-8.91-.8-2.67-.21-5.31-.54-7.94-1a23.15,23.15,0,0,1-7.17-2.41,12.92,12.92,0,0,1-5.17-5.17c-1.3-2.29-1.94-5.36-1.94-9.21q0-10.47,6.41-15.68t19.11-5.2a48.08,48.08,0,0,1,14.41,2.09,42.48,42.48,0,0,1,12.5,6.41l-7.81,9.46a43.66,43.66,0,0,0-9.74-4.76,29.68,29.68,0,0,0-9.36-1.59q-6.6,0-9.9,2.26a7.62,7.62,0,0,0-3.31,6.76,4.55,4.55,0,0,0,2.29,4.28,15.21,15.21,0,0,0,6,1.68c2.5.26,5.18.49,8.06.7s5.53.48,8.35.92a24.52,24.52,0,0,1,7.77,2.57,14.44,14.44,0,0,1,5.72,5.65q2.16,3.75,2.16,10.22,0,10.61-6.89,15.87T683.32,492.24Z" transform="translate(-0.5 -0.1)"/></svg>