<svg id="Base" xmlns="http://www.w3.org/2000/svg" xmlns:xlink="http://www.w3.org/1999/xlink" viewBox="0 0 767 767.8"><defs><style>.cls-1{fill:url(#Dégradé_sans_nom_5);}.cls-2{fill:url(#Atelier_CLUC);}.cls-3{fill:url(#Atelier_CLUC-2);}.cls-4{fill:url(#Atelier_CLUC-3);}.cls-5{fill:url(#Atelier_CLUC-4);}.cls-6{fill:url(#Atelier_CLUC-5);}.cls-7{fill:url(#Atelier_CLUC-6);}.cls-8{fill:url(#Atelier_CLUC-7);}.cls-9{fill:url(#Atelier_CLUC-8);}.cls-10{fill:url(#Atelier_CLUC-9);}.cls-11{fill:url(#Atelier_CLUC-10);}.cls-12{fill:url(#Atelier_CLUC-11);}.cls-13{fill:url(#Atelier_CLUC-12);}.cls-14{fill:url(#Atelier_CLUC-13);}.cls-15{fill:url(#Atelier_CLUC-14);}</style><radialGradient id="Dégradé_sans_nom_5" cx="384" cy="384" fx="167.45241308547673" fy="551.8053633856032" r="356.3" gradientUnits="userSpaceOnUse"><stop offset="0.1" stop-color="#00684f"/><stop offset="0.71" stop-color="#00563c"/></radialGradient><linearGradient id="Atelier_CLUC" x1="373.12" y1="177.39" x2="377.92" y2="748.88" gradientTransform="translate(1084.27 136.71) rotate(90)" gradientUnits="userSpaceOnUse"><stop offset="0.01" stop-color="#dab954"/><stop offset="0.19" stop-color="#d1ae55"/><stop offset="0.6" stop-color="#d6ab18"/><stop offset="0.87" stop-color="#dcb45f"/><stop offset="1" stop-color="#ebdbca"/></linearGradient><linearGradient id="Atelier_CLUC-2" x1="749.91" y1="156.9" x2="449.59" y2="159.43" gradientTransform="matrix(1, 0, 0, 1, 0, 0)" xlink:href="#Atelier_CLUC"/><linearGradient id="Atelier_CLUC-3" x1="68.82" y1="398.16" x2="69.6" y2="491.08" gradientTransform="matrix(1, 0, 0, 1, 0, 0)" xlink:href="#Atelier_CLUC"/><linearGradient id="Atelier_CLUC-4" x1="141.25" y1="383.24" x2="142.16" y2="491.77" gradientTransform="matrix(1, 0, 0, 1, 0, 0)" xlink:href="#Atelier_CLUC"/><linearGradient id="Atelier_CLUC-5" x1="209.45" y1="423.96" x2="210.02" y2="491.73" gradientTransform="matrix(1, 0, 0, 1, 0, 0)" xlink:href="#Atelier_CLUC"/><linearGradient id="Atelier_CLUC-6" x1="266.64" y1="398.41" x2="267.42" y2="491.21" gradientTransform="matrix(1, 0, 0, 1, 0, 0)" xlink:href="#Atelier_CLUC"/><linearGradient id="Atelier_CLUC-7" x1="299.51" y1="398.45" x2="300.28" y2="490.85" gradientTransform="matrix(1, 0, 0, 1, 0, 0)" xlink:href="#Atelier_CLUC"/><linearGradient id="Atelier_CLUC-8" x1="348.4" y1="423.97" x2="348.97" y2="491.76" gradientTransform="matrix(1, 0, 0, 1, 0, 0)" xlink:href="#Atelier_CLUC"/><linearGradient id="Atelier_CLUC-9" x1="416.32" y1="423.96" x2="416.89" y2="491.73" gradientTransform="matrix(1, 0, 0, 1, 0, 0)" xlink:href="#Atelier_CLUC"/><linearGradient id="Atelier_CLUC-10" x1="472.21" y1="405.67" x2="472.93" y2="491.24" gradientTransform="matrix(1, 0, 0, 1, 0, 0)" xlink:href="#Atelier_CLUC"/><linearGradient id="Atelier_CLUC-11" x1="511.14" y1="398.45" x2="511.91" y2="490.85" gradientTransform="matrix(1, 0, 0, 1, 0, 0)" xlink:href="#Atelier_CLUC"/><linearGradient id="Atelier_CLUC-12" x1="562.66" y1="423.96" x2="563.23" y2="491.75" gradientTransform="matrix(1, 0, 0, 1, 0, 0)" xlink:href="#Atelier_CLUC"/><linearGradient id="Atelier_CLUC-13" x1="634.59" y1="423.99" x2="635.16" y2="491.02" gradientTransform="matrix(1, 0, 0, 1, 0, 0)" xlink:href="#Atelier_CLUC"/><linearGradient id="Atelier_CLUC-14" x1="703.49" y1="423.97" x2="704.06" y2="491.76" gradientTransform="matrix(1, 0, 0, 1, 0, 0)" xlink:href="#Atelier_CLUC"/></defs><path id="Background" class="cls-1" d="M499.8.1c76.7,0,115.1,0,156.5,13a161.15,161.15,0,0,1,97.4,97.4c13.8,43,13.8,81.3,13.8,158V500.2c0,76.7,0,115.1-13,156.5a161.15,161.15,0,0,1-97.4,97.4c-41.4,13.8-79.8,13.8-158,13.8H268.2c-76.7,0-115.1,0-156.5-13-45.3-17.6-81.3-52.2-97.4-98.2C.5,615.3.5,576.9.5,499.4V267.8c0-76.7,0-115.1,13-156.5C30.4,66,66.4,30,110.9,13.9,153.1.1,191.5.1,268.2.1Z" transform="translate(-0.5 -0.1)"/><path id="Aiguille" class="cls-2" d="M758.71,511.24a19.79,19.79,0,0,0-19.77-19.76,18.62,18.62,0,0,0-2,.1L447.63,508a3.25,3.25,0,0,0,0,6.49l289.17,16.4a18.79,18.79,0,0,0,2.14.12A19.79,19.79,0,0,0,758.71,511.24Zm-21.81,6.4a5.58,5.58,0,0,1-.72,0l-.19,0-32.48-2a4.37,4.37,0,0,1,0-8.7c.12,0,.24,0,.36-.06l32.29-1.95c.24,0,.49-.05.74-.05a6.41,6.41,0,0,1,0,12.81Z" transform="translate(-0.5 -0.1)"/><g id="TeeShirt"><path class="cls-3" d="M750,167.67l-26.17-77v0c-9.25-28.8-31.77-54-81-59.39-.69,23.46-19.67,42.28-43.06,42.31A43.36,43.36,0,0,1,556.66,31.3C507.46,36.75,485,62,475.75,90.78v0l-26.08,77,55.18,19.86,13.7-35.5V284.8l162.71-.09-.13-132.61,13.72,35.5Z" transform="translate(-0.5 -0.1)"/></g><g id="Réalisations"><path class="cls-4" d="M36,490.8V398.44H48.91V490.8Zm5.65-39V439.45H73.09a11.44,11.44,0,0,0,9.08-3.94q3.42-3.93,3.43-10.41t-3.43-10.41a11.47,11.47,0,0,0-9.08-3.94H41.61V398.44h31a28.73,28.73,0,0,1,14.1,3.33,23.53,23.53,0,0,1,9.36,9.3,31,31,0,0,1,0,28,23.82,23.82,0,0,1-9.37,9.33,28.47,28.47,0,0,1-14.06,3.33Zm46.27,39L66.74,448.9,79.63,446l23.61,44.82Z" transform="translate(-0.5 -0.1)"/><path class="cls-5" d="M143.87,491.75q-13.77,0-21.33-7.68T115,462.23v-7.42q0-14.73,7.26-22.79T142.73,424q12.44,0,19.26,9.14t6.82,25.64v4.32H124.38V452.65H156.5q-.57-8-4.16-12.51a11.65,11.65,0,0,0-9.61-4.5q-7.3,0-11.37,4.82t-4.06,13.65v8.38q0,8.19,4.35,12.57t12.22,4.38a20.46,20.46,0,0,0,7.81-1.59,22.59,22.59,0,0,0,6.91-4.44l8.51,8.5a35.86,35.86,0,0,1-11,7.27A31.36,31.36,0,0,1,143.87,491.75ZM143,412.21l-8.12-6.53,18.15-22.54,9.33,7.75Z" transform="translate(-0.5 -0.1)"/><path class="cls-6" d="M207.66,491.75q-12.12,0-18.18-5t-6.07-15.37q0-9.83,5.56-14.69t16.66-4.86h18.73l.89,10.41H205.69c-3.34,0-5.86.76-7.55,2.26s-2.54,3.8-2.54,6.88c0,3.35,1.12,5.82,3.37,7.43s5.6,2.41,10.09,2.41q7.37,0,11-1.58t3.69-4.95l1.33,9.26a14.93,14.93,0,0,1-4.25,4.38,18.69,18.69,0,0,1-5.81,2.57A28.87,28.87,0,0,1,207.66,491.75Zm16.13-.95V449q0-6.48-3.46-10.06t-9.81-3.59a25.75,25.75,0,0,0-7.65,1.18,22.24,22.24,0,0,0-6.76,3.39l-9.46-6.47a24.69,24.69,0,0,1,9.87-7A35.49,35.49,0,0,1,210.14,424q12.38,0,19.17,6.41t6.79,18.09V490.8Z" transform="translate(-0.5 -0.1)"/><path class="cls-7" d="M268.73,398.5v75.29a5.88,5.88,0,0,0,1,3.68,3.55,3.55,0,0,0,3,1.33h6.09v12.32H271.2q-7.29,0-11.36-4.57t-4.06-12.89V398.5Z" transform="translate(-0.5 -0.1)"/><path class="cls-8" d="M293.42,411.45V398.5h12.95v12.95Zm0,79.35V424.91h12.95V490.8Z" transform="translate(-0.5 -0.1)"/><path class="cls-9" d="M349.34,491.75a46.77,46.77,0,0,1-15.9-2.57,38,38,0,0,1-12.79-7.71l7.68-9.46A44.57,44.57,0,0,0,339,478.1a28.41,28.41,0,0,0,10.38,2q7.68,0,11.52-2.38a7.84,7.84,0,0,0,3.84-7.14c0-2.45-.85-4.19-2.57-5.2a16.94,16.94,0,0,0-6.73-2c-2.77-.32-5.74-.58-8.91-.8-2.67-.21-5.32-.53-7.94-1a23.15,23.15,0,0,1-7.17-2.41,13.07,13.07,0,0,1-5.18-5.17,18.77,18.77,0,0,1-1.93-9.21q0-10.47,6.41-15.68t19.11-5.2a48.08,48.08,0,0,1,14.41,2.09,42.48,42.48,0,0,1,12.5,6.41l-7.81,9.46a43.87,43.87,0,0,0-9.74-4.76,29.68,29.68,0,0,0-9.36-1.59q-6.62,0-9.91,2.26a7.63,7.63,0,0,0-3.3,6.76,4.52,4.52,0,0,0,2.29,4.28,15.21,15.21,0,0,0,6,1.68c2.5.26,5.18.49,8.06.7s5.53.48,8.35.92a24.52,24.52,0,0,1,7.77,2.57,14.44,14.44,0,0,1,5.72,5.65q2.15,3.75,2.15,10.22,0,10.61-6.88,15.87T349.34,491.75Z" transform="translate(-0.5 -0.1)"/><path class="cls-10" d="M414.53,491.75q-12.12,0-18.18-5t-6.07-15.37q0-9.83,5.56-14.69t16.66-4.86h18.73l.89,10.41H412.56c-3.34,0-5.86.76-7.55,2.26s-2.54,3.8-2.54,6.88c0,3.35,1.12,5.82,3.37,7.43s5.6,2.41,10.09,2.41q7.36,0,11-1.58t3.69-4.95l1.33,9.26a14.93,14.93,0,0,1-4.25,4.38,18.69,18.69,0,0,1-5.81,2.57A28.87,28.87,0,0,1,414.53,491.75Zm16.13-.95V449q0-6.48-3.46-10.06t-9.81-3.59a25.75,25.75,0,0,0-7.65,1.18A22.24,22.24,0,0,0,403,440l-9.46-6.47a24.69,24.69,0,0,1,9.87-7A35.49,35.49,0,0,1,417,424q12.38,0,19.17,6.41T443,448.46V490.8Z" transform="translate(-0.5 -0.1)"/><path class="cls-11" d="M457.57,436.59V424.91h29.71v11.68Zm22.22,54.53q-8.13,0-11.78-4.51t-3.65-12.95V405.74h12.95v68.05a6.28,6.28,0,0,0,.95,3.68,3.22,3.22,0,0,0,2.8,1.33h6.22v12.32Z" transform="translate(-0.5 -0.1)"/><path class="cls-12" d="M505.05,411.45V398.5H518v12.95Zm0,79.35V424.91H518V490.8Z" transform="translate(-0.5 -0.1)"/><path class="cls-13" d="M562.94,491.75q-12.95,0-20.06-7.52t-7.11-21.17V452.33q0-13.51,7.11-20.95T562.94,424q12.94,0,20.06,7.42t7.11,20.95v10.92q0,13.59-7.11,21T562.94,491.75Zm0-12.31q6.79,0,10.51-4.26t3.71-11.93V452.33q0-7.68-3.71-11.87t-10.51-4.19q-6.74,0-10.47,4.19t-3.75,11.87v10.92q0,7.68,3.75,11.93T562.94,479.44Z" transform="translate(-0.5 -0.1)"/><path class="cls-14" d="M608.52,490.8V424.91h13V490.8Zm40,0V450.87q0-7-3.59-10.79t-10.19-3.81q-6.35,0-9.81,3.37t-3.45,9.45l-1.34-12.69a23.42,23.42,0,0,1,8-9.2A19.38,19.38,0,0,1,639,424q10.72,0,16.59,7t5.88,19.84v40Z" transform="translate(-0.5 -0.1)"/><path class="cls-15" d="M704.43,491.75a46.77,46.77,0,0,1-15.9-2.57,37.9,37.9,0,0,1-12.79-7.71l7.68-9.46a44.57,44.57,0,0,0,10.63,6.09,28.41,28.41,0,0,0,10.38,2q7.68,0,11.52-2.38a7.84,7.84,0,0,0,3.84-7.14c0-2.45-.86-4.19-2.57-5.2a16.94,16.94,0,0,0-6.73-2c-2.77-.32-5.74-.58-8.92-.8-2.66-.21-5.31-.53-7.93-1a23,23,0,0,1-7.17-2.41,13,13,0,0,1-5.18-5.17,18.77,18.77,0,0,1-1.93-9.21q0-10.47,6.41-15.68t19.1-5.2a48,48,0,0,1,14.41,2.09,42.53,42.53,0,0,1,12.51,6.41L724,441.92a43.87,43.87,0,0,0-9.74-4.76,29.69,29.69,0,0,0-9.37-1.59q-6.6,0-9.9,2.26a7.63,7.63,0,0,0-3.3,6.76,4.52,4.52,0,0,0,2.29,4.28,15.21,15.21,0,0,0,6,1.68q3.74.39,8.06.7,4.13.25,8.35.92a24.52,24.52,0,0,1,7.77,2.57,14.42,14.42,0,0,1,5.71,5.65q2.16,3.75,2.16,10.22,0,10.61-6.88,15.87T704.43,491.75Z" transform="translate(-0.5 -0.1)"/></g></svg>