<svg id="Base" xmlns="http://www.w3.org/2000/svg" xmlns:xlink="http://www.w3.org/1999/xlink" viewBox="0 0 767 767.8"><defs><style>.cls-1{fill:url(#Dégradé_sans_nom_5);}.cls-2{fill:url(#Atelier_CLUC);}.cls-3{fill:url(#Atelier_CLUC-2);}.cls-4{fill:url(#Atelier_CLUC-3);}.cls-5{fill:url(#Atelier_CLUC-4);}.cls-6{fill:url(#Atelier_CLUC-5);}.cls-7{fill:url(#Atelier_CLUC-6);}.cls-8{fill:url(#Atelier_CLUC-7);}.cls-9{fill:url(#Atelier_CLUC-8);}.cls-10{fill:url(#Atelier_CLUC-9);}.cls-11{fill:url(#Atelier_CLUC-10);}.cls-12{fill:url(#Atelier_CLUC-11);}.cls-13{fill:url(#Atelier_CLUC-12);}</style><radialGradient id="Dégradé_sans_nom_5" cx="384" cy="384" fx="167.45241308547736" fy="551.8053633856041" r="356.3" gradientUnits="userSpaceOnUse"><stop offset="0.1" stop-color="#00684f"/><stop offset="0.71" stop-color="#00563c"/></radialGradient><linearGradient id="Atelier_CLUC" x1="400.12" y1="177.39" x2="404.92" y2="748.88" gradientTransform="translate(1084.27 136.71) rotate(90)" gradientUnits="userSpaceOnUse"><stop offset="0.01" stop-color="#dab954"/><stop offset="0.19" stop-color="#d1ae55"/><stop offset="0.6" stop-color="#d6ab18"/><stop offset="0.87" stop-color="#dcb45f"/><stop offset="1" stop-color="#ebdbca"/></linearGradient><linearGradient id="Atelier_CLUC-2" x1="719.57" y1="153.62" x2="487.58" y2="155.57" gradientTransform="matrix(1, 0, 0, 1, 0, 0)" xlink:href="#Atelier_CLUC"/><linearGradient id="Atelier_CLUC-3" x1="719.73" y1="184.6" x2="487.74" y2="186.55" gradientTransform="matrix(1, 0, 0, 1, 0, 0)" xlink:href="#Atelier_CLUC"/><linearGradient id="Atelier_CLUC-4" x1="571.68" y1="134.68" x2="560.07" y2="134.78" gradientTransform="matrix(1, 0, 0, 1, 0, 0)" xlink:href="#Atelier_CLUC"/><linearGradient id="Atelier_CLUC-5" x1="720.05" y1="104.59" x2="487.71" y2="106.55" gradientTransform="matrix(1, 0, 0, 1, 0, 0)" xlink:href="#Atelier_CLUC"/><linearGradient id="Atelier_CLUC-6" x1="647.85" y1="75.63" x2="636.28" y2="75.73" gradientTransform="matrix(1, 0, 0, 1, 0, 0)" xlink:href="#Atelier_CLUC"/><linearGradient id="Atelier_CLUC-7" x1="255.44" y1="399.79" x2="256.22" y2="492.41" gradientTransform="matrix(1, 0, 0, 1, 0, 0)" xlink:href="#Atelier_CLUC"/><linearGradient id="Atelier_CLUC-8" x1="314.73" y1="425.52" x2="315.3" y2="493.29" gradientTransform="matrix(1, 0, 0, 1, 0, 0)" xlink:href="#Atelier_CLUC"/><linearGradient id="Atelier_CLUC-9" x1="383.09" y1="425.59" x2="383.66" y2="492.28" gradientTransform="matrix(1, 0, 0, 1, 0, 0)" xlink:href="#Atelier_CLUC"/><linearGradient id="Atelier_CLUC-10" x1="422.62" y1="400.01" x2="423.39" y2="492.41" gradientTransform="matrix(1, 0, 0, 1, 0, 0)" xlink:href="#Atelier_CLUC"/><linearGradient id="Atelier_CLUC-11" x1="460.4" y1="400.12" x2="461.17" y2="492.38" gradientTransform="matrix(1, 0, 0, 1, 0, 0)" xlink:href="#Atelier_CLUC"/><linearGradient id="Atelier_CLUC-12" x1="510.17" y1="425.53" x2="510.74" y2="493.32" gradientTransform="matrix(1, 0, 0, 1, 0, 0)" xlink:href="#Atelier_CLUC"/></defs><path id="Background" class="cls-1" d="M499.8.1c76.7,0,115.1,0,156.5,13a161.15,161.15,0,0,1,97.4,97.4c13.8,43,13.8,81.3,13.8,158V500.2c0,76.7,0,115.1-13,156.5a161.15,161.15,0,0,1-97.4,97.4c-41.4,13.8-79.8,13.8-158,13.8H268.2c-76.7,0-115.1,0-156.5-13-45.3-17.6-81.3-52.2-97.4-98.2C.5,615.3.5,576.9.5,499.4V267.8c0-76.7,0-115.1,13-156.5C30.4,66,66.4,30,110.9,13.9,153.1.1,191.5.1,268.2.1Z" transform="translate(-0.5 -0.1)"/><path id="Aiguille" class="cls-2" d="M758.71,538.24a19.79,19.79,0,0,0-19.77-19.76,18.62,18.62,0,0,0-2,.1L447.63,535a3.25,3.25,0,0,0,0,6.49l289.17,16.4a18.79,18.79,0,0,0,2.14.12A19.79,19.79,0,0,0,758.71,538.24Zm-21.81,6.4a5.58,5.58,0,0,1-.72,0l-.19,0-32.48-2a4.37,4.37,0,0,1,0-8.7l.36-.06,32.29-2c.24,0,.49,0,.74,0a6.41,6.41,0,0,1,0,12.81Z" transform="translate(-0.5 -0.1)"/><g id="Billets"><polygon class="cls-3" points="719.03 89.58 719.09 102.95 570.62 218.92 487.73 173.48 487.67 161.41 570.56 206.31 719.03 89.58"/><polygon class="cls-4" points="719.19 120.56 719.26 133.92 570.79 249.9 487.89 204.45 487.83 192.37 570.73 237.28 719.19 120.56"/><path class="cls-5" d="M561.69,132.49a7.46,7.46,0,0,1,1.9-1.05,9.38,9.38,0,0,1,2.17-.5,8.35,8.35,0,0,1,2.18.05,6.47,6.47,0,0,1,1.95.63,3.58,3.58,0,0,1,1.31,1.12,2.52,2.52,0,0,1,.47,1.38,2.91,2.91,0,0,1-.38,1.47,4.92,4.92,0,0,1-1.23,1.4,7.35,7.35,0,0,1-1.9,1,9.39,9.39,0,0,1-2.17.51,8.5,8.5,0,0,1-2.2-.05,5.9,5.9,0,0,1-1.94-.63,3.56,3.56,0,0,1-1.31-1.11,2.48,2.48,0,0,1-.46-1.39,2.81,2.81,0,0,1,.38-1.47A4.73,4.73,0,0,1,561.69,132.49Z" transform="translate(-0.5 -0.1)"/><path class="cls-6" d="M488,140.82,637,25.69,719.76,69.6l-149,115.85Zm198.66-76.7-35.2-18.69a29.69,29.69,0,0,1-6.35,2.71,34.64,34.64,0,0,1-6.93,1.33,33.14,33.14,0,0,1-6.91-.14,24.47,24.47,0,0,1-6.33-1.68L586.37,77.48a67.66,67.66,0,0,1,11.6-1.6,72.93,72.93,0,0,1,12,.36,69.22,69.22,0,0,1,11.76,2.37A59.94,59.94,0,0,1,632.59,83a44.15,44.15,0,0,1,8.75,6,30.32,30.32,0,0,1,5.81,7,21.56,21.56,0,0,1,2.79,7.54,18.85,18.85,0,0,1-.31,7.66l38.58-30a12.81,12.81,0,0,1-3.74-3.7A9.52,9.52,0,0,1,683,73.27a10.06,10.06,0,0,1,.73-4.63,14.56,14.56,0,0,1,3-4.52M583,163.07l38.81-30.13a66.46,66.46,0,0,1-11.64,1.61,73.63,73.63,0,0,1-12-.37,68.65,68.65,0,0,1-11.79-2.4,58.63,58.63,0,0,1-10.86-4.44,44.33,44.33,0,0,1-8.76-6.09,30.4,30.4,0,0,1-5.78-7,21.68,21.68,0,0,1-2.73-7.55A18.58,18.58,0,0,1,558.5,99l-38.79,30a12.85,12.85,0,0,1,3.7,3.73,9.56,9.56,0,0,1,1.47,4.38,10.38,10.38,0,0,1-.78,4.65,14.64,14.64,0,0,1-3,4.55l35.18,19a30,30,0,0,1,6.4-2.76,33.76,33.76,0,0,1,7-1.32,31.66,31.66,0,0,1,7,.15,25.18,25.18,0,0,1,6.37,1.68m20.34-71.95-5.15-4.39-.94.38c-.69.28-1.37.58-2,.91s-1.3.66-1.92,1-1.22.72-1.8,1.11-1.14.78-1.68,1.2a22.34,22.34,0,0,0-4.83,5,14.73,14.73,0,0,0-2.33,5.44,11.58,11.58,0,0,0,.23,5.43,12.55,12.55,0,0,0,2.89,5L582.23,115l4.86,2.6,2.69-2.08.19.11.2.11.2.12.21.12.53.26.53.27.57.24.61.26-2.8,2.16,4.86,2.61,4-3.06a37.54,37.54,0,0,0,7.82.54,40.87,40.87,0,0,0,7.88-1,38.81,38.81,0,0,0,7.41-2.46,31.44,31.44,0,0,0,6.38-3.79q.61-.48,1.17-1c.38-.33.73-.66,1.08-1s.67-.69,1-1,.61-.7.89-1.07l.43-.56L626,103.66l-.68,1.1a9.5,9.5,0,0,1-.69,1,12.11,12.11,0,0,1-.81,1c-.29.31-.6.62-.91.91s-.68.59-1,.87a21,21,0,0,1-3.48,2.16,23.74,23.74,0,0,1-4,1.56,26.82,26.82,0,0,1-8.76,1.12l12.38-9.6-3.92-3.33L599,112.16l-.6-.23-.58-.24-.55-.25-.54-.27-.21-.12-.2-.12-.19-.12-.19-.12L611.8,98.4l-3.89-3.35-15.57,12.06a7.66,7.66,0,0,1-1-3.08,7.93,7.93,0,0,1,.34-3.22,10.58,10.58,0,0,1,1.64-3.15,14.34,14.34,0,0,1,2.88-2.9c.4-.32.83-.62,1.27-.91s.92-.55,1.4-.82,1-.51,1.5-.75,1-.45,1.6-.66l1.33-.5" transform="translate(-0.5 -0.1)"/><path class="cls-7" d="M637.9,73.45a7,7,0,0,1,1.87-1,8.84,8.84,0,0,1,4.35-.47,6.29,6.29,0,0,1,2,.63,3.63,3.63,0,0,1,1.31,1.11,2.5,2.5,0,0,1,.46,1.37,2.68,2.68,0,0,1-.37,1.47,4.48,4.48,0,0,1-1.21,1.37,7.28,7.28,0,0,1-1.88,1,9.11,9.11,0,0,1-2.17.5,8.42,8.42,0,0,1-2.19,0,6.7,6.7,0,0,1-1.94-.63,3.66,3.66,0,0,1-1.31-1.11,2.53,2.53,0,0,1-.48-1.37,2.78,2.78,0,0,1,.38-1.46A4.73,4.73,0,0,1,637.9,73.45Z" transform="translate(-0.5 -0.1)"/></g><g id="Tarifs"><path class="cls-8" d="M222.93,412.38V400.06h65.13v12.32Zm26.09,80V407.62h13v84.74Z" transform="translate(-0.5 -0.1)"/><path class="cls-9" d="M312.94,493.31q-12.13,0-18.19-5t-6.06-15.36q0-9.84,5.55-14.7t16.67-4.86h18.72l.89,10.42H311q-5,0-7.55,2.25c-1.7,1.5-2.54,3.8-2.54,6.89q0,5,3.36,7.42t10.09,2.41q7.37,0,11.05-1.58t3.68-4.95l1.33,9.26a14.93,14.93,0,0,1-4.25,4.38,18.59,18.59,0,0,1-5.81,2.57A28.79,28.79,0,0,1,312.94,493.31Zm16.12-.95V450.59q0-6.46-3.46-10.06c-2.31-2.39-5.57-3.59-9.81-3.59a25.63,25.63,0,0,0-7.64,1.18,22.12,22.12,0,0,0-6.76,3.39L291.93,435a24.65,24.65,0,0,1,9.87-7,35.44,35.44,0,0,1,13.61-2.51q12.39,0,19.17,6.41t6.8,18.09v42.34Z" transform="translate(-0.5 -0.1)"/><path class="cls-10" d="M361.05,492.36V426.47H374v65.89Zm36.25-50.27a10.79,10.79,0,0,0-4.32-3.18,15.6,15.6,0,0,0-6-1.08q-6.15,0-9.55,3.4t-3.4,9.43L372.67,438a24,24,0,0,1,7.84-9.14,18.62,18.62,0,0,1,10.69-3.3,24.09,24.09,0,0,1,8.16,1.3,18.36,18.36,0,0,1,6.38,3.84Z" transform="translate(-0.5 -0.1)"/><path class="cls-11" d="M416.53,413V400.06h13V413Zm0,79.35V426.47h13v65.89Z" transform="translate(-0.5 -0.1)"/><path class="cls-12" d="M444.08,437.52v-11H477v11Zm7,54.84V417.52q0-8.7,4-13.08t12.44-4.38H477v12.32h-9.26a3.09,3.09,0,0,0-2.86,1.49,6.79,6.79,0,0,0-.89,3.52v75Z" transform="translate(-0.5 -0.1)"/><path class="cls-13" d="M511.11,493.31a46.77,46.77,0,0,1-15.9-2.57A37.84,37.84,0,0,1,482.42,483l7.68-9.46a44.57,44.57,0,0,0,10.63,6.09,28.43,28.43,0,0,0,10.38,2q7.68,0,11.52-2.39a7.84,7.84,0,0,0,3.84-7.14c0-2.45-.85-4.19-2.57-5.2a16.94,16.94,0,0,0-6.73-2q-4.15-.48-8.92-.79c-2.66-.22-5.31-.54-7.93-1a23.15,23.15,0,0,1-7.17-2.41,13,13,0,0,1-5.18-5.17A18.77,18.77,0,0,1,486,446.4q0-10.47,6.41-15.68t19.11-5.2a48,48,0,0,1,14.4,2.09A42.41,42.41,0,0,1,538.47,434l-7.81,9.46a43.87,43.87,0,0,0-9.74-4.76,29.68,29.68,0,0,0-9.36-1.59q-6.62,0-9.91,2.26a7.63,7.63,0,0,0-3.3,6.76,4.52,4.52,0,0,0,2.29,4.28,15.37,15.37,0,0,0,6,1.69c2.5.25,5.18.48,8.06.69s5.53.48,8.35.92a24.54,24.54,0,0,1,7.77,2.58,14.35,14.35,0,0,1,5.72,5.64q2.14,3.75,2.15,10.22,0,10.6-6.88,15.87T511.11,493.31Z" transform="translate(-0.5 -0.1)"/></g></svg>