<svg id="Calque_1" data-name="Calque 1" xmlns="http://www.w3.org/2000/svg" xmlns:xlink="http://www.w3.org/1999/xlink" viewBox="0 0 749 131.07"><defs><style>.cls-1{fill:url(#Nouvelle_nuance_de_dégradé_6);}.cls-2{fill:url(#Nouvelle_nuance_de_dégradé_6-2);}.cls-3{fill:url(#Nouvelle_nuance_de_dégradé_6-3);}.cls-4{fill:url(#Nouvelle_nuance_de_dégradé_6-4);}.cls-5{fill:url(#Nouvelle_nuance_de_dégradé_6-5);}.cls-6{fill:url(#Nouvelle_nuance_de_dégradé_6-6);}.cls-7{fill:url(#Nouvelle_nuance_de_dégradé_6-7);}.cls-8{fill:url(#Nouvelle_nuance_de_dégradé_6-8);}.cls-9{fill:url(#Nouvelle_nuance_de_dégradé_6-9);}.cls-10{fill:url(#Nouvelle_nuance_de_dégradé_6-10);}.cls-11{fill:url(#Nouvelle_nuance_de_dégradé_6-11);}</style><linearGradient id="Nouvelle_nuance_de_dégradé_6" x1="59.05" y1="53.31" x2="59.05" y2="158.05" gradientUnits="userSpaceOnUse"><stop offset="0" stop-color="#b7971a"/><stop offset="0.13" stop-color="#c8a318"/><stop offset="0.2" stop-color="#d3aa17"/><stop offset="0.6" stop-color="#b7971a"/><stop offset="0.87" stop-color="#d3af00"/><stop offset="0.93" stop-color="#dec35d"/><stop offset="1" stop-color="#eadbc9"/></linearGradient><linearGradient id="Nouvelle_nuance_de_dégradé_6-2" x1="116.25" y1="53.31" x2="116.25" y2="158.05" xlink:href="#Nouvelle_nuance_de_dégradé_6"/><linearGradient id="Nouvelle_nuance_de_dégradé_6-3" x1="183.52" y1="53.31" x2="183.52" y2="158.05" xlink:href="#Nouvelle_nuance_de_dégradé_6"/><linearGradient id="Nouvelle_nuance_de_dégradé_6-4" x1="251.15" y1="53.31" x2="251.15" y2="158.05" xlink:href="#Nouvelle_nuance_de_dégradé_6"/><linearGradient id="Nouvelle_nuance_de_dégradé_6-5" x1="350.98" y1="53.31" x2="350.98" y2="158.05" xlink:href="#Nouvelle_nuance_de_dégradé_6"/><linearGradient id="Nouvelle_nuance_de_dégradé_6-6" x1="418.07" y1="53.31" x2="418.07" y2="158.05" xlink:href="#Nouvelle_nuance_de_dégradé_6"/><linearGradient id="Nouvelle_nuance_de_dégradé_6-7" x1="519.62" y1="53.31" x2="519.62" y2="158.05" xlink:href="#Nouvelle_nuance_de_dégradé_6"/><linearGradient id="Nouvelle_nuance_de_dégradé_6-8" x1="592.73" y1="53.31" x2="592.73" y2="158.05" xlink:href="#Nouvelle_nuance_de_dégradé_6"/><linearGradient id="Nouvelle_nuance_de_dégradé_6-9" x1="661.18" y1="53.31" x2="661.18" y2="158.05" xlink:href="#Nouvelle_nuance_de_dégradé_6"/><linearGradient id="Nouvelle_nuance_de_dégradé_6-10" x1="740.86" y1="53.31" x2="740.86" y2="158.05" xlink:href="#Nouvelle_nuance_de_dégradé_6"/><linearGradient id="Nouvelle_nuance_de_dégradé_6-11" x1="296.25" y1="53.31" x2="296.25" y2="158.05" xlink:href="#Nouvelle_nuance_de_dégradé_6"/></defs><path class="cls-1" d="M61.29,8.13l31.3,125.74H80.9l-4.32-17.63H41.51L37,133.87H25.5L56.62,8.13Zm12.42,96.78-14.57-59-14.93,59Z" transform="translate(-25.5 -5.46)"/><path class="cls-2" d="M110.58,133.87V19.47H89V8.13h54.5V19.47H121.91v114.4Z" transform="translate(-25.5 -5.46)"/><path class="cls-3" d="M156.27,8.13h54.5V19.47h-43V43H200.7V54.36H167.78v68.18h43v11.33h-54.5Z" transform="translate(-25.5 -5.46)"/><path class="cls-4" d="M278.4,133.87H223.9V8.13h11.51V122.54h43Z" transform="translate(-25.5 -5.46)"/><path class="cls-5" d="M323.73,8.13h54.5V19.47h-43V43h32.92V54.36H335.24v68.18h43v11.33h-54.5Z" transform="translate(-25.5 -5.46)"/><path class="cls-6" d="M402.7,8.13a43.12,43.12,0,0,1,16,3.78,52.17,52.17,0,0,1,13,9.17,42.43,42.43,0,0,1,8.81,13.32,40.16,40.16,0,0,1,3.24,16q0,27.69-26.62,39.21c.6.72,1.16,1.44,1.7,2.16s1.11,1.5,1.71,2.33a48.82,48.82,0,0,1,3.06,5.22L428.78,110q7.19,11.51,16,13.49v11.33q-17.46-5.4-22.67-14.93L417.45,110q-.9-2-1.8-3.69c-.6-1.14-1.21-2.19-1.8-3.15s-1.2-1.86-1.8-2.7-1.2-1.62-1.8-2.34L407.19,95,404,92.5c-.71,0-1.14.06-1.25.18v41.19H391.36V8.13Zm0,73.39a32.38,32.38,0,0,0,12.05-2.87,31.59,31.59,0,0,0,9.53-6.84,30.32,30.32,0,0,0,6.3-9.71,32.32,32.32,0,0,0,2.15-11.69,30.2,30.2,0,0,0-2.33-12.06,34.5,34.5,0,0,0-6.48-9.71,31.08,31.08,0,0,0-21.22-9.35Z" transform="translate(-25.5 -5.46)"/><path class="cls-7" d="M553.25,18.57a15.27,15.27,0,0,0-3.6-.18,50.84,50.84,0,0,0-20.14,4.13,52.93,52.93,0,0,0-28.24,28A49.77,49.77,0,0,0,497,71a50.67,50.67,0,0,0,4.14,20.11,52,52,0,0,0,11.15,16.7A49.9,49.9,0,0,0,529,119.13a48.86,48.86,0,0,0,20.68,4.31h3.6v11.14a14.29,14.29,0,0,1-3.6.19,59.53,59.53,0,0,1-24.46-5,71.31,71.31,0,0,1-10.88-5.93,56.56,56.56,0,0,1-9.45-7.92,56.91,56.91,0,0,1-7.91-9.44A69.72,69.72,0,0,1,491,95.55a59.3,59.3,0,0,1-5-24.46,59.77,59.77,0,0,1,5-24.64,63.18,63.18,0,0,1,13.49-20.33,66,66,0,0,1,20.32-13.67,60.57,60.57,0,0,1,24.82-5,16,16,0,0,1,3.6.18Z" transform="translate(-25.5 -5.46)"/><path class="cls-8" d="M620,133.87H565.48V8.13H577V122.54h43Z" transform="translate(-25.5 -5.46)"/><path class="cls-9" d="M693.38,8.13v93.54a31,31,0,0,1-2.52,12.23,34.59,34.59,0,0,1-7,10.26,32.16,32.16,0,0,1-10.25,7,29.64,29.64,0,0,1-12.41,2.7,27.65,27.65,0,0,1-12.23-2.7,29.67,29.67,0,0,1-10.26-7,27.37,27.37,0,0,1-7-10.26,27.65,27.65,0,0,1-2.7-12.23V8.13h11v93.39a19.61,19.61,0,0,0,1.63,7.9,17.47,17.47,0,0,0,4.33,6.65,21.05,21.05,0,0,0,6.69,4.67,18.8,18.8,0,0,0,8.49,1.8,19.14,19.14,0,0,0,8.31-1.8,21.23,21.23,0,0,0,6.68-4.49,21.77,21.77,0,0,0,4.7-6.65,20.21,20.21,0,0,0,1.62-8.08V8.13Z" transform="translate(-25.5 -5.46)"/><path class="cls-10" d="M774.5,18.57a15.27,15.27,0,0,0-3.6-.18,50.92,50.92,0,0,0-20.15,4.13,51.64,51.64,0,0,0-16.9,11.31,52.29,52.29,0,0,0-11.34,16.7A49.92,49.92,0,0,0,718.2,71a50.66,50.66,0,0,0,4.13,20.11,52.16,52.16,0,0,0,11.16,16.7,49.8,49.8,0,0,0,16.73,11.32,48.86,48.86,0,0,0,20.68,4.31h3.6v11.14a14.29,14.29,0,0,1-3.6.19,59.46,59.46,0,0,1-24.46-5,70.84,70.84,0,0,1-10.88-5.93,56.56,56.56,0,0,1-9.45-7.92,56,56,0,0,1-7.91-9.44,70.6,70.6,0,0,1-5.94-10.89,59.46,59.46,0,0,1-5-24.46,59.93,59.93,0,0,1,5-24.64,63.5,63.5,0,0,1,13.49-20.33,66,66,0,0,1,20.33-13.67,60.54,60.54,0,0,1,24.82-5,16,16,0,0,1,3.6.18Z" transform="translate(-25.5 -5.46)"/><path class="cls-11" d="M296.25,5.46A8.26,8.26,0,0,0,288,13.71a6.6,6.6,0,0,0,.05.83l6.84,120.72a1.36,1.36,0,0,0,2.71,0l6.84-120.65c0-.3.05-.6.05-.9A8.26,8.26,0,0,0,296.25,5.46Zm2.67,9.1a2.66,2.66,0,0,1,0,.3s0,.05,0,.08l-.83,13.56a1.83,1.83,0,0,1-3.63,0,.88.88,0,0,0,0-.16l-.82-13.47a3,3,0,0,1,0-.31,2.68,2.68,0,0,1,5.35,0Z" transform="translate(-25.5 -5.46)"/></svg>