<?xml version="1.0" encoding="utf-8"?>
<!-- Generator: Adobe Illustrator 24.1.1, SVG Export Plug-In . SVG Version: 6.00 Build 0)  -->
<svg version="1.1" id="Calque_1" xmlns="http://www.w3.org/2000/svg" xmlns:xlink="http://www.w3.org/1999/xlink" x="0px" y="0px"
	 viewBox="0 0 749 131.1" style="enable-background:new 0 0 749 131.1;" xml:space="preserve">
<style type="text/css">
	.st0{fill:url(#SVGID_1_);}
	.st1{fill:url(#SVGID_2_);}
	.st2{fill:url(#SVGID_3_);}
	.st3{fill:url(#SVGID_4_);}
	.st4{fill:url(#SVGID_5_);}
	.st5{fill:url(#SVGID_6_);}
	.st6{fill:url(#SVGID_7_);}
	.st7{fill:url(#SVGID_8_);}
	.st8{fill:url(#SVGID_9_);}
	.st9{fill:url(#SVGID_10_);}
	.st10{fill:url(#SVGID_11_);}
</style>
<g>
	
		<linearGradient id="SVGID_1_" gradientUnits="userSpaceOnUse" x1="519.6379" y1="80.69" x2="519.6379" y2="-24.05" gradientTransform="matrix(1 0 0 -1 -25.5 128.54)">
		<stop  offset="0" style="stop-color:#B7971A"/>
		<stop  offset="0.13" style="stop-color:#C8A318"/>
		<stop  offset="0.2" style="stop-color:#D3AA17"/>
		<stop  offset="0.6" style="stop-color:#B7971A"/>
		<stop  offset="0.87" style="stop-color:#D3AF00"/>
		<stop  offset="0.93" style="stop-color:#DEC35D"/>
		<stop  offset="1" style="stop-color:#EADBC9"/>
	</linearGradient>
	<path class="st0" d="M527.8,13.1c-1.2-0.2-2.4-0.3-3.6-0.2c-6.9,0-13.8,1.4-20.1,4.1c-12.7,5.3-22.8,15.4-28.2,28
		c-2.9,6.4-4.3,13.4-4.3,20.5c0,6.9,1.4,13.8,4.1,20.1c2.6,6.2,6.4,11.9,11.2,16.7c4.7,4.9,10.4,8.7,16.7,11.3
		c6.5,2.9,13.6,4.4,20.7,4.3h3.6v11.1c-1.2,0.2-2.4,0.3-3.6,0.2c-8.4,0.1-16.8-1.6-24.5-5c-3.8-1.7-7.4-3.6-10.9-5.9
		c-3.4-2.3-6.6-4.9-9.5-7.9c-3-2.9-5.6-6-7.9-9.4c-2.3-3.5-4.3-7.1-6-10.9c-3.4-7.7-5.1-16-5-24.5c-0.1-8.5,1.6-16.9,5-24.6
		c3.1-7.6,7.7-14.5,13.5-20.3c5.9-5.8,12.8-10.4,20.3-13.7c7.8-3.4,16.3-5.1,24.8-5c1.2-0.1,2.4,0,3.6,0.2L527.8,13.1z"/>
	
		<linearGradient id="SVGID_2_" gradientUnits="userSpaceOnUse" x1="661.1942" y1="80.69" x2="661.1942" y2="-24.05" gradientTransform="matrix(1 0 0 -1 -25.5 128.54)">
		<stop  offset="0" style="stop-color:#B7971A"/>
		<stop  offset="0.13" style="stop-color:#C8A318"/>
		<stop  offset="0.2" style="stop-color:#D3AA17"/>
		<stop  offset="0.6" style="stop-color:#B7971A"/>
		<stop  offset="0.87" style="stop-color:#D3AF00"/>
		<stop  offset="0.93" style="stop-color:#DEC35D"/>
		<stop  offset="1" style="stop-color:#EADBC9"/>
	</linearGradient>
	<path class="st1" d="M667.9,2.7v93.5c0,4.2-0.9,8.4-2.5,12.2c-1.7,3.8-4.1,7.3-7,10.3c-2.9,3-6.4,5.4-10.3,7
		c-3.9,1.8-8.1,2.7-12.4,2.7c-4.2,0-8.4-0.9-12.2-2.7c-3.9-1.6-7.4-4-10.3-7c-3.1-2.8-5.5-6.3-7-10.3c-1.8-3.8-2.7-8-2.7-12.2V2.7
		h11v93.4c0,2.7,0.5,5.4,1.6,7.9c0.9,2.5,2.4,4.8,4.3,6.7c1.9,2,4.2,3.6,6.7,4.7c2.7,1.3,5.6,1.9,8.5,1.8c2.9,0,5.7-0.6,8.3-1.8
		c2.5-1.1,4.8-2.6,6.7-4.5c2-1.9,3.6-4.2,4.7-6.7c1.1-2.6,1.6-5.3,1.6-8.1V2.7H667.9z"/>
	
		<linearGradient id="SVGID_3_" gradientUnits="userSpaceOnUse" x1="592.74" y1="80.69" x2="592.74" y2="-24.05" gradientTransform="matrix(1 0 0 -1 -25.5 128.54)">
		<stop  offset="0" style="stop-color:#B7971A"/>
		<stop  offset="0.13" style="stop-color:#C8A318"/>
		<stop  offset="0.2" style="stop-color:#D3AA17"/>
		<stop  offset="0.6" style="stop-color:#B7971A"/>
		<stop  offset="0.87" style="stop-color:#D3AF00"/>
		<stop  offset="0.93" style="stop-color:#DEC35D"/>
		<stop  offset="1" style="stop-color:#EADBC9"/>
	</linearGradient>
	<path class="st2" d="M594.5,128.4H540V2.7h11.5v114.4h43V128.4z"/>
	
		<linearGradient id="SVGID_4_" gradientUnits="userSpaceOnUse" x1="740.8781" y1="80.69" x2="740.8781" y2="-24.05" gradientTransform="matrix(1 0 0 -1 -25.5 128.54)">
		<stop  offset="0" style="stop-color:#B7971A"/>
		<stop  offset="0.13" style="stop-color:#C8A318"/>
		<stop  offset="0.2" style="stop-color:#D3AA17"/>
		<stop  offset="0.6" style="stop-color:#B7971A"/>
		<stop  offset="0.87" style="stop-color:#D3AF00"/>
		<stop  offset="0.93" style="stop-color:#DEC35D"/>
		<stop  offset="1" style="stop-color:#EADBC9"/>
	</linearGradient>
	<path class="st3" d="M749,13.1c-1.2-0.2-2.4-0.3-3.6-0.2c-6.9,0-13.8,1.4-20.2,4.1c-6.3,2.6-12.1,6.5-16.9,11.3
		c-4.8,4.8-8.7,10.4-11.3,16.7c-2.9,6.4-4.3,13.4-4.3,20.5c0,6.9,1.4,13.8,4.1,20.1c2.6,6.2,6.4,11.9,11.2,16.7
		c4.7,4.9,10.4,8.7,16.7,11.3c6.5,2.9,13.6,4.4,20.7,4.3h3.6v11.1c-1.2,0.2-2.4,0.3-3.6,0.2c-8.4,0.1-16.8-1.6-24.5-5
		c-3.8-1.7-7.4-3.6-10.9-5.9c-3.4-2.3-6.6-4.9-9.5-7.9c-3-2.8-5.6-6-7.9-9.4c-2.3-3.4-4.3-7.1-5.9-10.9c-3.4-7.7-5.1-16-5-24.5
		c-0.1-8.5,1.6-16.9,5-24.6c3.1-7.6,7.7-14.5,13.5-20.3c5.9-5.8,12.8-10.4,20.3-13.7c7.8-3.4,16.3-5.1,24.8-5c1.2-0.1,2.4,0,3.6,0.2
		L749,13.1z"/>
	
		<linearGradient id="SVGID_5_" gradientUnits="userSpaceOnUse" x1="418.07" y1="80.69" x2="418.07" y2="-24.05" gradientTransform="matrix(1 0 0 -1 -25.5 128.54)">
		<stop  offset="0" style="stop-color:#B7971A"/>
		<stop  offset="0.13" style="stop-color:#C8A318"/>
		<stop  offset="0.2" style="stop-color:#D3AA17"/>
		<stop  offset="0.6" style="stop-color:#B7971A"/>
		<stop  offset="0.87" style="stop-color:#D3AF00"/>
		<stop  offset="0.93" style="stop-color:#DEC35D"/>
		<stop  offset="1" style="stop-color:#EADBC9"/>
	</linearGradient>
	<path class="st4" d="M377.2,2.7c5.5,0.2,11,1.5,16,3.8c4.8,2.4,9.2,5.5,13,9.2c3.8,3.8,6.7,8.4,8.8,13.3c2.2,5.1,3.3,10.5,3.2,16
		c0,18.5-8.9,31.5-26.6,39.2c0.6,0.7,1.2,1.4,1.7,2.2s1.1,1.5,1.7,2.3c1.1,1.7,2.1,3.4,3.1,5.2l5.2,10.7c4.8,7.7,10.1,12.2,16,13.5
		v11.3c-11.6-3.6-19.2-8.6-22.7-14.9l-4.7-9.9c-0.6-1.3-1.2-2.6-1.8-3.7c-0.6-1.1-1.2-2.2-1.8-3.2s-1.2-1.9-1.8-2.7
		s-1.2-1.6-1.8-2.3l-3.1-3.1l-3.2-2.5c-0.7,0-1.1,0.1-1.3,0.2v41.2h-11.4V2.7H377.2z M377.2,76.1c4.2-0.2,8.3-1.1,12-2.9
		c3.6-1.7,6.8-4,9.5-6.8c2.7-2.8,4.8-6.1,6.3-9.7c1.4-3.7,2.2-7.7,2.1-11.7c0.1-4.1-0.7-8.2-2.3-12.1c-1.6-3.6-3.8-6.9-6.5-9.7
		c-5.6-5.7-13.2-9.1-21.2-9.4L377.2,76.1z"/>
	
		<linearGradient id="SVGID_6_" gradientUnits="userSpaceOnUse" x1="350.985" y1="80.69" x2="350.985" y2="-24.05" gradientTransform="matrix(1 0 0 -1 -25.5 128.54)">
		<stop  offset="0" style="stop-color:#B7971A"/>
		<stop  offset="0.13" style="stop-color:#C8A318"/>
		<stop  offset="0.2" style="stop-color:#D3AA17"/>
		<stop  offset="0.6" style="stop-color:#B7971A"/>
		<stop  offset="0.87" style="stop-color:#D3AF00"/>
		<stop  offset="0.93" style="stop-color:#DEC35D"/>
		<stop  offset="1" style="stop-color:#EADBC9"/>
	</linearGradient>
	<path class="st5" d="M298.2,2.7h54.5V14h-43v23.5h32.9v11.4h-32.9v68.2h43v11.3h-54.5L298.2,2.7z"/>
	
		<linearGradient id="SVGID_7_" gradientUnits="userSpaceOnUse" x1="296.245" y1="80.69" x2="296.245" y2="-24.05" gradientTransform="matrix(1 0 0 -1 -25.5 128.54)">
		<stop  offset="0" style="stop-color:#B7971A"/>
		<stop  offset="0.13" style="stop-color:#C8A318"/>
		<stop  offset="0.2" style="stop-color:#D3AA17"/>
		<stop  offset="0.6" style="stop-color:#B7971A"/>
		<stop  offset="0.87" style="stop-color:#D3AF00"/>
		<stop  offset="0.93" style="stop-color:#DEC35D"/>
		<stop  offset="1" style="stop-color:#EADBC9"/>
	</linearGradient>
	<path class="st6" d="M270.8,0c-4.6,0-8.2,3.7-8.3,8.3c0,0.3,0,0.6,0,0.8l6.8,120.7c0.1,0.7,0.7,1.3,1.5,1.2
		c0.7-0.1,1.2-0.6,1.2-1.2l6.8-120.6c0-0.3,0-0.6,0-0.9C279,3.7,275.3,0,270.8,0z M273.4,9.1c0,0.1,0,0.2,0,0.3c0,0,0,0.1,0,0.1
		L272.6,23c-0.1,1-1,1.7-2,1.6c-0.8-0.1-1.5-0.8-1.6-1.6c0-0.1,0-0.1,0-0.2l-0.8-13.5c0-0.1,0-0.2,0-0.3c0.1-1.5,1.4-2.6,2.8-2.5
		C272.3,6.7,273.4,7.7,273.4,9.1L273.4,9.1z"/>
	
		<linearGradient id="SVGID_8_" gradientUnits="userSpaceOnUse" x1="251.155" y1="80.69" x2="251.155" y2="-24.05" gradientTransform="matrix(1 0 0 -1 -25.5 128.54)">
		<stop  offset="0" style="stop-color:#B7971A"/>
		<stop  offset="0.13" style="stop-color:#C8A318"/>
		<stop  offset="0.2" style="stop-color:#D3AA17"/>
		<stop  offset="0.6" style="stop-color:#B7971A"/>
		<stop  offset="0.87" style="stop-color:#D3AF00"/>
		<stop  offset="0.93" style="stop-color:#DEC35D"/>
		<stop  offset="1" style="stop-color:#EADBC9"/>
	</linearGradient>
	<path class="st7" d="M252.9,128.4h-54.5V2.7h11.5v114.4h43L252.9,128.4z"/>
	
		<linearGradient id="SVGID_9_" gradientUnits="userSpaceOnUse" x1="183.525" y1="80.69" x2="183.525" y2="-24.05" gradientTransform="matrix(1 0 0 -1 -25.5 128.54)">
		<stop  offset="0" style="stop-color:#B7971A"/>
		<stop  offset="0.13" style="stop-color:#C8A318"/>
		<stop  offset="0.2" style="stop-color:#D3AA17"/>
		<stop  offset="0.6" style="stop-color:#B7971A"/>
		<stop  offset="0.87" style="stop-color:#D3AF00"/>
		<stop  offset="0.93" style="stop-color:#DEC35D"/>
		<stop  offset="1" style="stop-color:#EADBC9"/>
	</linearGradient>
	<path class="st8" d="M130.8,2.7h54.5V14h-43v23.5h32.9v11.4h-32.9v68.2h43v11.3h-54.5L130.8,2.7z"/>
	
		<linearGradient id="SVGID_10_" gradientUnits="userSpaceOnUse" x1="116.25" y1="80.69" x2="116.25" y2="-24.05" gradientTransform="matrix(1 0 0 -1 -25.5 128.54)">
		<stop  offset="0" style="stop-color:#B7971A"/>
		<stop  offset="0.13" style="stop-color:#C8A318"/>
		<stop  offset="0.2" style="stop-color:#D3AA17"/>
		<stop  offset="0.6" style="stop-color:#B7971A"/>
		<stop  offset="0.87" style="stop-color:#D3AF00"/>
		<stop  offset="0.93" style="stop-color:#DEC35D"/>
		<stop  offset="1" style="stop-color:#EADBC9"/>
	</linearGradient>
	<path class="st9" d="M85.1,128.4V14H63.5V2.7H118V14H96.4v114.4H85.1z"/>
	
		<linearGradient id="SVGID_11_" gradientUnits="userSpaceOnUse" x1="59.045" y1="80.69" x2="59.045" y2="-24.05" gradientTransform="matrix(1 0 0 -1 -25.5 128.54)">
		<stop  offset="0" style="stop-color:#B7971A"/>
		<stop  offset="0.13" style="stop-color:#C8A318"/>
		<stop  offset="0.2" style="stop-color:#D3AA17"/>
		<stop  offset="0.6" style="stop-color:#B7971A"/>
		<stop  offset="0.87" style="stop-color:#D3AF00"/>
		<stop  offset="0.93" style="stop-color:#DEC35D"/>
		<stop  offset="1" style="stop-color:#EADBC9"/>
	</linearGradient>
	<path class="st10" d="M35.8,2.7l31.3,125.7H55.4l-4.3-17.6H16l-4.5,17.6H0L31.1,2.7H35.8z M48.2,99.4l-14.6-59l-14.9,59H48.2z"/>
</g>
</svg>
