<svg xmlns="http://www.w3.org/2000/svg" viewBox="0 0 160.5 144"><defs><style>.cls-1{fill:#418f6a;}.cls-2{fill:none;stroke:#418f6a;stroke-miterlimit:10;stroke-width:2px;}</style></defs><title>Fichier 2</title><g id="Calque_2" data-name="Calque 2"><g id="Bulle1"><path class="cls-1" d="M146.5,81.5c-.38,3.53-1.68,14.66-8,25-17.22,28.15-58,28-62,28-21.48,0-49.82-9.43-60-29a81.21,81.21,0,0,1-7-21c-.74-4.32-2.76-16.71,1-30,8.48-30,40.07-42.28,42-43,15.13-5.61,35.08-6,37.77-6H92.5c16.11,0,27.33,12.15,33,18a75.82,75.82,0,0,1,16,25A68.07,68.07,0,0,1,146.5,81.5Z"/><path class="cls-2" d="M143,72c0,22.43-7.26,43.49-23.5,56.5C107.35,138.24,88.78,143,72,143a71,71,0,1,1,71-71Z"/><path class="cls-2" d="M76.5,19.5c8.34-9.09,8.19-14,21-14,12.13,0,27,5.84,39,16,13.17,11.12,23,27.21,23,41.5,0,27.34-24.59,59.5-50,59.5"/></g></g></svg>