<svg xmlns="http://www.w3.org/2000/svg" viewBox="0 0 142.61 147.53"><defs><style>.cls-1{fill:#9bd1a2;}.cls-2,.cls-3{fill:none;stroke-miterlimit:10;}.cls-2{stroke:#d8ab3d;}.cls-3{stroke:#9bd1a2;}</style></defs><title>Fichier 3</title><g id="Calque_2" data-name="Calque 2"><g id="Bulle2"><path class="cls-1" d="M140.6,85.5c-.38,3.53-1.68,14.66-8,25-17.22,28.15-58,28-62,28-21.49,0-49.83-9.44-60-29a81.33,81.33,0,0,1-7-21c-.75-4.32-2.76-16.71,1-30,8.48-30,40.06-42.28,42-43,15.13-5.62,35.08-6,37.77-6H86.6c16.1,0,27.33,12.15,33,18a76,76,0,0,1,16,25A68.19,68.19,0,0,1,140.6,85.5Z"/><path class="cls-2" d="M126.1,101c-1.74,5.74-5.53,17.71-17,27C95.7,138.84,80.55,139,74.35,139c-7,.05-28.21-1-45.25-18-18.42-18.4-18.2-41.72-18-47,.17-4.61,1.8-34.08,26-49,15.52-9.58,31.59-7.71,37-7,25.14,3.29,39.28,21.37,42,25C129.68,61.14,131.35,83.6,126.1,101Z"/><path class="cls-2" d="M136.1,67c.8,4.59,5.89,37.26-18,61C98.4,147.57,73,147.15,68.6,147c-32.67-1.12-63-26.55-67.5-56-2.6-17.09,4.07-32.88,5-35a68.28,68.28,0,0,1,19-25c5.23-4.51,18.58-15.72,39-18,4.56-.51,31.91-3.09,53,17C131.87,44.07,135.09,61.18,136.1,67Z"/><path class="cls-2" d="M137.1,77c.45,25.43-16.95,42.18-23,48a74,74,0,0,1-28,17c-6.41,2.06-23.52,7.57-42,0-12.53-5.13-19.64-13.8-23-18C1.73,99.8,6.84,70.36,7.1,69c.45-2.38,6.71-32.28,35-47a65.5,65.5,0,0,1,37-7c21.74,2.58,35,15.87,39,20S136.69,54.21,137.1,77Z"/><path class="cls-3" d="M42.1,131c19.75,9.14,38.1,5.72,45,4a70,70,0,0,0,32-18c16-15.8,19.33-34.55,21-44,1.85-10.49,4.19-23.77-2-39-1.74-4.28-8.2-19.55-24-28C91-6.37,65,5,49.1,12c-7.76,3.4-15.18,6.65-23,14C23,29,5,46.44,5.1,74a63.88,63.88,0,0,0,10,34A65.57,65.57,0,0,0,42.1,131Z"/></g></g></svg>