<svg xmlns="http://www.w3.org/2000/svg" viewBox="0 0 142.61 147.53"><defs><style>.cls-1{fill:#9bd1a2;}.cls-2,.cls-3{fill:none;stroke-miterlimit:10;}.cls-2{stroke:#d8ab3d;}.cls-3{stroke:#9bd1a2;}</style></defs><g id="Calque_2" data-name="Calque 2"><g id="Bulle_2_inversé" data-name="Bulle 2 inversé"><path class="cls-1" d="M2,85.5c.37,3.53,1.67,14.66,8,25,17.22,28.15,58,28,62,28,21.48,0,49.82-9.44,60-29a81.33,81.33,0,0,0,7-21c.74-4.32,2.75-16.71-1-30-8.49-30-40.07-42.28-42-43-15.13-5.62-35.09-6-37.78-6H56c-16.11,0-27.34,12.15-33,18a75.66,75.66,0,0,0-16,25A68.07,68.07,0,0,0,2,85.5Z"/><path class="cls-2" d="M16.52,101c1.73,5.74,5.52,17.71,17,27,13.4,10.84,28.54,10.95,34.75,11,7,.05,28.21-1,45.25-18,18.42-18.4,18.2-41.72,18-47-.18-4.61-1.81-34.08-26-49-15.53-9.58-31.6-7.71-37-7-25.14,3.29-39.29,21.37-42,25C12.93,61.14,11.26,83.6,16.52,101Z"/><path class="cls-2" d="M6.52,67c-.8,4.59-5.9,37.26,18,61,19.7,19.57,45.09,19.15,49.5,19,32.67-1.12,63-26.55,67.5-56,2.6-17.09-4.08-32.88-5-35a68.39,68.39,0,0,0-19-25c-5.23-4.51-18.59-15.72-39-18-4.57-.51-31.91-3.09-53,17C10.74,44.07,7.52,61.18,6.52,67Z"/><path class="cls-2" d="M5.52,77c-.46,25.43,16.94,42.18,23,48a73.94,73.94,0,0,0,28,17c6.4,2.06,23.51,7.57,42,0,12.52-5.13,19.63-13.8,23-18,19.36-24.2,14.26-53.64,14-55-.46-2.38-6.72-32.28-35-47a65.52,65.52,0,0,0-37-7c-21.75,2.58-35,15.87-39,20S5.92,54.21,5.52,77Z"/><path class="cls-3" d="M100.52,131c-19.76,9.14-38.11,5.72-45,4a70,70,0,0,1-32-18c-16-15.8-19.34-34.55-21-44-1.85-10.49-4.19-23.77,2-39,1.73-4.28,8.19-19.55,24-28,23.11-12.37,49.06-1,65,6,7.75,3.4,15.18,6.65,23,14,3.15,3,21.11,20.44,21,48a64.06,64.06,0,0,1-10,34A65.72,65.72,0,0,1,100.52,131Z"/></g></g></svg>