<svg xmlns="http://www.w3.org/2000/svg" viewBox="0 0 160.5 144"><defs><style>.cls-1{fill:#418f6a;}.cls-2{fill:none;stroke:#418f6a;stroke-miterlimit:10;stroke-width:2px;}</style></defs><g id="Calque_2" data-name="Calque 2"><g id="Bulle1_Inversé" data-name="Bulle1 Inversé"><path class="cls-1" d="M14,81.5c.38,3.53,1.68,14.66,8,25,17.22,28.15,58,28,62,28,21.48,0,49.82-9.43,60-29a81.21,81.21,0,0,0,7-21c.74-4.32,2.76-16.71-1-30-8.48-30-40.07-42.28-42-43-15.13-5.61-35.08-6-37.77-6H68c-16.11,0-27.33,12.15-33,18a75.82,75.82,0,0,0-16,25A68.07,68.07,0,0,0,14,81.5Z"/><path class="cls-2" d="M17.5,72c0,22.43,7.26,43.49,23.5,56.5C53.15,138.24,71.72,143,88.5,143a71,71,0,1,0-71-71Z"/><path class="cls-2" d="M84,19.5c-8.34-9.09-8.19-14-21-14-12.13,0-27,5.84-39,16C10.83,32.62,1,48.71,1,63c0,27.34,24.59,59.5,50,59.5"/></g></g></svg>