<svg id="Calque_1" data-name="Calque 1" xmlns="http://www.w3.org/2000/svg" xmlns:xlink="http://www.w3.org/1999/xlink" viewBox="0 0 274.63 304.59"><defs><style>.cls-1{fill:none;}.cls-2{clip-path:url(#clip-path);}.cls-3{fill:url(#Dégradé_sans_nom);}.cls-4{clip-path:url(#clip-path-2);}.cls-5{fill:url(#Dégradé_sans_nom_2);}.cls-6{clip-path:url(#clip-path-3);}.cls-7{fill:url(#Dégradé_sans_nom_3);}.cls-8{clip-path:url(#clip-path-4);}.cls-9{fill:url(#Dégradé_sans_nom_4);}.cls-10{clip-path:url(#clip-path-5);}.cls-11{fill:url(#Dégradé_sans_nom_5);}.cls-12{clip-path:url(#clip-path-6);}.cls-13{fill:url(#Dégradé_sans_nom_6);}.cls-14{clip-path:url(#clip-path-7);}.cls-15{fill:url(#Dégradé_sans_nom_7);}.cls-16{clip-path:url(#clip-path-8);}.cls-17{fill:url(#Dégradé_sans_nom_8);}.cls-18{clip-path:url(#clip-path-9);}.cls-19{fill:url(#Dégradé_sans_nom_9);}.cls-20{clip-path:url(#clip-path-10);}.cls-21{fill:url(#Dégradé_sans_nom_10);}.cls-22{clip-path:url(#clip-path-11);}.cls-23{fill:url(#Dégradé_sans_nom_11);}.cls-24{clip-path:url(#clip-path-12);}.cls-25{fill:url(#Dégradé_sans_nom_12);}.cls-26{clip-path:url(#clip-path-13);}.cls-27{fill:url(#Dégradé_sans_nom_13);}.cls-28{clip-path:url(#clip-path-14);}.cls-29{fill:#076551;}</style><clipPath id="clip-path" transform="translate(-4.97 23.85)"><path class="cls-1" d="M19.21,204.43l11.42,45.91H26.36l-1.57-6.44H12l-1.64,6.44H6.14L17.5,204.43Zm4.53,35.34-5.32-21.55L13,239.77Z"/></clipPath><linearGradient id="Dégradé_sans_nom" y1="283.46" x2="1" y2="283.46" gradientTransform="matrix(0, 38.24, 38.24, 0, -10826.92, 244.78)" gradientUnits="userSpaceOnUse"><stop offset="0" stop-color="#b1973b"/><stop offset="0.13" stop-color="#c1a23e"/><stop offset="0.2" stop-color="#ccaa40"/><stop offset="0.6" stop-color="#b1973b"/><stop offset="0.87" stop-color="#cdaf31"/><stop offset="0.94" stop-color="#dbc680"/><stop offset="1" stop-color="#e8dbcb"/></linearGradient><clipPath id="clip-path-2" transform="translate(-4.97 23.85)"><polygon class="cls-1" points="37.2 250.34 37.2 208.57 29.32 208.57 29.32 204.43 49.22 204.43 49.22 208.57 41.34 208.57 41.34 250.34 37.2 250.34"/></clipPath><linearGradient id="Dégradé_sans_nom_2" y1="283.47" x2="1" y2="283.47" gradientTransform="matrix(0, 38.24, 38.24, 0, -10806.04, 244.78)" xlink:href="#Dégradé_sans_nom"/><clipPath id="clip-path-3" transform="translate(-4.97 23.85)"><polygon class="cls-1" points="53.88 204.43 73.78 204.43 73.78 208.57 58.09 208.57 58.09 217.17 70.1 217.17 70.1 221.31 58.09 221.31 58.09 246.2 73.78 246.2 73.78 250.34 53.88 250.34 53.88 204.43"/></clipPath><linearGradient id="Dégradé_sans_nom_3" y1="283.46" x2="1" y2="283.46" gradientTransform="matrix(0, 38.24, 38.24, 0, -10781.47, 244.78)" xlink:href="#Dégradé_sans_nom"/><clipPath id="clip-path-4" transform="translate(-4.97 23.85)"><polygon class="cls-1" points="98.47 250.34 78.58 250.34 78.58 204.43 82.78 204.43 82.78 246.2 98.47 246.2 98.47 250.34"/></clipPath><linearGradient id="Dégradé_sans_nom_4" y1="283.46" x2="1" y2="283.46" gradientTransform="matrix(0, 38.24, 38.24, 0, -10756.78, 244.78)" xlink:href="#Dégradé_sans_nom"/><clipPath id="clip-path-5" transform="translate(-4.97 23.85)"><polygon class="cls-1" points="115.02 204.43 134.92 204.43 134.92 208.57 119.23 208.57 119.23 217.17 131.25 217.17 131.25 221.31 119.23 221.31 119.23 246.2 134.92 246.2 134.92 250.34 115.02 250.34 115.02 204.43"/></clipPath><linearGradient id="Dégradé_sans_nom_5" y1="283.46" x2="1" y2="283.46" gradientTransform="matrix(0, 38.24, 38.24, 0, -10720.33, 244.78)" xlink:href="#Dégradé_sans_nom"/><clipPath id="clip-path-6" transform="translate(-4.97 23.85)"><path class="cls-1" d="M143.85,208.5a11.37,11.37,0,0,1,7.75,3.42,12.6,12.6,0,0,1,2.37,3.55,10.93,10.93,0,0,1,.85,4.4,11.64,11.64,0,0,1-.79,4.27,11.16,11.16,0,0,1-2.29,3.54,11.77,11.77,0,0,1-3.48,2.5,12,12,0,0,1-4.41,1Zm-4.13-4.07v45.91h4.13v-15a.92.92,0,0,1,.46-.07l1.19.92,1.11,1.12c.22.26.44.55.66.85s.44.64.66,1,.43.73.65,1.15.44.86.66,1.35l1.71,3.61q1.91,3.48,8.27,5.45v-4.14q-3.21-.72-5.84-4.92l-1.91-3.88a19.34,19.34,0,0,0-1.11-1.9c-.22-.31-.43-.6-.63-.86s-.4-.52-.62-.79q9.72-4.2,9.72-14.31a14.84,14.84,0,0,0-1.18-5.85,15.67,15.67,0,0,0-3.22-4.86,19.23,19.23,0,0,0-4.73-3.35,15.77,15.77,0,0,0-5.85-1.38Z"/></clipPath><linearGradient id="Dégradé_sans_nom_6" y1="283.46" x2="1" y2="283.46" gradientTransform="matrix(0, 38.24, 38.24, 0, -10695.84, 244.78)" xlink:href="#Dégradé_sans_nom"/><clipPath id="clip-path-7" transform="translate(-4.97 23.85)"><path class="cls-1" d="M188.45,206a23.91,23.91,0,0,0-7.42,5,23.09,23.09,0,0,0-4.93,7.42,22.76,22.76,0,0,0,0,17.93,25.34,25.34,0,0,0,2.17,4,25.58,25.58,0,0,0,6.34,6.34,25.34,25.34,0,0,0,4,2.17,21.66,21.66,0,0,0,8.93,1.84,5,5,0,0,0,1.31-.07v-4.07h-1.31A17.78,17.78,0,0,1,190,245a18.2,18.2,0,0,1-6.11-4.13,19.18,19.18,0,0,1-4.07-6.1,18.48,18.48,0,0,1-1.51-7.34,18.18,18.18,0,0,1,1.57-7.48,19.44,19.44,0,0,1,10.31-10.23,18.74,18.74,0,0,1,7.36-1.5,6,6,0,0,1,1.31.06v-4a5,5,0,0,0-1.31-.07,22,22,0,0,0-9.06,1.84"/></clipPath><linearGradient id="Dégradé_sans_nom_7" y1="283.46" x2="1" y2="283.46" gradientTransform="matrix(0, 38.24, 38.24, 0, -10658.76, 244.78)" xlink:href="#Dégradé_sans_nom"/><clipPath id="clip-path-8" transform="translate(-4.97 23.85)"><polygon class="cls-1" points="203.29 204.43 203.29 250.34 223.19 250.34 223.19 246.2 207.49 246.2 207.49 204.43 203.29 204.43"/></clipPath><linearGradient id="Dégradé_sans_nom_8" y1="283.46" x2="1" y2="283.46" gradientTransform="matrix(0, 38.24, 38.24, 0, -10632.07, 244.78)" xlink:href="#Dégradé_sans_nom"/><clipPath id="clip-path-9" transform="translate(-4.97 23.85)"><path class="cls-1" d="M246,204.43v34.1a7.31,7.31,0,0,1-.6,2.95,7.84,7.84,0,0,1-1.71,2.43,7.94,7.94,0,0,1-2.44,1.64,7.13,7.13,0,0,1-3,.65,7,7,0,0,1-3.1-.65,7.8,7.8,0,0,1-2.45-1.71,6.49,6.49,0,0,1-1.58-2.43,7.24,7.24,0,0,1-.59-2.88v-34.1h-4v34.15a12,12,0,0,0,3.55,8.21,10.6,10.6,0,0,0,3.74,2.56,10.1,10.1,0,0,0,4.47,1,10.78,10.78,0,0,0,4.53-1,11.46,11.46,0,0,0,3.74-2.56,12.54,12.54,0,0,0,2.56-3.74,11.18,11.18,0,0,0,.92-4.47V204.43Z"/></clipPath><linearGradient id="Dégradé_sans_nom_9" y1="283.46" x2="1" y2="283.46" gradientTransform="matrix(0, 38.24, 38.24, 0, -10607.08, 244.78)" xlink:href="#Dégradé_sans_nom"/><clipPath id="clip-path-10" transform="translate(-4.97 23.85)"><path class="cls-1" d="M269.23,206a24.07,24.07,0,0,0-7.43,5,23.22,23.22,0,0,0-4.92,7.42,22.76,22.76,0,0,0,0,17.93,24.55,24.55,0,0,0,2.17,4,25.58,25.58,0,0,0,6.34,6.34,25.34,25.34,0,0,0,4,2.17,21.66,21.66,0,0,0,8.93,1.84,5,5,0,0,0,1.31-.07v-4.07h-1.31a17.78,17.78,0,0,1-7.55-1.57,18.2,18.2,0,0,1-6.11-4.13,19,19,0,0,1-4.07-6.1,18.48,18.48,0,0,1-1.51-7.34,18.18,18.18,0,0,1,1.57-7.48,19.34,19.34,0,0,1,17.67-11.73,6,6,0,0,1,1.31.06v-4a5,5,0,0,0-1.31-.07,22,22,0,0,0-9.06,1.84"/></clipPath><linearGradient id="Dégradé_sans_nom_10" y1="283.46" x2="1" y2="283.46" gradientTransform="matrix(0, 38.24, 38.24, 0, -10577.98, 244.78)" xlink:href="#Dégradé_sans_nom"/><clipPath id="clip-path-11" transform="translate(-4.97 23.85)"><path class="cls-1" d="M104.33,211.87a.13.13,0,0,1,0-.06l-.3-4.92s0-.07,0-.11a1,1,0,0,1,1.95,0v.14l-.31,5a.66.66,0,0,1-.66.6.66.66,0,0,1-.66-.6m-2.35-5.4a2.51,2.51,0,0,0,0,.3l2.5,44.08a.49.49,0,0,0,1,0l2.5-44c0-.11,0-.22,0-.33a3,3,0,0,0-6,0"/></clipPath><linearGradient id="Dégradé_sans_nom_11" y1="283.46" x2="1" y2="283.46" gradientTransform="matrix(0, 38.24, 38.24, 0, -10740.32, 244.78)" xlink:href="#Dégradé_sans_nom"/><clipPath id="clip-path-12" transform="translate(-4.97 23.85)"><path class="cls-1" d="M138.86,6.85l-1.85.2a34.56,34.56,0,0,0-13.18,4.7l-1.56,1a34.78,34.78,0,0,0-8.62,8.45l-1,1.52a34.21,34.21,0,0,0-4.27,9.68l-.42,1.75a34.32,34.32,0,0,0-.76,7.21V158.29a34.64,34.64,0,0,0,58.33,25l1.49-1.48A34.52,34.52,0,0,0,176.49,158V96.58l-.05-57a34.45,34.45,0,0,0-5.64-17.22l-1-1.48a34.77,34.77,0,0,0-13.47-11l-1.69-.72a34.56,34.56,0,0,0-12.78-2.45c-1,0-2,.06-3,.14"/></clipPath><radialGradient id="Dégradé_sans_nom_12" cx="0" cy="283.46" r="1" gradientTransform="matrix(0, 87.35, 87.35, 0, -24633.01, 65.81)" gradientUnits="userSpaceOnUse"><stop offset="0" stop-color="#076551"/><stop offset="1" stop-color="#1c5440"/></radialGradient><clipPath id="clip-path-13" transform="translate(-4.97 23.85)"><path class="cls-1" d="M127.2,52.14,127,49l-.15-2.42-.12-2-.06-1-.1-1.79-.06-.88L126.41,39l-.08-1.34a3.77,3.77,0,0,1,0-.58h0a5,5,0,0,1,.47-2.11,5.07,5.07,0,0,1,1.76-2.1,5.23,5.23,0,0,1,1.65-.73,4.93,4.93,0,0,1,1.23-.16,5,5,0,0,1,1.61.27,4.91,4.91,0,0,1,1.67.94A5.08,5.08,0,0,1,136.5,37a3.69,3.69,0,0,1,0,.58v.29l-.07,1-.12,2.11v.06L136,44.81l0,.42-.16,2.6L135.58,52l-.17,2.83a4,4,0,0,1-5.8,3.19,4.07,4.07,0,0,1-1.54-1.34,4,4,0,0,1-.69-1.85h0ZM137,7l-3.23,20.59a9.05,9.05,0,0,0-2.34-.32,8.65,8.65,0,0,0-2.62.4l-5-16c-.54.33-1.05.67-1.57,1l4.9,15.68a8.83,8.83,0,0,0-3.38,3.4L113.61,21.11c-.36.5-.7,1-1,1.52l10.42,11a8.83,8.83,0,0,0-.34,2.38,7.46,7.46,0,0,0,.06.95l0,.71L108.3,32.31h0c-.15.58-.29,1.17-.42,1.76l15,5.5.14,2.6-15.88,1.7v1.8l16-1.71.15,2.78L107.13,57v2.13l16.26-10.3.32,5.62L107.13,81.58V85l16.76-27.46.8,14.2L107.13,150v8.16L125.06,78.3l6.34,111.63,6.78-119.54,27.29,112.82c.51-.48,1-1,1.49-1.49L138.53,64.21l.7-12.32,37.22,44.6v-2.8L139.38,49.27l.16-2.9,36.91,16.36v-2l-36.8-16.3.09-1.68,36.71-1.51c0-.6,0-1.2,0-1.79L139.85,41l.1-1.93,30.81-16.8c-.34-.5-.68-1-1-1.48L140.07,36.94v0c0-.31,0-.63,0-.95a8.79,8.79,0,0,0-.42-2.68l16.54-23.5q-.83-.37-1.68-.72L138.84,31.4a8.76,8.76,0,0,0-3.39-3.17l3.37-21.48c-.63,0-1.24.12-1.85.21"/></clipPath><linearGradient id="Dégradé_sans_nom_13" y1="283.47" x2="1" y2="283.47" gradientTransform="matrix(104.4, 0, 0, -104.4, 132.85, 29691.82)" gradientUnits="userSpaceOnUse"><stop offset="0" stop-color="#e3bf73"/><stop offset="0.15" stop-color="#eacf81"/><stop offset="0.19" stop-color="#ecd485"/><stop offset="0.41" stop-color="#faf2e3"/><stop offset="0.73" stop-color="#b58e1d"/><stop offset="0.94" stop-color="#e3bc76"/><stop offset="0.95" stop-color="#e4bd78"/><stop offset="1" stop-color="#e4bd78"/></linearGradient><clipPath id="clip-path-14" transform="translate(-4.97 23.85)"><rect class="cls-1" width="283.46" height="283.46"/></clipPath></defs><title>logoCluc</title><g class="cls-2"><rect class="cls-3" x="1.16" y="228.28" width="24.5" height="45.91"/></g><g class="cls-4"><rect class="cls-5" x="24.35" y="228.28" width="19.9" height="45.91"/></g><g class="cls-6"><rect class="cls-7" x="48.91" y="228.28" width="19.9" height="45.91"/></g><g class="cls-8"><rect class="cls-9" x="73.6" y="228.28" width="19.9" height="45.91"/></g><g class="cls-10"><rect class="cls-11" x="110.05" y="228.28" width="19.9" height="45.91"/></g><g class="cls-12"><rect class="cls-13" x="134.74" y="228.28" width="19.51" height="46.24"/></g><g class="cls-14"><rect class="cls-15" x="169.29" y="228.02" width="24.56" height="46.5"/></g><g class="cls-16"><rect class="cls-17" x="198.31" y="228.28" width="19.9" height="45.91"/></g><g class="cls-18"><rect class="cls-19" x="221.5" y="228.28" width="23.51" height="45.91"/></g><g class="cls-20"><rect class="cls-21" x="250.07" y="228.02" width="24.56" height="46.5"/></g><g class="cls-22"><rect class="cls-23" x="97" y="227.31" width="6.02" height="47.85"/></g><g class="cls-24"><rect class="cls-25" x="102.19" y="30.56" width="69.32" height="185.95"/></g><g class="cls-26"><rect class="cls-27" x="64.9" y="1.98" width="153.76" height="192.72" transform="translate(-35.37 110.92) rotate(-31)"/></g><g class="cls-28"><path class="cls-29" d="M5.91,272.8v3.25H5v-8.94H8.3c2,0,3.41,1.09,3.41,2.85a2.78,2.78,0,0,1-2.49,2.76l2.87,3.33H10.92L8.13,272.8ZM8.28,272c1.46,0,2.49-.75,2.49-2s-1-2-2.49-2H5.91v4Z" transform="translate(-4.97 23.85)"/><polygon class="cls-29" points="14.93 295.02 19.68 295.02 19.68 295.89 14.93 295.89 14.93 299.05 20.2 299.05 20.2 299.9 14 299.9 14 290.96 20.2 290.96 20.2 291.81 14.93 291.81 14.93 295.02"/><polygon class="cls-29" points="30.66 291.81 30.66 299.9 29.73 299.9 29.73 291.81 26.4 291.81 26.4 290.96 33.99 290.96 33.99 291.81 30.66 291.81"/><path class="cls-29" d="M54,271.58a4.66,4.66,0,1,1-4.65-4.66A4.64,4.64,0,0,1,54,271.58m-1,0a3.72,3.72,0,1,0-3.7,3.79,3.74,3.74,0,0,0,3.7-3.79" transform="translate(-4.97 23.85)"/><path class="cls-29" d="M68.8,272.25a3.8,3.8,0,1,1-7.6,0v-5.14h.93v5.14a2.89,2.89,0,1,0,5.75,0v-5.14h.92Z" transform="translate(-4.97 23.85)"/><path class="cls-29" d="M83.86,272.91h1a4.16,4.16,0,0,1-4.24,3.32,4.66,4.66,0,0,1,0-9.31,4.17,4.17,0,0,1,4.24,3.33h-1a3.21,3.21,0,0,0-3.28-2.43,3.76,3.76,0,0,0,0,7.52,3.21,3.21,0,0,0,3.28-2.43" transform="translate(-4.97 23.85)"/><polygon class="cls-29" points="94.52 299.9 93.58 299.9 93.58 295.9 88.18 295.9 88.18 299.9 87.24 299.9 87.24 290.96 88.18 290.96 88.18 295.05 93.58 295.05 93.58 290.96 94.52 290.96 94.52 299.9"/><polygon class="cls-29" points="103.24 295.02 107.99 295.02 107.99 295.89 103.24 295.89 103.24 299.05 108.51 299.05 108.51 299.9 102.31 299.9 102.31 290.96 108.51 290.96 108.51 291.81 103.24 291.81 103.24 295.02"/><path class="cls-29" d="M127.14,269.53h-.92a2.23,2.23,0,0,0-2.51-1.81c-1.36,0-2.25.66-2.25,1.7,0,.82.66,1.32,1.84,1.53l1.36.26c1.57.3,2.48,1.05,2.48,2.33,0,1.63-1.33,2.71-3.33,2.71s-3.51-1.12-3.72-3.05H121a2.56,2.56,0,0,0,2.84,2.21c1.42,0,2.33-.7,2.33-1.77,0-.75-.51-1.31-1.68-1.52l-1.55-.31c-1.65-.3-2.48-1.13-2.48-2.34,0-1.54,1.28-2.56,3.19-2.56s3.26.85,3.48,2.62" transform="translate(-4.97 23.85)"/><path class="cls-29" d="M168.37,272.91h1a4.16,4.16,0,0,1-4.25,3.32,4.66,4.66,0,0,1,0-9.31,4.17,4.17,0,0,1,4.25,3.33h-1a3.21,3.21,0,0,0-3.29-2.43,3.76,3.76,0,0,0,0,7.52,3.21,3.21,0,0,0,3.29-2.43" transform="translate(-4.97 23.85)"/><path class="cls-29" d="M177.66,272.8v3.25h-.94v-8.94h3.33c2,0,3.41,1.09,3.41,2.85a2.78,2.78,0,0,1-2.49,2.76l2.87,3.33h-1.17l-2.79-3.25ZM180,272c1.46,0,2.49-.75,2.49-2s-1-2-2.49-2h-2.37v4Z" transform="translate(-4.97 23.85)"/><path class="cls-29" d="M191.65,271.17h4.75V272h-4.75v3.16h5.28v.85h-6.21v-8.94h6.21V268h-5.28Zm1.66-5.09,1.07-1.87h1l-1.23,1.87Z" transform="translate(-4.97 23.85)"/><path class="cls-29" d="M205.6,273.45l-1.16,2.6h-1l4.05-9h.9l4.05,9h-1l-1.16-2.6Zm2.34-5.28-2,4.42h3.92Z" transform="translate(-4.97 23.85)"/><polygon class="cls-29" points="216.63 291.81 216.63 299.9 215.7 299.9 215.7 291.81 212.37 291.81 212.37 290.96 219.96 290.96 219.96 291.81 216.63 291.81"/><rect class="cls-29" x="226.74" y="290.96" width="0.93" height="8.94"/><path class="cls-29" d="M249.34,271.58a4.66,4.66,0,1,1-4.66-4.66,4.64,4.64,0,0,1,4.66,4.66m-1,0a3.72,3.72,0,1,0-3.71,3.79,3.74,3.74,0,0,0,3.71-3.79" transform="translate(-4.97 23.85)"/><polygon class="cls-29" points="259.32 299.9 258.52 299.9 252.68 292.65 252.68 299.9 251.74 299.9 251.74 290.96 252.51 290.96 258.38 298.3 258.38 290.96 259.32 290.96 259.32 299.9"/><path class="cls-29" d="M278.65,269.53h-.92a2.23,2.23,0,0,0-2.52-1.81c-1.35,0-2.25.66-2.25,1.7,0,.82.66,1.32,1.85,1.53l1.35.26c1.58.3,2.49,1.05,2.49,2.33,0,1.63-1.33,2.71-3.33,2.71s-3.51-1.12-3.72-3.05h.92a2.55,2.55,0,0,0,2.84,2.21c1.42,0,2.33-.7,2.33-1.77,0-.75-.52-1.31-1.69-1.52l-1.55-.31c-1.64-.3-2.47-1.13-2.47-2.34,0-1.54,1.27-2.56,3.18-2.56s3.26.85,3.49,2.62" transform="translate(-4.97 23.85)"/><path class="cls-29" d="M133.5,264.32c1.46,5,4.16,10.31,8.19,13.68,3.64,3.05,9.24,4.36,11.85-.37s-2-9.74-4.55-13.54c-1.23-1.85-5.39-6.8-2.44-8.7a2.66,2.66,0,0,1,2.53.41c4.6,3.29-1.66,11-4,13-.41.35-.63,1.39-.86,1.59a22.93,22.93,0,0,0,6.56-8.28c1-2.33,1.55-7.61-1.8-8.42-1.85-.45-2.91,1-3.71,2.37-1.54,2.73-.36,5.05,1.27,7.53s3.32,5,4.9,7.54c3.09,5,1.95,10-5,7.51-6.36-2.27-10.24-9.83-12-15.95.09.3-1.08,1.14-.94,1.63" transform="translate(-4.97 23.85)"/></g></svg>