<svg id="Calque_2" data-name="Calque 2" xmlns="http://www.w3.org/2000/svg" xmlns:xlink="http://www.w3.org/1999/xlink" viewBox="0 0 69.32 185.95"><defs><style>.cls-1{fill:url(#Dégradé_sans_nom_29);}.cls-2{fill:url(#Aiguille_dorée);}</style><radialGradient id="Dégradé_sans_nom_29" cx="131.23" cy="84" r="87.35" gradientUnits="userSpaceOnUse"><stop offset="0" stop-color="#00684e"/><stop offset="1" stop-color="#00553c"/></radialGradient><linearGradient id="Aiguille_dorée" x1="134.45" y1="145.66" x2="223.96" y2="91.46" gradientUnits="userSpaceOnUse"><stop offset="0.01" stop-color="#ecc167"/><stop offset="0.16" stop-color="#f2d278"/><stop offset="0.19" stop-color="#f3d67c"/><stop offset="0.41" stop-color="#fcf4e3"/><stop offset="0.73" stop-color="#be8e00"/><stop offset="0.91" stop-color="#e5b65c"/><stop offset="0.95" stop-color="#edbe6f"/></linearGradient></defs><path class="cls-1" d="M176.39,138.62v61.43a34.5,34.5,0,0,1-9.49,23.81l-1.49,1.49a34.65,34.65,0,0,1-58.33-25V83.42a34.85,34.85,0,0,1,.76-7.21l.42-1.76a34.49,34.49,0,0,1,4.27-9.68l1-1.52a34.91,34.91,0,0,1,8.62-8.44l1.56-1a34.44,34.44,0,0,1,13.18-4.69l1.85-.21c1-.08,2-.13,3-.13a34.52,34.52,0,0,1,12.78,2.44l1.69.72a34.77,34.77,0,0,1,13.47,11l1,1.48a34.46,34.46,0,0,1,5.65,17.22Z" transform="translate(-107.07 -48.76)"/><path class="cls-2" d="M176.39,104.83v-2l-36.8-16.31.1-1.68,36.7-1.5c0-.6,0-1.2,0-1.8l-36.56,1.5.11-1.93,30.8-16.79c-.33-.5-.67-1-1-1.48L140,79v0a7.57,7.57,0,0,0,.06-1,8.45,8.45,0,0,0-.43-2.68l16.55-23.5c-.55-.26-1.12-.5-1.69-.72h0L138.78,73.51a8.83,8.83,0,0,0-3.38-3.18l3.36-21.47c-.62,0-1.24.12-1.85.2l-3.22,20.6a8.66,8.66,0,0,0-2.35-.33,8.75,8.75,0,0,0-2.62.4l-5-16c-.53.32-1,.66-1.56,1l4.9,15.68a8.72,8.72,0,0,0-3.38,3.41L113.55,63.22h0c-.36.5-.7,1-1,1.52L123,75.68a8.57,8.57,0,0,0-.34,2.39c0,.32,0,.63,0,1l0,.7-14.45-5.3h0c-.16.58-.3,1.16-.42,1.76l15,5.49.15,2.61L107.07,86v1.8l16-1.71.16,2.77L107.07,99.07v2.12l16.27-10.3.32,5.63-16.59,27.17v3.44l16.76-27.46.81,14.2-17.57,78.27V200c0,.09,0,.18,0,.28h0L125,120.41,131.34,232l6.78-119.54,27.29,112.81c.52-.47,1-1,1.49-1.48L138.47,106.32l.7-12.32,37.22,44.59v-2.8L139.32,91.38l.17-2.9ZM136.2,83.23,136,86.92l0,.41-.16,2.61-.26,4.21L135.35,97h0a3.92,3.92,0,0,1-.58,1.68,4,4,0,0,1-5.22,1.51A4.14,4.14,0,0,1,127.33,97h0l-.16-2.74L127,91.11l-.15-2.42-.12-2-.06-1-.11-1.79,0-.88-.12-2-.08-1.34a5.44,5.44,0,0,1,0-.57h0a5.1,5.1,0,0,1,2.23-4.21,4.81,4.81,0,0,1,1.65-.73,4.92,4.92,0,0,1,1.22-.16,5.1,5.1,0,0,1,1.62.27,5,5,0,0,1,1.67.93,5.18,5.18,0,0,1,1.82,3.91,5.65,5.65,0,0,1,0,.58l0,.29-.06,1-.13,2.11" transform="translate(-107.07 -48.76)"/></svg>