<svg id="Calque_1" data-name="Calque 1" xmlns="http://www.w3.org/2000/svg" xmlns:xlink="http://www.w3.org/1999/xlink" viewBox="0 0 67.72 181.54"><defs><style>.cls-1{fill:url(#Dégradé_sans_nom_35);}.cls-2{fill:url(#Nouvelle_nuance_de_dégradé_2);}</style><radialGradient id="Dégradé_sans_nom_35" cx="24.45" cy="36.61" r="85.27" gradientUnits="userSpaceOnUse"><stop offset="0" stop-color="#00684f"/><stop offset="1" stop-color="#00553c"/></radialGradient><linearGradient id="Nouvelle_nuance_de_dégradé_2" x1="27.53" y1="96.72" x2="114.89" y2="44.23" gradientUnits="userSpaceOnUse"><stop offset="0" stop-color="#eabe66"/><stop offset="0.15" stop-color="#efcf76"/><stop offset="0.19" stop-color="#f0d47a"/><stop offset="0.41" stop-color="#fbf1e1"/><stop offset="0.73" stop-color="#bd8d00"/><stop offset="0.91" stop-color="#e4b45c"/><stop offset="0.95" stop-color="#ebbc6d"/></linearGradient></defs><path class="cls-1" d="M68.54,89.94v60a33.74,33.74,0,0,1-9.27,23.25l-1.45,1.44A33.83,33.83,0,0,1,.87,150.18V36.05a34,34,0,0,1,.73-7L2,27.29a33.28,33.28,0,0,1,4.17-9.45l1-1.48a34,34,0,0,1,8.42-8.24l1.52-1A33.72,33.72,0,0,1,30,2.54l1.8-.2c1-.08,1.93-.13,2.9-.13A33.8,33.8,0,0,1,47.18,4.59l1.65.71A34,34,0,0,1,62,16l1,1.44a33.59,33.59,0,0,1,5.51,16.82Z" transform="translate(-0.82 -2.21)"/><path class="cls-2" d="M68.5,56.89V55L32.57,39.05l.1-1.64L68.5,35.94c0-.58,0-1.17,0-1.75L32.77,35.66l.1-1.89L62.94,17.38c-.32-.49-.66-1-1-1.45L33,31.71v0c0-.31,0-.62,0-.93a8.45,8.45,0,0,0-.41-2.62L48.78,5.2c-.54-.25-1.09-.48-1.64-.7h0L31.78,26.31a8.55,8.55,0,0,0-3.3-3.1l3.28-21c-.61,0-1.21.11-1.8.2l-3.15,20.1a8.48,8.48,0,0,0-4.85.07L17.09,7q-.78.48-1.53,1l4.78,15.31A8.63,8.63,0,0,0,17,26.65L7.15,16.26h0c-.35.49-.68,1-1,1.49L16.32,28.43A8.52,8.52,0,0,0,16,30.76c0,.31,0,.62,0,.93l0,.69L2,27.2H2c-.15.56-.29,1.14-.41,1.71l14.63,5.37.15,2.54L.82,38.48v1.76l15.61-1.67.16,2.71L.82,51.26v2.08L16.7,43.28,17,48.77.82,75.29v3.37L17.19,51.85,18,65.71.82,142.12v7.69c0,.09,0,.18,0,.28h0l17.51-78,6.18,109L31.14,64.38,57.78,174.51c.5-.47,1-.95,1.45-1.45L31.48,58.34l.68-12L68.5,89.85V87.11L32.31,43.75l.16-2.83ZM29.26,35.8,29,39.4l0,.41-.15,2.54-.26,4.11-.17,2.76h0a3.86,3.86,0,0,1-.56,1.64,3.93,3.93,0,0,1-3.35,1.9,4,4,0,0,1-3.92-3.54h0l-.16-2.67-.18-3.06-.15-2.36-.12-2,0-.94-.11-1.75,0-.86-.11-1.91-.08-1.3a5.46,5.46,0,0,1,0-.57h0A4.94,4.94,0,0,1,20,29.74a5,5,0,0,1,1.72-2A4.88,4.88,0,0,1,23.32,27a5.19,5.19,0,0,1,1.2-.15,4.89,4.89,0,0,1,1.58.26A4.91,4.91,0,0,1,29.16,30a4.87,4.87,0,0,1,.34,1.79,5.17,5.17,0,0,1,0,.57l0,.28-.06,1-.13,2.06" transform="translate(-0.82 -2.21)"/></svg>