<svg id="Calque_2" data-name="Calque 2" xmlns="http://www.w3.org/2000/svg" xmlns:xlink="http://www.w3.org/1999/xlink" viewBox="0 0 273.47 247.12"><defs><style>.cls-1{fill:url(#Atelier_CLUC);}.cls-2{fill:url(#Atelier_CLUC-2);}.cls-3{fill:url(#Atelier_CLUC-3);}.cls-4{fill:url(#Atelier_CLUC-4);}.cls-5{fill:url(#Atelier_CLUC-5);}.cls-6{fill:url(#Atelier_CLUC-6);}.cls-7{fill:url(#Atelier_CLUC-7);}.cls-8{fill:url(#Atelier_CLUC-8);}.cls-9{fill:url(#Atelier_CLUC-9);}.cls-10{fill:url(#Atelier_CLUC-10);}.cls-11{fill:url(#Atelier_CLUC-11);}.cls-12{fill:url(#Dégradé_sans_nom_29);}.cls-13{fill:url(#Aiguille_dorée);}</style><linearGradient id="Atelier_CLUC" x1="16.77" y1="196.08" x2="17.5" y2="283.13" gradientUnits="userSpaceOnUse"><stop offset="0.01" stop-color="#daba54"/><stop offset="0.19" stop-color="#d2af56"/><stop offset="0.6" stop-color="#d7ad19"/><stop offset="0.87" stop-color="#ddb55e"/><stop offset="1" stop-color="#ebdcca"/></linearGradient><linearGradient id="Atelier_CLUC-2" x1="38.02" y1="195.9" x2="38.76" y2="282.96" xlink:href="#Atelier_CLUC"/><linearGradient id="Atelier_CLUC-3" x1="62.41" y1="195.69" x2="63.14" y2="282.75" xlink:href="#Atelier_CLUC"/><linearGradient id="Atelier_CLUC-4" x1="86.93" y1="195.49" x2="87.66" y2="282.54" xlink:href="#Atelier_CLUC"/><linearGradient id="Atelier_CLUC-5" x1="123.55" y1="195.18" x2="124.28" y2="282.24" xlink:href="#Atelier_CLUC"/><linearGradient id="Atelier_CLUC-6" x1="147.86" y1="194.97" x2="148.6" y2="282.03" xlink:href="#Atelier_CLUC"/><linearGradient id="Atelier_CLUC-7" x1="185.21" y1="194.66" x2="185.94" y2="281.72" xlink:href="#Atelier_CLUC"/><linearGradient id="Atelier_CLUC-8" x1="211.63" y1="194.44" x2="212.36" y2="281.5" xlink:href="#Atelier_CLUC"/><linearGradient id="Atelier_CLUC-9" x1="236.84" y1="194.23" x2="237.57" y2="281.28" xlink:href="#Atelier_CLUC"/><linearGradient id="Atelier_CLUC-10" x1="265.98" y1="193.98" x2="266.71" y2="281.04" xlink:href="#Atelier_CLUC"/><linearGradient id="Atelier_CLUC-11" x1="103.74" y1="195.34" x2="104.47" y2="282.4" xlink:href="#Atelier_CLUC"/><radialGradient id="Dégradé_sans_nom_29" cx="131.34" cy="53.89" r="87.35" gradientUnits="userSpaceOnUse"><stop offset="0" stop-color="#00684e"/><stop offset="1" stop-color="#00553c"/></radialGradient><linearGradient id="Aiguille_dorée" x1="134.56" y1="115.56" x2="224.06" y2="61.36" gradientUnits="userSpaceOnUse"><stop offset="0.01" stop-color="#ecc167"/><stop offset="0.16" stop-color="#f2d278"/><stop offset="0.19" stop-color="#f3d67c"/><stop offset="0.41" stop-color="#fcf4e3"/><stop offset="0.73" stop-color="#be8e00"/><stop offset="0.91" stop-color="#e5b65c"/><stop offset="0.95" stop-color="#edbe6f"/></linearGradient></defs><path class="cls-1" d="M18.17,218.89,29.6,264.8H25.33l-1.58-6.44H11L9.31,264.8H5.1l11.36-45.91Zm4.53,35.33-5.32-21.54-5.45,21.54Z" transform="translate(-5.1 -18.65)"/><path class="cls-2" d="M36.17,264.8V223H28.29v-4.14h19.9V223H40.3V264.8Z" transform="translate(-5.1 -18.65)"/><path class="cls-3" d="M52.85,218.89h19.9V223H57.05v8.6h12v4.14h-12v24.89h15.7v4.14H52.85Z" transform="translate(-5.1 -18.65)"/><path class="cls-4" d="M97.44,264.8H77.54V218.89h4.2v41.77h15.7Z" transform="translate(-5.1 -18.65)"/><path class="cls-5" d="M114,218.89h19.9V223h-15.7v8.6h12v4.14h-12v24.89h15.7v4.14H114Z" transform="translate(-5.1 -18.65)"/><path class="cls-6" d="M142.82,218.89a15.77,15.77,0,0,1,5.85,1.38,18.91,18.91,0,0,1,4.72,3.35,15.21,15.21,0,0,1,3.22,4.86,14.65,14.65,0,0,1,1.18,5.84q0,10.13-9.72,14.32c.22.26.43.53.63.79l.62.85a18.81,18.81,0,0,1,1.12,1.91l1.9,3.87q2.63,4.21,5.85,4.93v4.14q-6.37-2-8.28-5.45l-1.7-3.62c-.22-.48-.44-.93-.66-1.34s-.44-.8-.66-1.15-.44-.68-.66-1-.43-.59-.65-.85l-1.12-1.12-1.18-.92c-.26,0-.42,0-.46.07v15h-4.14V218.89Zm0,26.8a11.9,11.9,0,0,0,4.4-1.05,11.77,11.77,0,0,0,3.48-2.5,11,11,0,0,0,2.3-3.55,11.81,11.81,0,0,0,.79-4.27,11,11,0,0,0-.86-4.4,12.66,12.66,0,0,0-2.36-3.54,11.37,11.37,0,0,0-7.75-3.42Z" transform="translate(-5.1 -18.65)"/><path class="cls-7" d="M197.79,222.7a5.6,5.6,0,0,0-1.31-.07A19.4,19.4,0,0,0,183,228.27a19.07,19.07,0,0,0-4.14,6.1,18.18,18.18,0,0,0-1.58,7.47,18.67,18.67,0,0,0,1.51,7.35,19.21,19.21,0,0,0,4.08,6.1,18.3,18.3,0,0,0,6.1,4.13,18,18,0,0,0,7.56,1.57h1.31v4.07a5.6,5.6,0,0,1-1.31.07,21.87,21.87,0,0,1-8.94-1.84,26.68,26.68,0,0,1-4-2.17,20.19,20.19,0,0,1-3.45-2.89,20.66,20.66,0,0,1-2.89-3.45,25.75,25.75,0,0,1-2.16-4,22.76,22.76,0,0,1,0-17.93,23.06,23.06,0,0,1,4.92-7.42,24,24,0,0,1,7.42-5,22,22,0,0,1,9.07-1.84,6,6,0,0,1,1.31.06Z" transform="translate(-5.1 -18.65)"/><path class="cls-8" d="M222.15,264.8h-19.9V218.89h4.21v41.77h15.69Z" transform="translate(-5.1 -18.65)"/><path class="cls-9" d="M249,218.89V253a11.39,11.39,0,0,1-.92,4.47,12.73,12.73,0,0,1-2.56,3.74,11.73,11.73,0,0,1-3.74,2.56,10.83,10.83,0,0,1-4.54,1,10,10,0,0,1-4.46-1,10.86,10.86,0,0,1-3.75-2.56,10,10,0,0,1-2.56-3.74,10.23,10.23,0,0,1-1-4.47V218.89h4V253a7.11,7.11,0,0,0,.6,2.88,6.37,6.37,0,0,0,1.58,2.43,7.57,7.57,0,0,0,2.44,1.7,6.84,6.84,0,0,0,3.1.66,6.93,6.93,0,0,0,3-.66,7.52,7.52,0,0,0,2.44-1.63,8.11,8.11,0,0,0,1.72-2.43,7.3,7.3,0,0,0,.59-2.95v-34.1Z" transform="translate(-5.1 -18.65)"/><path class="cls-10" d="M278.57,222.7a5.73,5.73,0,0,0-1.32-.07,19.4,19.4,0,0,0-13.52,5.64,19.07,19.07,0,0,0-4.14,6.1,18.18,18.18,0,0,0-1.58,7.47,18.49,18.49,0,0,0,1.51,7.35,19.21,19.21,0,0,0,4.08,6.1,18.3,18.3,0,0,0,6.1,4.13,18,18,0,0,0,7.55,1.57h1.32v4.07a5.73,5.73,0,0,1-1.32.07,21.86,21.86,0,0,1-8.93-1.84,26.68,26.68,0,0,1-4-2.17,20.19,20.19,0,0,1-3.45-2.89,20.66,20.66,0,0,1-2.89-3.45,25.75,25.75,0,0,1-2.16-4,22.76,22.76,0,0,1,0-17.93,23.06,23.06,0,0,1,4.92-7.42,24,24,0,0,1,7.42-5,22,22,0,0,1,9.06-1.84,6.16,6.16,0,0,1,1.32.06Z" transform="translate(-5.1 -18.65)"/><path class="cls-11" d="M104,217.92a3,3,0,0,0-3,3,2.51,2.51,0,0,0,0,.3l2.5,44.07a.5.5,0,0,0,1,0l2.5-44.05c0-.1,0-.21,0-.32A3,3,0,0,0,104,217.92Zm1,3.32a.41.41,0,0,1,0,.11v0l-.3,5a.67.67,0,0,1-1.33,0,.13.13,0,0,0,0-.06l-.29-4.92a.41.41,0,0,1,0-.11,1,1,0,1,1,2,0Z" transform="translate(-5.1 -18.65)"/><path class="cls-12" d="M176.5,108.52v61.42A34.57,34.57,0,0,1,167,193.76l-1.49,1.48a34.65,34.65,0,0,1-58.34-25V53.31a35,35,0,0,1,.75-7.21l.42-1.76a34.51,34.51,0,0,1,4.28-9.68l1-1.52a34.7,34.7,0,0,1,8.61-8.44l1.57-1A34.32,34.32,0,0,1,137,19l1.84-.21c1-.08,2-.13,3-.13a34.6,34.6,0,0,1,12.78,2.44l1.68.72a34.9,34.9,0,0,1,13.48,11l1,1.48a34.43,34.43,0,0,1,5.65,17.23Z" transform="translate(-5.1 -18.65)"/><path class="cls-13" d="M176.5,74.73v-2l-36.8-16.3.09-1.68,36.71-1.51c0-.6,0-1.2-.05-1.79L139.89,53l.11-1.93,30.8-16.8c-.33-.5-.67-1-1-1.48L140.12,48.94v0c0-.31.05-.63.05-.95a8.74,8.74,0,0,0-.42-2.68l16.54-23.5q-.83-.37-1.68-.72h0L138.89,43.4a8.76,8.76,0,0,0-3.39-3.17l3.36-21.48c-.62.05-1.23.12-1.84.21l-3.23,20.59a8.75,8.75,0,0,0-5,.08l-5-16c-.54.33-1.06.67-1.57,1l4.9,15.68a8.83,8.83,0,0,0-3.38,3.4L113.66,33.11h0c-.35.5-.69,1-1,1.52l10.42,10.95a8.45,8.45,0,0,0-.34,2.38,7.46,7.46,0,0,0,.06.95l0,.7-14.46-5.3h0c-.15.58-.29,1.17-.42,1.76l15,5.5.14,2.6-15.88,1.7v1.8l16-1.71.15,2.78L107.18,69v2.13l16.26-10.3.32,5.62L107.18,93.58V97l16.76-27.46.8,14.2L107.18,162v8.16h0L125.11,90.3l6.34,111.63,6.78-119.54,27.29,112.82c.51-.48,1-1,1.49-1.48L138.58,76.21l.7-12.32,37.22,44.6v-2.8L139.42,61.27l.17-2.9ZM136.3,53.12l-.23,3.69,0,.42-.16,2.6L135.63,64l-.17,2.83h0a4.09,4.09,0,0,1-4,3.63,4.09,4.09,0,0,1-4-3.63h0l-.16-2.73L127.06,61l-.15-2.42-.12-2-.06-1-.1-1.79-.06-.88-.11-2-.08-1.33a3.77,3.77,0,0,1,0-.58h0a5,5,0,0,1,.47-2.11,5.07,5.07,0,0,1,1.76-2.1,5,5,0,0,1,1.65-.73,4.93,4.93,0,0,1,1.23-.16,5.08,5.08,0,0,1,1.61.27,4.91,4.91,0,0,1,1.67.94,5.13,5.13,0,0,1,1.48,2.07,5,5,0,0,1,.34,1.83,5.49,5.49,0,0,1,0,.58l0,.29-.07,1-.13,2.11" transform="translate(-5.1 -18.65)"/></svg>