<svg id="Calque_1" data-name="Calque 1" xmlns="http://www.w3.org/2000/svg" xmlns:xlink="http://www.w3.org/1999/xlink" viewBox="0 0 5.85 46.54">
<defs>
<style>
.cls-1{fill:none;}.cls-2{clip-path:url(#clip-path);}.cls-3{fill:url(#Dégradé_sans_nom_11);}
</style>
<clipPath id="clip-path" transform="translate(-0.08 -0.66)"><path id="SVGID" class="cls-1" d="M2.37,8.83a.07.07,0,0,1,0-.05L2.07,4a.45.45,0,0,1,0-.11,1,1,0,0,1,1.9,0A.34.34,0,0,1,4,4V4l-.3,4.81a.64.64,0,0,1-1.28,0M.08,3.59a2.48,2.48,0,0,0,0,.29L2.53,46.74a.48.48,0,0,0,1,0L5.92,3.9c0-.1,0-.21,0-.31a2.93,2.93,0,0,0-5.86,0"/>
</clipPath>
<linearGradient id="Dégradé_sans_nom_11" x1="-139.24" y1="166.92" x2="-138.27" y2="166.92" gradientTransform="matrix(0, 38.24, 38.24, 0, -6380.3, 5341.99)" gradientUnits="userSpaceOnUse"><stop offset="0" stop-color="#ae9b27"/><stop offset="0.14" stop-color="#bea728"/><stop offset="0.2" stop-color="#c7ad28"/><stop offset="0.6" stop-color="#ae9b27"/><stop offset="0.87" stop-color="#c8b200"/><stop offset="0.92" stop-color="#d4c350"/><stop offset="1" stop-color="#e5dcca"/>
</linearGradient>
</defs>
<title>needle</title>
<g class="cls-2">
<rect class="cls-3" width="5.85" height="46.54"/>
</g>
</svg>