<?xml version="1.0" encoding="utf-8"?>
<!-- Generator: Adobe Illustrator 24.1.1, SVG Export Plug-In . SVG Version: 6.00 Build 0)  -->
<svg version="1.1" id="Calque_1" xmlns="http://www.w3.org/2000/svg" xmlns:xlink="http://www.w3.org/1999/xlink" x="0px" y="0px"
	 viewBox="0 0 264.3 273.6" style="enable-background:new 0 0 264.3 273.6;" xml:space="preserve">
<style type="text/css">
	.st0{fill-rule:evenodd;clip-rule:evenodd;fill:#00684E;}
	.st1{fill:#FFFFFF;}
	.st2{fill:#DEA534;}
	.st3{fill:#E6E6E6;}
	.st4{fill:#00684E;}
	.st5{fill:#FFFFFF;stroke:url(#SVGID_1_);stroke-miterlimit:10;}
	.st6{font-family:'Tahoma'; font-weight: bold;}
	.st7{font-size:9px;}
	.st8{fill:#FFFFFF;stroke:url(#SVGID_2_);stroke-miterlimit:10;}
	.st9{fill:#FFFFFF;stroke:url(#SVGID_3_);stroke-miterlimit:10;}
	.st10{fill:#F0D47A;}
	.st11{font-size:13px;}
	.st12{font-size:11px;}
	.st13{fill:#FFFFFF;stroke:url(#SVGID_4_);stroke-miterlimit:10;}
	.st14{fill:#FFFFFF;stroke:url(#SVGID_5_);stroke-miterlimit:10;}
</style>
<g id="Calque_2_1_">
	<g id="Pancarte">
		<g id="_id20_sbg55md9ju">
			<path class="st0" d="M12.1,99.7h240.2c6.7,0,12.1,5.4,12.1,12.1v149.8c0,6.7-5.4,12.1-12.1,12.1H12.1c-6.7,0-12.1-5.4-12.1-12.1
				V111.8C0,105.1,5.4,99.7,12.1,99.7z M231.2,114.3c2.8,0,5,2.2,5,5s-2.2,5-5,5s-5-2.2-5-5S228.5,114.3,231.2,114.3z M33.1,114.3
				c2.8,0,5,2.2,5,5s-2.2,5-5,5s-5-2.2-5-5S30.3,114.3,33.1,114.3z"/>
		</g>
		<g id="_id21_sbg55md9ju">
			<path class="st1" d="M19.9,107.2h224.6c6.5,0,11.7,5.3,11.7,11.7v135.5c0,6.5-5.3,11.7-11.7,11.7H19.9c-6.5,0-11.7-5.3-11.7-11.7
				V118.9C8.1,112.4,13.4,107.2,19.9,107.2z M244.5,108.8H19.9c-2.7,0-5.3,1.1-7.1,3c-1.9,1.9-3,4.5-3,7.2v135.5
				c0,5.6,4.5,10.1,10.1,10.1h224.6c2.7,0,5.3-1.1,7.1-3c1.9-1.9,3-4.5,3-7.1V118.9C254.6,113.3,250.1,108.8,244.5,108.8z"/>
		</g>
		<g id="_id22_sbg55md9ju">
			<circle class="st2" cx="132.1" cy="8.4" r="8.4"/>
		</g>
		<g id="_id23_sbg55md9ju">
			<path class="st2" d="M35.6,115L132.1,7l96.5,108c-0.6,0.3-1.1,0.8-1.5,1.3L132.1,10l-95,106.3C36.7,115.8,36.1,115.3,35.6,115
				L35.6,115z"/>
		</g>
		<g id="_id24_sbg55md9ju">
			<path class="st3" d="M33.1,113.6c3.1,0,5.6,2.5,5.6,5.6s-2.5,5.6-5.6,5.6s-5.6-2.5-5.6-5.6c0-1.5,0.6-2.9,1.6-4
				C30.2,114.2,31.6,113.6,33.1,113.6z M36.2,116.2c-1.7-1.7-4.5-1.7-6.2,0s-1.7,4.5,0,6.2s4.5,1.7,6.2,0c0.8-0.8,1.3-1.9,1.3-3.1
				S37,117,36.2,116.2z"/>
		</g>
		<g id="_id25_sbg55md9ju">
			<path class="st3" d="M231.2,113.6c3.1,0,5.6,2.5,5.6,5.6s-2.5,5.6-5.6,5.6s-5.6-2.5-5.6-5.6c0-1.5,0.6-2.9,1.6-4
				C228.3,114.2,229.7,113.6,231.2,113.6z M234.3,116.2c-1.7-1.7-4.5-1.7-6.2,0s-1.7,4.5,0,6.2s4.5,1.7,6.2,0
				c0.8-0.8,1.3-1.9,1.3-3.1S235.1,117,234.3,116.2z"/>
		</g>
		<g id="_id26_sbg55md9ju">
			<circle class="st4" cx="132.1" cy="8.4" r="4.3"/>
		</g>
		
			<linearGradient id="SVGID_1_" gradientUnits="userSpaceOnUse" x1="150.5" y1="942.5" x2="231.5" y2="942.5" gradientTransform="matrix(1 0 0 1 0 -804)">
			<stop  offset="0" style="stop-color:#EABE66"/>
			<stop  offset="0.15" style="stop-color:#EFCF76"/>
			<stop  offset="0.19" style="stop-color:#F0D47A"/>
			<stop  offset="0.41" style="stop-color:#FBF1E1"/>
			<stop  offset="0.73" style="stop-color:#BD8D00"/>
			<stop  offset="0.91" style="stop-color:#E4B45C"/>
			<stop  offset="0.95" style="stop-color:#EBBC6D"/>
		</linearGradient>
		<path class="st5" d="M165.5,124h51c8,0,14.5,6.5,14.5,14.5l0,0c0,8-6.5,14.5-14.5,14.5h-51c-8,0-14.5-6.5-14.5-14.5l0,0
			C151,130.5,157.5,124,165.5,124z"/>
		<text transform="matrix(1 0 0 1 157.78 140.79)" class="st6 st7">14h30 - 18h30</text>
		
			<linearGradient id="SVGID_2_" gradientUnits="userSpaceOnUse" x1="150.5" y1="1034.5" x2="231.5" y2="1034.5" gradientTransform="matrix(1 0 0 1 0 -804)">
			<stop  offset="0" style="stop-color:#EABE66"/>
			<stop  offset="0.15" style="stop-color:#EFCF76"/>
			<stop  offset="0.19" style="stop-color:#F0D47A"/>
			<stop  offset="0.41" style="stop-color:#FBF1E1"/>
			<stop  offset="0.73" style="stop-color:#BD8D00"/>
			<stop  offset="0.91" style="stop-color:#E4B45C"/>
			<stop  offset="0.95" style="stop-color:#EBBC6D"/>
		</linearGradient>
		<path class="st8" d="M165.5,216h51c8,0,14.5,6.5,14.5,14.5l0,0c0,8-6.5,14.5-14.5,14.5h-51c-8,0-14.5-6.5-14.5-14.5l0,0
			C151,222.5,157.5,216,165.5,216z"/>
		
			<linearGradient id="SVGID_3_" gradientUnits="userSpaceOnUse" x1="32.5" y1="990.5" x2="113.5" y2="990.5" gradientTransform="matrix(1 0 0 1 0 -804)">
			<stop  offset="0" style="stop-color:#EABE66"/>
			<stop  offset="0.15" style="stop-color:#EFCF76"/>
			<stop  offset="0.19" style="stop-color:#F0D47A"/>
			<stop  offset="0.41" style="stop-color:#FBF1E1"/>
			<stop  offset="0.73" style="stop-color:#BD8D00"/>
			<stop  offset="0.91" style="stop-color:#E4B45C"/>
			<stop  offset="0.95" style="stop-color:#EBBC6D"/>
		</linearGradient>
		<path class="st9" d="M47.5,172h51c8,0,14.5,6.5,14.5,14.5l0,0c0,8-6.5,14.5-14.5,14.5h-51c-8,0-14.5-6.5-14.5-14.5l0,0
			C33,178.5,39.5,172,47.5,172z"/>
		<text transform="matrix(1 0 0 1 39.78 189.29)" class="st6 st7">10h00 - 13h00</text>
		<text transform="matrix(1 0 0 1 19.58 141.05)" class="st10 st6 st11">Lundi</text>
		<text transform="matrix(1 0 0 1 19.58 167.57)" class="st10 st6 st11">Mardi, mercredi, jeudi</text>
		<text transform="matrix(1 0 0 1 19.58 259.57)" class="st10 st6 st12">Samedi, Dimanche : fermé</text>
	</g>
</g>
<linearGradient id="SVGID_4_" gradientUnits="userSpaceOnUse" x1="150.5" y1="989.5" x2="231.5" y2="989.5" gradientTransform="matrix(1 0 0 1 0 -804)">
	<stop  offset="0" style="stop-color:#EABE66"/>
	<stop  offset="0.15" style="stop-color:#EFCF76"/>
	<stop  offset="0.19" style="stop-color:#F0D47A"/>
	<stop  offset="0.41" style="stop-color:#FBF1E1"/>
	<stop  offset="0.73" style="stop-color:#BD8D00"/>
	<stop  offset="0.91" style="stop-color:#E4B45C"/>
	<stop  offset="0.95" style="stop-color:#EBBC6D"/>
</linearGradient>
<path class="st13" d="M165.5,171h51c8,0,14.5,6.5,14.5,14.5l0,0c0,8-6.5,14.5-14.5,14.5h-51c-8,0-14.5-6.5-14.5-14.5l0,0
	C151,177.5,157.5,171,165.5,171z"/>
<text transform="matrix(1 0 0 1 157.78 189.29)" class="st6 st7">14h30 - 18h30</text>
<text transform="matrix(1 0 0 1 19.361 214.1654)" class="st10 st6 st11">Vendredi</text>
<linearGradient id="SVGID_5_" gradientUnits="userSpaceOnUse" x1="32.6" y1="1035.3" x2="113.6" y2="1035.3" gradientTransform="matrix(1 0 0 1 0 -804)">
	<stop  offset="0" style="stop-color:#EABE66"/>
	<stop  offset="0.15" style="stop-color:#EFCF76"/>
	<stop  offset="0.19" style="stop-color:#F0D47A"/>
	<stop  offset="0.41" style="stop-color:#FBF1E1"/>
	<stop  offset="0.73" style="stop-color:#BD8D00"/>
	<stop  offset="0.91" style="stop-color:#E4B45C"/>
	<stop  offset="0.95" style="stop-color:#EBBC6D"/>
</linearGradient>
<path class="st14" d="M47.6,216.8h51c8,0,14.5,6.5,14.5,14.5l0,0c0,8-6.5,14.5-14.5,14.5h-51c-8,0-14.5-6.5-14.5-14.5l0,0
	C33.1,223.3,39.6,216.8,47.6,216.8z"/>
<text transform="matrix(1 0 0 1 157.3245 233.276)" class="st6 st7">14h30 - 18h00</text>
<text transform="matrix(1 0 0 1 39.3245 234.276)" class="st6 st7">10h00 - 13h00</text>
</svg>
