<svg xmlns="http://www.w3.org/2000/svg" xmlns:xlink="http://www.w3.org/1999/xlink" viewBox="0 0 264.31 273.62"><defs><style>.cls-1,.cls-5{fill:#00684e;}.cls-1{fill-rule:evenodd;}.cls-10,.cls-2,.cls-6,.cls-8,.cls-9{fill:#fff;}.cls-3{fill:#dea534;}.cls-4{fill:#e6e6e6;}.cls-10,.cls-6,.cls-8,.cls-9{stroke-miterlimit:10;}.cls-6{stroke:url(#Dégradé_or);}.cls-7{font-size:9px;}.cls-11,.cls-7{font-family:Tahoma-Bold, Tahoma;font-weight:700;}.cls-8{stroke:url(#Dégradé_or-2);}.cls-9{stroke:url(#Dégradé_or-3);}.cls-10{stroke:url(#Dégradé_or-4);}.cls-11{font-size:13px;fill:#f0d47a;}</style><linearGradient id="Dégradé_or" x1="150.48" y1="138.52" x2="231.48" y2="138.52" gradientUnits="userSpaceOnUse"><stop offset="0" stop-color="#eabe66"/><stop offset="0.15" stop-color="#efcf76"/><stop offset="0.19" stop-color="#f0d47a"/><stop offset="0.41" stop-color="#fbf1e1"/><stop offset="0.73" stop-color="#bd8d00"/><stop offset="0.91" stop-color="#e4b45c"/><stop offset="0.95" stop-color="#ebbc6d"/></linearGradient><linearGradient id="Dégradé_or-2" x1="150.48" y1="202.52" x2="231.48" y2="202.52" xlink:href="#Dégradé_or"/><linearGradient id="Dégradé_or-3" x1="150.48" y1="242.52" x2="231.48" y2="242.52" xlink:href="#Dégradé_or"/><linearGradient id="Dégradé_or-4" x1="32.48" y1="202.52" x2="113.48" y2="202.52" xlink:href="#Dégradé_or"/></defs><g id="Calque_2" data-name="Calque 2"><g id="Pancarte"><g id="_id20_sbg55md9ju" data-name="  id20 sbg55md9ju"><path class="cls-1" d="M12.08,99.69H252.24a12.1,12.1,0,0,1,12.07,12.08V261.54a12.1,12.1,0,0,1-12.07,12.08H12.08A12.11,12.11,0,0,1,0,261.54V111.77A12.11,12.11,0,0,1,12.08,99.69Zm219.14,14.57a5,5,0,1,1-5,5A5,5,0,0,1,231.22,114.26Zm-198.12,0a5,5,0,1,1-5,5A5,5,0,0,1,33.1,114.26Z"/></g><g id="_id21_sbg55md9ju" data-name="  id21 sbg55md9ju"><path class="cls-2" d="M19.87,107.18h224.6a11.76,11.76,0,0,1,11.74,11.74V254.44a11.76,11.76,0,0,1-11.74,11.74H19.87A11.74,11.74,0,0,1,8.13,254.44V118.92a11.74,11.74,0,0,1,11.74-11.74Zm224.6,1.6H19.87a10.19,10.19,0,0,0-7.15,3,10.08,10.08,0,0,0-3,7.15V254.41a10.12,10.12,0,0,0,10.11,10.12h224.6a10.2,10.2,0,0,0,7.15-3,10.08,10.08,0,0,0,3-7.15V118.9a10.12,10.12,0,0,0-10.11-10.12Z"/></g><g id="_id22_sbg55md9ju" data-name="  id22 sbg55md9ju"><circle class="cls-3" cx="132.15" cy="8.44" r="8.44"/></g><g id="_id23_sbg55md9ju" data-name="  id23 sbg55md9ju"><path class="cls-3" d="M35.61,115l96.54-108,96.53,108a5,5,0,0,0-1.5,1.34L132.12,10,37.07,116.29A4.85,4.85,0,0,0,35.56,115Z"/></g><g id="_id24_sbg55md9ju" data-name="  id24 sbg55md9ju"><path class="cls-4" d="M33.1,113.61a5.63,5.63,0,1,1-4,1.65A5.62,5.62,0,0,1,33.1,113.61Zm3.08,2.56a4.38,4.38,0,1,0,1.27,3.09A4.36,4.36,0,0,0,36.18,116.17Z"/></g><g id="_id25_sbg55md9ju" data-name="  id25 sbg55md9ju"><path class="cls-4" d="M231.22,113.61a5.63,5.63,0,1,1-4,1.65A5.62,5.62,0,0,1,231.22,113.61Zm3.08,2.56a4.38,4.38,0,1,0,1.27,3.09A4.36,4.36,0,0,0,234.3,116.17Z"/></g><g id="_id26_sbg55md9ju" data-name="  id26 sbg55md9ju"><circle class="cls-5" cx="132.15" cy="8.44" r="4.26"/></g><rect class="cls-6" x="150.98" y="124.02" width="80" height="29" rx="14.5"/><text class="cls-7" transform="translate(157.78 140.79)">14h30 - 18h30</text><rect class="cls-8" x="150.98" y="188.02" width="80" height="29" rx="14.5"/><text class="cls-7" transform="translate(157.78 204.79)">14h30 - 18h30</text><rect class="cls-9" x="150.98" y="228.02" width="80" height="29" rx="14.5"/><text class="cls-7" transform="translate(176.84 244.79)">Fermé</text><rect class="cls-10" x="32.98" y="188.02" width="80" height="29" rx="14.5"/><text class="cls-7" transform="translate(39.78 204.79)">10h00 - 13h00</text><text class="cls-11" transform="translate(19.58 141.05)">Lundi</text><text class="cls-11" transform="translate(19.58 177.57)">Mardi, mercredi, jeudi, vendredi</text><text class="cls-11" transform="translate(19.58 245.57)">Samedi, Dimanche</text></g></g></svg>