<svg id="Calque_1" data-name="Calque 1" xmlns="http://www.w3.org/2000/svg" viewBox="0 0 787 75.71"><defs><style>.cls-1{fill:#00684f;}</style></defs><path class="cls-1" d="M9.19,86.92v9.34H6.5V70.54h9.57c5.75,0,9.8,3.14,9.8,8.21,0,4.2-2.84,7.11-7.15,7.94L27,96.26H23.6l-8-9.34ZM16,84.46c4.2,0,7.19-2.16,7.19-5.71S20.19,73,16,73H9.19V84.46Z" transform="translate(-6.5 -33.24)"/><path class="cls-1" d="M49.44,82.23H63.09v2.49H49.44V93.8H64.6v2.46H46.75V70.54H64.6V73H49.44Z" transform="translate(-6.5 -33.24)"/><path class="cls-1" d="M94.68,73V96.26H92V73H82.42V70.54h21.83V73Z" transform="translate(-6.5 -33.24)"/><path class="cls-1" d="M147.49,83.4A13.39,13.39,0,1,1,134.1,70,13.37,13.37,0,0,1,147.49,83.4Zm-2.73,0A10.69,10.69,0,1,0,134.1,94.3,10.75,10.75,0,0,0,144.76,83.4Z" transform="translate(-6.5 -33.24)"/><path class="cls-1" d="M190.05,85.33c0,6.77-4.35,11.5-10.93,11.5s-10.94-4.73-10.94-11.5V70.54h2.69V85.33c0,5.14,3.29,9,8.25,9s8.28-3.86,8.28-9V70.54h2.65Z" transform="translate(-6.5 -33.24)"/><path class="cls-1" d="M233.36,87.22h2.76c-1.21,5.67-5.94,9.57-12.22,9.57a13.39,13.39,0,0,1,0-26.78c6.28,0,11,3.9,12.22,9.57h-2.76c-1.1-4.24-4.61-7-9.46-7a10.82,10.82,0,0,0,0,21.64C228.75,94.22,232.26,91.46,233.36,87.22Z" transform="translate(-6.5 -33.24)"/><path class="cls-1" d="M278.3,96.26h-2.68V84.76H260.07v11.5h-2.68V70.54h2.68V82.3h15.55V70.54h2.68Z" transform="translate(-6.5 -33.24)"/><path class="cls-1" d="M303.39,82.23H317v2.49H303.39V93.8h15.16v2.46H300.7V70.54h17.85V73H303.39Z" transform="translate(-6.5 -33.24)"/><path class="cls-1" d="M357.82,77.5h-2.65c-.6-3.14-2.87-5.18-7.22-5.18-3.9,0-6.47,1.89-6.47,4.88,0,2.34,1.89,3.78,5.29,4.38l3.9.76c4.54.87,7.15,3,7.15,6.7,0,4.69-3.82,7.79-9.57,7.79-6.17,0-10.1-3.22-10.71-8.78h2.65c.65,4,3.44,6.36,8.17,6.36,4.09,0,6.7-2,6.7-5.07,0-2.16-1.48-3.78-4.84-4.39l-4.47-.87c-4.73-.87-7.11-3.25-7.11-6.73,0-4.43,3.67-7.38,9.15-7.38C353,70,357.18,72.43,357.82,77.5Z" transform="translate(-6.5 -33.24)"/><path class="cls-1" d="M476.38,87.22h2.76c-1.21,5.67-5.94,9.57-12.22,9.57a13.39,13.39,0,0,1,0-26.78c6.28,0,11,3.9,12.22,9.57h-2.76c-1.1-4.24-4.62-7-9.46-7a10.82,10.82,0,0,0,0,21.64C471.76,94.22,475.28,91.46,476.38,87.22Z" transform="translate(-6.5 -33.24)"/><path class="cls-1" d="M503.09,86.92v9.34H500.4V70.54H510c5.75,0,9.8,3.14,9.8,8.21,0,4.2-2.84,7.11-7.15,7.94l8.24,9.57H517.5l-8-9.34Zm6.81-2.46c4.19,0,7.18-2.16,7.18-5.71s-3-5.75-7.18-5.75h-6.81V84.46Z" transform="translate(-6.5 -33.24)"/><path class="cls-1" d="M543.34,82.23H557v2.49H543.34V93.8H558.5v2.46H540.65V70.54H558.5V73H543.34Zm4.76-14.64,3.07-5.37H554l-3.52,5.37Z" transform="translate(-6.5 -33.24)"/><path class="cls-1" d="M583.43,88.77l-3.32,7.49h-2.88l11.65-25.91h2.57L603.1,96.26h-2.87l-3.33-7.49Zm6.74-15.17-5.64,12.71H595.8Z" transform="translate(-6.5 -33.24)"/><path class="cls-1" d="M629.47,73V96.26h-2.68V73h-9.57V70.54H639V73Z" transform="translate(-6.5 -33.24)"/><path class="cls-1" d="M661.21,96.26h-2.68V70.54h2.68Z" transform="translate(-6.5 -33.24)"/><path class="cls-1" d="M709.21,83.4A13.39,13.39,0,1,1,695.82,70,13.36,13.36,0,0,1,709.21,83.4Zm-2.72,0a10.69,10.69,0,1,0-10.67,10.9A10.75,10.75,0,0,0,706.49,83.4Z" transform="translate(-6.5 -33.24)"/><path class="cls-1" d="M752.23,96.26h-2.31l-16.8-20.84V96.26h-2.68V70.54h2.19l16.91,21.11V70.54h2.69Z" transform="translate(-6.5 -33.24)"/><path class="cls-1" d="M793.5,77.5h-2.65c-.6-3.14-2.87-5.18-7.22-5.18-3.9,0-6.47,1.89-6.47,4.88,0,2.34,1.89,3.78,5.29,4.38l3.9.76c4.54.87,7.15,3,7.15,6.7,0,4.69-3.82,7.79-9.57,7.79-6.16,0-10.1-3.22-10.7-8.78h2.64c.65,4,3.45,6.36,8.17,6.36,4.09,0,6.7-2,6.7-5.07,0-2.16-1.48-3.78-4.84-4.39l-4.47-.87c-4.72-.87-7.11-3.25-7.11-6.73,0-4.43,3.67-7.38,9.16-7.38C788.66,70,792.86,72.43,793.5,77.5Z" transform="translate(-6.5 -33.24)"/><path class="cls-1" d="M377,61a96.87,96.87,0,0,0,12.57,26.75c7.41,11,25.28,28.3,39.43,18.06,9-6.53,6.83-17.38,1.37-25.84-3.52-5.47-6.94-11-10.53-16.46-3.2-4.84-7.23-9.43-9.2-15-1.76-5-1.33-12,4.5-13.39a7.92,7.92,0,0,1,6.29,1c3.78,2.58,4.59,8.22,4.81,12.37.6,11.77-9.07,21.31-17.55,28.32-.41.34-.63,1.4-.86,1.6,7.35-6.08,14-13.33,17.76-22.26,2.51-6,3.05-18.84-4.25-22.25-3.74-1.75-7.59-.28-9.9,2.84-4.66,6.25-2.54,13.08,1.29,19.27,3.2,5.16,6.79,10.05,10,15.21,4.61,7.4,12,15.36,11.73,24.5-.23,8.82-9.45,12.14-17,10.79-8.4-1.51-15.53-6.65-21.13-12.89-8.56-9.55-14.87-22-18.42-34.33.09.31-1.08,1.14-.94,1.63Z" transform="translate(-6.5 -33.24)"/></svg>