<svg xmlns="http://www.w3.org/2000/svg" viewBox="0 0 300.61 23.92"><defs><style>.cls-1,.cls-2{fill:#d8ab3d;}.cls-2{opacity:0.18;}</style></defs><title>ruban</title><g id="Calque_2" data-name="Calque 2"><g id="Title2"><path class="cls-1" d="M2.88,15.25C55.5,6.13,245.07-.84,294.42,5.56"/><path class="cls-2" d="M10.22,19.79c19.21-3,38.67-4.35,58.05-5.67,29.39-2,58.83-3.32,88.27-4.27,27.65-.9,55.32-1.45,83-1.3,20.31.11,40.77.3,61,2.81a1.64,1.64,0,0,0-.6-.92Q298.5,9,297.06,7.56t-2.91-2.79a1.51,1.51,0,0,0-.92-.59C274.31,2.66,255.35,2,236.38,1.91c-29.29-.19-58.6.46-87.88,1.5-28,1-56,2.37-83.91,4.41C53,8.67,41.33,9.63,29.73,10.89c-9.33,1-18.68,1.72-28,2.93a1.61,1.61,0,0,0,.76.81c1.08.83,2.19,1.63,3.31,2.41s2.24,1.57,3.39,2.31A1.62,1.62,0,0,0,10.22,19.79Z"/><path class="cls-2" d="M10.19,23.92c19.25-3,38.75-4.3,58.17-5.59,29.4-2,58.84-3.27,88.29-4.2,27.66-.87,55.34-1.41,83-1.24,20.31.12,40.79.25,61,2.93a2.44,2.44,0,0,0-.83-1.13Q298,12.83,296.07,11t-3.79-3.57a2.42,2.42,0,0,0-1.16-.79c-18.84-1.5-37.74-2.08-56.64-2.2-29.28-.17-58.57.52-87.83,1.59-28,1-55.95,2.45-83.86,4.56-11.63.88-23.25,1.87-34.83,3.18-4.71.53-9.41,1.16-14.14,1.48S4.6,16.14,0,16.72a2.3,2.3,0,0,0,.93,1q2,1.48,4,2.89T9,23.36A2.22,2.22,0,0,0,10.19,23.92Z"/><path class="cls-2" d="M8.92,18.15C28.13,15.26,47.6,13.84,67,12.52c29.4-2,58.85-3.34,88.29-4.3,27.66-.89,55.33-1.45,83-1.3,20.33.11,40.78.33,61,2.79a1.1,1.1,0,0,0-.45-.78c-.74-.8-1.51-1.59-2.29-2.35-.6-.59-2.14-2.63-3.17-2.72-18.89-1.61-37.84-2.21-56.79-2.34C207.24,1.3,177.94,2,148.67,3c-28,1-55.95,2.33-83.88,4.33-11.62.84-23.25,1.77-34.84,3-9.33,1-18.68,1.73-28,3a1.15,1.15,0,0,0,.6.7c.88.69,1.79,1.35,2.71,2C5.88,16.38,7.94,18.3,8.92,18.15Z"/><path class="cls-2" d="M8.3,20.31C27.52,17.39,47,16,66.38,14.68c29.4-2,58.85-3.33,88.3-4.28,27.65-.89,55.33-1.45,83-1.29,20.33.11,40.8.31,61,2.83a1.36,1.36,0,0,0-.54-.87c-.85-.91-1.72-1.81-2.62-2.69-.62-.62-2.46-3-3.57-3.13-18.89-1.5-37.82-2.1-56.75-2.22-29.28-.19-58.57.47-87.82,1.52-28,1-55.93,2.37-83.84,4.42-11.61.85-23.22,1.81-34.8,3.06-9.32,1-18.65,1.75-27.94,3a1.31,1.31,0,0,0,.65.74c1,.74,1.94,1.46,2.93,2.15C5,18.34,7.28,20.46,8.3,20.31Z"/><path class="cls-2" d="M8.49,16.93c19.22-2.86,38.68-4.29,58.06-5.61C96,9.31,125.4,8,154.85,7c27.65-.9,55.33-1.46,83-1.31,20.34.12,40.79.35,61,2.79a.87.87,0,0,0-.38-.69c-.64-.71-1.3-1.39-2-2s-1.82-2.24-2.77-2.32C274.83,1.75,255.88,1.16,236.93,1c-29.28-.23-58.58.41-87.85,1.42-28,1-56,2.29-83.88,4.27-11.62.82-23.24,1.74-34.84,3-9.33,1-18.69,1.73-28,3a.93.93,0,0,0,.51.64c.78.61,1.57,1.19,2.39,1.75C5.84,15.43,7.59,17.06,8.49,16.93Z"/><path class="cls-2" d="M9.32,22.49c19.22-3,38.71-4.32,58.11-5.63,29.4-2,58.85-3.29,88.3-4.23,27.65-.88,55.33-1.43,83-1.27,20.32.12,40.8.28,61,2.89a2,2,0,0,0-.7-1C298,12.1,296.89,11,295.79,9.93s-2.18-2.16-3.3-3.2a2,2,0,0,0-1-.7c-18.9-1.4-37.84-2-56.79-2.12-29.28-.17-58.57.51-87.83,1.57C118.87,6.5,90.9,7.9,63,10c-11.62.87-23.23,1.85-34.81,3.14-9.32,1-18.66,1.75-27.95,2.94a1.86,1.86,0,0,0,.82.87c1.16.88,2.35,1.75,3.55,2.58S7,21.21,8.23,22A1.78,1.78,0,0,0,9.32,22.49Z"/><path class="cls-2" d="M9,15.62c19.22-2.85,38.68-4.28,58.06-5.6C94.63,8.13,122.26,6.84,149.9,5.9c27.91-1,55.84-1.57,83.77-1.5,21.82,0,43.77.21,65.46,2.79.68.09-1.21-1.79-1.38-2-.71-.71-2-2.55-3.1-2.65-14.5-1.37-29-2-43.6-2.32-28.23-.57-56.5-.14-84.72.66-28.56.82-57.11,2-85.63,3.76C66.85,5.53,53,6.52,39.19,7.78c-12,1.1-24.08,2.14-36.06,3.73a.86.86,0,0,0,.48.62q1.11.87,2.28,1.68C6.46,14.21,8.11,15.75,9,15.62Z"/></g></g></svg>