<svg xmlns="http://www.w3.org/2000/svg" viewBox="0 0 305.85 23"><defs><style>.cls-1,.cls-3{fill:#d8ab3d;}.cls-2{fill:none;}.cls-2,.cls-3{stroke:#d8ab3d;stroke-miterlimit:10;}</style></defs><g id="Calque_2" data-name="Calque 2"><g id="séparateur"><rect class="cls-1" x="1.52" y="7.78" width="7.33" height="7.33" transform="translate(9.61 -0.31) rotate(45)"/><path class="cls-2" d="M12.11,3.71a5.89,5.89,0,0,0,2,4.48,5.67,5.67,0,0,0,3.67,1.22c39.92.27,80.25.14,120.18.41"/><path class="cls-2" d="M12.11,19.6a5.89,5.89,0,0,1,2-4.49,5.67,5.67,0,0,1,3.67-1.22c39.92-.27,80.25-.13,120.18-.41"/><rect class="cls-1" x="297" y="7.78" width="7.33" height="7.33" transform="translate(521.37 -193.06) rotate(135)"/><path class="cls-2" d="M293.74,3.71a5.85,5.85,0,0,1-2,4.48A5.66,5.66,0,0,1,288,9.41c-39.93.27-80.26.14-120.19.41"/><path class="cls-2" d="M293.74,19.6a5.85,5.85,0,0,0-2-4.49A5.66,5.66,0,0,0,288,13.89c-39.93-.27-80.26-.13-120.19-.41"/><circle class="cls-2" cx="153.23" cy="11.5" r="11"/><polygon class="cls-3" points="153.27 16.5 151.63 13.64 148.35 13.37 150.57 10.93 149.81 7.73 152.81 9.08 155.63 7.37 155.27 10.64 157.77 12.79 154.54 13.46 153.27 16.5"/><polygon class="cls-3" points="156.38 15.74 153.32 14.22 150.33 15.88 150.83 12.5 148.33 10.17 151.7 9.6 153.15 6.5 154.73 9.53 158.12 9.95 155.73 12.39 156.38 15.74"/></g></g></svg>