<svg xmlns="http://www.w3.org/2000/svg" xmlns:xlink="http://www.w3.org/1999/xlink" viewBox="0 0 300.61 48"><defs><style>.cls-1{fill:#dea534;}.cls-2,.cls-3{fill:#d8ab3d;}.cls-3{opacity:0.18;}.cls-4{clip-path:url(#clip-path);}.cls-5,.cls-6{fill:none;stroke:#006837;stroke-miterlimit:10;stroke-width:0.5px;}.cls-5{stroke-linecap:square;}.cls-7{fill:#006837;}</style><clipPath id="clip-path" transform="translate(0 0.15)"><path id="SVGID" class="cls-1" d="M248,4.24a.34.34,0,0,1-.44.19A.34.34,0,0,1,247.4,4l.78-2.43h0a.1.1,0,0,1,0-.05.53.53,0,0,1,.44-.19.54.54,0,0,1,.5.56l0,.05-1.07,2.3a0,0,0,0,1,0,0m2.15-2.14A1.55,1.55,0,1,0,247.32,1l-.06.15-7.1,21.59a.27.27,0,0,0,.15.34.28.28,0,0,0,.35-.15l9.48-20.66.06-.15"/></clipPath></defs><g id="Calque_2" data-name="Calque 2"><g id="Title2"><path class="cls-2" d="M2.88,39.17c52.62-9.12,242.19-16.09,291.54-9.69" transform="translate(0 0.15)"/><path class="cls-3" d="M10.22,43.71c19.21-3,38.67-4.35,58.05-5.67,29.39-2,58.83-3.32,88.27-4.27,27.65-.9,55.32-1.45,83-1.3,20.31.11,40.77.3,61,2.81a1.58,1.58,0,0,0-.6-.91c-.92-1-1.86-1.95-2.82-2.89s-1.92-1.88-2.91-2.79a1.56,1.56,0,0,0-.92-.59c-18.92-1.52-37.88-2.14-56.85-2.26-29.29-.2-58.6.45-87.88,1.49-28,1-56,2.37-83.91,4.41-11.63.85-23.26,1.81-34.86,3.07-9.33,1-18.68,1.72-28,2.93a1.61,1.61,0,0,0,.76.81c1.08.83,2.19,1.63,3.31,2.41s2.24,1.57,3.39,2.31A1.62,1.62,0,0,0,10.22,43.71Z" transform="translate(0 0.15)"/><path class="cls-3" d="M10.19,47.85c19.25-3,38.75-4.31,58.17-5.6,29.4-2,58.84-3.27,88.29-4.2,27.66-.87,55.34-1.41,83-1.24,20.31.12,40.79.25,61,2.93a2.49,2.49,0,0,0-.83-1.13Q298,36.75,296.07,35t-3.79-3.58a2.49,2.49,0,0,0-1.16-.79c-18.84-1.49-37.74-2.08-56.64-2.19-29.28-.18-58.57.51-87.83,1.58-28,1-55.95,2.45-83.86,4.56C51.16,35.41,39.54,36.4,28,37.71c-4.71.54-9.41,1.16-14.14,1.48S4.6,40.06,0,40.64a2.3,2.3,0,0,0,.93,1c1.32,1,2.65,1.95,4,2.9S7.62,46.37,9,47.28A2.31,2.31,0,0,0,10.19,47.85Z" transform="translate(0 0.15)"/><path class="cls-3" d="M8.92,42.08C28.13,39.18,47.6,37.77,67,36.44c29.4-2,58.85-3.34,88.29-4.3,27.66-.89,55.33-1.45,83-1.3,20.33.11,40.78.33,61,2.79a1.1,1.1,0,0,0-.45-.78c-.74-.8-1.51-1.59-2.29-2.35-.6-.59-2.14-2.63-3.17-2.72-18.89-1.6-37.84-2.2-56.79-2.34-29.29-.22-58.59.43-87.86,1.45-28,1-55.95,2.33-83.88,4.33-11.62.84-23.25,1.77-34.84,3-9.33,1-18.68,1.72-28,3a1.2,1.2,0,0,0,.6.71c.88.68,1.79,1.34,2.71,2C5.88,40.3,7.94,42.22,8.92,42.08Z" transform="translate(0 0.15)"/><path class="cls-3" d="M8.3,44.23C27.52,41.31,47,39.92,66.38,38.6c29.4-2,58.85-3.33,88.3-4.28,27.65-.89,55.33-1.44,83-1.29,20.33.12,40.8.31,61,2.83a1.36,1.36,0,0,0-.54-.87c-.85-.91-1.72-1.81-2.62-2.68-.62-.63-2.46-3.05-3.57-3.14-18.89-1.5-37.82-2.1-56.75-2.22-29.28-.19-58.57.47-87.82,1.52-28,1-55.93,2.37-83.84,4.42-11.61.85-23.22,1.81-34.8,3.07-9.32,1-18.65,1.74-27.94,3a1.36,1.36,0,0,0,.65.75c1,.73,1.94,1.45,2.93,2.14C5,42.26,7.28,44.38,8.3,44.23Z" transform="translate(0 0.15)"/><path class="cls-3" d="M8.49,40.85C27.71,38,47.17,36.56,66.55,35.24c29.4-2,58.85-3.35,88.3-4.3,27.65-.9,55.33-1.46,83-1.3,20.34.11,40.79.34,61,2.79a.89.89,0,0,0-.38-.7c-.64-.7-1.3-1.39-2-2.05s-1.82-2.24-2.77-2.32c-18.88-1.69-37.83-2.28-56.78-2.42-29.28-.23-58.58.4-87.85,1.41-28,1-56,2.29-83.88,4.27-11.62.82-23.24,1.74-34.84,2.95-9.33,1-18.69,1.73-28,3a.93.93,0,0,0,.51.64c.78.61,1.57,1.19,2.39,1.76C5.84,39.35,7.59,41,8.49,40.85Z" transform="translate(0 0.15)"/><path class="cls-3" d="M9.32,46.41c19.22-3,38.71-4.32,58.11-5.63,29.4-2,58.85-3.29,88.3-4.23,27.65-.88,55.33-1.43,83-1.27,20.32.12,40.8.28,61,2.89a2,2,0,0,0-.7-1q-1.58-1.66-3.22-3.29t-3.3-3.2a2,2,0,0,0-1-.7c-18.9-1.39-37.84-2-56.79-2.12-29.28-.17-58.57.51-87.83,1.57-28,1-55.94,2.42-83.85,4.51-11.62.87-23.23,1.85-34.81,3.14C18.86,38.09,9.52,38.8.23,40a1.82,1.82,0,0,0,.82.87c1.16.88,2.35,1.75,3.55,2.59S7,45.13,8.23,45.93A1.78,1.78,0,0,0,9.32,46.41Z" transform="translate(0 0.15)"/><path class="cls-3" d="M9,39.54c19.22-2.85,38.68-4.28,58.06-5.6,27.58-1.89,55.21-3.17,82.85-4.12,27.91-1,55.84-1.57,83.77-1.5,21.82.05,43.77.21,65.46,2.8.68.08-1.21-1.79-1.38-2-.71-.71-2-2.55-3.1-2.65-14.5-1.37-29-2-43.6-2.32-28.23-.57-56.5-.14-84.72.66-28.56.82-57.11,2-85.63,3.76-13.85.85-27.69,1.84-41.51,3.1-12,1.1-24.08,2.14-36.06,3.73a.86.86,0,0,0,.48.62q1.11.87,2.28,1.68C6.46,38.13,8.11,39.67,9,39.54Z" transform="translate(0 0.15)"/><g id="Aiguiille_avec_fil" data-name="Aiguiille avec fil"><path id="SVGID-2" data-name="SVGID" class="cls-1" d="M248,4.24a.34.34,0,0,1-.44.19A.34.34,0,0,1,247.4,4l.78-2.43h0a.1.1,0,0,1,0-.05.53.53,0,0,1,.44-.19.54.54,0,0,1,.5.56l0,.05-1.07,2.3a0,0,0,0,1,0,0m2.15-2.14A1.55,1.55,0,1,0,247.32,1l-.06.15-7.1,21.59a.27.27,0,0,0,.15.34.28.28,0,0,0,.35-.15l9.48-20.66.06-.15" transform="translate(0 0.15)"/><g class="cls-4"><rect class="cls-1" x="237.54" y="7.45" width="17.85" height="2.24" transform="translate(148.64 235.1) rotate(-68.62)"/></g><path class="cls-5" d="M248.11,2.49c2.15,0,4.46-.46,6.61.77A1.61,1.61,0,0,1,254.86,6a1.08,1.08,0,0,1-.3.11,10.6,10.6,0,0,0-3.22,1.19c-.57.57.43.87,1.07,1.16a1.19,1.19,0,0,0,.36.09c2.39.26,4.78-.33,7.17-.33a3.69,3.69,0,0,1,1.48.38,1.07,1.07,0,0,1,.46.41c.34.52.95,1,.37,1.79a1,1,0,0,1-.31.28,6,6,0,0,1-2.92.83c-3.32,0-6.64-.3-9.37,1.44a1.12,1.12,0,0,0-.32.29,1.93,1.93,0,0,0,0,2.45,1.09,1.09,0,0,0,.26.21A10.48,10.48,0,0,0,252,17.3a1.88,1.88,0,0,0,.57.09c6.16.11,12.34.62,18.52,1.15" transform="translate(0 0.15)"/><path class="cls-6" d="M236.83,1.53a38.09,38.09,0,0,1,6.37.32c1.33.17,2.57.41,3.7.67" transform="translate(0 0.15)"/></g><path class="cls-7" d="M10.19,19.19,17.92,37l-5.39.76-1.65-3.86-5.57.78-.62,4.18L2.6,39.1,5.48,19.85ZM5.58,32.7l4.54-.63L6.79,24.18Z" transform="translate(0 0.15)"/><path class="cls-7" d="M30.75,28.1l2.36.35c.09.47.15.88.18,1.22a5.36,5.36,0,0,1-1.5,4.53,8,8,0,0,1-5.08,2.17q-8.25.87-9.23-8.41a10.49,10.49,0,0,1,1.65-7.4,8,8,0,0,1,6-3.4q6-.64,6.64,5.15l-2.2,1.31c0-.55-.06-1-.09-1.27q-.43-4.11-3.73-3.76-3.48.38-2.56,9.08.79,7.5,4.68,7.08a3.36,3.36,0,0,0,2.54-1.56,4.86,4.86,0,0,0,.73-3.3A15.08,15.08,0,0,0,30.75,28.1Z" transform="translate(0 0.15)"/><path class="cls-7" d="M47.51,26.61l2.36.4c.08.47.13.88.16,1.22a5.35,5.35,0,0,1-1.59,4.5,8,8,0,0,1-5.12,2.08q-8.26.7-9.07-8.59a10.52,10.52,0,0,1,1.8-7.37,8,8,0,0,1,6-3.28q6-.52,6.53,5.28L46.4,22.11c0-.55,0-1-.07-1.27-.24-2.74-1.45-4-3.65-3.83S39.44,20.22,40,26q.64,7.52,4.54,7.17a3.31,3.31,0,0,0,2.56-1.51,4.83,4.83,0,0,0,.8-3.29A14.17,14.17,0,0,0,47.51,26.61Z" transform="translate(0 0.15)"/><path class="cls-7" d="M63.16,14.23l.14,1.86-6.67.5.42,5.63,5.61-.42.13,1.87-5.6.42.55,7.37,7.8-.57.13,1.86-13.19,1L51.1,15.12Z" transform="translate(0 0.15)"/><path class="cls-7" d="M78.63,18.44l-2.48.63a6.76,6.76,0,0,0,.08-1.27q-.21-3.24-4.16-3c-2.07.14-3.06.95-3,2.44.07,1.12,1.29,2,3.67,2.65q6.85,1.88,7.15,6.39a5.31,5.31,0,0,1-1.6,4.37,7.51,7.51,0,0,1-4.9,1.93q-6.93.45-7.27-4.91a9.64,9.64,0,0,1,0-1.08l2.56-.75a8.93,8.93,0,0,0-.16,2.08q.22,3.46,4.2,3.21,3.18-.21,3-2.7c-.08-1.24-1.42-2.24-4-3q-5.62-1.65-5.92-6.09a5.07,5.07,0,0,1,1.57-4.17,7.3,7.3,0,0,1,4.73-1.84Q78.27,12.92,78.63,18.44Z" transform="translate(0 0.15)"/></g></g></svg>