<svg xmlns="http://www.w3.org/2000/svg" xmlns:xlink="http://www.w3.org/1999/xlink" viewBox="0 0 300.64 48"><defs><style>.cls-1{fill:#dea534;}.cls-2,.cls-3{fill:#d8ab3d;}.cls-3{opacity:0.18;}.cls-4{clip-path:url(#clip-path);}.cls-5,.cls-6{fill:none;stroke:#006837;stroke-miterlimit:10;stroke-width:0.5px;}.cls-5{stroke-linecap:square;}.cls-7{fill:#006837;}</style><clipPath id="clip-path" transform="translate(0 0.15)"><path id="SVGID" class="cls-1" d="M248.06,4.24a.34.34,0,0,1-.63-.25l.78-2.43h0l0-.05a.53.53,0,0,1,.94.37s0,0,0,.05l-1.07,2.3a0,0,0,0,1,0,0m2.15-2.14A1.55,1.55,0,1,0,247.34,1l-.06.15-7.09,21.59a.26.26,0,0,0,.15.34.27.27,0,0,0,.34-.15l9.48-20.66a.94.94,0,0,0,.06-.15"/></clipPath></defs><g id="Calque_2" data-name="Calque 2"><g id="Title2"><path class="cls-2" d="M2.9,39.17c52.62-9.12,242.19-16.09,291.54-9.69" transform="translate(0 0.15)"/><path class="cls-3" d="M10.25,43.71c19.2-3,38.67-4.35,58.05-5.67,29.39-2,58.83-3.32,88.27-4.27,27.65-.9,55.32-1.45,83-1.3,20.31.11,40.77.3,60.95,2.81a1.57,1.57,0,0,0-.59-.91c-.92-1-1.86-1.95-2.82-2.89s-1.92-1.88-2.91-2.79a1.61,1.61,0,0,0-.93-.59c-18.91-1.52-37.87-2.14-56.84-2.26-29.3-.2-58.61.45-87.88,1.49-28,1-56,2.37-83.91,4.41-11.64.85-23.27,1.81-34.86,3.07-9.33,1-18.68,1.72-28,2.93a1.64,1.64,0,0,0,.75.81c1.09.83,2.19,1.63,3.32,2.41s2.24,1.57,3.38,2.31A1.63,1.63,0,0,0,10.25,43.71Z" transform="translate(0 0.15)"/><path class="cls-3" d="M10.21,47.85c19.25-3,38.75-4.31,58.17-5.6,29.4-2,58.85-3.27,88.3-4.2,27.66-.87,55.33-1.41,83-1.24,20.3.12,40.79.25,60.95,2.93a2.57,2.57,0,0,0-.83-1.13c-1.22-1.24-2.45-2.46-3.71-3.66s-2.51-2.41-3.79-3.58a2.54,2.54,0,0,0-1.16-.79c-18.85-1.49-37.74-2.08-56.65-2.19-29.28-.18-58.56.51-87.82,1.58-28,1-55.95,2.45-83.87,4.56C51.19,35.41,39.57,36.4,28,37.71c-4.7.54-9.4,1.16-14.13,1.48S4.63,40.06,0,40.64a2.24,2.24,0,0,0,.93,1c1.31,1,2.64,1.95,4,2.9S7.64,46.37,9,47.28A2.35,2.35,0,0,0,10.21,47.85Z" transform="translate(0 0.15)"/><path class="cls-3" d="M8.94,42.08c19.22-2.9,38.68-4.31,58.06-5.64,29.39-2,58.84-3.34,88.29-4.3,27.65-.89,55.32-1.45,83-1.3,20.32.11,40.78.33,61,2.79a1.14,1.14,0,0,0-.46-.78c-.74-.8-1.5-1.59-2.29-2.35-.59-.59-2.13-2.63-3.16-2.72-18.89-1.6-37.84-2.2-56.8-2.34-29.28-.22-58.58.43-87.85,1.45-28,1-56,2.33-83.88,4.33-11.63.84-23.25,1.77-34.84,3-9.34,1-18.69,1.72-28,3a1.18,1.18,0,0,0,.59.71c.89.68,1.79,1.34,2.71,2C5.91,40.3,8,42.22,8.94,42.08Z" transform="translate(0 0.15)"/><path class="cls-3" d="M8.32,44.23C27.54,41.31,47,39.92,66.4,38.6c29.4-2,58.85-3.33,88.3-4.28,27.66-.89,55.33-1.44,83-1.29,20.33.12,40.8.31,61,2.83a1.44,1.44,0,0,0-.54-.87c-.86-.91-1.73-1.81-2.62-2.68-.63-.63-2.46-3.05-3.58-3.14-18.88-1.5-37.81-2.1-56.75-2.22-29.28-.19-58.56.47-87.82,1.52-28,1-55.92,2.37-83.83,4.42-11.62.85-23.23,1.81-34.8,3.07-9.32,1-18.66,1.74-27.95,3a1.4,1.4,0,0,0,.65.75c1,.73,1.94,1.45,2.94,2.14C5,42.26,7.3,44.38,8.32,44.23Z" transform="translate(0 0.15)"/><path class="cls-3" d="M8.52,40.85C27.74,38,47.2,36.56,66.58,35.24c29.4-2,58.85-3.35,88.3-4.3,27.65-.9,55.32-1.46,83-1.3,20.33.11,40.78.34,61,2.79a.88.88,0,0,0-.37-.7c-.64-.7-1.3-1.39-2-2.05s-1.83-2.24-2.77-2.32c-18.88-1.69-37.83-2.28-56.78-2.42-29.29-.23-58.59.4-87.85,1.41-28,1-56,2.29-83.88,4.27C53.6,31.44,42,32.36,30.39,33.57c-9.34,1-18.7,1.73-28,3a1,1,0,0,0,.51.64c.78.61,1.58,1.19,2.39,1.76C5.86,39.35,7.61,41,8.52,40.85Z" transform="translate(0 0.15)"/><path class="cls-3" d="M9.34,46.41c19.23-3,38.71-4.32,58.11-5.63,29.4-2,58.85-3.29,88.3-4.23,27.66-.88,55.33-1.43,83-1.27,20.32.12,40.81.28,61,2.89a2,2,0,0,0-.7-1c-1.05-1.11-2.13-2.21-3.22-3.29s-2.18-2.16-3.31-3.2a2,2,0,0,0-1-.7c-18.9-1.39-37.83-2-56.78-2.12-29.28-.17-58.57.51-87.83,1.57-28,1-55.94,2.42-83.85,4.51-11.62.87-23.24,1.85-34.82,3.14C18.89,38.09,9.55,38.8.25,40a1.87,1.87,0,0,0,.82.87c1.17.88,2.35,1.75,3.56,2.59S7,45.13,8.25,45.93A1.78,1.78,0,0,0,9.34,46.41Z" transform="translate(0 0.15)"/><path class="cls-3" d="M9,39.54c19.23-2.85,38.68-4.28,58.06-5.6,27.59-1.89,55.22-3.17,82.85-4.12,27.91-1,55.85-1.57,83.78-1.5,21.81.05,43.76.21,65.45,2.8.69.08-1.21-1.79-1.38-2-.71-.71-2-2.55-3.1-2.65-14.49-1.37-29-2-43.6-2.32-28.23-.57-56.49-.14-84.72.66-28.55.82-57.11,2-85.62,3.76-13.85.85-27.69,1.84-41.51,3.1-12,1.1-24.09,2.14-36.07,3.73a.91.91,0,0,0,.48.62q1.13.87,2.28,1.68C6.49,38.13,8.13,39.67,9,39.54Z" transform="translate(0 0.15)"/><g id="Aiguiille_avec_fil" data-name="Aiguiille avec fil"><path id="SVGID-2" data-name="SVGID" class="cls-1" d="M248.06,4.24a.34.34,0,0,1-.63-.25l.78-2.43h0l0-.05a.53.53,0,0,1,.94.37s0,0,0,.05l-1.07,2.3a0,0,0,0,1,0,0m2.15-2.14A1.55,1.55,0,1,0,247.34,1l-.06.15-7.09,21.59a.26.26,0,0,0,.15.34.27.27,0,0,0,.34-.15l9.48-20.66a.94.94,0,0,0,.06-.15" transform="translate(0 0.15)"/><g class="cls-4"><rect class="cls-1" x="237.56" y="7.45" width="17.85" height="2.24" transform="translate(148.66 235.13) rotate(-68.62)"/></g><path class="cls-5" d="M248.14,2.49c2.14,0,4.45-.46,6.6.77A1.6,1.6,0,0,1,254.88,6a1,1,0,0,1-.29.11,10.66,10.66,0,0,0-3.23,1.19c-.56.57.44.87,1.08,1.16a1.06,1.06,0,0,0,.35.09c2.39.26,4.78-.33,7.18-.33a3.73,3.73,0,0,1,1.48.38,1.13,1.13,0,0,1,.46.41c.33.52.94,1,.37,1.79A1.18,1.18,0,0,1,262,11a6,6,0,0,1-2.93.83c-3.31,0-6.63-.3-9.37,1.44a1.47,1.47,0,0,0-.32.29,1.93,1.93,0,0,0,.06,2.45,1.27,1.27,0,0,0,.25.21A10.55,10.55,0,0,0,252,17.3a1.79,1.79,0,0,0,.57.09c6.16.11,12.34.62,18.52,1.15" transform="translate(0 0.15)"/><path class="cls-6" d="M236.86,1.53a38.13,38.13,0,0,1,6.37.32c1.33.17,2.56.41,3.69.67" transform="translate(0 0.15)"/></g><path class="cls-7" d="M14.78,18.55,15,20.4,10.51,21l2.34,16.63-5.68.8L4.82,21.84l-4.56.65L0,20.63Z" transform="translate(0 0.15)"/><path class="cls-7" d="M25.08,17.46l7.17,18L26.84,36l-1.54-3.9-5.58.6L19,36.89l-2.11.23L20.35,18Zm-5,13.36,4.55-.49-3.07-8Z" transform="translate(0 0.15)"/><path class="cls-7" d="M33.59,35.35,32,16.76l8-.71a8.52,8.52,0,0,1,5.1.88,4.12,4.12,0,0,1,2.18,3.36q.3,3.38-3.62,4.75a5.49,5.49,0,0,1,2.81,1.44A8.3,8.3,0,0,1,47.56,30c.35,2.07.82,3.42,1.41,4l-5.86.52a8.29,8.29,0,0,1-.84-3.18l-.12-1.1L42,28.84c-.19-2.14-1.15-3.14-2.87-3l-.93.08L39,34.87Zm4.48-11,1.09-.1c2-.18,3-1.33,2.78-3.47s-1.31-3.11-3.35-2.93L37.5,18Z" transform="translate(0 0.15)"/><path class="cls-7" d="M55.16,14.82,56.6,33.43l-5.4.41-1.43-18.6Z" transform="translate(0 0.15)"/><path class="cls-7" d="M70.63,13.72l.13,1.87L64,16.06l.44,6.2,5.72-.4.13,1.87-5.72.4.6,8.68-5.4.37-1.3-18.61Z" transform="translate(0 0.15)"/><path class="cls-7" d="M85.05,18.05l-2.48.62a5.92,5.92,0,0,0,.08-1.26q-.2-3.25-4.14-3-3.12.19-3,2.43.1,1.68,3.65,2.67c4.58,1.26,7,3.39,7.14,6.4a5.31,5.31,0,0,1-1.62,4.37,7.46,7.46,0,0,1-4.91,1.92q-6.92.42-7.25-4.94,0-.43,0-1.08l2.58-.73A8.43,8.43,0,0,0,75,27.51c.15,2.32,1.54,3.39,4.19,3.22q3.18-.19,3-2.69-.1-1.86-4-3-5.62-1.67-5.9-6.11a5,5,0,0,1,1.59-4.16,7.25,7.25,0,0,1,4.73-1.83Q84.71,12.52,85.05,18.05Z" transform="translate(0 0.15)"/></g></g></svg>