<svg xmlns="http://www.w3.org/2000/svg" xmlns:xlink="http://www.w3.org/1999/xlink" viewBox="0 0 300.61 48"><defs><style>.cls-1{fill:#dea534;}.cls-2,.cls-3{fill:#d8ab3d;}.cls-3{opacity:0.18;}.cls-4{clip-path:url(#clip-path);}.cls-5,.cls-6{fill:none;stroke:#006837;stroke-miterlimit:10;stroke-width:0.5px;}.cls-5{stroke-linecap:square;}.cls-7{fill:#006837;}</style><clipPath id="clip-path" transform="translate(0 0.15)"><path id="SVGID" class="cls-1" d="M248,4.24a.34.34,0,0,1-.44.19A.34.34,0,0,1,247.4,4l.78-2.43h0a.1.1,0,0,1,0-.05.53.53,0,0,1,.44-.19.54.54,0,0,1,.5.56l0,.05-1.07,2.3a0,0,0,0,1,0,0m2.15-2.14A1.55,1.55,0,1,0,247.32,1l-.06.15-7.1,21.59a.27.27,0,0,0,.15.34.28.28,0,0,0,.35-.15l9.48-20.66.06-.15"/></clipPath></defs><g id="Calque_2" data-name="Calque 2"><g id="Title2"><path class="cls-2" d="M2.88,39.17c52.62-9.12,242.19-16.09,291.54-9.69" transform="translate(0 0.15)"/><path class="cls-3" d="M10.22,43.71c19.21-3,38.67-4.35,58.05-5.67,29.39-2,58.83-3.32,88.27-4.27,27.65-.9,55.32-1.45,83-1.3,20.31.11,40.77.3,61,2.81a1.58,1.58,0,0,0-.6-.91c-.92-1-1.86-1.95-2.82-2.89s-1.92-1.88-2.91-2.79a1.56,1.56,0,0,0-.92-.59c-18.92-1.52-37.88-2.14-56.85-2.26-29.29-.2-58.6.45-87.88,1.49-28,1-56,2.37-83.91,4.41-11.63.85-23.26,1.81-34.86,3.07-9.33,1-18.68,1.72-28,2.93a1.61,1.61,0,0,0,.76.81c1.08.83,2.19,1.63,3.31,2.41s2.24,1.57,3.39,2.31A1.62,1.62,0,0,0,10.22,43.71Z" transform="translate(0 0.15)"/><path class="cls-3" d="M10.19,47.85c19.25-3,38.75-4.31,58.17-5.6,29.4-2,58.84-3.27,88.29-4.2,27.66-.87,55.34-1.41,83-1.24,20.31.12,40.79.25,61,2.93a2.49,2.49,0,0,0-.83-1.13Q298,36.75,296.07,35t-3.79-3.58a2.49,2.49,0,0,0-1.16-.79c-18.84-1.49-37.74-2.08-56.64-2.19-29.28-.18-58.57.51-87.83,1.58-28,1-55.95,2.45-83.86,4.56C51.16,35.41,39.54,36.4,28,37.71c-4.71.54-9.41,1.16-14.14,1.48S4.6,40.06,0,40.64a2.3,2.3,0,0,0,.93,1c1.32,1,2.65,1.95,4,2.9S7.62,46.37,9,47.28A2.31,2.31,0,0,0,10.19,47.85Z" transform="translate(0 0.15)"/><path class="cls-3" d="M8.92,42.08C28.13,39.18,47.6,37.77,67,36.44c29.4-2,58.85-3.34,88.29-4.3,27.66-.89,55.33-1.45,83-1.3,20.33.11,40.78.33,61,2.79a1.1,1.1,0,0,0-.45-.78c-.74-.8-1.51-1.59-2.29-2.35-.6-.59-2.14-2.63-3.17-2.72-18.89-1.6-37.84-2.2-56.79-2.34-29.29-.22-58.59.43-87.86,1.45-28,1-55.95,2.33-83.88,4.33-11.62.84-23.25,1.77-34.84,3-9.33,1-18.68,1.72-28,3a1.2,1.2,0,0,0,.6.71c.88.68,1.79,1.34,2.71,2C5.88,40.3,7.94,42.22,8.92,42.08Z" transform="translate(0 0.15)"/><path class="cls-3" d="M8.3,44.23C27.52,41.31,47,39.92,66.38,38.6c29.4-2,58.85-3.33,88.3-4.28,27.65-.89,55.33-1.44,83-1.29,20.33.12,40.8.31,61,2.83a1.36,1.36,0,0,0-.54-.87c-.85-.91-1.72-1.81-2.62-2.68-.62-.63-2.46-3.05-3.57-3.14-18.89-1.5-37.82-2.1-56.75-2.22-29.28-.19-58.57.47-87.82,1.52-28,1-55.93,2.37-83.84,4.42-11.61.85-23.22,1.81-34.8,3.07-9.32,1-18.65,1.74-27.94,3a1.36,1.36,0,0,0,.65.75c1,.73,1.94,1.45,2.93,2.14C5,42.26,7.28,44.38,8.3,44.23Z" transform="translate(0 0.15)"/><path class="cls-3" d="M8.49,40.85C27.71,38,47.17,36.56,66.55,35.24c29.4-2,58.85-3.35,88.3-4.3,27.65-.9,55.33-1.46,83-1.3,20.34.11,40.79.34,61,2.79a.89.89,0,0,0-.38-.7c-.64-.7-1.3-1.39-2-2.05s-1.82-2.24-2.77-2.32c-18.88-1.69-37.83-2.28-56.78-2.42-29.28-.23-58.58.4-87.85,1.41-28,1-56,2.29-83.88,4.27-11.62.82-23.24,1.74-34.84,2.95-9.33,1-18.69,1.73-28,3a.93.93,0,0,0,.51.64c.78.61,1.57,1.19,2.39,1.76C5.84,39.35,7.59,41,8.49,40.85Z" transform="translate(0 0.15)"/><path class="cls-3" d="M9.32,46.41c19.22-3,38.71-4.32,58.11-5.63,29.4-2,58.85-3.29,88.3-4.23,27.65-.88,55.33-1.43,83-1.27,20.32.12,40.8.28,61,2.89a2,2,0,0,0-.7-1q-1.58-1.66-3.22-3.29t-3.3-3.2a2,2,0,0,0-1-.7c-18.9-1.39-37.84-2-56.79-2.12-29.28-.17-58.57.51-87.83,1.57-28,1-55.94,2.42-83.85,4.51-11.62.87-23.23,1.85-34.81,3.14C18.86,38.09,9.52,38.8.23,40a1.82,1.82,0,0,0,.82.87c1.16.88,2.35,1.75,3.55,2.59S7,45.13,8.23,45.93A1.78,1.78,0,0,0,9.32,46.41Z" transform="translate(0 0.15)"/><path class="cls-3" d="M9,39.54c19.22-2.85,38.68-4.28,58.06-5.6,27.58-1.89,55.21-3.17,82.85-4.12,27.91-1,55.84-1.57,83.77-1.5,21.82.05,43.77.21,65.46,2.8.68.08-1.21-1.79-1.38-2-.71-.71-2-2.55-3.1-2.65-14.5-1.37-29-2-43.6-2.32-28.23-.57-56.5-.14-84.72.66-28.56.82-57.11,2-85.63,3.76-13.85.85-27.69,1.84-41.51,3.1-12,1.1-24.08,2.14-36.06,3.73a.86.86,0,0,0,.48.62q1.11.87,2.28,1.68C6.46,38.13,8.11,39.67,9,39.54Z" transform="translate(0 0.15)"/><g id="Aiguiille_avec_fil" data-name="Aiguiille avec fil"><path id="SVGID-2" data-name="SVGID" class="cls-1" d="M248,4.24a.34.34,0,0,1-.44.19A.34.34,0,0,1,247.4,4l.78-2.43h0a.1.1,0,0,1,0-.05.53.53,0,0,1,.44-.19.54.54,0,0,1,.5.56l0,.05-1.07,2.3a0,0,0,0,1,0,0m2.15-2.14A1.55,1.55,0,1,0,247.32,1l-.06.15-7.1,21.59a.27.27,0,0,0,.15.34.28.28,0,0,0,.35-.15l9.48-20.66.06-.15" transform="translate(0 0.15)"/><g class="cls-4"><rect class="cls-1" x="237.54" y="7.45" width="17.85" height="2.24" transform="translate(148.64 235.1) rotate(-68.62)"/></g><path class="cls-5" d="M248.11,2.49c2.15,0,4.46-.46,6.61.77A1.61,1.61,0,0,1,254.86,6a1.08,1.08,0,0,1-.3.11,10.6,10.6,0,0,0-3.22,1.19c-.57.57.43.87,1.07,1.16a1.19,1.19,0,0,0,.36.09c2.39.26,4.78-.33,7.17-.33a3.69,3.69,0,0,1,1.48.38,1.07,1.07,0,0,1,.46.41c.34.52.95,1,.37,1.79a1,1,0,0,1-.31.28,6,6,0,0,1-2.92.83c-3.32,0-6.64-.3-9.37,1.44a1.12,1.12,0,0,0-.32.29,1.93,1.93,0,0,0,0,2.45,1.09,1.09,0,0,0,.26.21A10.48,10.48,0,0,0,252,17.3a1.88,1.88,0,0,0,.57.09c6.16.11,12.34.62,18.52,1.15" transform="translate(0 0.15)"/><path class="cls-6" d="M236.83,1.53a38.09,38.09,0,0,1,6.37.32c1.33.17,2.57.41,3.7.67" transform="translate(0 0.15)"/></g><path class="cls-7" d="M4.37,38.83,1.85,20.33l8-1.08a8.5,8.5,0,0,1,5.14.64,4.09,4.09,0,0,1,2.33,3.25c.31,2.24-.82,3.87-3.39,4.91a5.43,5.43,0,0,1,2.88,1.31,8.39,8.39,0,0,1,1.3,3.41,8.59,8.59,0,0,0,1.6,4l-5.82.79a8.24,8.24,0,0,1-1-3.14l-.17-1.09-.22-1.38q-.43-3.19-3-2.85l-.92.13L9.73,38.1ZM8.31,27.68l1.09-.15q3-.41,2.61-3.6T8.53,21.16l-1.08.15Z" transform="translate(0 0.15)"/><path class="cls-7" d="M31.88,16.76l.19,1.87-6.65.68L26,24.93l5.59-.58.19,1.86-5.59.58L27,34.15l7.78-.8.19,1.86L21.76,36.57,19.84,18Z" transform="translate(0 0.15)"/><path class="cls-7" d="M43.37,15.76,50.15,33.9l-5.42.47-1.46-3.94-5.59.49-.84,4.13-2.11.18,3.9-19.06ZM38.05,29l4.56-.4-2.9-8Z" transform="translate(0 0.15)"/><path class="cls-7" d="M55.58,14.79l1.25,16.74L64.48,31l.14,1.87-13.05,1L50.18,15.19Z" transform="translate(0 0.15)"/><path class="cls-7" d="M69.88,13.78,71.15,32.4l-5.4.36L64.48,14.14Z" transform="translate(0 0.15)"/><path class="cls-7" d="M85.67,18l-2.48.62a6,6,0,0,0,.09-1.26q-.21-3.26-4.15-3-3.1.2-3,2.43.11,1.68,3.66,2.67,6.86,1.89,7.13,6.41a5.29,5.29,0,0,1-1.62,4.36,7.46,7.46,0,0,1-4.91,1.92q-6.92.42-7.25-4.94c0-.29,0-.65,0-1.08l2.57-.74a8.54,8.54,0,0,0-.18,2.08c.15,2.31,1.54,3.39,4.19,3.22q3.18-.2,3-2.69c-.07-1.24-1.41-2.25-4-3q-5.62-1.68-5.9-6.11a5,5,0,0,1,1.58-4.16,7.27,7.27,0,0,1,4.73-1.83Q85.34,12.48,85.67,18Z" transform="translate(0 0.15)"/><path class="cls-7" d="M97.1,12.15l6.21,18.35-5.44.29-1.32-4-5.61.31-1,4.11-2.12.11,4.5-18.93ZM91.37,25.22,95.94,25l-2.65-8.14Z" transform="translate(0 0.15)"/><path class="cls-7" d="M116.9,11.15,117,13l-4.58.22L113.24,30l-5.73.28-.82-16.76-4.61.22L102,11.88Z" transform="translate(0 0.15)"/><path class="cls-7" d="M123.79,10.85l.83,18.64-5.41.24-.83-18.64Z" transform="translate(0 0.15)"/><path class="cls-7" d="M134.71,10.07q8.13-.33,8.52,9.32t-7.91,10q-8.28.33-8.68-9.53Q126.27,10.4,134.71,10.07Zm-.09,1.49a2.09,2.09,0,0,0-2,1.77,25.29,25.29,0,0,0-.28,6.49,25,25,0,0,0,.8,6.45,2.07,2.07,0,0,0,2.13,1.6,2.09,2.09,0,0,0,2-1.77,25.29,25.29,0,0,0,.28-6.49,25.15,25.15,0,0,0-.8-6.44A2.09,2.09,0,0,0,134.62,11.56Z" transform="translate(0 0.15)"/><path class="cls-7" d="M159,9.53l.63,18.65-4.14.14-8.19-11.55.4,11.81-1.82.06L145.24,10l3.43-.12,8.92,12.47-.43-12.75Z" transform="translate(0 0.15)"/><path class="cls-7" d="M174.51,14.31l-2.5.54a6.55,6.55,0,0,0,.13-1.27q-.09-3.24-4-3.14c-2.08.06-3.1.84-3.06,2.33q0,1.68,3.57,2.79,6.78,2.11,6.91,6.64a5.3,5.3,0,0,1-1.77,4.31,7.44,7.44,0,0,1-5,1.75q-6.93.19-7.08-5.18c0-.29,0-.65,0-1.08l2.6-.65a8.9,8.9,0,0,0-.25,2.07q.1,3.48,4.08,3.36c2.12-.06,3.16-.92,3.11-2.59,0-1.23-1.33-2.29-3.9-3.16-3.71-1.24-5.61-3.35-5.69-6.31a5,5,0,0,1,1.73-4.1A7.23,7.23,0,0,1,168.21,9C172.3,8.83,174.41,10.62,174.51,14.31Z" transform="translate(0 0.15)"/></g></g></svg>