<svg xmlns="http://www.w3.org/2000/svg" xmlns:xlink="http://www.w3.org/1999/xlink" viewBox="0 0 300.64 79.84"><defs><style>.cls-1{fill:#dea534;}.cls-2,.cls-3{fill:#d8ab3d;}.cls-3{opacity:0.18;}.cls-4{clip-path:url(#clip-path);}.cls-5,.cls-6{fill:none;stroke:#006837;stroke-miterlimit:10;}.cls-5{stroke-linecap:square;}.cls-7{fill:#006837;}</style><clipPath id="clip-path"><path id="SVGID" class="cls-1" d="M238.66,10.61a.73.73,0,0,1-1.35-.53L239,4.88h0l.08-.1a1.11,1.11,0,0,1,.93-.41,1.14,1.14,0,0,1,1.07,1.2.54.54,0,0,1-.05.11l-2.28,4.92a.09.09,0,0,1,0,.05m4.6-4.57a3.32,3.32,0,0,0-6.18-2.42L237,4,221.84,50.13a.57.57,0,0,0,.32.73.58.58,0,0,0,.74-.32L243.16,6.38a2,2,0,0,0,.12-.31"/></clipPath></defs><title>titleTarifs</title><g id="Calque_2" data-name="Calque 2"><g id="Title2"><path class="cls-2" d="M2.9,71.16C55.52,62,245.09,55.07,294.44,61.47"/><path class="cls-3" d="M10.25,75.7c19.2-3,38.67-4.35,58.05-5.66,29.39-2,58.83-3.33,88.27-4.28,27.65-.89,55.32-1.45,83-1.3,20.31.11,40.77.3,60.95,2.82a1.56,1.56,0,0,0-.59-.92c-.92-1-1.86-1.94-2.82-2.89s-1.92-1.88-2.91-2.79a1.61,1.61,0,0,0-.93-.59c-18.91-1.52-37.87-2.13-56.84-2.26-29.3-.2-58.61.46-87.88,1.5-28,1-56,2.36-83.91,4.4C53,64.59,41.35,65.54,29.76,66.8c-9.33,1-18.68,1.72-28,2.93a1.66,1.66,0,0,0,.75.82c1.09.82,2.19,1.63,3.32,2.41s2.24,1.56,3.38,2.31A1.67,1.67,0,0,0,10.25,75.7Z"/><path class="cls-3" d="M10.21,79.84c19.25-3,38.75-4.31,58.17-5.6,29.4-1.95,58.85-3.26,88.3-4.19,27.66-.88,55.33-1.42,83-1.25,20.3.12,40.79.26,60.95,2.93a2.57,2.57,0,0,0-.83-1.13c-1.22-1.24-2.45-2.46-3.71-3.66s-2.51-2.41-3.79-3.58a2.54,2.54,0,0,0-1.16-.79c-18.85-1.49-37.74-2.08-56.65-2.19-29.28-.18-58.56.51-87.82,1.59-28,1-55.95,2.44-83.87,4.56C51.19,67.41,39.57,68.4,28,69.71c-4.7.53-9.4,1.15-14.13,1.48S4.63,72.05,0,72.63a2.19,2.19,0,0,0,.93,1q2,1.48,4,2.9c1.34,1,2.69,1.89,4.06,2.79A2.2,2.2,0,0,0,10.21,79.84Z"/><path class="cls-3" d="M8.94,74.07c19.22-2.9,38.68-4.31,58.06-5.63,29.39-2,58.84-3.35,88.29-4.3,27.65-.9,55.32-1.46,83-1.31,20.32.12,40.78.33,61,2.8a1.1,1.1,0,0,0-.46-.78c-.74-.81-1.5-1.59-2.29-2.36-.59-.59-2.13-2.63-3.16-2.71-18.89-1.61-37.84-2.21-56.8-2.35-29.28-.21-58.58.43-87.85,1.45-28,1-56,2.33-83.88,4.33-11.63.84-23.25,1.78-34.84,3-9.34,1-18.69,1.73-28,3a1.15,1.15,0,0,0,.59.71c.89.68,1.79,1.35,2.71,2C5.91,72.29,8,74.21,8.94,74.07Z"/><path class="cls-3" d="M8.32,76.22C27.54,73.3,47,71.91,66.4,70.59c29.4-2,58.85-3.33,88.3-4.28,27.66-.89,55.33-1.44,83-1.29,20.33.12,40.8.31,61,2.83a1.42,1.42,0,0,0-.54-.86c-.86-.92-1.73-1.82-2.62-2.69-.63-.62-2.46-3-3.58-3.14-18.88-1.49-37.81-2.1-56.75-2.22-29.28-.19-58.56.48-87.82,1.52-28,1-55.92,2.37-83.83,4.42-11.62.85-23.23,1.81-34.8,3.07-9.32,1-18.66,1.75-27.95,3a1.33,1.33,0,0,0,.65.75c1,.74,1.94,1.45,2.94,2.14C5,74.26,7.3,76.37,8.32,76.22Z"/><path class="cls-3" d="M8.52,72.84C27.74,70,47.2,68.55,66.58,67.23c29.4-2,58.85-3.35,88.3-4.3,27.65-.9,55.32-1.45,83-1.3,20.33.11,40.78.34,61,2.79a.9.9,0,0,0-.37-.7c-.64-.7-1.3-1.38-2-2s-1.83-2.24-2.77-2.32c-18.88-1.69-37.83-2.27-56.78-2.42-29.29-.23-58.59.4-87.85,1.41-28,1-56,2.3-83.88,4.27-11.63.82-23.25,1.74-34.84,3-9.34,1-18.7,1.73-28,3a1,1,0,0,0,.51.64c.78.61,1.58,1.2,2.39,1.76C5.86,71.34,7.61,73,8.52,72.84Z"/><path class="cls-3" d="M9.34,78.41c19.23-3,38.71-4.33,58.11-5.63,29.4-2,58.85-3.3,88.3-4.24,27.66-.88,55.33-1.43,83-1.27,20.32.12,40.81.28,61,2.89a2,2,0,0,0-.7-1c-1.05-1.12-2.13-2.22-3.22-3.3s-2.18-2.15-3.31-3.2a2,2,0,0,0-1-.7c-18.9-1.39-37.83-2-56.78-2.12-29.28-.17-58.57.51-87.83,1.58-28,1-55.94,2.41-83.85,4.5C51.4,66.77,39.78,67.75,28.2,69,18.89,70.08,9.55,70.79.25,72a1.85,1.85,0,0,0,.82.86c1.17.89,2.35,1.75,3.56,2.59S7,77.12,8.25,77.92A1.85,1.85,0,0,0,9.34,78.41Z"/><path class="cls-3" d="M9,71.53c19.23-2.85,38.68-4.28,58.06-5.6,27.59-1.88,55.22-3.17,82.85-4.12,27.91-1,55.85-1.57,83.78-1.5,21.81.06,43.76.21,65.45,2.8.69.08-1.21-1.79-1.38-2-.71-.72-2-2.56-3.1-2.66-14.49-1.36-29-2-43.6-2.32-28.23-.56-56.49-.14-84.72.67-28.55.81-57.11,2-85.62,3.75-13.85.86-27.69,1.84-41.51,3.1-12,1.1-24.09,2.15-36.07,3.73a.92.92,0,0,0,.48.63c.75.58,1.51,1.14,2.28,1.67C6.49,70.13,8.13,71.67,9,71.53Z"/><g id="Aiguiille_avec_fil" data-name="Aiguiille avec fil"><path id="SVGID-2" data-name="SVGID" class="cls-1" d="M238.66,10.61a.73.73,0,0,1-1.35-.53L239,4.88h0l.08-.1a1.11,1.11,0,0,1,.93-.41,1.14,1.14,0,0,1,1.07,1.2.54.54,0,0,1-.05.11l-2.28,4.92a.09.09,0,0,1,0,.05m4.6-4.57a3.32,3.32,0,0,0-6.18-2.42L237,4,221.84,50.13a.57.57,0,0,0,.32.73.58.58,0,0,0,.74-.32L243.16,6.38a2,2,0,0,0,.12-.31"/><g class="cls-4"><rect class="cls-1" x="216.22" y="17.47" width="38.16" height="4.8" transform="translate(131.03 231.74) rotate(-68.62)"/></g><path class="cls-5" d="M241,6.88c4.58,0,9.52-1,14.11,1.64,1.89,1.26,2.58,4.33.31,5.74a2.18,2.18,0,0,1-.64.25,22.69,22.69,0,0,0-6.89,2.54c-1.21,1.21.93,1.87,2.3,2.48a2.84,2.84,0,0,0,.76.2c5.11.54,10.22-.71,15.33-.71a8,8,0,0,1,3.17.81,2.57,2.57,0,0,1,1,.87c.71,1.11,2,2.26.79,3.84a2.48,2.48,0,0,1-.66.59,12.78,12.78,0,0,1-6.25,1.77c-7.1,0-14.19-.63-20,3.08a2.68,2.68,0,0,0-.68.62,4.12,4.12,0,0,0,.12,5.23,2.39,2.39,0,0,0,.54.46,22.08,22.08,0,0,0,5,2.23,4.16,4.16,0,0,0,1.22.21c13.16.23,26.37,1.32,39.58,2.44"/><path class="cls-6" d="M216.86.54a85,85,0,0,1,13.61.68c2.84.38,5.48.88,7.9,1.44"/></g><path class="cls-7" d="M14.78,50.54,15,52.39,10.51,53l2.34,16.63-5.68.8L4.82,53.84l-4.56.64L0,52.62Z"/><path class="cls-7" d="M25.08,49.45l7.17,18L26.84,68l-1.54-3.9-5.58.6L19,68.88l-2.11.23L20.35,50Zm-5,13.36,4.55-.49-3.07-8Z"/><path class="cls-7" d="M33.59,67.34,32,48.75l8-.7a8.45,8.45,0,0,1,5.1.87,4.14,4.14,0,0,1,2.18,3.36q.3,3.38-3.62,4.75a5.49,5.49,0,0,1,2.81,1.44,8.3,8.3,0,0,1,1.14,3.47Q48.08,65,49,66l-5.86.51a8.29,8.29,0,0,1-.84-3.18l-.12-1.1L42,60.84c-.19-2.15-1.15-3.14-2.87-3l-.93.08L39,66.86Zm4.48-11,1.09-.09q3.06-.27,2.78-3.47c-.19-2.14-1.31-3.11-3.35-2.94L37.5,50Z"/><path class="cls-7" d="M55.16,46.81,56.6,65.42l-5.4.42L49.77,47.23Z"/><path class="cls-7" d="M70.63,45.71l.13,1.87L64,48.05l.44,6.21,5.72-.4.13,1.86-5.72.4.6,8.68-5.4.38-1.3-18.62Z"/><path class="cls-7" d="M85.05,50.05l-2.48.61a5.89,5.89,0,0,0,.08-1.26q-.2-3.26-4.14-3-3.12.2-3,2.43c.07,1.12,1.29,2,3.65,2.66,4.58,1.26,7,3.4,7.14,6.41a5.29,5.29,0,0,1-1.62,4.36,7.46,7.46,0,0,1-4.91,1.92q-6.92.42-7.25-4.93c0-.3,0-.66,0-1.09l2.58-.73A8.46,8.46,0,0,0,75,59.51c.15,2.31,1.54,3.38,4.19,3.22,2.12-.14,3.13-1,3-2.7q-.1-1.85-4-3-5.62-1.68-5.9-6.12a5,5,0,0,1,1.59-4.16,7.25,7.25,0,0,1,4.73-1.83Q84.71,44.53,85.05,50.05Z"/></g></g></svg>