<svg xmlns="http://www.w3.org/2000/svg" xmlns:xlink="http://www.w3.org/1999/xlink" viewBox="0 0 300.61 79.84"><defs><style>.cls-1{fill:#dea534;}.cls-2,.cls-3{fill:#d8ab3d;}.cls-3{opacity:0.18;}.cls-4{clip-path:url(#clip-path);}.cls-5,.cls-6{fill:none;stroke:#006837;stroke-miterlimit:10;}.cls-5{stroke-linecap:square;}.cls-7{fill:#006837;}</style><clipPath id="clip-path"><path id="SVGID" class="cls-1" d="M238.64,10.61a.74.74,0,0,1-.94.41.72.72,0,0,1-.41-.94L239,4.88h0l.08-.1a1.13,1.13,0,0,1,2,.79.49.49,0,0,1,0,.11L238.7,10.6l0,.05m4.6-4.57a3.32,3.32,0,0,0-6.18-2.42L237,4,221.82,50.13a.56.56,0,0,0,.32.73.57.57,0,0,0,.73-.32L243.14,6.38l.12-.31"/></clipPath></defs><title>titlePrestations</title><g id="Calque_2" data-name="Calque 2"><g id="Title2"><path class="cls-2" d="M2.88,71.16C55.5,62,245.07,55.07,294.42,61.47"/><path class="cls-3" d="M10.22,75.7c19.21-3,38.67-4.35,58.05-5.66,29.39-2,58.83-3.33,88.27-4.28,27.65-.89,55.32-1.45,83-1.3,20.31.11,40.77.3,61,2.82a1.57,1.57,0,0,0-.6-.92c-.92-1-1.86-1.94-2.82-2.89s-1.92-1.88-2.91-2.79a1.56,1.56,0,0,0-.92-.59c-18.92-1.52-37.88-2.13-56.85-2.26-29.29-.2-58.6.46-87.88,1.5-28,1-56,2.36-83.91,4.4C53,64.59,41.33,65.54,29.73,66.8c-9.33,1-18.68,1.72-28,2.93a1.63,1.63,0,0,0,.76.82c1.08.82,2.19,1.63,3.31,2.41s2.24,1.56,3.39,2.31A1.67,1.67,0,0,0,10.22,75.7Z"/><path class="cls-3" d="M10.19,79.84c19.25-3,38.75-4.31,58.17-5.6,29.4-1.95,58.84-3.26,88.29-4.19,27.66-.88,55.34-1.42,83-1.25,20.31.12,40.79.26,61,2.93a2.49,2.49,0,0,0-.83-1.13q-1.81-1.86-3.71-3.66c-1.24-1.21-2.5-2.41-3.79-3.58a2.49,2.49,0,0,0-1.16-.79c-18.84-1.49-37.74-2.08-56.64-2.19-29.28-.18-58.57.51-87.83,1.59-28,1-55.95,2.44-83.86,4.56C51.16,67.41,39.54,68.4,28,69.71c-4.71.53-9.41,1.15-14.14,1.48S4.6,72.05,0,72.63a2.24,2.24,0,0,0,.93,1q2,1.48,4,2.9c1.34,1,2.7,1.89,4.07,2.79A2.17,2.17,0,0,0,10.19,79.84Z"/><path class="cls-3" d="M8.92,74.07C28.13,71.17,47.6,69.76,67,68.44c29.4-2,58.85-3.35,88.29-4.3,27.66-.9,55.33-1.46,83-1.31,20.33.12,40.78.33,61,2.8a1.06,1.06,0,0,0-.45-.78c-.74-.81-1.51-1.59-2.29-2.36-.6-.59-2.14-2.63-3.17-2.71-18.89-1.61-37.84-2.21-56.79-2.35-29.29-.21-58.59.43-87.86,1.45-28,1-55.95,2.33-83.88,4.33-11.62.84-23.25,1.78-34.84,3-9.33,1-18.68,1.73-28,3a1.17,1.17,0,0,0,.6.71c.88.68,1.79,1.35,2.71,2C5.88,72.29,7.94,74.21,8.92,74.07Z"/><path class="cls-3" d="M8.3,76.22C27.52,73.3,47,71.91,66.38,70.59c29.4-2,58.85-3.33,88.3-4.28,27.65-.89,55.33-1.44,83-1.29,20.33.12,40.8.31,61,2.83a1.34,1.34,0,0,0-.54-.86c-.85-.92-1.72-1.82-2.62-2.69-.62-.62-2.46-3-3.57-3.14-18.89-1.49-37.82-2.1-56.75-2.22-29.28-.19-58.57.48-87.82,1.52-28,1-55.93,2.37-83.84,4.42-11.61.85-23.22,1.81-34.8,3.07-9.32,1-18.65,1.75-27.94,3a1.3,1.3,0,0,0,.65.75c1,.74,1.94,1.45,2.93,2.14C5,74.26,7.28,76.37,8.3,76.22Z"/><path class="cls-3" d="M8.49,72.84C27.71,70,47.17,68.55,66.55,67.23c29.4-2,58.85-3.35,88.3-4.3,27.65-.9,55.33-1.45,83-1.3,20.34.11,40.79.34,61,2.79a.91.91,0,0,0-.38-.7c-.64-.7-1.3-1.38-2-2s-1.82-2.24-2.77-2.32c-18.88-1.69-37.83-2.27-56.78-2.42-29.28-.23-58.58.4-87.85,1.41-28,1-56,2.3-83.88,4.27-11.62.82-23.24,1.74-34.84,3-9.33,1-18.69,1.73-28,3a.91.91,0,0,0,.51.64c.78.61,1.57,1.2,2.39,1.76C5.84,71.34,7.59,73,8.49,72.84Z"/><path class="cls-3" d="M9.32,78.41c19.22-3,38.71-4.33,58.11-5.63,29.4-2,58.85-3.3,88.3-4.24,27.65-.88,55.33-1.43,83-1.27,20.32.12,40.8.28,61,2.89a2,2,0,0,0-.7-1q-1.58-1.68-3.22-3.3c-1.08-1.09-2.18-2.15-3.3-3.2a2,2,0,0,0-1-.7c-18.9-1.39-37.84-2-56.79-2.12-29.28-.17-58.57.51-87.83,1.58-28,1-55.94,2.41-83.85,4.5-11.62.87-23.23,1.85-34.81,3.14C18.86,70.08,9.52,70.79.23,72a1.8,1.8,0,0,0,.82.86c1.16.89,2.35,1.75,3.55,2.59S7,77.12,8.23,77.92A1.85,1.85,0,0,0,9.32,78.41Z"/><path class="cls-3" d="M9,71.53c19.22-2.85,38.68-4.28,58.06-5.6,27.58-1.88,55.21-3.17,82.85-4.12,27.91-1,55.84-1.57,83.77-1.5,21.82.06,43.77.21,65.46,2.8.68.08-1.21-1.79-1.38-2-.71-.72-2-2.56-3.1-2.66-14.5-1.36-29-2-43.6-2.32-28.23-.56-56.5-.14-84.72.67-28.56.81-57.11,2-85.63,3.75-13.85.86-27.69,1.84-41.51,3.1-12,1.1-24.08,2.15-36.06,3.73a.87.87,0,0,0,.48.63c.74.58,1.5,1.14,2.28,1.67C6.46,70.13,8.11,71.67,9,71.53Z"/><g id="Aiguiille_avec_fil" data-name="Aiguiille avec fil"><path id="SVGID-2" data-name="SVGID" class="cls-1" d="M238.64,10.61a.74.74,0,0,1-.94.41.72.72,0,0,1-.41-.94L239,4.88h0l.08-.1a1.13,1.13,0,0,1,2,.79.49.49,0,0,1,0,.11L238.7,10.6l0,.05m4.6-4.57a3.32,3.32,0,0,0-6.18-2.42L237,4,221.82,50.13a.56.56,0,0,0,.32.73.57.57,0,0,0,.73-.32L243.14,6.38l.12-.31"/><g class="cls-4"><rect class="cls-1" x="216.2" y="17.47" width="38.16" height="4.8" transform="translate(131.01 231.72) rotate(-68.62)"/></g><path class="cls-5" d="M240.94,6.88c4.59,0,9.52-1,14.12,1.64,1.89,1.26,2.57,4.33.3,5.74a2,2,0,0,1-.64.25,22.53,22.53,0,0,0-6.88,2.54c-1.21,1.21.92,1.87,2.29,2.48a2.84,2.84,0,0,0,.76.2c5.11.54,10.22-.71,15.33-.71a8,8,0,0,1,3.17.81,2.5,2.5,0,0,1,1,.87c.72,1.11,2,2.26.8,3.84a2.52,2.52,0,0,1-.67.59,12.76,12.76,0,0,1-6.25,1.77c-7.09,0-14.18-.63-20,3.08a2.52,2.52,0,0,0-.68.62,4.12,4.12,0,0,0,.11,5.23,2.69,2.69,0,0,0,.55.46,22,22,0,0,0,5,2.23,4.28,4.28,0,0,0,1.22.21c13.17.23,26.38,1.32,39.58,2.44"/><path class="cls-6" d="M216.83.54a85.08,85.08,0,0,1,13.62.68c2.84.38,5.48.88,7.9,1.44"/></g><path class="cls-7" d="M4.37,70.83,1.83,52.34l8-1.1q6.78-.93,7.53,4.5t-6.79,6.53l-1.86.25,1.05,7.57Zm4.09-10,1.21-.16c1.95-.27,2.74-1.7,2.39-4.28-.33-2.42-1.47-3.49-3.43-3.23l-1.2.17Z"/><path class="cls-7" d="M20.81,68.65l-1.9-18.56,8-.82a8.52,8.52,0,0,1,5.11.8,4.11,4.11,0,0,1,2.23,3.33c.23,2.25-1,3.85-3.55,4.8a5.47,5.47,0,0,1,2.83,1.4,8.42,8.42,0,0,1,1.18,3.45c.39,2.07.88,3.41,1.48,4l-5.85.6a8.15,8.15,0,0,1-.89-3.17l-.14-1.1L29.12,62q-.33-3.21-2.91-3l-.93.1.92,8.92Zm4.31-11,1.09-.11q3.06-.31,2.73-3.51t-3.38-2.88l-1.09.11Z"/><path class="cls-7" d="M48.77,47.29l.16,1.87-6.66.56.48,5.63,5.59-.47.16,1.86-5.6.48.63,7.37,7.79-.66.16,1.86L38.29,66.91,36.72,48.32Z"/><path class="cls-7" d="M64.3,51.38,61.82,52a5.82,5.82,0,0,0,.07-1.26c-.16-2.17-1.55-3.15-4.18-3-2.07.15-3.05,1-2.94,2.47.08,1.11,1.31,2,3.69,2.62q6.87,1.8,7.21,6.32A5.33,5.33,0,0,1,64.1,63.6a7.54,7.54,0,0,1-4.89,2q-6.91.51-7.31-4.85c0-.29,0-.65,0-1.08l2.57-.77A7.9,7.9,0,0,0,54.31,61c.17,2.31,1.57,3.37,4.22,3.17q3.18-.23,3-2.73-.14-1.85-4-3-5.64-1.62-6-6.05a5,5,0,0,1,1.54-4.18,7.28,7.28,0,0,1,4.7-1.89Q63.89,45.85,64.3,51.38Z"/><path class="cls-7" d="M80.27,45.09,80.4,47l-4.57.3L76.91,64l-5.73.38L70.09,47.63l-4.59.3-.12-1.87Z"/><path class="cls-7" d="M90.25,44.52l6.26,18.33-5.43.31-1.34-4-5.61.32-.95,4.11-2.12.12,4.44-19ZM84.56,57.61l4.57-.26-2.68-8.13Z"/><path class="cls-7" d="M110.06,43.47l.1,1.87-4.58.23.87,16.77-5.74.3-.86-16.77-4.6.24-.1-1.87Z"/><path class="cls-7" d="M117,43.15l.88,18.64-5.41.25-.87-18.64Z"/><path class="cls-7" d="M127.86,42.34q8.14-.35,8.55,9.3t-7.88,10q-8.3.36-8.71-9.51Q119.42,42.7,127.86,42.34Zm-.08,1.49a2.09,2.09,0,0,0-2,1.78,25.44,25.44,0,0,0-.27,6.49,25.67,25.67,0,0,0,.81,6.44,2.12,2.12,0,0,0,4.14-.17,25.44,25.44,0,0,0,.27-6.49,25.82,25.82,0,0,0-.81-6.44A2.1,2.1,0,0,0,127.78,43.83Z"/><path class="cls-7" d="M152.13,41.74l.67,18.65-4.14.15L140.45,49l.43,11.8-1.82.07-.67-18.65,3.43-.13,9,12.44-.46-12.74Z"/><path class="cls-7" d="M167.68,46.49l-2.5.54a5.82,5.82,0,0,0,.13-1.26q-.1-3.26-4.05-3.14c-2.08.07-3.09.84-3,2.34,0,1.12,1.23,2,3.58,2.78q6.79,2.1,6.93,6.63A5.35,5.35,0,0,1,167,58.69a7.5,7.5,0,0,1-5,1.76q-6.93.21-7.09-5.16c0-.3,0-.66,0-1.09l2.59-.65a8.32,8.32,0,0,0-.24,2.07c.07,2.32,1.43,3.43,4.08,3.35,2.13-.06,3.16-.93,3.11-2.59,0-1.24-1.34-2.29-3.91-3.15q-5.56-1.86-5.7-6.3a5,5,0,0,1,1.71-4.11,7.31,7.31,0,0,1,4.79-1.68Q167.52,40.94,167.68,46.49Z"/></g></g></svg>