<svg xmlns="http://www.w3.org/2000/svg" viewBox="0 0 328.08 72.25"><defs><style>.cls-1,.cls-2{fill:#d8ab3d;}.cls-2{opacity:0.18;}</style></defs><g id="Calque_2" data-name="Calque 2"><g id="title"><path class="cls-1" d="M2.88,63.58c57.58-10,265-17.61,319-10.61"/><path class="cls-2" d="M10.22,68.11c21.89-3.39,44.08-4.92,66.17-6.4,31.3-2.09,62.65-3.54,94-4.54,29.47-.94,59-1.57,88.45-1.46,23,.09,46.22.23,69.1,3.07a1.59,1.59,0,0,0-.59-.92c-.92-1-1.85-2-2.81-2.89s-1.91-1.9-2.9-2.81a1.56,1.56,0,0,0-.92-.59c-21.54-1.79-43.15-2.4-64.76-2.51-31.2-.14-62.41.52-93.58,1.64-29.82,1.08-59.63,2.51-89.39,4.63-13.91,1-27.81,2.12-41.67,3.63C21.47,60,11.58,60.84,1.74,62.15A1.61,1.61,0,0,0,2.5,63c1.08.83,2.19,1.63,3.31,2.41s2.24,1.57,3.39,2.31A1.61,1.61,0,0,0,10.22,68.11Z"/><path class="cls-2" d="M10.19,72.25c21.93-3.39,44.15-4.88,66.28-6.33,31.31-2.05,62.67-3.48,94-4.47,29.48-.92,59-1.53,88.47-1.4,23,.1,46.25.18,69.1,3.19a2.49,2.49,0,0,0-.83-1.13c-1.21-1.25-2.44-2.47-3.69-3.68s-2.5-2.41-3.78-3.59a2.54,2.54,0,0,0-1.15-.8c-21.48-1.76-43-2.34-64.56-2.43-31.18-.12-62.38.57-93.54,1.73-29.8,1.11-59.59,2.58-89.34,4.77-13.89,1-27.78,2.19-41.63,3.75C19.71,63,9.83,63.77,0,65.05a2.3,2.3,0,0,0,.93,1q2,1.48,4,2.89T9,71.69A2.22,2.22,0,0,0,10.19,72.25Z"/><path class="cls-2" d="M8.92,66.48c21.9-3.32,44.08-4.89,66.17-6.37,31.31-2.11,62.67-3.57,94-4.57,29.48-.94,59-1.57,88.46-1.46,23,.09,46.23.26,69.13,3.05a1.17,1.17,0,0,0-.45-.78c-.74-.81-1.5-1.6-2.28-2.36-.6-.59-2.13-2.64-3.15-2.73-21.52-1.89-43.12-2.48-64.71-2.59-31.19-.17-62.4.49-93.57,1.59-29.8,1.06-59.6,2.47-89.35,4.56-13.9,1-27.79,2.08-41.65,3.56-9.87,1-19.75,1.88-29.59,3.21a1.15,1.15,0,0,0,.6.7c.88.69,1.79,1.35,2.71,2C5.88,64.71,8,66.63,8.92,66.48Z"/><path class="cls-2" d="M8.3,68.64c21.9-3.36,44.1-4.9,66.2-6.38,31.31-2.09,62.67-3.54,94-4.54,29.48-.94,59-1.56,88.48-1.45,23,.09,46.25.24,69.14,3.09a1.44,1.44,0,0,0-.54-.87q-1.28-1.38-2.61-2.7c-.62-.62-2.45-3.06-3.56-3.15-21.51-1.77-43.09-2.36-64.67-2.46-31.18-.14-62.37.53-93.52,1.66-29.79,1.08-59.58,2.51-89.31,4.64-13.89,1-27.77,2.12-41.61,3.63C20.48,61.18,10.61,62,.79,63.34a1.31,1.31,0,0,0,.65.74c1,.74,1.94,1.46,2.93,2.15C5,66.67,7.28,68.79,8.3,68.64Z"/><path class="cls-2" d="M8.49,65.26C30.4,62,52.58,60.38,74.67,58.9c31.31-2.1,62.67-3.56,94-4.57,29.47-.94,59-1.57,88.46-1.45,23,.09,46.24.27,69.14,3a.9.9,0,0,0-.37-.7c-.64-.7-1.29-1.39-2-2s-1.82-2.25-2.76-2.33c-21.51-2-43.1-2.55-64.69-2.67-31.19-.18-62.39.46-93.56,1.55-29.8,1.05-59.6,2.44-89.35,4.5-13.9,1-27.79,2.05-41.65,3.5-9.87,1-19.76,1.89-29.6,3.23a.93.93,0,0,0,.51.64c.78.61,1.57,1.19,2.39,1.75C5.84,63.75,7.59,65.39,8.49,65.26Z"/><path class="cls-2" d="M9.32,70.82c21.91-3.4,44.12-4.9,66.23-6.37,31.31-2.07,62.67-3.51,94-4.5,29.48-.93,59-1.55,88.47-1.42,23,.09,46.26.2,69.13,3.14a2,2,0,0,0-.69-1q-1.58-1.68-3.21-3.31T320,54.12a2,2,0,0,0-1-.7c-21.53-1.67-43.11-2.28-64.7-2.36-31.18-.12-62.38.56-93.54,1.71-29.8,1.1-59.59,2.55-89.32,4.72-13.89,1-27.78,2.16-41.62,3.71C19.93,62.29,10.06,63.11.23,64.4a1.86,1.86,0,0,0,.82.87C2.21,66.15,3.4,67,4.6,67.85S7,69.54,8.23,70.34A1.78,1.78,0,0,0,9.32,70.82Z"/><path class="cls-2" d="M9,64c20.26-3,40.76-4.59,61.19-6,31-2.17,62.14-3.63,93.24-4.7,29.7-1,59.43-1.68,89.15-1.66,24.66,0,49.51.1,74,3,.69.08-1.2-1.79-1.37-2-.7-.71-2-2.56-3.08-2.66-15.27-1.47-30.59-2.18-45.92-2.51-31.66-.68-63.36-.16-95,.73-32.14.9-64.27,2.27-96.36,4.29-13.11.83-26.21,1.77-39.3,2.91C31.4,56.63,17.21,57.93,3.13,59.84a.86.86,0,0,0,.48.62q1.11.87,2.28,1.68C6.46,62.54,8.11,64.08,9,64Z"/><path d="M314.74,28.11a7.45,7.45,0,0,0-4.65-7,5.54,5.54,0,0,0-1.61-.4,5.41,5.41,0,0,0-1.66-.11,8.52,8.52,0,0,0-2,.4,7.89,7.89,0,0,0-3.55,2.67c-.12.15-.2.29-.18.29s0,.06-.08.13a7.75,7.75,0,0,0-1,2.66,3.87,3.87,0,0,1-.17.69c-.06.18-.14.39-.16.49a5,5,0,0,1-.37.6,3,3,0,0,1-1,.91,14.19,14.19,0,0,1-2.19,1.27c-.52.23-3.59,1.2-6.4,2l-2.81.82-1.54.43-1.08.31a8.92,8.92,0,0,1-1.62.39,4.17,4.17,0,0,1-1.45,0,4.46,4.46,0,0,1-1.36-.3c-.28-.12-.71-.27-.94-.34a4.2,4.2,0,0,1-.53-.18c-.15-.07-.16.06,0,1.16a4.81,4.81,0,0,1,0,1.62,1.81,1.81,0,0,1-.32,1,3.57,3.57,0,0,1-.49.58c-.16.12-.26.23-.25.25s2.13-.52,2.26-.59.56-.17,1.17-.33l1.54-.43c.87-.25,1.43-.41,2.26-.63l1.05-.3c.33-.11.37-.12,1.35-.39l1.46-.41,2.58-.74,1.13-.32c.53-.17,4.14-1.23,4.91-1.44a7.11,7.11,0,0,1,4.09.14A7.27,7.27,0,0,1,303,34a14.23,14.23,0,0,0,1.5.91l.47.18a7.38,7.38,0,0,0,2.5.39l.59,0,.58-.1a7.68,7.68,0,0,0,3.49-1.67,7.77,7.77,0,0,0,1.78-2.24c0-.05.1-.22.18-.37a9.42,9.42,0,0,0,.57-2C314.7,28.85,314.73,28.41,314.74,28.11Zm-2.34,2.31a5.27,5.27,0,0,1-.92,1.38,5.69,5.69,0,0,1-6.15,1.44,4.36,4.36,0,0,1-1.26-.68,5.15,5.15,0,0,1-1.78-2.16A5.56,5.56,0,0,1,307,22.45a5.42,5.42,0,0,1,4.81,2.23,5.85,5.85,0,0,1,1.06,2.63,4.91,4.91,0,0,1-.1,1.85A4.44,4.44,0,0,1,312.4,30.42Z"/><path d="M262.49,49.3l-.3.47c1.24,0,2.49-.21,3.73-.23A8,8,0,0,0,262.49,49.3Z"/><path d="M299.69,7.12a8.24,8.24,0,0,0-.08-.85,3.37,3.37,0,0,1-.07-.45A9.44,9.44,0,0,0,299,4.13a8,8,0,0,0-2.31-2.71,7.71,7.71,0,0,0-6.5-1.14,8.4,8.4,0,0,0-2.36,1.21,7.42,7.42,0,0,0-2.43,3.22,10.18,10.18,0,0,0-.47,3.06,7.77,7.77,0,0,0,.3,1.73,12.58,12.58,0,0,1,.4,1.61,3.62,3.62,0,0,1,.08.67c0,.1,0,.32,0,.5a5,5,0,0,1-.23,1.51c-.05.16-.13.39-.18.52a7.91,7.91,0,0,1-.91,1.69c-.44.7-.54.86-1.16,1.77L282.38,19l-.69,1.07c-.42.62-.79,1.18-1.26,1.91s-.54.83-.74,1.12c-.08.1-.42.62-.76,1.15L278,25.64l-.47.71-.5.77c-.33.51-.53.82-1.24,1.88l-.73,1.12-.65,1c-.18.27-.62.92-1,1.45s-.66,1-.69,1.07a3.88,3.88,0,0,0-.28.4l-1.19,1.83-1.32,2c-.34.52-.74,1.14-.86,1.3l-.55.83c-.47.74-.84,1.29-1.26,1.91l-.65,1c-.24.37-.56.87-.72,1.09s-.51.78-.8,1.23c-.5.78-.67,1-1.22,1.85L263,48.54c-.17.27-.34.52-.5.76a8,8,0,0,1,3.43.24,8.47,8.47,0,0,1,1.23.08,2.26,2.26,0,0,0,.22-.28s.22-.27.48-.56a7.15,7.15,0,0,0,.48-.56,3.87,3.87,0,0,1,.32-.39l.38-.44.75-.88.91-1.08.48-.56c.13-.14.38-.44.57-.66l.83-1c.28-.31.65-.75.82-1l.63-.75,1.08-1.27c0-.06.38-.45.74-.87l.9-1.07c.14-.16.35-.41.49-.56.54-.62.62-.75.7-1.28a10.57,10.57,0,0,0,0-2.28c0-.3,0-.63,0-.73s0-.32,0-.49a8.34,8.34,0,0,1,.05-2,7.88,7.88,0,0,1,.54-1.87l.19-.4a1.89,1.89,0,0,1,.18-.34,2.29,2.29,0,0,0,.13-.24,2.48,2.48,0,0,1,.19-.3c.11-.14.4-.58.64-1,.43-.68.85-1.31,1-1.51l1.16-1.72c1.91-2.84,4-5.86,4.65-6.65a5.3,5.3,0,0,1,5.32-2.23,6.29,6.29,0,0,0,1.48,0,7.79,7.79,0,0,0,2.09-.6,8.48,8.48,0,0,0,2.35-1.79c.17-.19.94-1.27.92-1.27s0-.11.12-.24a2.9,2.9,0,0,0,.2-.38c0-.08.15-.4.26-.72a8,8,0,0,0,.41-2C299.71,7.69,299.7,7.41,299.69,7.12Zm-23.63,30a1.35,1.35,0,0,1-.81.54,1.71,1.71,0,0,1-1.37-.19,1.77,1.77,0,0,1-.74-1.62,1.85,1.85,0,0,1,.73-1.1,1.63,1.63,0,0,1,1.44-.25,1.67,1.67,0,0,1,1,1A1.69,1.69,0,0,1,276.06,37.14ZM297.89,7.87a5.37,5.37,0,0,1-.33,1.38c-.08.19-.17.43-.2.53a7.91,7.91,0,0,1-1,1.49,4.72,4.72,0,0,1-1.5,1.12,4.78,4.78,0,0,1-1.76.56,3.39,3.39,0,0,1-1.35,0,4.57,4.57,0,0,1-1.74-.46,5.58,5.58,0,0,1-3.28-4.56,6.13,6.13,0,0,1,.41-2.62,5.61,5.61,0,0,1,5.27-3.49,6,6,0,0,1,3.16,1,5.54,5.54,0,0,1,2.1,3c.06.23.13.46.15.52A11.77,11.77,0,0,1,297.89,7.87Z"/><path d="M267,49.73l.11-.11a8.47,8.47,0,0,0-1.23-.08,4.7,4.7,0,0,1,.89.46Z"/><path d="M266.57,50.31a.92.92,0,0,0,.14-.17l.1-.14a4.7,4.7,0,0,0-.89-.46c-1.24,0-2.49.26-3.73.23-.13.19-.24.37-.35.54Z"/><path d="M259,55,259,55h0l-.22,0,0,.07a4.52,4.52,0,0,0,2.3,1.74l.53-.62.46-.53.57-.67Z"/><path d="M258.68,55.11l-.52.81c-.68,1-.88,1.35-1,1.46s-.35.54-.7,1.08-.7,1-.76,1.12-.09.13-.07.13,0,.09-.11.19-.39.56-.7,1c-.51.8-.69,1.07-1.34,2.05l-.52.8c-.32.51-.73,1.13-.85,1.3s-.36.53-.7,1.06-.75,1.17-.92,1.41l-.47.71-.5.76c-.17.28-.4.64-.52.81a3.17,3.17,0,0,0-.21.34c0,.06.33.09.51,0a1.34,1.34,0,0,0,.69-.52c.43-.52,1.22-1.44,1.35-1.58a.5.5,0,0,0,.14-.17s.36-.43.79-.92l.92-1.08.43-.51.35-.39a4.71,4.71,0,0,1,.36-.44,3.23,3.23,0,0,0,.32-.38s.22-.28.48-.57a7.15,7.15,0,0,0,.48-.56l.48-.55c.26-.29.48-.55.48-.56a1.69,1.69,0,0,1,.25-.31c.34-.38,1.17-1.35,1.35-1.58l.72-.85,1.59-1.86.46-.55A4.52,4.52,0,0,1,258.68,55.11Z"/><path d="M276.1,35.7a1,1,0,0,0-.53-.71,1.24,1.24,0,0,0-.95-.18c-.54.1-.54.1.28,1.22.41.56.76,1,.78,1s.39-.51.45-.76A.93.93,0,0,0,276.1,35.7Z"/><path d="M274.66,36.21a4.66,4.66,0,0,0-.81-1,1.48,1.48,0,0,0-.38,1.33,2,2,0,0,0,.52.71,1.72,1.72,0,0,0,1.15.11,1.05,1.05,0,0,0,.26-.12S275.07,36.76,274.66,36.21Z"/><path d="M271.77,34.46a11.54,11.54,0,0,0-1.2.46l-1.78.79-1.47.64-.52.23-1.55.68-2.62,1.16-1.49.66-4.72,2.07-1.84.81c-1.19.52-1.94.85-2.21,1a1.43,1.43,0,0,1-.31.13,1.25,1.25,0,0,0-.31.13l-2.22,1-2.89,1.28-1.17.51-2.05.91L240,48.39c-4.66,2.06-4.43,2-4.79,2.28a1.45,1.45,0,0,0-.32.37c0,.21.43.17,1.21-.09.43-.15,2.21-.69,3.8-1.16l4.2-1.27,2.37-.72,4-1.19c.63-.2,1.89-.58,2.81-.84l2.77-.84,2.4-.71,2.31-.67,2-.6c2.5-.7,3.17-1,4.09-1.63a5.71,5.71,0,0,0,1.83-2c.07-.13.16-.3.22-.39l.28-.5c.23-.39.47-.76.9-1.4.7-1,1.7-2.51,1.7-2.54S271.79,34.46,271.77,34.46Z"/></g></g></svg>